<?xml version="1.0" encoding="utf-8"?>
<!-- Generator: Adobe Illustrator 26.2.1, SVG Export Plug-In . SVG Version: 6.00 Build 0)  -->
<svg version="1.1" id="a" xmlns="http://www.w3.org/2000/svg" xmlns:xlink="http://www.w3.org/1999/xlink" x="0px" y="0px"
	 viewBox="0 0 11.5 10.1" style="enable-background:new 0 0 11.5 10.1;" xml:space="preserve">
<style type="text/css">
	.st0{display:none;fill:#F0E100;}
	.st1{fill:#2630EA;}
	.st2{fill:#FFFFFF;stroke:#2630EA;stroke-width:0.25;stroke-miterlimit:10;}
</style>
<path class="st0" d="M-0.9,9V-2c0-1.6,1.6-2.7,3-2.2l9.1,3.4c0.9,0.3,1.5,1.2,1.5,2.2V12c0,1.6-1.5,2.7-2.9,2.2l-9.1-3
	C-0.2,10.9-0.9,10.1-0.9,9z"/>
<g>
	<path class="st1" d="M9.6,3.2v5.6c0,0.9-0.8,1.5-1.6,1.2L3.3,8.5c0.3,0,0.5-0.2,0.7-0.4C4.3,7.8,4.6,7.5,5.1,7
		c0.1,0.5,0.1,0.8,0.2,1.1c0,0.2,0.2,0.4,0.4,0.4c0.9,0,1.7,0,2.6,0c0.3,0,0.4-0.1,0.3-0.4C7.8,6.1,7.2,4,6.5,1.9
		C6.4,1.7,6.3,1.6,6,1.6c-0.8,0-1.6,0-2.4,0C3.3,1.6,3.2,1.7,3.3,2c0.3,0.8,0.6,1.7,0.9,2.5c0.2,0.4,0.1,0.6-0.3,0.9
		c-0.6,0.5-1.2,1-1.8,1.5V1.3c0-0.9,0.8-1.5,1.6-1.2l4.4,1.7C7.9,2,7.4,2.5,7.4,2.7c0,0.1,0,0.2,0.1,0.3c0.1,0.4,0.3,0.8,0.4,1.2
		s0.2,0.4,0.6,0.1C8.8,4,9.2,3.6,9.6,3.2L9.6,3.2z"/>
	<g>
		<path class="st2" d="M8.3,8.5c-0.9,0-1.7,0-2.6,0c-0.2,0-0.4-0.1-0.4-0.4C5.2,7.8,5.1,7.5,5.1,7C4.6,7.4,4.3,7.8,4,8.1
			C3.8,8.3,3.6,8.5,3.3,8.5c-0.1,0-0.2,0-0.3,0c-0.7,0-1.4,0-2.1,0c-0.1,0-0.3,0-0.5,0c0.2-0.2,0.3-0.3,0.4-0.4
			c0.5-0.4,1-0.9,1.4-1.3c0.6-0.5,1.2-1,1.8-1.5C4.3,5,4.4,4.8,4.3,4.4C3.9,3.7,3.6,2.8,3.3,2c-0.1-0.3,0-0.4,0.3-0.4
			c0.8,0,1.6,0,2.4,0c0.3,0,0.4,0.1,0.5,0.4c0.7,2.1,1.4,4.2,2,6.2C8.6,8.4,8.5,8.5,8.3,8.5L8.3,8.5z"/>
		<path class="st2" d="M11.5,1.6c-0.1,0.1-0.3,0.3-0.4,0.4c-0.5,0.4-1,0.9-1.5,1.3c-0.4,0.3-0.8,0.6-1.2,1C8.1,4.6,8,4.5,7.8,4.1
			S7.6,3.4,7.4,3c0-0.1-0.1-0.2-0.1-0.3c0-0.2,0.5-0.8,0.9-1c0.1-0.1,0.2-0.1,0.3-0.1c0.9,0,1.5,0,2.4,0C11.2,1.6,11.4,1.6,11.5,1.6
			L11.5,1.6z"/>
	</g>
</g>
</svg>
