<svg xmlns="http://www.w3.org/2000/svg" viewBox="0 0 841.89 595.28"><defs><style>.cls-1{fill:#2630ea;}.cls-2{fill:none;stroke:#00e6bb;stroke-miterlimit:10;stroke-width:3px;}.cls-3{fill:#fff;}</style></defs><g id="Layer_5" data-name="Layer 5"><path class="cls-1" d="M285.2,377.34V158.41c0-32.06,31-54.39,60.28-43.47L527,182.52c17.8,6.63,29.66,24,29.66,43.47V436.87c0,31.31-29.62,53.56-58.63,44.05L316.5,421.39C297.86,415.28,285.2,397.46,285.2,377.34Z"/><path class="cls-2" d="M339.49,410.4V159.75c0-36.7,35.45-62.26,69-49.77l207.85,77.37c20.38,7.59,34,27.49,34,49.78V478.55c0,35.84-33.92,61.32-67.13,50.43L375.33,460.83C354,453.83,339.49,433.44,339.49,410.4Z"/><path d="M451.59,486c-3.57,2.15-6.91,4.26-10.35,6.21a135.33,135.33,0,0,1-61,17.75c-17.4.81-32.21-5.86-44.88-17.45-12.29-11.25-21.08-25-27.84-40.11-2-4.36-1.85-4.37-6.74-4.36l-90,.11c-.59,0-1.19-.05-1.78,0-2,.1-2.8-.72-2.85-2.84-.29-11.82-.73-23.64-1.08-35.47q-1.5-50.43-3-100.85-2.22-72.85-4.46-145.71c-.25-8.19-.33-16.38-.49-24.57-.08-3.84-.08-3.86,3.68-3.85l146.58.44,230,.66c3.38,0,6.76.11,10.14,0,2,0,2.74.78,2.66,2.72-.09,2.37,0,4.74,0,7.1q0,99.78-.07,199.55c0,2.53.76,3.61,3.14,4.51,19.43,7.4,38,16.49,54.41,29.45,10.59,8.36,19.83,17.94,25.6,30.34,9.86,21.21,6.76,40.76-8,58.6-10.38,12.51-23.53,21.53-37.77,29-6,3.17-12.37,5.85-18.65,8.56-1.92.82-2.82,1.61-1.86,3.69a6.55,6.55,0,0,1,.7,2.68c0,.67-.57,1.33-.89,2-.55-.42-1.37-.72-1.59-1.26a47.67,47.67,0,0,1-1.49-4.85q-14.26-51.56-28.51-103.11c-1-3.48-.13-4.23,3.49-3.28,5,1.32,7.75,4.93,9.27,9.56.58,1.76,1.57,2.36,3.22,3,4.93,1.92,9.73,4.19,14.56,6.36a23.12,23.12,0,0,1,2.36,1.47c4.62-5.68,9.69-11,13.66-17,5.66-8.58,10.48-17.71,15.73-26.56,1.1-1.86.71-2.87-1.08-4a219.71,219.71,0,0,0-43.19-21.7c-8.22-3.1-16.57-5.84-25-8.81a12.5,12.5,0,0,0-.68,1.88c-2.32,14.28-12.64,20.35-26.5,15.61a21.38,21.38,0,0,1-13.38-12.65c-1-2.46-2.27-2.75-4.58-2.47a101.45,101.45,0,0,0-62.27,31.08c-9.44,9.75-18,20.36-26.67,30.84-7.58,9.18-15.66,17.72-25.73,24.22a3.83,3.83,0,0,0-1.44,3c2.66,21.77,12.37,39.95,28.34,54.88,1.16,1.1,2.14.93,3.38.23,14.68-8.23,27.61-18.54,38.16-31.74a5.82,5.82,0,0,1,1.33-1.49,1.75,1.75,0,0,1,1.58,0c.33.27.38,1,.34,1.55a1.93,1.93,0,0,1-.66,1.06c-3.28,3-4,6.82-4.56,11-1.84,13.1-7,25.18-12.36,37.15a7.81,7.81,0,0,0-.5,6.05,31.88,31.88,0,0,1,1.43,5.38,9.63,9.63,0,0,1-.53,3.07c-.68-.77-1.74-1.43-2-2.32-2.78-10.19-5.42-20.41-8.11-30.62C452.39,488.54,452,487.35,451.59,486ZM366,256.89l.14-.71c-.47-.34-.93-.69-1.41-1q-30.49-20.52-61-41.1c-1.76-1.2-3.28-1.37-4.7-.15a4.73,4.73,0,0,0-1.28,3.16c-.68,17.23-1.27,34.46-1.86,51.68-.12,3.32,1.59,5.09,4.82,5.79A19.56,19.56,0,0,1,307,277c6.59,4.2,11.66,10,16,16.4,6.72,9.88,10.16,21.17,12.93,32.59,6,24.71,11.52,49.53,17.37,74.27,2.08,8.83,5,17.36,10,25.08,7.33,11.42,17.23,15.31,30.06,11.13,11.43-3.72,20.92-10.75,28.95-19.47,7.49-8.13,14.29-16.9,21.34-25.43,10.17-12.3,21.16-23.71,34.71-32.37,1.34-.86,1.28-1.65.74-2.92-2.19-5.22-4.43-10.42-6.38-15.73-1.14-3.07-2.57-5.32-6.2-5.62a17.16,17.16,0,0,1-4.57-1.47c-8.66-3.33-14.13-9.36-15.49-18.71-1.2-8.3-.38-16.54,1.12-24.71.59-3.26,1.11-5.88-3-7.34-2.32-.83-3.42-3.22-3.07-5.87s2.21-3.86,4.52-4.58a8.92,8.92,0,0,1,2.73-.52c1.85.07,2.6-.68,3-2.53,1.9-9.35,3.93-18.67,6-28,3.36-15.11,12.67-23.9,26.78-24.88A75.1,75.1,0,0,1,525,224.58c10.79,5.59,18.58,13.75,20.56,26.29.29,1.82,1.4,1.77,2.71,1.84q11.26.54,14.93,11.22c2.21,6.45,2.35,13.12,1.94,19.81-.54,8.67-1.64,17.29-.4,26,1.35,9.53,2.29,19.12,3.11,28.71.19,2.22.94,3.12,2.86,3.69,4,1.18,7.9,2.5,11.85,3.75,1.49.48,3,.93,4.74,1.47,0-1.18.13-2,.13-2.84q0-101.55,0-203.11c0-2-.44-2.8-2.64-2.78-8.88.09-17.75,0-26.63,0l-119.46-.35q-118.06-.35-236.12-.71c-2.25,0-2.92.58-2.78,2.85.42,7.08.7,14.17.93,21.26.47,14.19.86,28.39,1.29,42.58q2.53,83.76,5.06,167.52,1,35.1,2,70.2c.06,2.19.55,3,3,3,29.85-.09,59.69-.06,89.53-.07.82,0,1.63-.06,2.73-.11-1-3-1.93-5.67-2.87-8.36-4.19-12-5.81-24.62-8.09-37.07-4.07-22.11-10.43-43.51-20.32-63.78-2.59-5.31-5.26-10.59-7.66-16a10.72,10.72,0,0,1,1.32-11.27,6.83,6.83,0,0,0,1.1-3.7,15.21,15.21,0,0,1,2.74-9.31,6.57,6.57,0,0,0,1-2.26,11.07,11.07,0,0,1,7.49-7.94,4.26,4.26,0,0,0,2.35-2c1.92-4.5,6.15-6.81,9.37-10.06,1.08-1.09,1.88-1.9,1.94-3.48.63-18,1.3-36,1.91-54a3.29,3.29,0,0,0-.84-2.14c-1.19-1.25-2.57-2.32-4.09-3.66L283.39,211c0,3.74,0,7.2,0,10.66,0,3.31-.14,3.47-3.4,3.47-17.83,0-35.67,0-53.51,0-2.35,0-3.35-.74-3.49-3.13-1.19-19.4-2.47-38.79-3.7-58.19-.2-3.19.15-3.52,3.37-3.38,19.16.89,38.33,1.84,57.49,2.66,2.55.11,3.31,1,3.29,3.51-.1,12.77-.05,25.53-.05,38.29v2.71c2-.24,3.77-.36,5.49-.71a2.39,2.39,0,0,0,1.33-1.27c1.84-3.87,4.23-5.38,7.64-4.69s5.12,3.18,5.33,7.52a3.73,3.73,0,0,0,1.51,2.51q29.49,20,59.08,39.8c2.22,1.48,4.3,3.71,7.34,1.61a1.74,1.74,0,0,1,1.24-.09c2.54.64,4-.76,5.5-2.54q32.2-37.84,64.54-75.57c1.06-1.23,1.63-2.22,1-4a6.13,6.13,0,0,1,4.26-7.78c3.3-.93,7.1.93,7.6,4.43.41,2.86,2.08,3.67,4.19,4.63,4.13,1.86,8.2,3.86,12.45,5.88l-1.29,2.77c-4.43-2-8.71-4-13-6-1.7-.8-3.18-1.63-5.06-.08a4.54,4.54,0,0,1-3.62.63c-2.32-.68-3.45.51-4.61,2.06-.61.81-1.31,1.54-2,2.31q-31.7,37.13-63.35,74.26a3.06,3.06,0,0,0-.73,2.56,3.18,3.18,0,0,0,2.47,1.06c5.83.09,11.67.12,17.5,0,2.48-.05,3.39.81,3.51,3.35.72,14.85,1.58,29.7,2.43,44.55.25,4.38.29,4.38-4.16,4.38H385.26c6.45,27,12.8,53.68,19.14,80.32-3.1,1.15-3.46-.65-3.89-2.46q-9-37.73-18-75.45c-.43-1.81-1.13-2.47-3-2.45-9,.1-17.92,0-26.88.08-2.39,0-3.5-.61-3.7-3.2-.5-6.14-1.29-12.27-2-18.4q-1.45-13.49-2.91-27c-.35-3.39-.06-3.69,3.27-3.7s6.59,0,9.89,0Zm68.21,236.35c-17.35-16-27.19-35.15-30.3-57.92-2.72,1.17-5.22,2.34-7.79,3.34-13.74,5.34-25.59,1.82-34.12-10.12-6.47-9.06-9.67-19.47-12.18-30.12-5.63-23.93-11.07-47.9-16.76-71.81-2.34-9.88-5.4-19.57-10.5-28.44a59.28,59.28,0,0,0-15.88-17.89,37.2,37.2,0,0,0-5.55-2.94c-2.58,4.21-.89,6.54,2.22,8.38a2,2,0,0,1,.38.33c4.55,4.1,4.26,13.31-.52,17.18s-12.25.94-14.15-5.66a20.23,20.23,0,0,1,.06-12.48c.75-2.15.26-3.71-1.34-5.45a16.13,16.13,0,0,0-1.89,2.07c-5.61,8.9-7.9,19.58,3.28,28,.14.1.34.18.39.32.27.71.51,1.43.76,2.15-.82,0-1.89.34-2.41-.05-6.16-4.61-10.08-10.42-9.31-18.53.16-1.65.44-3.28.7-5.24a7.14,7.14,0,0,0-4.73,5.5c-.81,3.93.29,7.57,1.92,11,1.25,2.67,2.93,5.13,4.27,7.76.28.55-.13,1.44-.22,2.18a7.25,7.25,0,0,1-1.94-.64,3.72,3.72,0,0,1-1-1.44c-2.07-4.08-4.11-8.17-6.19-12.31a7.21,7.21,0,0,0-.31,1c-.88,4.72.55,9,2.56,13.18.69,1.45,1.64,2.78,2.25,4.25.22.52-.19,1.31-.32,2a5.23,5.23,0,0,1-1.9-.68,7,7,0,0,1-1.37-2.11c-1.16-2.36-2.27-4.75-3.39-7.12l-.86,0c-.16,1.85-.7,3.77-.37,5.53a22.27,22.27,0,0,0,2.34,6.38,250.64,250.64,0,0,1,25.75,74.4c3.05,16.8,6.05,33.55,12.63,49.46,6.69,16.19,15.24,31.12,28.2,43.14,12.68,11.76,27.52,18.32,45.09,17.27A129.7,129.7,0,0,0,417.1,500C422.65,498.06,428.06,495.68,434.17,493.24Zm171.28,10.85a25.78,25.78,0,0,0,2.5-.88c8.33-4.1,16.86-7.85,24.91-12.43,12.12-6.89,23.07-15.36,31.71-26.47,13-16.73,15.07-34.73,5.94-53.9-5.27-11.06-13.46-19.76-22.79-27.47-2.18-1.8-4.47-3.46-6.91-5.34a160,160,0,0,1-30.9,46c1.5,1.92,2.93,3.5,4.07,5.25,5.09,7.81,3.58,16.86-3.78,22.56a27.77,27.77,0,0,1-5.8,3.57c-3.62,1.56-7.39,2.79-11.38,4.26C597.11,474,601.23,488.86,605.45,504.09ZM470.57,224.78a4.59,4.59,0,0,0-.95.42,19.34,19.34,0,0,0-1.49,1.37A28.15,28.15,0,0,0,461,240.33c-2.26,10-4.37,20-6.51,29.95-.86,4-.83,3.92-4.76,4.37-2,.23-4.81-.1-5.16,2.6s2.3,3.82,4.46,4.34c2.47.6,2.6,1.75,2.33,4-1,8-2.35,16.1-2.35,24.15,0,11.94,5.43,18.76,17,21.84,5.89,1.57,12.13,1.94,18.25,2.59,3.32.36,3.73.6,3.19,4-.8,5-3.15,9-7.84,11.48l2.9,7.21a106.75,106.75,0,0,1,42.28-13.54c-.5-7.45-1-14.39-1.4-20.63-4-.58-8.1-.48-11.67-1.82-9.32-3.5-13.41-11.17-14.37-20.62a87.54,87.54,0,0,1,0-12.12c0-.48,1.33-1.26,2.06-1.28,1.67-.07,3.36.41,5,.38,4.41-.07,7.67-2.51,8.54-6.19.75-3.19-1.06-6.6-5.12-8.37-3.22-1.41-6.75-2.1-10.1-3.22a7.28,7.28,0,0,1-3.2-1.74C483.66,255.09,473.46,242.09,470.57,224.78ZM280.41,211.42a2.54,2.54,0,0,0-.72-.2c-7.62,1-15.24,2-22.84,3.13-.59.09-1.28,1-1.53,1.61-1.15,3-3.21,4.45-6.14,4.15a6.64,6.64,0,0,1-5.65-5.08,6.37,6.37,0,0,1,3.19-6.62,6,6,0,0,1,7.49,1.77,2.82,2.82,0,0,0,3.19,1.25c6.85-1,13.71-2,20.59-2.82,2-.24,2.66-.86,2.64-3-.11-12.25-.05-24.51-.06-36.76,0-.83-.07-1.65-.13-2.8l-58.28-2.69c.3,4.39.59,8.32.84,12.26.93,14.51,1.89,29,2.73,43.52.13,2.21.75,3,3.1,3,16.31-.11,32.63-.06,48.94-.07h2.64Zm66.82,48.44a5.34,5.34,0,0,0-.13.93q2.36,21.79,4.71,43.59c.15,1.47.91,1.73,2.2,1.73q22.56,0,45.14,0c1.56,0,2.25-.3,2.14-2.12-.75-12.23-1.38-24.47-2.06-36.7-.14-2.42-.33-4.84-.51-7.45-6.5,0-12.74,0-19,.06a2.38,2.38,0,0,0-1.64,1.16c-2.56,4.51-8,4.72-10.84.39-.42-.63-1.13-1.52-1.73-1.53C359.46,259.82,353.39,259.86,347.23,259.86ZM580.79,415.1c1.86,6.75,3.56,12.93,5.27,19.1q2.78,10,5.57,20c.29,1.07.45,2.34,2.09,1.67,4.51-1.85,9.34-3.18,13.43-5.71,8.14-5,9.42-13.89,3.38-21.33C603.05,419.62,592.56,416.61,580.79,415.1ZM304.24,293.55c-.24-.93-.21-2.53-1-3.41a40.5,40.5,0,0,0-6-5.4c-1.29-1-4.92-.06-5.31,1.1a16.3,16.3,0,0,0,.58,12.33,6.34,6.34,0,0,0,6.36,3.73c2.85-.28,3.93-2.35,4.64-4.7C303.84,296.16,304,295.06,304.24,293.55Z"/><path class="cls-3" d="M434.17,493.24c-6.11,2.44-11.52,4.82-17.07,6.78a129.7,129.7,0,0,1-35.43,7.18c-17.57,1.05-32.41-5.51-45.09-17.27-13-12-21.51-26.95-28.2-43.14-6.58-15.91-9.58-32.66-12.63-49.46A250.64,250.64,0,0,0,270,322.93a22.27,22.27,0,0,1-2.34-6.38c-.33-1.76.21-3.68.37-5.53l.86,0c1.12,2.37,2.23,4.76,3.39,7.12a7,7,0,0,0,1.37,2.11,5.23,5.23,0,0,0,1.9.68c.13-.67.54-1.46.32-2-.61-1.47-1.56-2.8-2.25-4.25-2-4.16-3.44-8.46-2.56-13.18a7.21,7.21,0,0,1,.31-1c2.08,4.14,4.12,8.23,6.19,12.31a3.72,3.72,0,0,0,1,1.44,7.25,7.25,0,0,0,1.94.64c.09-.74.5-1.63.22-2.18-1.34-2.63-3-5.09-4.27-7.76-1.63-3.47-2.73-7.11-1.92-11a7.14,7.14,0,0,1,4.73-5.5c-.26,2-.54,3.59-.7,5.24-.77,8.11,3.15,13.92,9.31,18.53.52.39,1.59.05,2.41.05-.25-.72-.49-1.44-.76-2.15,0-.14-.25-.22-.39-.32-11.18-8.44-8.89-19.12-3.28-28a16.13,16.13,0,0,1,1.89-2.07c1.6,1.74,2.09,3.3,1.34,5.45a20.23,20.23,0,0,0-.06,12.48c1.9,6.6,9.34,9.54,14.15,5.66s5.07-13.08.52-17.18a2,2,0,0,0-.38-.33c-3.11-1.84-4.8-4.17-2.22-8.38a37.2,37.2,0,0,1,5.55,2.94,59.28,59.28,0,0,1,15.88,17.89c5.1,8.87,8.16,18.56,10.5,28.44,5.69,23.91,11.13,47.88,16.76,71.81,2.51,10.65,5.71,21.06,12.18,30.12,8.53,11.94,20.38,15.46,34.12,10.12,2.57-1,5.07-2.17,7.79-3.34C407,458.09,416.82,477.21,434.17,493.24Z"/><path class="cls-3" d="M605.45,504.09c-4.22-15.23-8.34-30.08-12.43-44.82,4-1.47,7.76-2.7,11.38-4.26a27.77,27.77,0,0,0,5.8-3.57c7.36-5.7,8.87-14.75,3.78-22.56-1.14-1.75-2.57-3.33-4.07-5.25a160,160,0,0,0,30.9-46c2.44,1.88,4.73,3.54,6.91,5.34,9.33,7.71,17.52,16.41,22.79,27.47,9.13,19.17,7.09,37.17-5.94,53.9-8.64,11.11-19.59,19.58-31.71,26.47-8.05,4.58-16.58,8.33-24.91,12.43A25.78,25.78,0,0,1,605.45,504.09Z"/><path class="cls-3" d="M470.57,224.78c2.89,17.31,13.09,30.31,23.92,42.93a7.28,7.28,0,0,0,3.2,1.74c3.35,1.12,6.88,1.81,10.1,3.22,4.06,1.77,5.87,5.18,5.12,8.37-.87,3.68-4.13,6.12-8.54,6.19-1.67,0-3.36-.45-5-.38-.73,0-2,.8-2.06,1.28a87.54,87.54,0,0,0,0,12.12c1,9.45,5,17.12,14.37,20.62,3.57,1.34,7.68,1.24,11.67,1.82.43,6.24.9,13.18,1.4,20.63a106.75,106.75,0,0,0-42.28,13.54l-2.9-7.21c4.69-2.47,7-6.47,7.84-11.48.54-3.41.13-3.65-3.19-4-6.12-.65-12.36-1-18.25-2.59-11.55-3.08-17-9.9-17-21.84,0-8.05,1.36-16.12,2.35-24.15.27-2.24.14-3.39-2.33-4-2.16-.52-4.83-1.51-4.46-4.34s3.16-2.37,5.16-2.6c3.93-.45,3.9-.37,4.76-4.37,2.14-10,4.25-20,6.51-29.95a28.15,28.15,0,0,1,7.17-13.76,19.34,19.34,0,0,1,1.49-1.37A4.59,4.59,0,0,1,470.57,224.78Zm-1.47,37.11c.2-2.22-.72-3.24-2.53-3.39-2-.16-3.1,1.56-3.24,4.84a2.58,2.58,0,0,0,2.71,3C467.86,266.42,469,264.62,469.1,261.89Zm-3.75,33.23-.63-1-2.16,1.39c.77.6,1.47,1.57,2.32,1.72,2.64.47,4.76-.82,6.35-2.79.49-.6.3-1.73.42-2.62a12.34,12.34,0,0,0-2.3.73C468,293.34,466.68,294.26,465.35,295.12Zm1.34-50.42c-.56.43-1.21.68-1.37,1.11a1.61,1.61,0,0,0,.37,1.47,53.64,53.64,0,0,0,5.06,2.74,1.29,1.29,0,0,0,1.23-.38c.23-.43.3-1.36,0-1.53C470.35,246.92,468.56,245.87,466.69,244.7Z"/><path class="cls-3" d="M280.41,211.42v10.67h-2.64c-16.31,0-32.63,0-48.94.07-2.35,0-3-.76-3.1-3-.84-14.51-1.8-29-2.73-43.52-.25-3.94-.54-7.87-.84-12.26l58.28,2.69c.06,1.15.13,2,.13,2.8,0,12.25-.05,24.51.06,36.76,0,2.09-.68,2.71-2.64,3-6.88.84-13.74,1.81-20.59,2.82a2.82,2.82,0,0,1-3.19-1.25,6,6,0,0,0-7.49-1.77,6.37,6.37,0,0,0-3.19,6.62,6.64,6.64,0,0,0,5.65,5.08c2.93.3,5-1.17,6.14-4.15.25-.66.94-1.52,1.53-1.61,7.6-1.12,15.22-2.12,22.84-3.13A2.54,2.54,0,0,1,280.41,211.42Zm-42.92-22.21c1.08-.77,1.76-1.26,2.44-1.73,3.76-2.59,7.57-5.11,11.25-7.8.63-.45.76-1.59,1.12-2.41-.83,0-1.86-.25-2.45.14-5.14,3.4-10.22,6.9-15.28,10.43-1.67,1.17-1.52,2.16.34,3.16,1.2.63,2.42,1.21,3.63,1.81,3.71,1.84,7.39,3.74,11.15,5.46.73.34,1.77,0,2.67,0a16.34,16.34,0,0,0-1.59-2.37,5.94,5.94,0,0,0-1.78-1Zm17.39,11.4.9.07a13.34,13.34,0,0,0,1.37-1.67c4-6.95,8-13.9,11.86-20.92.39-.71,0-1.87-.06-2.83-.76.5-1.8.82-2.22,1.52-2.73,4.56-5.33,9.2-8,13.82-1.42,2.49-2.92,4.94-4.18,7.51C254.28,198.75,254.76,199.77,254.88,200.61Z"/><path class="cls-3" d="M347.23,259.86c6.16,0,12.23,0,18.29.07.6,0,1.31.9,1.73,1.53,2.85,4.33,8.28,4.12,10.84-.39a2.38,2.38,0,0,1,1.64-1.16c6.25-.09,12.49-.06,19-.06.18,2.61.37,5,.51,7.45.68,12.23,1.31,24.47,2.06,36.7.11,1.82-.58,2.13-2.14,2.12q-22.57,0-45.14,0c-1.29,0-2.05-.26-2.2-1.73q-2.32-21.79-4.71-43.59A5.34,5.34,0,0,1,347.23,259.86Zm25,32.05c-2.1-2.25-3.74-4.16-5.56-5.87-.6-.56-1.69-.58-2.55-.85.17.87.06,2,.56,2.56,1.94,2.33,4,4.52,6.14,6.72,1.66,1.75,2.43,1.63,3.52-.58,1.82-3.71,3.55-7.45,5.31-11.19,1.52-3.2,3.09-6.37,4.47-9.63.27-.63-.21-1.58-.35-2.38-.66.37-1.52.59-1.93,1.15a19.81,19.81,0,0,0-1.6,3.15Z"/><path class="cls-3" d="M580.79,415.1c11.77,1.51,22.26,4.52,29.74,13.74,6,7.44,4.76,16.31-3.38,21.33-4.09,2.53-8.92,3.86-13.43,5.71-1.64.67-1.8-.6-2.09-1.67q-2.79-10-5.57-20C584.35,428,582.65,421.85,580.79,415.1Z"/><path class="cls-3" d="M304.24,293.55c-.29,1.51-.4,2.61-.72,3.65-.71,2.35-1.79,4.42-4.64,4.7a6.34,6.34,0,0,1-6.36-3.73,16.3,16.3,0,0,1-.58-12.33c.39-1.16,4-2.07,5.31-1.1a40.5,40.5,0,0,1,6,5.4C304,291,304,292.62,304.24,293.55Z"/><path d="M519.69,154.13h23.58c4,0,4,0,4.31,3.92q1.36,20.46,2.65,40.94c.2,3.19-.12,3.52-3.3,3.53-16.3,0-32.61,0-48.92,0-2.33,0-3.24-.71-3.36-3.18-.73-14-1.64-28-2.46-42-.18-3.14-.05-3.24,3.17-3.25Zm27.43,45.37a12.52,12.52,0,0,0,.13-1.48c-.78-13-1.6-26-2.32-39-.11-2-1.11-2.24-2.77-2.24-14.88,0-29.76,0-44.64,0-.81,0-1.61.12-2.61.2.93,14.31,1.84,28.35,2.76,42.46Z"/><path d="M267.75,391c-3.63,0-7.26.07-10.89-.07-.77,0-1.52-.83-2.28-1.28.79-.44,1.58-1.25,2.37-1.26q10.89-.15,21.79,0c.8,0,1.6.8,2.4,1.23-.84.46-1.65,1.28-2.5,1.32C275,391.08,271.38,391,267.75,391Z"/><path d="M266.34,376.1c-3.2,0-6.4.09-9.59-.07-.85,0-1.66-.87-2.49-1.34.78-.44,1.55-1.24,2.34-1.25q9.84-.15,19.69,0c.79,0,1.58.81,2.36,1.24-.82.47-1.62,1.32-2.47,1.36C272.91,376.2,269.62,376.1,266.34,376.1Z"/><path d="M469.1,261.89c-.13,2.73-1.24,4.53-3.06,4.41a2.58,2.58,0,0,1-2.71-3c.14-3.28,1.23-5,3.24-4.84C468.38,258.65,469.3,259.67,469.1,261.89Z"/><path d="M465.35,295.12c1.33-.86,2.63-1.78,4-2.55a12.34,12.34,0,0,1,2.3-.73c-.12.89.07,2-.42,2.62-1.59,2-3.71,3.26-6.35,2.79-.85-.15-1.55-1.12-2.32-1.72l2.16-1.39Z"/><path d="M466.69,244.7c1.87,1.17,3.66,2.22,5.34,3.41.25.17.18,1.1,0,1.53a1.29,1.29,0,0,1-1.23.38,53.64,53.64,0,0,1-5.06-2.74,1.61,1.61,0,0,1-.37-1.47C465.48,245.38,466.13,245.13,466.69,244.7Z"/><path d="M237.49,189.21l11.5,5.7a5.94,5.94,0,0,1,1.78,1,16.34,16.34,0,0,1,1.59,2.37c-.9,0-1.94.38-2.67,0-3.76-1.72-7.44-3.62-11.15-5.46-1.21-.6-2.43-1.18-3.63-1.81-1.86-1-2-2-.34-3.16,5.06-3.53,10.14-7,15.28-10.43.59-.39,1.62-.11,2.45-.14-.36.82-.49,2-1.12,2.41-3.68,2.69-7.49,5.21-11.25,7.8C239.25,188,238.57,188.44,237.49,189.21Z"/><path d="M254.88,200.61c-.12-.84-.6-1.86-.29-2.5,1.26-2.57,2.76-5,4.18-7.51,2.63-4.62,5.23-9.26,8-13.82.42-.7,1.46-1,2.22-1.52,0,1,.45,2.12.06,2.83-3.87,7-7.87,14-11.86,20.92a13.34,13.34,0,0,1-1.37,1.67Z"/><path d="M372.24,291.91l8-16.92a19.81,19.81,0,0,1,1.6-3.15c.41-.56,1.27-.78,1.93-1.15.14.8.62,1.75.35,2.38-1.38,3.26-2.95,6.43-4.47,9.63-1.76,3.74-3.49,7.48-5.31,11.19-1.09,2.21-1.86,2.33-3.52.58-2.1-2.2-4.2-4.39-6.14-6.72-.5-.59-.39-1.69-.56-2.56.86.27,1.95.29,2.55.85C368.5,287.75,370.14,289.66,372.24,291.91Z"/><path class="cls-3" d="M547.12,199.5H497.67c-.92-14.11-1.83-28.15-2.76-42.46,1-.08,1.8-.2,2.61-.2,14.88,0,29.76,0,44.64,0,1.66,0,2.66.21,2.77,2.24.72,13,1.54,26,2.32,39A12.52,12.52,0,0,1,547.12,199.5ZM522,179.14c3.46-3.87,6.69-7.43,9.85-11,.74-.85,2.4-1.78.86-3-.38-.31-2.19.6-2.91,1.35-3.32,3.47-6.49,7.08-9.83,10.77-.69-.59-1.28-1.05-1.83-1.54-2-1.81-4-3.71-6.06-5.37-.69-.54-1.84-.48-2.78-.7a17.91,17.91,0,0,0,1.08,2.72,8.42,8.42,0,0,0,1.64,1.56l6,5.5c-.76.86-1.31,1.49-1.87,2.11-2.2,2.45-4.45,4.86-6.55,7.39-.37.46-.11,1.44-.15,2.18.69-.09,1.54,0,2-.33a19.78,19.78,0,0,0,2.43-2.57l6.25-6.89c3.48,3.15,6.61,6.11,9.9,8.88.7.58,2,.48,3,.7-.39-.89-.55-2-1.2-2.64C528.67,185.15,525.39,182.25,522,179.14Z"/><path d="M522,179.14c3.42,3.11,6.7,6,9.85,9,.65.62.81,1.75,1.2,2.64-1-.22-2.29-.12-3-.7-3.29-2.77-6.42-5.73-9.9-8.88l-6.25,6.89a19.78,19.78,0,0,1-2.43,2.57c-.48.36-1.33.24-2,.33,0-.74-.22-1.72.15-2.18,2.1-2.53,4.35-4.94,6.55-7.39.56-.62,1.11-1.25,1.87-2.11l-6-5.5a8.42,8.42,0,0,1-1.64-1.56,17.91,17.91,0,0,1-1.08-2.72c.94.22,2.09.16,2.78.7,2.11,1.66,4.05,3.56,6.06,5.37.55.49,1.14,1,1.83,1.54,3.34-3.69,6.51-7.3,9.83-10.77.72-.75,2.53-1.66,2.91-1.35,1.54,1.25-.12,2.18-.86,3C528.66,171.71,525.43,175.27,522,179.14Z"/></g></svg>