<svg xmlns="http://www.w3.org/2000/svg" viewBox="0 0 841.89 595.28"><defs><style>.cls-1{fill:#f0e100;}.cls-2{fill:none;stroke:#00e6bb;stroke-miterlimit:10;stroke-width:2px;}.cls-3{fill:#00e6bb;}.cls-4{fill:#fff;}.cls-5{fill:#fb3640;}</style></defs><g id="Layer_2" data-name="Layer 2"><path class="cls-1" d="M285.2,377.34V158.41c0-32.06,31-54.39,60.28-43.47L527,182.52c17.8,6.63,29.66,24,29.66,43.47V436.87c0,31.31-29.62,53.56-58.63,44.05L316.5,421.39C297.86,415.28,285.2,397.46,285.2,377.34Z"/><path class="cls-2" d="M303,366.74V143.41c0-32.71,31.59-55.49,61.5-44.35L549.7,168c18.16,6.76,30.25,24.49,30.25,44.35V427.47c0,31.93-30.22,54.64-59.81,44.93L334.93,411.68C315.91,405.44,303,387.27,303,366.74Z"/><path d="M338.77,260.09c-2.29-.72-4.33-1.37-6.37-2-12.82-3.95-25.8-7.45-38.42-12-28.27-10.11-50.36-28.07-65.76-54-2.21-3.73-4-7.71-6.06-11.55-.86-1.62-.45-2.5,1.19-3.34q34.28-17.48,68.5-35,38.65-19.8,77.32-39.57c3.41-1.74,3.32-1.67,5.47,1.39,4.29,6.11,6.51,13.14,9.11,20,.31.82.6,1.65.94,2.58a7.85,7.85,0,0,0,1.42-.36c6.47-3.05,13.39-4.27,20.42-5.12,7.66-.94,15.31-2,23-2.92a20.63,20.63,0,0,1,6.47.17c5.45,1.13,7.18,6.25,3.52,10.41-1.27,1.44-1.2,2.3-.22,3.81,2.58,4,3.63,8.52,4.21,13.17,1.64,13,3.4,26,4.84,39.09.85,7.76,1.19,15.55-.5,23.31-1.42,6.53-4.88,11.34-11,14.17a4.83,4.83,0,0,0-.59.32,5,5,0,0,0-.46.51,10,10,0,0,0,1.27.25c24.6,1.11,47.64,8,69.66,18.73A127.55,127.55,0,0,1,537,262.32c13.11,11.9,21.33,26.79,26.19,43.63a121.87,121.87,0,0,1,2.13,60.13c-2.18,10.21-5.76,19.89-11.81,28.5-7.42,10.54-17.76,17.31-29.37,22.32A111,111,0,0,1,481.47,426c-1,0-2.05.9-3.07,1.39-2.5,1.21-5,2.45-7.48,3.65l-95.29,45.86c-3.05,1.46-3,1.42-4.63-1.69a204.34,204.34,0,0,1-19.92-57.67,3.91,3.91,0,0,0-1.83-2.45Q317.6,399,308.54,364.73c-8-30.25-2.46-58.36,14.35-84.34,4.34-6.7,9.83-12.66,14.79-19ZM229,188.51a10.33,10.33,0,0,0,.44,1.07c6.73,11,14.39,21.25,24.06,29.86,15.9,14.15,34.77,22.8,54.82,29.09,10.23,3.21,20.59,6,30.86,9.06,1.34.4,2-.06,2.94-.86,5.41-4.74,10.6-9.82,16.42-14,8.22-5.88,16.93-11.07,25.4-16.61.62-.41,1.43-1.35,1.33-1.9q-2.81-15.15-5.9-30.25c-.1-.49-1.06-1-1.7-1.14-1.68-.31-3.47-.19-5.1-.64-5.49-1.5-8.45-7.31-5.86-11.95a14.85,14.85,0,0,1,4.8-4.51c1.2-.81,1.74-1.49,1.39-2.85-.21-.8-.45-1.59-.58-2.41-1.07-6.65-2.51-13.28-3.06-20-.62-7.6,1.56-14.45,8-19.31,1.6-1.21,3.37-2.2,5.41-3.52L375.74,110ZM467.64,421.34l-.1.59c3,.47,5.91,1.2,8.89,1.37,17.94,1,34.83-3,51-10.62,18.26-8.59,29.37-22.92,34.44-42.3a119.15,119.15,0,0,0,2.1-50.45c-2.66-15.84-8.23-30.52-17.61-43.67a4,4,0,0,0-3.29-1.91,29.13,29.13,0,0,0-15.48,3.1c-10.12,5.19-14.67,14.17-16.48,24.89a3.27,3.27,0,0,0,.75,2.2c11.95,15.52,13.47,32.72,7.55,50.75-4.87,14.81-19.18,24.39-34.19,22.78a40.32,40.32,0,0,0-9.18.24c-4.72.57-8,3.57-10.65,7.27a2.9,2.9,0,0,0-.34,2.61,2.79,2.79,0,0,0,2.57.68,27.09,27.09,0,0,0,5.6-2.72,9.77,9.77,0,0,1,7.68-1.64,4.5,4.5,0,0,1,3.67,3.54,4.33,4.33,0,0,1-1.84,4.95,16.7,16.7,0,0,1-5.1,2.25c-3.8.81-7.69,1.24-11.53,1.9a50.29,50.29,0,0,0-7.45,1.57,3.93,3.93,0,0,0-2,2.8c-.07.54,1.5,1.77,2.43,1.87a37.53,37.53,0,0,0,8.27.23c5.14-.54,10.23-1.49,15.36-2.16.7-.1,1.49.45,2.24.7-.52.51-1,1.36-1.59,1.48-8.31,1.63-16.63,3.39-25.19,2.05-1.32-.21-2.79-.35-3.18,1.23s.89,2.51,2.27,2.84a40.87,40.87,0,0,0,6.19,1.06c6.88.52,13.6-.56,20.28-2.14.6-.14,1.37.39,2.07.61-.49.55-.88,1.44-1.47,1.58-7.82,1.94-15.72,3.17-23.83,2.12a11.91,11.91,0,0,0-4.31.4c-1.59.41-1.72,1.68-.76,2.78a4.3,4.3,0,0,0,2.49,1.33c4,.51,8,1.25,12,1.14,5.08-.15,10.12-1.09,15.19-1.58.67-.07,1.4.44,2.1.69-.56.54-1,1.39-1.7,1.57a32.19,32.19,0,0,1-5.09.85C476.2,420.6,471.92,421,467.64,421.34Zm75-149.55a11.28,11.28,0,0,0-1.08-1.5c-4.17-3.88-8.11-8.05-12.57-11.56-15.19-11.93-32.49-19.77-50.81-25.47-13.44-4.18-27.11-7.13-41.26-7.42-1.83,0-3.66,0-5.69,0,.33,3,.59,5.46.87,7.91,1.28,11.5-6.38,20-17.92,19.76-9.79-.24-17.4-5-23.79-12.05-.92-1-1.78-2.08-3-3.53-.09,1.27-.17,1.92-.17,2.57-.07,18.27,7.46,32.4,22.87,42.32,9.2,5.93,19.2,10.21,29.25,14.36,15.22,6.28,30,13.4,43.66,22.67a6.64,6.64,0,0,0,1.13.46c0-2.83,0-5.44,0-8.05-.13-9-.32-18-.41-27a9.18,9.18,0,0,1,.77-2.6,10.88,10.88,0,0,1,2.65.89,8.41,8.41,0,0,1,2.45,2.3c2.22,3.34,5.38,5.42,8.79,7.41,3.65,2.15,6.95,4.88,10.54,7.46C512.8,282.86,523.19,272.33,542.59,271.79ZM449,316.52l-.38-.64a5.91,5.91,0,0,0-1.71-.14c-8,1.68-13.7,5.34-14.44,13.65q-.35,3.81-.86,7.61c-.71,5.47-2.31,10.63-6.37,14.57-13.25,12.84-29,18.86-47.49,16.78-9.1-1-16.42-5.14-20-14.26a6.07,6.07,0,0,0-.65-.9c-1,4.29-2,8.22-2.92,12.13-3.82,15.33-3.38,30.79-1.45,46.3a3.72,3.72,0,0,0,2.69,3.38c19.47,7.55,39,7.35,58.47.19,11.7-4.3,21.85-11.13,31.21-19.26,10.41-9,20.17-18.65,27.23-30.64,4.4-7.45,7.75-15.28,7.67-24.15a51.69,51.69,0,0,0-.54-5.24h-.6c-.33,1.19-.58,2.42-1,3.57-.93,2.44-1.9,4.88-3,7.25-.2.43-1.17.5-1.79.74a9.4,9.4,0,0,1-.16-1.82,4.73,4.73,0,0,1,.58-1.2c2.87-6.28,4.37-12.78,3-19.69a18.62,18.62,0,0,0-1.06-2.89c-.54.4-.64.6-.64.8-.08,6.63-2.76,12.38-6.08,17.89-.35.57-1.36.74-2.06,1.1a7.14,7.14,0,0,1,.18-2.34c.89-2,2.27-3.79,2.88-5.84a64.85,64.85,0,0,0,2.62-11.52c.35-3.27-1.87-5.54-4.95-6,.77,5.75-2,10.48-4.28,15.37a26,26,0,0,1-1.82,3.61c-.26.39-1.09.41-1.67.6-.13-.53-.48-1.1-.36-1.57a14.49,14.49,0,0,1,1-2.23c1.44-3.3,3.07-6.53,4.23-9.93a11.19,11.19,0,0,0-1.41-10.52c-.65-.89-2.44-.95-3.7-1.39a19.75,19.75,0,0,0-.59,3c-.18,3.11.52,6.51-.51,9.28-2.25,6-6.73,10.62-12.07,14.15-3.82,2.51-6.54.95-6.84-3.61a12.11,12.11,0,0,1,.13-2.69c.66-4.06,3-7.12,5.89-9.85C446.66,319,447.78,317.73,449,316.52ZM343.75,259c.24.31.3.47.42.54.66.35,1.33.68,2,1,8.23,4.14,14.5,10.1,17.5,19a54.17,54.17,0,0,1,1.9,24.95c-1.78,12.84-4.23,25.59-6.38,38.39a13.9,13.9,0,0,0-.29,3.33c.82,10.82,7.19,17.72,18,19.28,16.76,2.43,31.16-3,43.94-13.55a21.3,21.3,0,0,0,8-14.85c.32-3.29.75-6.56,1.25-9.82,1.47-9.71,10.28-13.35,16.92-14.27a4.69,4.69,0,0,1,3.76,1.75c.56.85.11,2.73-.47,3.87-.68,1.36-2,2.35-3,3.59a51.62,51.62,0,0,0-4.56,6.32,6,6,0,0,0,.44,6.7c2.37-1.84,4.7-3.41,6.76-5.29,4.95-4.51,8.22-9.69,6.53-16.89-.38-1.62.11-3.45.22-5.56-.33-.16-1.11-.59-1.92-.94-9.37-4-18.78-7.94-28.1-12.07s-18.13-8.61-25.73-15.44a47.7,47.7,0,0,1-14.76-24.22,62.91,62.91,0,0,1-1.25-22.14c.12-1.21,0-2.43,0-4C369.78,237.25,355.9,246.93,343.75,259Zm85.8-22.66c-2.21-.55-4.48-1-6.69-1.67-3.79-1.11-7.37-2.64-9.89-5.87a9.09,9.09,0,0,1-.94-2.38,15.9,15.9,0,0,1,2.39-.87c5.78-1.22,11.65-2.08,17.33-3.66,8.3-2.31,13.51-7.85,14.18-16.62a110.11,110.11,0,0,0,.07-19.3c-1.4-14-3.36-28-5.2-42a24.44,24.44,0,0,0-4.61-11.75c-9.49,5.4-19.42,6.47-29.8,4.65a9,9,0,0,0-3.09-.34,34.27,34.27,0,0,0-12.71,4.93,2.48,2.48,0,0,0-1.11,3,183.87,183.87,0,0,1,4.24,41.79c-.19,12.91-2.65,25.49-5.18,38.07-1.8,9-1.25,10.85,5.27,17.33,6.08,6,13.22,9.89,22.06,9.49C424.09,250.79,430.24,244.05,429.55,236.31ZM355.9,343.12a11,11,0,0,0,.17-1.17,92.56,92.56,0,0,1,4.69-26.74c2.47-7.66,3-15.43,2.64-23.33-.61-14.07-7.15-24.16-20.12-29.95-1.48-.66-2.44-.61-3.47.69C335.2,268.43,330.1,273.9,326,280c-15.76,23.49-22,49.17-16.78,77.29.41,2.16,1,4.29,1.55,6.75C321.78,347.74,336.15,339.65,355.9,343.12ZM474.17,317l-.45.55c.32.34.58.88,1,1a5.42,5.42,0,0,1,3.7,4.2c.51,2,.59,4.13.91,6.19a15.89,15.89,0,0,0,.6,2.54c.79,2.47,2.1,4.87,2.36,7.39,1,9.61-2.46,18.15-7.06,26.29-5.74,10.15-13.42,18.78-21.77,26.8-11.95,11.47-25,21.26-41,26.61-14.52,4.87-29.27,6.3-44.3,3-4.73-1.05-9.37-2.5-14.37-3.86a190.44,190.44,0,0,0,15,47.05l91.06-43.83c-7.91-2.73-9.1-4.87-6-9.59-.53-1.28-1.56-2.53-1.37-3.56a40.67,40.67,0,0,1,2.61-9.46c1.05-2.33,3.82-2.7,6.22-3,3.34-.48,6.71-.74,10-1.4a65.74,65.74,0,0,0,9.26-2.55,2.26,2.26,0,0,0-1.05-4.35,26.77,26.77,0,0,0-5.41,1.72c-2.42.88-4.77,2.33-7.25,2.6-4.24.45-6.16-2.81-3.89-6.41,2.94-4.67,7-8.09,12.65-8.9,3-.42,6.08-.42,9.25-.61a11,11,0,0,0,.13-1.1q-.4-24.64-.86-49.29a2.68,2.68,0,0,0-.85-1.9C480.32,321,477.23,319,474.17,317ZM356.05,346c-.89-.29-1.3-.46-1.73-.55-15.7-3.56-35.33,6.32-41.74,21.1a4.91,4.91,0,0,0,0,3.19,71.53,71.53,0,0,0,28.64,37.86c2.76,1.87,5.71,3.45,8.57,5.16l.72-.31C346.17,389.81,350.55,367.93,356.05,346Zm130.21-55.83a13.33,13.33,0,0,0-.19,1.48c.15,9.75.26,19.5.53,29.25a4,4,0,0,0,1.68,2.59,200.8,200.8,0,0,1,28.77,24.76,20.09,20.09,0,0,0,1.53,1.31C524.7,323.74,513.9,299.69,486.26,290.16Zm.4,35.17c0,1.19,0,1.83,0,2.48q.34,22.62.7,45.23c0,2.89.07,3,2.89,2.72,11.71-1,19.92-7.21,25.3-17.39,2.88-5.45,2.77-5.5-1.5-9.82-.43-.42-.84-.86-1.26-1.28A194.25,194.25,0,0,0,486.66,325.33ZM387.3,145.6l-1-.21c-.69,2-1.83,4-2,6a108.77,108.77,0,0,0,.13,11c.08,3.37.27,6.73.3,10.1,0,2.06-1.13,2.77-3.22,3.14a52.28,52.28,0,0,0-10.25,3,5.16,5.16,0,0,0-3.07,5.54,5.73,5.73,0,0,0,3.94,5.29,18.89,18.89,0,0,0,6.37.85c2-.09,2.8.4,3.16,2.39,1.09,6.05,2.35,12.07,3.56,18.1.48,2.37,1,4.73,1.53,7.09l.59-.08C393,193.73,392.48,169.66,387.3,145.6Z"/><path d="M506.43,202a36,36,0,0,1-36-36.12c0-21.29,14.94-36.17,36.21-36.08a36.12,36.12,0,0,1,35.91,36.31C542.51,186.89,527.22,202.09,506.43,202Zm0-2.42c19.54,0,33.63-14,33.68-33.38a33.63,33.63,0,0,0-33.53-34c-20,0-33.74,13.58-33.79,33.56A33.47,33.47,0,0,0,506.45,199.61Z"/><path class="cls-3" d="M272,281.73c1.72-2.79,3.16-5.22,4.71-7.58a1.82,1.82,0,0,1,1.46-.72c2.64.67,5.25,1.48,8.14,2.32-1.25,2.72-2.26,5-3.4,7.29a1.92,1.92,0,0,1-1.51.95C278.34,283.35,275.33,282.56,272,281.73Z"/><path class="cls-3" d="M471.77,104.52c1.71-2.79,3.16-5.22,4.71-7.59a1.78,1.78,0,0,1,1.46-.71c2.64.66,5.25,1.48,8.13,2.32-1.24,2.71-2.25,5-3.4,7.29-.24.47-1.07,1-1.5.94C478.13,106.14,475.12,105.34,471.77,104.52Z"/><path class="cls-3" d="M546.81,237c1.71-2.78,3.16-5.21,4.71-7.58a1.77,1.77,0,0,1,1.46-.71c2.64.66,5.25,1.48,8.13,2.32-1.24,2.71-2.25,5-3.4,7.29a1.92,1.92,0,0,1-1.5.94C553.16,238.66,550.16,237.86,546.81,237Z"/><path class="cls-3" d="M177.33,381.75c1.72-2.79,3.17-5.22,4.72-7.58a1.79,1.79,0,0,1,1.45-.72c2.65.67,5.26,1.48,8.14,2.32-1.25,2.72-2.25,5-3.4,7.3a1.93,1.93,0,0,1-1.51.94C183.69,383.38,180.68,382.58,177.33,381.75Z"/><path class="cls-3" d="M616.37,246.6c3.7-6.73,6.83-12.6,10.18-18.3.57-1,2.24-2,3.13-1.73,5.71,1.61,11.35,3.57,17.57,5.6-2.69,6.55-4.87,12.16-7.34,17.6-.52,1.14-2.32,2.5-3.25,2.28C630.09,250.52,623.6,248.6,616.37,246.6Z"/><path class="cls-3" d="M338,507.6c-3.71-6.73-6.83-12.6-10.18-18.3-.57-1-2.25-2-3.13-1.73-5.72,1.61-11.35,3.57-17.57,5.6,2.69,6.55,4.86,12.16,7.34,17.6.52,1.14,2.32,2.5,3.25,2.28C324.26,511.52,330.75,509.6,338,507.6Z"/><path class="cls-3" d="M654,363.58c1.72-2.79,3.17-5.22,4.72-7.58a1.79,1.79,0,0,1,1.45-.72c2.65.67,5.26,1.48,8.14,2.32-1.25,2.72-2.26,5-3.4,7.29a1.92,1.92,0,0,1-1.51.95C660.35,365.2,657.34,364.41,654,363.58Z"/><path class="cls-4" d="M229,188.51,375.74,110l6.88,17.71c-2,1.32-3.81,2.31-5.41,3.52-6.43,4.86-8.61,11.71-8,19.31.55,6.7,2,13.33,3.06,20,.13.82.37,1.61.58,2.41.35,1.36-.19,2-1.39,2.85a14.85,14.85,0,0,0-4.8,4.51c-2.59,4.64.37,10.45,5.86,11.95,1.63.45,3.42.33,5.1.64.64.12,1.6.65,1.7,1.14q3.09,15.1,5.9,30.25c.1.55-.71,1.49-1.33,1.9-8.47,5.54-17.18,10.73-25.4,16.61-5.82,4.18-11,9.26-16.42,14-.92.8-1.6,1.26-2.94.86-10.27-3.06-20.63-5.85-30.86-9.06-20-6.29-38.92-14.94-54.82-29.09-9.67-8.61-17.33-18.87-24.06-29.86A10.33,10.33,0,0,1,229,188.51Z"/><path class="cls-4" d="M467.64,421.34c4.28-.38,8.56-.74,12.84-1.17a32.19,32.19,0,0,0,5.09-.85c.66-.18,1.14-1,1.7-1.57-.7-.25-1.43-.76-2.1-.69-5.07.49-10.11,1.43-15.19,1.58-4,.11-8-.63-12-1.14a4.3,4.3,0,0,1-2.49-1.33c-1-1.1-.83-2.37.76-2.78a11.91,11.91,0,0,1,4.31-.4c8.11,1.05,16-.18,23.83-2.12.59-.14,1-1,1.47-1.58-.7-.22-1.47-.75-2.07-.61-6.68,1.58-13.4,2.66-20.28,2.14a40.87,40.87,0,0,1-6.19-1.06c-1.38-.33-2.66-1.23-2.27-2.84s1.86-1.44,3.18-1.23c8.56,1.34,16.88-.42,25.19-2.05.61-.12,1.07-1,1.59-1.48-.75-.25-1.54-.8-2.24-.7-5.13.67-10.22,1.62-15.36,2.16a37.53,37.53,0,0,1-8.27-.23c-.93-.1-2.5-1.33-2.43-1.87a3.93,3.93,0,0,1,2-2.8,50.29,50.29,0,0,1,7.45-1.57c3.84-.66,7.73-1.09,11.53-1.9a16.7,16.7,0,0,0,5.1-2.25,4.33,4.33,0,0,0,1.84-4.95,4.5,4.5,0,0,0-3.67-3.54,9.77,9.77,0,0,0-7.68,1.64,27.09,27.09,0,0,1-5.6,2.72,2.79,2.79,0,0,1-2.57-.68,2.9,2.9,0,0,1,.34-2.61c2.65-3.7,5.93-6.7,10.65-7.27a40.32,40.32,0,0,1,9.18-.24c15,1.61,29.32-8,34.19-22.78,5.92-18,4.4-35.23-7.55-50.75a3.27,3.27,0,0,1-.75-2.2c1.81-10.72,6.36-19.7,16.48-24.89a29.13,29.13,0,0,1,15.48-3.1,4,4,0,0,1,3.29,1.91c9.38,13.15,14.95,27.83,17.61,43.67a119.15,119.15,0,0,1-2.1,50.45c-5.07,19.38-16.18,33.71-34.44,42.3-16.16,7.59-33,11.66-51,10.62-3-.17-5.93-.9-8.89-1.37Z"/><path class="cls-4" d="M542.59,271.79c-19.4.54-29.79,11.07-33.75,28.9-3.59-2.58-6.89-5.31-10.54-7.46-3.41-2-6.57-4.07-8.79-7.41a8.41,8.41,0,0,0-2.45-2.3,10.88,10.88,0,0,0-2.65-.89,9.18,9.18,0,0,0-.77,2.6c.09,9,.28,18,.41,27,0,2.61,0,5.22,0,8.05a6.64,6.64,0,0,1-1.13-.46c-13.67-9.27-28.44-16.39-43.66-22.67-10-4.15-20-8.43-29.25-14.36-15.41-9.92-22.94-24.05-22.87-42.32,0-.65.08-1.3.17-2.57,1.24,1.45,2.1,2.52,3,3.53,6.39,7.06,14,11.81,23.79,12.05,11.54.29,19.2-8.26,17.92-19.76-.28-2.45-.54-4.9-.87-7.91,2,0,3.86,0,5.69,0,14.15.29,27.82,3.24,41.26,7.42,18.32,5.7,35.62,13.54,50.81,25.47,4.46,3.51,8.4,7.68,12.57,11.56A11.28,11.28,0,0,1,542.59,271.79Z"/><path class="cls-4" d="M449,316.52c-1.18,1.21-2.3,2.47-3.54,3.62-2.91,2.73-5.23,5.79-5.89,9.85a12.11,12.11,0,0,0-.13,2.69c.3,4.56,3,6.12,6.84,3.61,5.34-3.53,9.82-8.12,12.07-14.15,1-2.77.33-6.17.51-9.28a19.75,19.75,0,0,1,.59-3c1.26.44,3,.5,3.7,1.39a11.19,11.19,0,0,1,1.41,10.52c-1.16,3.4-2.79,6.63-4.23,9.93a14.49,14.49,0,0,0-1,2.23c-.12.47.23,1,.36,1.57.58-.19,1.41-.21,1.67-.6a26,26,0,0,0,1.82-3.61c2.24-4.89,5-9.62,4.28-15.37,3.08.47,5.3,2.74,4.95,6a64.85,64.85,0,0,1-2.62,11.52c-.61,2.05-2,3.85-2.88,5.84a7.14,7.14,0,0,0-.18,2.34c.7-.36,1.71-.53,2.06-1.1,3.32-5.51,6-11.26,6.08-17.89,0-.2.1-.4.64-.8a18.62,18.62,0,0,1,1.06,2.89c1.33,6.91-.17,13.41-3,19.69a4.73,4.73,0,0,0-.58,1.2,9.4,9.4,0,0,0,.16,1.82c.62-.24,1.59-.31,1.79-.74,1.12-2.37,2.09-4.81,3-7.25.44-1.15.69-2.38,1-3.57h.6a51.69,51.69,0,0,1,.54,5.24c.08,8.87-3.27,16.7-7.67,24.15-7.06,12-16.82,21.6-27.23,30.64-9.36,8.13-19.51,15-31.21,19.26-19.51,7.16-39,7.36-58.47-.19a3.72,3.72,0,0,1-2.69-3.38c-1.93-15.51-2.37-31,1.45-46.3,1-3.91,1.89-7.84,2.92-12.13a6.07,6.07,0,0,1,.65.9c3.54,9.12,10.86,13.23,20,14.26,18.45,2.08,34.24-3.94,47.49-16.78,4.06-3.94,5.66-9.1,6.37-14.57q.51-3.79.86-7.61c.74-8.31,6.4-12,14.44-13.65a5.91,5.91,0,0,1,1.71.14Z"/><path class="cls-4" d="M343.75,259c12.15-12,26-21.72,41.17-30.25,0,1.55.1,2.77,0,4a62.91,62.91,0,0,0,1.25,22.14,47.7,47.7,0,0,0,14.76,24.22c7.6,6.83,16.53,11.37,25.73,15.44s18.73,8.05,28.1,12.07c.81.35,1.59.78,1.92.94-.11,2.11-.6,3.94-.22,5.56,1.69,7.2-1.58,12.38-6.53,16.89-2.06,1.88-4.39,3.45-6.76,5.29a6,6,0,0,1-.44-6.7,51.62,51.62,0,0,1,4.56-6.32c1-1.24,2.32-2.23,3-3.59.58-1.14,1-3,.47-3.87A4.69,4.69,0,0,0,447,313c-6.64.92-15.45,4.56-16.92,14.27-.5,3.26-.93,6.53-1.25,9.82a21.3,21.3,0,0,1-8,14.85c-12.78,10.57-27.18,16-43.94,13.55-10.8-1.56-17.17-8.46-18-19.28a13.9,13.9,0,0,1,.29-3.33c2.15-12.8,4.6-25.55,6.38-38.39a54.17,54.17,0,0,0-1.9-24.95c-3-8.93-9.27-14.89-17.5-19-.67-.34-1.34-.67-2-1C344.05,259.44,344,259.28,343.75,259Zm46.07,63.65.83,1.21c.41-.53,1.07-1,1.18-1.61q1.34-7.62,2.47-15.26c.08-.6-.38-1.28-.58-1.92-.43.49-1.16.93-1.26,1.48C391.54,311.75,390.73,317,389.82,322.62Zm-3.06-13.77.61,0a8.63,8.63,0,0,0,.75-1.75c.59-3.07,1.16-6.16,1.62-9.26.09-.53-.35-1.15-.54-1.72-.43.49-1.11.93-1.23,1.49-.66,3.14-1.23,6.31-1.72,9.48C386.16,307.62,386.58,308.25,386.76,308.85Z"/><path class="cls-4" d="M429.55,236.31c.69,7.74-5.46,14.48-13.68,14.85-8.84.4-16-3.45-22.06-9.49-6.52-6.48-7.07-8.35-5.27-17.33,2.53-12.58,5-25.16,5.18-38.07a183.87,183.87,0,0,0-4.24-41.79,2.48,2.48,0,0,1,1.11-3,34.27,34.27,0,0,1,12.71-4.93,9,9,0,0,1,3.09.34c10.38,1.82,20.31.75,29.8-4.65A24.44,24.44,0,0,1,440.8,144c1.84,14,3.8,27.95,5.2,42a110.11,110.11,0,0,1-.07,19.3c-.67,8.77-5.88,14.31-14.18,16.62-5.68,1.58-11.55,2.44-17.33,3.66a15.9,15.9,0,0,0-2.39.87,9.09,9.09,0,0,0,.94,2.38c2.52,3.23,6.1,4.76,9.89,5.87C425.07,235.29,427.34,235.76,429.55,236.31Zm3.24-57.61c-.87-1.2-1.55-2.65-2.67-3.53a7.22,7.22,0,0,0-3.75-1.29c-1.74-.14-2.25-.95-2.36-2.52a56.06,56.06,0,0,0-.76-6.46c-.12-.68-.92-1.24-1.4-1.86-.3.74-.9,1.49-.85,2.21.16,2.45.73,4.89.79,7.35s1.07,3.66,3.65,3.5a4.68,4.68,0,0,1,2.57.68c.76.45,1.76,1.28,1.78,2a3.52,3.52,0,0,1-1.41,2.48c-.85.63-2.1.69-3.11,1.15a2.2,2.2,0,0,0-1,1.21c-.06.21.53.87.92,1C428.14,185.33,432.32,182.08,432.79,178.7Zm-29.26-11.23c0-3.63-.84-5.11-2.53-5.06s-2.39,1-2.37,2.59c0,2.81.93,4.39,2.62,4C402.23,168.84,403,167.83,403.53,167.47Zm27.78-4.57c0-2.47-.75-3.72-2.54-3.69s-2.42.92-2.38,2.57c.07,2.92.85,4.18,2.66,4.08C430.55,165.78,431.35,165,431.31,162.9Zm-31.78-6.13c1.92-.16,3.42-.2,4.89-.45.51-.09.92-.72,1.37-1.1-.46-.39-.92-1.11-1.39-1.11a26.8,26.8,0,0,0-4.89.45c-.45.08-.77.86-1.15,1.31Zm41.71,31.12c-.47-.55-.7-1.07-1-1.13a1.6,1.6,0,0,0-1.35.36,39.18,39.18,0,0,0-2.76,4.1,1.53,1.53,0,0,0,.15,1.37c.16.25,1,.4,1.15.25C438.72,191.25,440,189.59,441.24,187.89Zm-5.48-41.65c-.43-.65-.56-1.09-.84-1.23-1.45-.74-2.91-1.46-4.42-2-.28-.11-1,.35-1.17.7a1.39,1.39,0,0,0,.43,1.28,26.47,26.47,0,0,0,4.18,2C434.36,147.13,435,146.55,435.76,146.24Z"/><path class="cls-4" d="M355.9,343.12c-19.75-3.47-34.12,4.62-45.15,21-.57-2.46-1.14-4.59-1.55-6.75-5.26-28.12,1-53.8,16.78-77.29,4.12-6.14,9.22-11.61,13.83-17.42,1-1.3,2-1.35,3.47-.69,13,5.79,19.51,15.88,20.12,29.95.33,7.9-.17,15.67-2.64,23.33A92.56,92.56,0,0,0,356.07,342,11,11,0,0,1,355.9,343.12Z"/><path class="cls-4" d="M474.17,317c3.06,2,6.15,4,9.15,6.05a2.68,2.68,0,0,1,.85,1.9q.48,24.64.86,49.29a11,11,0,0,1-.13,1.1c-3.17.19-6.24.19-9.25.61-5.67.81-9.71,4.23-12.65,8.9-2.27,3.6-.35,6.86,3.89,6.41,2.48-.27,4.83-1.72,7.25-2.6a26.77,26.77,0,0,1,5.41-1.72,2.26,2.26,0,0,1,1.05,4.35,65.74,65.74,0,0,1-9.26,2.55c-3.3.66-6.67.92-10,1.4-2.4.34-5.17.71-6.22,3a40.67,40.67,0,0,0-2.61,9.46c-.19,1,.84,2.28,1.37,3.56-3.1,4.72-1.91,6.86,6,9.59l-91.06,43.83a190.44,190.44,0,0,1-15-47.05c5,1.36,9.64,2.81,14.37,3.86,15,3.34,29.78,1.91,44.3-3,15.95-5.35,29-15.14,41-26.61,8.35-8,16-16.65,21.77-26.8,4.6-8.14,8.08-16.68,7.06-26.29-.26-2.52-1.57-4.92-2.36-7.39a15.89,15.89,0,0,1-.6-2.54c-.32-2.06-.4-4.18-.91-6.19a5.42,5.42,0,0,0-3.7-4.2c-.39-.12-.65-.66-1-1Z"/><path class="cls-4" d="M356.05,346c-5.5,21.94-9.88,43.82-5.55,66.45l-.72.31c-2.86-1.71-5.81-3.29-8.57-5.16a71.53,71.53,0,0,1-28.64-37.86,4.91,4.91,0,0,1,0-3.19c6.41-14.78,26-24.66,41.74-21.1C354.75,345.53,355.16,345.7,356.05,346Z"/><path class="cls-4" d="M486.66,325.33a194.25,194.25,0,0,1,26.13,21.94c.42.42.83.86,1.26,1.28,4.27,4.32,4.38,4.37,1.5,9.82-5.38,10.18-13.59,16.38-25.3,17.39-2.82.24-2.85.17-2.89-2.72q-.36-22.62-.7-45.23C486.65,327.16,486.66,326.52,486.66,325.33Z"/><path class="cls-4" d="M387.3,145.6c5.18,24.06,5.65,48.13,0,72.2l-.59.08c-.51-2.36-1.05-4.72-1.53-7.09-1.21-6-2.47-12-3.56-18.1-.36-2-1.17-2.48-3.16-2.39a18.89,18.89,0,0,1-6.37-.85,5.73,5.73,0,0,1-3.94-5.29,5.16,5.16,0,0,1,3.07-5.54,52.28,52.28,0,0,1,10.25-3c2.09-.37,3.24-1.08,3.22-3.14,0-3.37-.22-6.73-.3-10.1a108.77,108.77,0,0,1-.13-11c.16-2.05,1.3-4,2-6Z"/><path class="cls-4" d="M506.45,199.61a33.47,33.47,0,0,1-33.64-33.8c.05-20,13.76-33.6,33.79-33.56a33.63,33.63,0,0,1,33.53,34C540.08,185.66,526,199.62,506.45,199.61Zm-2.3-36.05h0c.19,3.07.44,6.13.54,9.2.05,1.6.62,2.3,2.28,2.27,3.75-.07,7.49,0,11.23-.08.72,0,1.42-.7,2.12-1.08-.74-.43-1.46-1.2-2.23-1.24-2.91-.15-5.84-.15-8.75,0-1.72.08-2.37-.45-2.43-2.23-.21-5.16-.55-10.32-.94-15.48-.05-.64-.74-1.24-1.14-1.86-.39.67-1.12,1.34-1.12,2C503.75,157.88,504,160.72,504.15,163.56Z"/><path d="M389.82,322.62c.91-5.63,1.72-10.87,2.64-16.1.1-.55.83-1,1.26-1.48.2.64.66,1.32.58,1.92q-1.14,7.65-2.47,15.26c-.11.59-.77,1.08-1.18,1.61Z"/><path d="M386.76,308.85c-.18-.6-.6-1.23-.51-1.78.49-3.17,1.06-6.34,1.72-9.48.12-.56.8-1,1.23-1.49.19.57.63,1.19.54,1.72-.46,3.1-1,6.19-1.62,9.26a8.63,8.63,0,0,1-.75,1.75Z"/><path d="M432.79,178.7c-.47,3.38-4.65,6.63-7.65,5.86-.39-.1-1-.76-.92-1a2.2,2.2,0,0,1,1-1.21c1-.46,2.26-.52,3.11-1.15a3.52,3.52,0,0,0,1.41-2.48c0-.69-1-1.52-1.78-2a4.68,4.68,0,0,0-2.57-.68c-2.58.16-3.59-.93-3.65-3.5s-.63-4.9-.79-7.35c-.05-.72.55-1.47.85-2.21.48.62,1.28,1.18,1.4,1.86a56.06,56.06,0,0,1,.76,6.46c.11,1.57.62,2.38,2.36,2.52a7.22,7.22,0,0,1,3.75,1.29C431.24,176.05,431.92,177.5,432.79,178.7Z"/><path d="M403.53,167.47c-.49.36-1.3,1.37-2.28,1.57-1.69.35-2.59-1.23-2.62-4,0-1.63.75-2.55,2.37-2.59S403.54,163.84,403.53,167.47Z"/><path d="M431.31,162.9c0,2.06-.76,2.88-2.26,3-1.81.1-2.59-1.16-2.66-4.08,0-1.65.73-2.54,2.38-2.57S431.3,160.43,431.31,162.9Z"/><path d="M399.53,156.77l-1.17-.9c.38-.45.7-1.23,1.15-1.31a26.8,26.8,0,0,1,4.89-.45c.47,0,.93.72,1.39,1.11-.45.38-.86,1-1.37,1.1C403,156.57,401.45,156.61,399.53,156.77Z"/><path d="M441.24,187.89c-1.29,1.7-2.52,3.36-3.83,5-.13.15-1,0-1.15-.25a1.53,1.53,0,0,1-.15-1.37,39.18,39.18,0,0,1,2.76-4.1,1.6,1.6,0,0,1,1.35-.36C440.54,186.82,440.77,187.34,441.24,187.89Z"/><path d="M435.76,146.24c-.72.31-1.4.89-1.82.74a26.47,26.47,0,0,1-4.18-2,1.39,1.39,0,0,1-.43-1.28c.14-.35.89-.81,1.17-.7,1.51.59,3,1.31,4.42,2C435.2,145.15,435.33,145.59,435.76,146.24Z"/><path d="M504.15,163.56c-.16-2.84-.4-5.68-.42-8.52,0-.67.73-1.34,1.12-2,.4.62,1.09,1.22,1.14,1.86.39,5.16.73,10.32.94,15.48.06,1.78.71,2.31,2.43,2.23,2.91-.12,5.84-.12,8.75,0,.77,0,1.49.81,2.23,1.24-.7.38-1.4,1.06-2.12,1.08-3.74.11-7.48,0-11.23.08-1.66,0-2.23-.67-2.28-2.27-.1-3.07-.35-6.13-.54-9.2Z"/><rect class="cls-5" x="195.29" y="304.18" width="35.74" height="9.33" rx="4.67" transform="translate(199.65 -66.17) rotate(32.55)"/><rect class="cls-5" x="594.49" y="125.17" width="35.74" height="9.33" rx="4.67" transform="translate(1101.66 -260.58) rotate(129.44)"/><rect class="cls-1" x="525.34" y="73.83" width="62.7" height="2.44" rx="1.22" transform="translate(968.33 -307.18) rotate(129.44)"/><rect class="cls-1" x="152.66" y="217.66" width="62.7" height="1.22" rx="0.61" transform="translate(235.67 -62.51) rotate(50.56)"/><rect class="cls-1" x="217.97" y="481.92" width="62.7" height="2.44" rx="1.22" transform="translate(780.82 597.54) rotate(129.44)"/><rect class="cls-1" x="515.46" y="530.02" width="62.7" height="2.44" rx="1.22" transform="translate(609.67 -228.54) rotate(50.56)"/></g></svg>