<svg xmlns="http://www.w3.org/2000/svg" viewBox="0 0 841.89 595.28"><defs><style>.cls-1{fill:#f0e100;}.cls-2{fill:none;stroke:#2630ea;stroke-miterlimit:10;}.cls-3{fill:#2630ea;}.cls-4{fill:#00e6bb;}.cls-5{fill:#fff;}</style></defs><g id="Layer_6" data-name="Layer 6"><path class="cls-1" d="M365.52,347.1V104.36c0-35.55,34.33-60.31,66.84-48.21l201.3,74.94c19.74,7.34,32.89,26.62,32.89,48.2V413.11c0,34.71-32.85,59.39-65,48.84L400.23,396C379.55,389.17,365.52,369.42,365.52,347.1Z"/><path class="cls-2" d="M406.53,347.1V104.36c0-35.55,34.33-60.31,66.84-48.21l201.31,74.94c19.74,7.34,32.88,26.62,32.88,48.2V413.11c0,34.71-32.84,59.39-65,48.84L441.24,396C420.57,389.17,406.53,369.42,406.53,347.1Z"/><path class="cls-3" d="M354.34,139.73H172.72c-26.6,0-45.13,25.69-36.07,50l56.06,150.62A38.33,38.33,0,0,0,228.78,365h175c26,0,44.43-24.58,36.54-48.65L390.89,165.71A38.28,38.28,0,0,0,354.34,139.73Z"/><path class="cls-4" d="M422.42,316.71H604c26.6,0,45.12,25.69,36.07,50L584,517.34A38.3,38.3,0,0,1,548,542H373c-26,0-44.44-24.58-36.54-48.64l49.38-150.62A38.28,38.28,0,0,1,422.42,316.71Z"/><path d="M445.56,275.44c0-5.56.11-10.75,0-15.94q-1.08-45.58-2.26-91.19c-.22-8.52-.47-17-.68-25.56-.06-2.7.08-2.81,2.79-2.81l143.48-.21c3.69,0,3.71.07,3.52,3.81q-1.36,27.48-2.7,55-1.91,38.63-3.84,77.25c-.22,4.47-.6,8.94-.81,13.4-.07,1.57-.68,2.2-2.24,2.17-2.89-.06-5.78,0-8.67,0-1.32,0-1.86.46-1.75,1.77.06.72,0,1.44,0,2.17q0,104.77,0,209.55c0,3.38,0,3.39-3.5,3.46L425.25,511.3l-41.17.84c-3.05.06-3.3-.22-3.44-3.29q-2.25-48.69-4.52-97.39c-.4-8.73-.86-17.45-1.29-26.18-.17-3.45-.16-3.45-3.56-3.4L200.08,384.5c-3.43.05-3.41.05-3.53-3.46q-1.52-46.89-3.05-93.76c-.56-17.76-1-35.52-1.55-53.28a14.87,14.87,0,0,0-.95-3.12,3.75,3.75,0,0,1-.12-1.59c.21-1.13.82-2.24.79-3.35-.3-12.64-.71-25.27-1.07-37.91-.08-2.89.17-3.15,3-3.14q68.39.24,136.76.5,38,.13,76.08.2c4.84,0,9.68.15,14.51.2,3.25,0,3.31.06,3.31,3.25l0,81.7c0,4.7,0,4.7,4.65,4.7Zm35.93,98.88c-2.63-.37-5-.59-7.38-1.08-1.8-.37-3.51-1.22-5.31-1.58-4.9-1-8.27-3.84-9.05-8.43-1.15-6.79,1.64-12.22,6.34-16.9a16.17,16.17,0,0,0,2.62-3.33c2.06-3.59,4.81-6.06,9.12-6.54a4.21,4.21,0,0,0,2.3-1.31c4.1-4.27,8.84-7.49,14.73-8.58a6.56,6.56,0,0,0,3.82-2.09c5.23-5.49,11.38-9.13,19.26-8.85,2.59.09,5.16.62,7.75.75,12.55.62,23.09-4.5,32.55-12.06,3.86-3.08,7-7,10.46-10.63a11.79,11.79,0,0,0,1.2-1.78,8.19,8.19,0,0,0-2.14-.57c-5.63.05-11.26.27-16.88.27q-50.19,0-100.36,0c-4.56,0-4.78-.33-4.52-5,.16-2.85,0-5.72,0-8.59H424.52V288.5q0,44.76,0,89.51c0,2.8-.28,3.09-3.1,3.14-8.6.15-17.2.3-25.79.39a4.93,4.93,0,0,0-3.82,1.55q-5.93,6.18-12.06,12.15a3.75,3.75,0,0,0-1.28,3.2c.65,12.41,1.23,24.82,1.84,37.23a14.54,14.54,0,0,0,.37,1.85c.66-.59,1.11-.93,1.49-1.33l41.07-44.65c2.69-2.92,5.35-5.87,8.13-8.71.46-.47,1.46-.42,2.2-.61a22.75,22.75,0,0,1-.07,2.48c0,.3-.42.57-.66.84l-12.32,13.39q-19.14,20.82-38.3,41.6a5.41,5.41,0,0,0-1.55,4.26c1,20.7,2,41.41,3,62.12a9.64,9.64,0,0,0,.63,2.16,9.41,9.41,0,0,0,2.12-1.23c4.64-4.65,9.23-9.36,13.84-14,1.47-1.49,2.89-3,4.48-4.4.43-.37,1.36-.17,2.07-.23a9.74,9.74,0,0,1,0,2.16c-.1.43-.62.77-1,1.13q-7.2,7.35-14.42,14.69c-.47.47-.89,1-1.64,1.84h2.91q19.51-.41,39-.79,38.9-.76,77.8-1.48a4.33,4.33,0,0,0,3.82-1.82q21.13-27.47,42.41-54.83,6.71-8.65,13.29-17.39a5,5,0,0,0,.94-2.74c0-13.07,0-26.15,0-39.22a14.55,14.55,0,0,0-.24-1.8c-6.64,5.3-14.15,7.93-22,9.37-14,2.55-28.13,3.07-42.28,3.53a7.82,7.82,0,0,0-4.78,1.49c-4.7,3.48-9.51,6.81-14.29,10.19a5.68,5.68,0,0,1-1.87,1c-8.17,1.81-16.35,3.6-24.54,5.3a8.26,8.26,0,0,1-2.75-.44,9.85,9.85,0,0,1,.68-2.78c3.43-5.69,7.15-11.21,10.37-17a24.6,24.6,0,0,1,8.05-8.54,45.15,45.15,0,0,0,4.47-3.42,2.64,2.64,0,0,0,.7-1.91c-.09-2.28-.47-4.55-.5-6.83A34,34,0,0,1,481.49,374.32Zm39-217.38c.12-.82.16-1.17.23-1.52.9-4.58,5-6.22,8.56-3.19a17.14,17.14,0,0,1,4.41,5.54,177.92,177.92,0,0,1,8.07,18.88,591.16,591.16,0,0,1,19.71,73.63c2.34,11.88,3.88,23.93,5.66,35.92.28,1.92.76,2.76,2.87,2.63a92.11,92.11,0,0,1,10,0c2,.1,2.69-.5,2.78-2.6q1-25,2.23-50,2.22-45.22,4.53-90.46c.16-3.16.12-3.16-3-3.16H458.38c-2.16,0-4.32-.17-6.48-.21s-4.43,0-6.75,0c0,1.41,0,2.49,0,3.56q.79,32.93,1.62,65.86.92,36.7,1.87,73.43c.08,3.34.11,3.34,3.4,3.34h14.52c11.85,0,23.7,0,35.55.05,1.8,0,2.54-.51,2.37-2.28a17.55,17.55,0,0,0-.13-1.94c-1.22-5.56-2.2-11.2-3.79-16.66a28.62,28.62,0,0,0-9.41-14.22,108.74,108.74,0,0,1-11.31-11.6,33.26,33.26,0,0,1-4.46-6.9c-4.33-8.41-4.14-16.35,3.08-23.42-3.19-2.38-3.42-5.65-2.53-9a39.45,39.45,0,0,1,3-8.31c2.53-4.78,6.35-8.38,12.11-8,3.43.21,6.79,1.66,10.17,2.59a14.15,14.15,0,0,1,2,.94c-1.28-4.05-2.6-7.64-3.53-11.33-1.26-5-2.39-10.1-3.23-15.21a5.13,5.13,0,0,1,3.17-5.84c2.64-1.17,4.77-.15,6.71,1.58.73.65,1.36,1.4,2.28,2.37.06-3.53-.23-6.93,3.61-8.31S518.11,154.17,520.51,156.94ZM194.22,228.22c9.63-.45,18.49-1,27.37-1.25,20.39-.66,40.75-.25,60.85,3.69,10.24,2,20.23,4.84,29,10.81a3.62,3.62,0,0,0,2.59.13c5.51-1.44,10.94-3.29,16.5-4.43,13.47-2.76,27.15-3.87,40.87-4.46,3.15-.14,6.3-.34,9.58-.52-.06-.89-.1-1.6-.16-2.31-.23-2.48,0-2.83,2.49-2.83,8.81,0,17.62,0,26.44.07h11.89V188.27H419c-12.79,0-25.57.12-38.36.08q-92.44-.25-184.88-.62c-2,0-2.4.67-2.33,2.5q.48,12.89.76,25.77C194.29,220,194.22,224.06,194.22,228.22ZM352,307.38c.31,1.76.5,2.75.65,3.74,1,6.87-2.46,12.24-9.26,13.64a4.48,4.48,0,0,0-3.89,3.28,9,9,0,0,1-4.16,4.08,16,16,0,0,1-5.87,1.24c-1.29.11-1.86.43-2.16,1.74a7.08,7.08,0,0,1-5.62,5.69c-2.58.57-5.29.56-7.92.93a3.2,3.2,0,0,0-2,1,13,13,0,0,1-10.07,6c-6.48.65-11.61-2.13-16.07-6.55a3.69,3.69,0,0,0-2.26-1.27,14.12,14.12,0,0,0-4.61,1.09c-8.18,3.47-14.51,1.35-18.86-6.37a12.51,12.51,0,0,0-1.83-2q-2.72-3-5.42-6.06c-.56-.62-1-1.51-1.67-1.84-3.77-1.83-6.19-4.86-8-8.49a5.31,5.31,0,0,0-1.59-1.92c-2.64-1.84-4.82-4.16-5.6-7.22s-2.6-3.73-5.22-4.15c-10.64-1.72-21.32-1.21-32-.74-1.86.08-1.57,1.25-1.54,2.39.36,11.7.75,23.39,1.07,35.09q.39,14.39.66,28.79c.08,4.1,0,8.2,0,12.53,2,0,3.33,0,4.68,0q51.68-.84,103.36-1.69c21.74-.38,43.47-.9,65.21-1.27,2.14,0,2.66-.72,2.52-2.77-.31-4.39-.32-8.8-.52-13.2-.81-17.24-1.67-34.48-2.47-51.72-.27-5.92-.23-6-6.22-5.48C360.88,306.22,356.54,306.84,352,307.38Zm-64.45,32.38-.21.69a53.05,53.05,0,0,0,5.36,3.79c4.7,2.53,9.52,2.93,14.17-.16,3.27-2.19,4.39-5.52,2.76-9.08a49.53,49.53,0,0,0-4.94-8.6c-5.76-7.94-12.9-14.59-20.34-20.93-.55-.46-.62-1.5-.91-2.27.82.12,1.88-.05,2.41.41,7.93,6.65,15.56,13.64,21.47,22.21a42.53,42.53,0,0,1,5,9.76c1.31,3.74,1,3.87,5.09,3.44a20.9,20.9,0,0,0,2.35-.38c4-.87,6-3.4,5.06-7.39a34,34,0,0,0-3.38-8.83c-4.91-8.79-11.57-16.19-19-22.88-1.45-1.3-3-2.45-4.45-3.79-.46-.45-.53-1.29-.78-2,.76,0,1.54,0,2.3.09.24,0,.46.32.68.51,11.78,10.09,22.43,21.05,27.56,36.49a41.16,41.16,0,0,0,4.55-.42c4-.76,5.88-3.3,5.24-7.32a22.33,22.33,0,0,0-2-6.37c-6.1-12.17-15.24-21.65-26.31-29.39a14.48,14.48,0,0,1-2.31-1.58,1.93,1.93,0,0,1-.25-1.67c.07-.23,1-.35,1.48-.27a4,4,0,0,1,1.31.75,84.31,84.31,0,0,1,19.35,17.53c4.45,5.36,8.46,11,10.55,17.77.91,2.93,1,3,4,2.26a8.58,8.58,0,0,0,1.63-.59c4.14-2,5.89-6,4.8-11.16-1.17-5.47-4.3-9.92-7.77-14.1-10-12-21.57-21.89-35.84-28.41a3.41,3.41,0,0,0-2.68.33c-6.34,3.76-12.67,7.53-19.92,9.36a12.93,12.93,0,0,1-9.1-.54c-3.18-1.52-4.24-4.5-2.45-7.54a21,21,0,0,1,3.33-4.24c6.07-6,13.3-10.4,20.57-14.7,4.33-2.56,8.82-4.83,13.32-7.27-.37-.28-.73-.62-1.15-.88A68.63,68.63,0,0,0,287,234.27c-21-4.85-42.38-5.18-63.79-4.85-1.3,0-1.78.57-2,1.75-.38,2.42-.89,4.82-1.24,7.25A153.89,153.89,0,0,0,223.05,298c.42,1.68,1,2.51,3,2.69,4.82.43,9.6,1.24,13.89,3.8a2.5,2.5,0,0,0,1.92-.26c3.81-1.91,7.54-4,11.38-5.82,3.18-1.55,6.43-3,10.15-2.51,5.48.75,7.34,3.54,5.88,8.83,0,.11.07.27.13.49a10.62,10.62,0,0,1,3.06,1.38,14.06,14.06,0,0,1,3.6,4.31,3.58,3.58,0,0,0,2.1,2.33c2.38.92,4.59,2.3,4.91,5,.23,2,1.17,2.75,2.85,3.41,2.95,1.18,5.32,3.27,4.74,6.67-.41,2.41.48,3.82,1.88,5.31.59.64,1.17,1.29,1.7,2,1.38,1.76,1.15,2.42-1,2.92C291.28,339,289.4,339.35,287.52,339.76ZM565,288.65c-.26-2.49-.45-4.77-.75-7a477.93,477.93,0,0,0-10.05-52.1c-5.15-20.75-10.6-41.43-18.4-61.38-1.79-4.58-4.64-8.76-7.17-13a2.89,2.89,0,0,0-3.71-1.46c-1.66.7-1.75,2.29-1.57,3.7a49,49,0,0,0,1.51,8.29c3,10,6.29,19.82,9.37,29.75.23.75-.26,1.72-.41,2.58-.61-.57-1.54-1-1.77-1.72-2.83-8.42-5.46-16.91-8.36-25.31a116.06,116.06,0,0,0-4.83-11.33,9,9,0,0,0-2.72-3.29,2.82,2.82,0,0,0-4.78,2.13,12.71,12.71,0,0,0,.44,4.71q3.15,11.26,6.55,22.45c1.24,4.08,2.74,8.07,4,12.15.19.61-.3,1.44-.48,2.18-.61-.48-1.22-.94-1.81-1.43-.1-.08-.11-.27-.15-.4-1.48-4.46-3-8.92-4.44-13.37-2.34-7-4.08-14.19-8.26-20.41a16.75,16.75,0,0,0-3.38-3.87,3.54,3.54,0,0,0-3.12-.46,3.48,3.48,0,0,0-1.56,2.73,26.44,26.44,0,0,0,1,7c3.14,10.36,6.46,20.67,9.71,31a6.26,6.26,0,0,1,.52,1.86c0,.54-.48,1-.74,1.57-.51-.3-1.28-.48-1.47-.92a42.16,42.16,0,0,1-1.65-4.7,12.09,12.09,0,0,0-6.74-7.51,31.93,31.93,0,0,0-7.21-2.17A8.43,8.43,0,0,0,485,191a19.76,19.76,0,0,0-6.65,15.2,4.09,4.09,0,0,0,2.09,3.1,4.58,4.58,0,0,0,3.7-.8c1-.75,1.62-2.16,2.28-3.35,3-5.46,9.33-6.27,12.94-1.25,4.71,6.56,5.73,14.07,4,21.89a6.51,6.51,0,0,1-4.9,5c-5.64,1.53-12.75-3.5-13.37-9.31a15.78,15.78,0,0,0-1.33-5c-1.6-3.39-3.57-3.47-5.71-.44-3.68,5.23-3.39,10.71-.9,16.26a48.61,48.61,0,0,0,14.67,18.23A33.75,33.75,0,0,1,504,269.69c1.33,5.46,2.2,11,3,16.6.27,1.85.68,2.55,2.7,2.54,17.63-.08,35.26,0,52.89-.05C563.29,288.78,564,288.7,565,288.65ZM381.51,234.91c-.94,0-1.58,0-2.21,0-13.81,1.18-27.65,2-41.41,3.63-22.44,2.59-41.64,12.68-58.92,26.78a25.92,25.92,0,0,0-4.68,5.33c-1.25,1.82-.72,3.5,1.39,4.12a14,14,0,0,0,6.29.59c7.71-1.54,14.36-5.57,20.87-9.76a3.68,3.68,0,0,1,4.32-.15c6.58,3.61,13.17,7.23,19.92,10.5s13.33,6.66,20.86,7.65c.52.07.94.83,1.41,1.27-.57.38-1.23,1.17-1.72,1.08a60.61,60.61,0,0,1-7.77-1.87c-3.08-1-6.07-2.31-9.1-3.48a2.78,2.78,0,0,0,.88,1.36c7.22,6.6,14.06,13.51,18.69,22.3a2.2,2.2,0,0,0,1.87.69c2.14-.29,4.24-1,6.38-1.15,8.72-.48,17.45-.79,26.18-1.16.9,0,1.8,0,2.92,0C385.6,279.88,383.57,257.54,381.51,234.91Zm-7.37,70.41c0,1.17,0,1.95,0,2.72q.38,8.34.77,16.67c.86,17.31,1.76,34.61,2.55,51.92.09,1.83.7,2.29,2.45,2.25q19.71-.44,39.43-.7c1.81,0,2.3-.63,2.29-2.4q-.08-30.54,0-61.1c0-1.9-.52-2.47-2.44-2.46-8.38.07-16.75,0-25.13,0-5.44,0-5.42,0-6.16-5.35-.08-.54-.7-1.44-1.09-1.45C382.67,305.28,378.5,305.32,374.14,305.32ZM569.84,297l-.56-.29c-.29.41-.56.84-.88,1.22A68.52,68.52,0,0,1,554,310.67c-10.36,6.71-21.48,10.12-34,7.8a18.09,18.09,0,0,0-13.43,3c-9.52,6.23-14.41,15.53-16.79,26.32q-2.52,11.43-4.69,22.91a77.8,77.8,0,0,0-1.42,11.15c-.19,4.22,2.36,5.58,6,3.52a9.23,9.23,0,0,0,1.41-1c6.5-5.3,9.92-12.44,12-20.34,1.25-4.67,2.19-9.44,3.72-14,2.44-7.32,8.36-10.18,15.81-8.12A18.37,18.37,0,0,1,533,348.79a16.31,16.31,0,0,0,1.4-.86c6.66-5,13.26-10,20-14.9,4.56-3.31,8.76-7.67,15.44-6ZM516,506.31a12.46,12.46,0,0,0,1.61.23q24.69-.35,49.37-.71c3-.05,3-.08,3-2.94q-.09-18.74-.18-37.46c0-8.74,0-17.47,0-26.21,0-.74-.09-1.48-.14-2.22l-.5-.12C551.51,459.93,533.88,483,516,506.31Zm53.82-152.46c-1.76,1.23-3.17,2.19-4.56,3.18-6.47,4.6-13.22,8.87-19.3,13.94a32.76,32.76,0,0,1-13,6.45c-3.42.91-6.92,1.49-10.32,2.44-6.8,1.9-13.6,3.8-20.3,6a10.42,10.42,0,0,0-6.83,6.78c-1,3-.2,4.75,2.85,5.58a14,14,0,0,0,3.83.64c5.84-.08,11.68-.2,17.51-.47,10.31-.48,20.63-1.07,30.72-3.44,6.66-1.55,13.12-3.65,18.14-8.62a5,5,0,0,0,1.33-3.16c.1-9,.06-18.05.06-27.07C570,355.54,569.93,355,569.86,353.85ZM221.1,300.2A156.24,156.24,0,0,1,219,230a5.67,5.67,0,0,0-1-.23c-7.28.4-14.56.83-21.85,1.19-1.7.08-1.49,1.16-1.46,2.25q1,32.37,1.94,64.74c0,.82.17,1.65.24,2.3ZM499,401.18l-2-.74c-3.69-1.38-5.11-4.08-4-7.89.78-2.79,2.13-5.44,4.73-6.75a76,76,0,0,1,12.86-5.48c7.68-2.23,15.58-3.71,23.31-5.78a25.33,25.33,0,0,0,7.36-3.47c6.15-4.17,12.13-8.6,18.18-12.92l8.53-6.1-12.12-17c-.9.64-1.54,1.09-2.17,1.56q-24.88,18.62-49.75,37.27a25.65,25.65,0,0,0-3.91,4.2c-1.8,2.15-3.33,4.57-5.31,6.53-2.63,2.62-5.58,4.91-9.76,3.95a1.12,1.12,0,0,0-.82.15c-3.34,2.45-6.67,4.93-10.08,7.46l10.8,15.09Zm-4.34-71.39c-6.32-.06-15.84,9-18.38,17A20.38,20.38,0,0,0,483,369c.27-1.13.56-2.15.77-3.2,1.22-6.15,2.39-12.32,3.64-18.46A50.73,50.73,0,0,1,494.7,329.79ZM484.23,212.62c2.22,2.26,3.21,5.49,3.58,9,.4,3.92,5.94,7.76,9.68,6.51a5.39,5.39,0,0,0,3.19-3.08,23.9,23.9,0,0,0-3.14-19.27c-2.55-3.91-6.66-3.35-9,.7A74.12,74.12,0,0,1,484.23,212.62Zm20.49,156.6.37.33,25.63-19.2c-3.89-4.75-8.55-6.78-14.18-6.06-4.77.6-6.53,4.45-7.67,8.41C507.3,358.15,506.08,363.71,504.72,369.22ZM238.23,306.61a10.47,10.47,0,0,0,12.45,7.88c6.36-1.22,11.33-4.81,15.44-9.68a6.27,6.27,0,0,0,.82-1.27c1-2.1.52-3.62-1.6-4.59a8.66,8.66,0,0,0-7.55.2c-5,2.37-10,4.82-14.9,7.41C241.26,307.42,239.88,308.34,238.23,306.61Zm8.26,11.22a9.66,9.66,0,0,0,9.06,6.05c7.54-.28,13.1-4.38,17.59-10.06,1.15-1.47.83-3.13-.76-4.39-2.33-1.83-4.66-2.1-6.16-1-3,2.28-6,4.85-9.37,6.47C253.65,316.46,249.94,316.91,246.49,317.83Zm8.91,8.71a9.47,9.47,0,0,0,8.45,6.13c5.76.31,14.81-5.83,16.67-11.31a5,5,0,0,0,.2-.62c.49-2.1-.52-3.62-2.84-5-2-1.16-3-.36-4,1.25a5.86,5.86,0,0,1-1.18,1.26C267.77,322.72,262.34,326.2,255.4,326.54Zm7.42,8.7a14.44,14.44,0,0,0,1,1.67,10.18,10.18,0,0,0,12.43,3.2,23.47,23.47,0,0,0,10.69-8.49,8,8,0,0,0,1.26-3.38c.27-2.09-1.31-3.63-4-4.72-2.05-.83-2.2.91-3,1.85-.27.33-.52.69-.81,1C275.73,331.48,270.42,335.32,262.82,335.24Zm306.65,14.57c.3-.47.43-.59.43-.7,0-6.06.08-12.13,0-18.18,0-.58-1-1.5-1.69-1.63-3.91-.76-6.72,1.57-9.53,3.74a1.51,1.51,0,0,0-.06,1.44C562.14,339.55,565.74,344.58,569.47,349.81Zm-92.66-10-.7-.56c-1.32,1.14-3,2-3.85,3.45a25.11,25.11,0,0,0-3,7.54c-1.2,6.26-.65,12.39,3,17.87,2.08,3.13,5.15,4,8.34,2.55C471.62,361.39,470.46,351.08,476.81,339.84Zm5,72-9.34-13.15a24.24,24.24,0,0,1-1.62,2.49c-1.42,1.6-1.11,3,.18,4.53s2.14,2.89,3.19,4.36c2.52,3.53,2.52,3.53,6.65,2.22C481,412.21,481.23,412.1,481.78,411.83Zm-12.21-43.18c-3.27-5.7-3.51-11.85-3.35-18.11-2.71,3.38-4.47,7-4.1,11.34C462.43,365.6,465.42,368.39,469.57,368.65ZM378.2,391.07l10.17-9.25c-3.14,0-6.08-.07-9,.05-.53,0-1.48.81-1.48,1.23C377.88,386,378.09,389,378.2,391.07Z"/><path class="cls-5" d="M287.52,339.76c1.88-.41,3.76-.81,5.64-1.24,2.19-.5,2.42-1.16,1-2.92-.53-.68-1.11-1.33-1.7-2-1.4-1.49-2.29-2.9-1.88-5.31.58-3.4-1.79-5.49-4.74-6.67-1.68-.66-2.62-1.41-2.85-3.41-.32-2.71-2.53-4.09-4.91-5a3.58,3.58,0,0,1-2.1-2.33,14.06,14.06,0,0,0-3.6-4.31,10.62,10.62,0,0,0-3.06-1.38c-.06-.22-.16-.38-.13-.49,1.46-5.29-.4-8.08-5.88-8.83-3.72-.51-7,1-10.15,2.51-3.84,1.86-7.57,3.91-11.38,5.82a2.5,2.5,0,0,1-1.92.26c-4.29-2.56-9.07-3.37-13.89-3.8-1.92-.18-2.54-1-3-2.69A153.89,153.89,0,0,1,220,238.42c.35-2.43.86-4.83,1.24-7.25.19-1.18.67-1.73,2-1.75,21.41-.33,42.78,0,63.79,4.85a68.63,68.63,0,0,1,21.13,8.16c.42.26.78.6,1.15.88-4.5,2.44-9,4.71-13.32,7.27-7.27,4.3-14.5,8.72-20.57,14.7a21,21,0,0,0-3.33,4.24c-1.79,3-.73,6,2.45,7.54a12.93,12.93,0,0,0,9.1.54c7.25-1.83,13.58-5.6,19.92-9.36a3.41,3.41,0,0,1,2.68-.33c14.27,6.52,25.88,16.45,35.84,28.41,3.47,4.18,6.6,8.63,7.77,14.1,1.09,5.14-.66,9.18-4.8,11.16a8.58,8.58,0,0,1-1.63.59c-3,.77-3.13.67-4-2.26-2.09-6.76-6.1-12.41-10.55-17.77a84.31,84.31,0,0,0-19.35-17.53,4,4,0,0,0-1.31-.75c-.49-.08-1.41,0-1.48.27a1.93,1.93,0,0,0,.25,1.67,14.48,14.48,0,0,0,2.31,1.58c11.07,7.74,20.21,17.22,26.31,29.39a22.33,22.33,0,0,1,2,6.37c.64,4-1.25,6.56-5.24,7.32a41.16,41.16,0,0,1-4.55.42c-5.13-15.44-15.78-26.4-27.56-36.49-.22-.19-.44-.48-.68-.51-.76-.08-1.54-.07-2.3-.09.25.67.32,1.51.78,2,1.41,1.34,3,2.49,4.45,3.79,7.47,6.69,14.13,14.09,19,22.88a34,34,0,0,1,3.38,8.83c.92,4-1.06,6.52-5.06,7.39a20.9,20.9,0,0,1-2.35.38c-4.11.43-3.78.3-5.09-3.44a42.53,42.53,0,0,0-5-9.76c-5.91-8.57-13.54-15.56-21.47-22.21-.53-.46-1.59-.29-2.41-.41.29.77.36,1.81.91,2.27,7.44,6.34,14.58,13,20.34,20.93a49.53,49.53,0,0,1,4.94,8.6c1.63,3.56.51,6.89-2.76,9.08-4.65,3.09-9.47,2.69-14.17.16a53.05,53.05,0,0,1-5.36-3.79Z"/><path class="cls-5" d="M565,288.65c-1,.05-1.66.13-2.35.13-17.63,0-35.26,0-52.89.05-2,0-2.43-.69-2.7-2.54-.82-5.56-1.69-11.14-3-16.6a33.75,33.75,0,0,0-12.23-19.13,48.61,48.61,0,0,1-14.67-18.23c-2.49-5.55-2.78-11,.9-16.26,2.14-3,4.11-2.95,5.71.44a15.78,15.78,0,0,1,1.33,5c.62,5.81,7.73,10.84,13.37,9.31a6.51,6.51,0,0,0,4.9-5c1.77-7.82.75-15.33-4-21.89-3.61-5-9.95-4.21-12.94,1.25-.66,1.19-1.25,2.6-2.28,3.35a4.58,4.58,0,0,1-3.7.8,4.09,4.09,0,0,1-2.09-3.1A19.76,19.76,0,0,1,485,191a8.43,8.43,0,0,1,7.48-2.08,31.93,31.93,0,0,1,7.21,2.17,12.09,12.09,0,0,1,6.74,7.51,42.16,42.16,0,0,0,1.65,4.7c.19.44,1,.62,1.47.92.26-.52.72-1,.74-1.57a6.26,6.26,0,0,0-.52-1.86c-3.25-10.33-6.57-20.64-9.71-31a26.44,26.44,0,0,1-1-7,3.48,3.48,0,0,1,1.56-2.73,3.54,3.54,0,0,1,3.12.46,16.75,16.75,0,0,1,3.38,3.87c4.18,6.22,5.92,13.44,8.26,20.41,1.49,4.45,3,8.91,4.44,13.37,0,.13,0,.32.15.4.59.49,1.2.95,1.81,1.43.18-.74.67-1.57.48-2.18-1.25-4.08-2.75-8.07-4-12.15q-3.39-11.19-6.55-22.45a12.71,12.71,0,0,1-.44-4.71,2.82,2.82,0,0,1,4.78-2.13,9,9,0,0,1,2.72,3.29,116.06,116.06,0,0,1,4.83,11.33c2.9,8.4,5.53,16.89,8.36,25.31.23.69,1.16,1.15,1.77,1.72.15-.86.64-1.83.41-2.58-3.08-9.93-6.34-19.8-9.37-29.75a49,49,0,0,1-1.51-8.29c-.18-1.41-.09-3,1.57-3.7a2.89,2.89,0,0,1,3.71,1.46c2.53,4.27,5.38,8.45,7.17,13,7.8,20,13.25,40.63,18.4,61.38a477.93,477.93,0,0,1,10.05,52.1C564.5,283.88,564.69,286.16,565,288.65Zm-55.86-61.5c-.29,0-.62-.1-.85,0-.64.31-1.22.71-1.83,1.08.61.43,1.2,1.21,1.83,1.25,5.74.3,10.93,2,14.54,6.6,2,2.55,3.13,5.77,4.73,8.65a8.08,8.08,0,0,0,1.44,1.49,14.54,14.54,0,0,0,.83-2.12,2.84,2.84,0,0,0-.27-1.26A22,22,0,0,0,509.09,227.15Z"/><path class="cls-5" d="M381.51,234.91c2.06,22.63,4.09,45,6.17,67.74-1.12,0-2,0-2.92,0-8.73.37-17.46.68-26.18,1.16-2.14.12-4.24.86-6.38,1.15a2.2,2.2,0,0,1-1.87-.69c-4.63-8.79-11.47-15.7-18.69-22.3a2.78,2.78,0,0,1-.88-1.36c3,1.17,6,2.47,9.1,3.48a60.61,60.61,0,0,0,7.77,1.87c.49.09,1.15-.7,1.72-1.08-.47-.44-.89-1.2-1.41-1.27-7.53-1-14.18-4.41-20.86-7.65s-13.34-6.89-19.92-10.5a3.68,3.68,0,0,0-4.32.15c-6.51,4.19-13.16,8.22-20.87,9.76a14,14,0,0,1-6.29-.59c-2.11-.62-2.64-2.3-1.39-4.12a25.92,25.92,0,0,1,4.68-5.33c17.28-14.1,36.48-24.19,58.92-26.78,13.76-1.59,27.6-2.45,41.41-3.63C379.93,234.87,380.57,234.91,381.51,234.91Z"/><path class="cls-5" d="M569.84,297v30c-6.68-1.63-10.88,2.73-15.44,6-6.72,4.89-13.32,9.93-20,14.9a16.31,16.31,0,0,1-1.4.86,18.37,18.37,0,0,0-10.27-6.86c-7.45-2.06-13.37.8-15.81,8.12-1.53,4.57-2.47,9.34-3.72,14-2.11,7.9-5.53,15-12,20.34a9.23,9.23,0,0,1-1.41,1c-3.69,2.06-6.24.7-6-3.52a77.8,77.8,0,0,1,1.42-11.15q2.18-11.48,4.69-22.91c2.38-10.79,7.27-20.09,16.79-26.32a18.09,18.09,0,0,1,13.43-3c12.48,2.32,23.6-1.09,34-7.8a68.52,68.52,0,0,0,14.38-12.76c.32-.38.59-.81.88-1.22Z"/><path class="cls-5" d="M569.86,353.85c.07,1.13.13,1.69.13,2.26,0,9,0,18.05-.06,27.07a5,5,0,0,1-1.33,3.16c-5,5-11.48,7.07-18.14,8.62-10.09,2.37-20.41,3-30.72,3.44-5.83.27-11.67.39-17.51.47a14,14,0,0,1-3.83-.64c-3-.83-3.86-2.55-2.85-5.58a10.42,10.42,0,0,1,6.83-6.78c6.7-2.21,13.5-4.11,20.3-6,3.4-.95,6.9-1.53,10.32-2.44A32.76,32.76,0,0,0,546,371c6.08-5.07,12.83-9.34,19.3-13.94C566.69,356,568.1,355.08,569.86,353.85Z"/><path class="cls-5" d="M221.1,300.2H196.77c-.07-.65-.22-1.48-.24-2.3q-1-32.37-1.94-64.74c0-1.09-.24-2.17,1.46-2.25,7.29-.36,14.57-.79,21.85-1.19a5.67,5.67,0,0,1,1,.23A156.24,156.24,0,0,0,221.1,300.2Zm-17-15h-.29c0,1.73-.11,3.47.06,5.18.06.66.75,1.26,1.16,1.88.4-.58,1.13-1.14,1.16-1.73q.3-5.4.27-10.8c0-.6-.68-1.19-1.05-1.78-.44.62-1.19,1.2-1.25,1.86A53.78,53.78,0,0,0,204.1,285.18Z"/><path class="cls-5" d="M499,401.18l-14.2,10.1L474,396.19c3.41-2.53,6.74-5,10.08-7.46a1.12,1.12,0,0,1,.82-.15c4.18,1,7.13-1.33,9.76-3.95,2-2,3.51-4.38,5.31-6.53a25.65,25.65,0,0,1,3.91-4.2q24.82-18.7,49.75-37.27c.63-.47,1.27-.92,2.17-1.56l12.12,17-8.53,6.1c-6,4.32-12,8.75-18.18,12.92a25.33,25.33,0,0,1-7.36,3.47c-7.73,2.07-15.63,3.55-23.31,5.78a76,76,0,0,0-12.86,5.48c-2.6,1.31-4,4-4.73,6.75-1.07,3.81.35,6.51,4,7.89Zm22.27-33.34c.72-.44,1.41-.81,2.05-1.26q11.79-8.28,23.55-16.59c1.54-1.08,3.13-2.09,4.57-3.28.48-.4.57-1.27.84-1.93-.75,0-1.5,0-2.25,0-.19,0-.35.24-.53.36Q537.75,353.43,526,361.7c-1.72,1.2-3.45,2.39-5.08,3.7a2.42,2.42,0,0,0-.59,1.63C520.27,367.25,520.88,367.51,521.31,367.84Z"/><path class="cls-5" d="M494.7,329.79a50.73,50.73,0,0,0-7.32,17.53c-1.25,6.14-2.42,12.31-3.64,18.46-.21,1.05-.5,2.07-.77,3.2a20.38,20.38,0,0,1-6.65-22.14C478.86,338.78,488.38,329.73,494.7,329.79Z"/><path class="cls-5" d="M238.23,306.61c1.65,1.73,3,.81,4.66-.05,4.9-2.59,9.89-5,14.9-7.41a8.66,8.66,0,0,1,7.55-.2c2.12,1,2.64,2.49,1.6,4.59a6.27,6.27,0,0,1-.82,1.27c-4.11,4.87-9.08,8.46-15.44,9.68A10.47,10.47,0,0,1,238.23,306.61Z"/><path class="cls-5" d="M246.49,317.83c3.45-.92,7.16-1.37,10.36-2.9,3.38-1.62,6.33-4.19,9.37-6.47,1.5-1.13,3.83-.86,6.16,1,1.59,1.26,1.91,2.92.76,4.39-4.49,5.68-10.05,9.78-17.59,10.06A9.66,9.66,0,0,1,246.49,317.83Z"/><path class="cls-5" d="M255.4,326.54c6.94-.34,12.37-3.82,17.32-8.28A5.86,5.86,0,0,0,273.9,317c1-1.61,2-2.41,4-1.25,2.32,1.37,3.33,2.89,2.84,5a5,5,0,0,1-.2.62c-1.86,5.48-10.91,11.62-16.67,11.31A9.47,9.47,0,0,1,255.4,326.54Z"/><path class="cls-5" d="M262.82,335.24c7.6.08,12.91-3.76,17.56-8.86.29-.32.54-.68.81-1,.8-.94.95-2.68,3-1.85,2.69,1.09,4.27,2.63,4,4.72a8,8,0,0,1-1.26,3.38,23.47,23.47,0,0,1-10.69,8.49,10.18,10.18,0,0,1-12.43-3.2A14.44,14.44,0,0,1,262.82,335.24Z"/><path class="cls-5" d="M569.47,349.81c-3.73-5.23-7.33-10.26-10.88-15.33a1.51,1.51,0,0,1,.06-1.44c2.81-2.17,5.62-4.5,9.53-3.74.67.13,1.68,1.05,1.69,1.63.11,6.05,0,12.12,0,18.18C569.9,349.22,569.77,349.34,569.47,349.81Z"/><path class="cls-5" d="M476.81,339.84c-6.35,11.24-5.19,21.55,3.8,30.85-3.19,1.48-6.26.58-8.34-2.55-3.64-5.48-4.19-11.61-3-17.87a25.11,25.11,0,0,1,3-7.54c.81-1.42,2.53-2.31,3.85-3.45Z"/><path class="cls-5" d="M481.78,411.83c-.55.27-.74.38-.94.45-4.13,1.31-4.13,1.31-6.65-2.22-1.05-1.47-2-3-3.19-4.36s-1.6-2.93-.18-4.53a24.24,24.24,0,0,0,1.62-2.49Z"/><path class="cls-5" d="M469.57,368.65c-4.15-.26-7.14-3-7.45-6.77-.37-4.34,1.39-8,4.1-11.34C466.06,356.8,466.3,363,469.57,368.65Z"/><path d="M506.89,441.71c-.4.66-.66,1.16-1,1.61Q489.45,465.1,473,486.85c-.66.87-1.5,2-2.56.9-.43-.46-.21-2.1.3-2.77q16.29-21.75,32.78-43.36a3.53,3.53,0,0,1,2.16-1C506,440.56,506.42,441.28,506.89,441.71Z"/><path d="M482.31,301.82c-.53.71-.94,1.38-1.46,1.95q-12.6,14.12-25.22,28.21c-.24.26-.47.67-.76.74a19.16,19.16,0,0,1-2.28.26,6.54,6.54,0,0,1,.25-2.3,12.4,12.4,0,0,1,2-2.29q11.67-13,23.36-26.1a8.5,8.5,0,0,1,1.7-1.64,2,2,0,0,1,1.57-.08C481.8,300.72,482,301.32,482.31,301.82Z"/><path d="M509.09,227.15a22,22,0,0,1,20.42,15.71,2.84,2.84,0,0,1,.27,1.26,14.54,14.54,0,0,1-.83,2.12,8.08,8.08,0,0,1-1.44-1.49c-1.6-2.88-2.73-6.1-4.73-8.65-3.61-4.58-8.8-6.3-14.54-6.6-.63,0-1.22-.82-1.83-1.25.61-.37,1.19-.77,1.83-1.08C508.47,227.05,508.8,227.15,509.09,227.15Z"/><path d="M204.1,285.18a53.78,53.78,0,0,1,.06-5.39c.06-.66.81-1.24,1.25-1.86.37.59,1.05,1.18,1.05,1.78q0,5.4-.27,10.8c0,.59-.76,1.15-1.16,1.73-.41-.62-1.1-1.22-1.16-1.88-.17-1.71-.06-3.45-.06-5.18Z"/><path d="M521.31,367.84c-.43-.33-1-.59-1-.81a2.42,2.42,0,0,1,.59-1.63c1.63-1.31,3.36-2.5,5.08-3.7q11.77-8.28,23.58-16.55c.18-.12.34-.35.53-.36.75,0,1.5,0,2.25,0-.27.66-.36,1.53-.84,1.93-1.44,1.19-3,2.2-4.57,3.28q-11.77,8.29-23.55,16.59C522.72,367,522,367.4,521.31,367.84Z"/><path d="M454.47,442.18c-2.26,7.66-4.39,15-6.63,22.34a12.58,12.58,0,0,1-2.06,4,2.55,2.55,0,0,1-2.24,0,6.11,6.11,0,0,1-.73-3.64c1.82-6.78,3.62-13.58,5.93-20.19,1.3-3.7.29-5.33-3.15-6.45a70.77,70.77,0,0,1-9.52-3.86c-1-.52-1.56-2.1-2.32-3.19,1.31-.38,2.81-1.35,3.91-1,4.38,1.34,8.63,3.09,13.46,4.89.76-2.09,1.45-3.78,2-5.51,1-3.11,1.56-6.36,2.84-9.32.66-1.54,2.46-2.58,3.75-3.85.28,1.65,1.08,3.41.74,4.92a117.89,117.89,0,0,1-3.54,12.33c-.9,2.68-.24,4,2.46,5,6.59,2.41,13.13,5,19.54,7.83,1.86.81,3.23,2.72,4.82,4.13-2.11.11-4.44.84-6.3.2-6.3-2.17-12.44-4.84-18.65-7.28C457.54,443,456.24,442.71,454.47,442.18Z"/></g></svg>