<svg xmlns="http://www.w3.org/2000/svg" viewBox="0 0 841.89 595.28"><defs><style>.cls-1{fill:#00e6bb;}.cls-2{fill:#fefefe;}.cls-3{fill:#2630ea;}.cls-4{fill:#090808;}.cls-5{fill:#060508;}.cls-6{fill:#eee;}.cls-7{fill:#b0c5cd;}.cls-8{fill:#09080d;}.cls-9{fill:#f0e100;}.cls-10{fill:#ededed;}.cls-11{fill:#c9c8c8;}.cls-12{fill:#c1c0c3;}.cls-13{fill:#6734e0;}.cls-14{fill:#e2353d;}.cls-15{fill:#5d5d5d;}.cls-16{fill:#251666;}.cls-17{fill:#8f84ee;}.cls-18{fill:#ddd9ea;}.cls-19{fill:#fcfdfb;}.cls-20{fill:#f9f9fb;}.cls-21{fill:#ceccce;}.cls-22{fill:#3f1cc3;}.cls-23{fill:#90a1a9;}.cls-24{fill:#f8f7f8;}.cls-25{fill:#fdfdfd;}.cls-26{fill:#4b23f5;}.cls-27{fill:none;}.cls-28{fill:#c0aafd;}.cls-29{fill:#af262c;}.cls-30{fill:#5029f7;}.cls-31{fill:#4d23fc;}</style></defs><g id="Layer_11" data-name="Layer 11"><path class="cls-1" d="M241.91,402.75V114c0-42.28,40.83-71.73,79.5-57.34l239.45,89.13c23.48,8.74,39.12,31.66,39.12,57.34V481.27c0,41.29-39.07,70.64-77.33,58.09L283.2,460.85C258.61,452.79,241.91,429.3,241.91,402.75Z"/><path class="cls-2" d="M531.84,438.94l-.65-.37a.49.49,0,0,0,.25.5l1,.24Zm0,0-.65-.37a.49.49,0,0,0,.25.5l1,.24Zm0,0-.65-.37a.49.49,0,0,0,.25.5l1,.24Zm0,0-.65-.37a.49.49,0,0,0,.25.5l1,.24Zm0,0-.65-.37a.49.49,0,0,0,.25.5l1,.24Zm0,0-.65-.37a.49.49,0,0,0,.25.5l1,.24Zm0,0-.65-.37a.49.49,0,0,0,.25.5l1,.24Zm0,0-.65-.37a.49.49,0,0,0,.25.5l1,.24Zm159.73-35a2,2,0,0,0-.32-.2,2.7,2.7,0,0,0-.38-.17,15.32,15.32,0,0,0-2.78-.67h0c-.41-.07-.82-.12-1.24-.16-1.22-.09-2.45-.17-3.67-.21-2-.08-4.09-.1-6.13,0-.87,0-1.74.08-2.61.14h0c-1.31.1-2.62.24-3.92.43l-1.31.2h0c-1.39.24-2.78.53-4.16.88-.69.18-1.38.37-2.07.58l-.87.25c-.7.19-1.38.34-2.07.46s-1.36.21-2,.26l-.24,0a20.46,20.46,0,0,1-4.64-.17c-.49-.07-1-.16-1.47-.28s-1-.25-1.5-.4a22.47,22.47,0,0,1-2.9-1.12,25.83,25.83,0,0,1-2.86-1.55c-.73-.46-1.48-.89-2.22-1.33-1.24-.72-2.48-1.45-3.65-2.28-1.88-1.33-3.74-2.69-5.59-4.05s-3.7-2.73-5.56-4.08c-2.78-2-5.58-4.05-8.43-6-.95-.64-1.9-1.28-2.86-1.91a76.29,76.29,0,0,1-12.67-10.35c-.43-.43-.84-.86-1.26-1.3q-.93-1-1.83-2c-.6-.67-1.18-1.37-1.76-2.07-.77-.94-1.53-1.89-2.26-2.87-.37-.49-.73-1-1.09-1.48-2.38-3.31-4.89-6.52-7.45-9.69a38.85,38.85,0,0,0-2.93-3.33c-.35-.35-.7-.67-1-.95h0a10.7,10.7,0,0,0-1-.74h0a7.6,7.6,0,0,0-1.52-.74h0a7.48,7.48,0,0,0-1-.24.86.86,0,0,0-.17,0,9.44,9.44,0,0,0-2.59,0l-.54.09-.76.16c-1.16.26-2.48.67-4,1.19-.44.15-.92.24-1.36.39a3.25,3.25,0,0,0-.43.18c-.2.1-.4.2-.6.28l-.45.19c-.29.12-.58.22-.87.31l-.42.12a8.2,8.2,0,0,1-6.21-.76,13.32,13.32,0,0,1-1.77-1.12l-.45-.34c-.3-.24-.6-.48-.9-.75-8.52-7.4-12.66-7.44-22.69-2-1.48.8-3,1.56-4.49,2.31l-3.78,1.86c-1.26.63-2.51,1.25-3.76,1.89a4.82,4.82,0,0,1-.66.3,5.65,5.65,0,0,1-1.27.36,4.86,4.86,0,0,1-3-.6l-.67-.33c-.45-.2-.9-.38-1.35-.53a10,10,0,0,0-5.5-.31,9.7,9.7,0,0,0-2.3.85l-.56.31A11.77,11.77,0,0,0,507,352l-.85.72c-.29.23-.57.48-.85.72-1.14,1-2.26,1.93-3.38,2.91l-1.68,1.47c-2.23,2-4.45,3.94-6.69,5.9l-.61.58-.09.07-3.52,2h0l-14,3.38q-1.55-4.51-3.07-9t-3.1-9q-5.76-16.62-11.51-33.22t-11.57-33.2a17.12,17.12,0,0,0-4-6.6,11,11,0,0,0-.87-.8l-.46-.37a13.39,13.39,0,0,0-2-1.25l-.53-.26A15,15,0,0,0,435,275l-.39-.08a14.63,14.63,0,0,0-1.52-.22l-.74-.06-.77,0c-.62,0-1.25,0-1.89,0l-1,0c-.66,0-1.31.05-2,.06l-3,.06-5.93.08h0c-.24-.42-.46-.85-.69-1.28-.68-1.29-1.32-2.61-2-3.93-.58-1.16-1.17-2.32-1.8-3.45-.31-.56-.64-1.12-1-1.66a25.3,25.3,0,0,0-2.22-3.1q-1.68-2-3.46-3.78c-.22-.23-.45-.45-.67-.67a2.34,2.34,0,0,0-.23-.22c-.6-.58-1.2-1.15-1.82-1.71l-.93-.82a58,58,0,0,0-6.48-4.84,54.9,54.9,0,0,0-5.54-3.12,60.4,60.4,0,0,0-27.5-5.9c-.57,0-1.13,0-1.7,0-1,0-2.09.08-3.14.13-2.75.14-5.5.34-8.25.43l-.63,0q-19.67.66-39.35,1.24c-3.85.12-7.71.22-11.56.32s-7.71.22-11.56.37a3.5,3.5,0,0,0-1.57.61c-.31.18-.61.37-.92.52h-7.69c-1.92,0-3.84,0-5.75.06l-1.92,0c-1.12,0-2.24.12-3.34.26-.73.1-1.46.21-2.19.34-.36.06-.72.14-1.08.22-1.08.24-2.14.52-3.19.85-.7.22-1.39.46-2.08.72s-1.38.54-2.05.85c-1,.46-2,1-3,1.51-.73.41-1.45.83-2.14,1.27s-1.36.92-2,1.4c-4.95,3.7-8.77,8.47-12.29,13.56l-1.45,2.13h0c-.15-.35-.33-.7-.5-1.05a5.33,5.33,0,0,1-.63-1.79c-.36-3.5-.74-7-1.08-10.51-.25-2.63-.48-5.26-.66-7.89-.06-.88-.11-1.76-.16-2.64,0-.59-.09-1.17-.17-1.74a20.47,20.47,0,0,0-.75-3.27h0c-.14-.42-.28-.84-.45-1.25s-.45-1.08-.71-1.61c-.15-.31-.3-.61-.47-.91a25.62,25.62,0,0,0-2.24-3.47,3.34,3.34,0,0,0-.48-.53,4.68,4.68,0,0,0-.58-.49l-.37-.25c-.26-.16-.52-.31-.8-.45s-.58-.26-.87-.37a8.3,8.3,0,0,0-1.33-.38,6.58,6.58,0,0,0-1.13-.14c-4.15-.14-8.3,0-12.45.15l-3.53.13-1.77.05c.06-.46.14-.92.22-1.37s.17-.89.27-1.33c.2-.88.43-1.73.7-2.55.17-.54.37-1.08.57-1.6a0,0,0,0,0,0,0c.2-.52.42-1,.66-1.52a22.2,22.2,0,0,1,1.64-2.85c.29-.45.61-.88.94-1.3a21.88,21.88,0,0,1,2.56-2.72l.39-.34A24.64,24.64,0,0,1,218.7,209l.87-.32c.69-.25,1.39-.48,2.08-.69.52-.16,1-.3,1.57-.44s.78-.2,1.18-.29l1-.22,1.27-.26,1.3-.22a54.71,54.71,0,0,1,8.47-.64c1.17,0,2.34,0,3.51.1,1.76.09,3.52.25,5.29.47.88.11,1.76.23,2.64.37q.66.09,1.32.21l1.33.23a4.05,4.05,0,0,1,.75.23,4.89,4.89,0,0,1,.52.25l.27.14.58.32c.27.15.57.31.89.46l-.57.3c-.15.07-.29.15-.43.23-.49.27-.94.56-1.37.85a5.85,5.85,0,0,0-.48.34l-.26.2a12.07,12.07,0,0,0-.93.79l-.31.3c-.13.13-.26.25-.37.38s-.21.24-.3.36a8.1,8.1,0,0,0-.91,1.31,4.92,4.92,0,0,0-.24.45,7.58,7.58,0,0,0-.64,1.72c0,.19-.1.38-.13.57a.14.14,0,0,0,0,.06,3.85,3.85,0,0,0-.07.49,10.75,10.75,0,0,0,0,2.61,6.08,6.08,0,0,0,8.45,5.18,8,8,0,0,0,5.28-9.28,9.83,9.83,0,0,0-.29-1.16c-.06-.19-.12-.38-.2-.58-.14-.38-.32-.77-.51-1.16s-.41-.78-.64-1.2c-.1-.19-.21-.38-.33-.59-.22-.39-.46-.8-.72-1.27l-.31-.55h46c.34,1.09.65,2.19.95,3.29.19.69.39,1.38.58,2.06.37,1.29.74,2.58,1.15,3.85.25.76.5,1.51.78,2.26.2.53.4,1.06.62,1.58a18.12,18.12,0,0,0,3.74,5.78,15.49,15.49,0,0,0,2.62,2.14q.36.24.75.45c.49.28,1,.54,1.54.78.27.11.55.23.83.33a17.77,17.77,0,0,0,2,.6c4.68,1.1,8.76.95,12.45-.53a14.14,14.14,0,0,0,1.68-.78l.55-.3c.36-.21.72-.44,1.08-.67a21.89,21.89,0,0,0,2.09-1.6q.53-.45,1-.93a34.7,34.7,0,0,0,4.38-5.28l96.47,0h0l.23.23c.16.15.31.32.47.48l.29.3q.17.16.33.3a1.94,1.94,0,0,0,.29.21,2.21,2.21,0,0,0,.34.18l4,1.6c4,1.6,8,3.23,11.94,4.82l3.72,1.47,4.27,1.66,3.73,1.4.39.14,3.93,1.41,6.3,2.16c7.54,2.58,15.11,5.07,22.69,7.53l5,1.61,5.56,1.78q5.55,1.79,11.11,3.54c3,.95,6.34.78,9.52,1.13.65.06,1.3.14,1.94.23l.71.09a29.93,29.93,0,0,0,4.2.38l.81,0c1.36-.08,2.72-.19,4.08-.32l1.52-.15,2.8-.3,2.8-.31,1.86-.2,1.87-.18,17.31-1.61,27.17-2.5c.41.22.8.53,1.2.76a2.41,2.41,0,0,0,.75.3q6.25,1.2,12.51,2.36T626.62,255l1.56.33,1.55.36,2.33.56c.78.18,1.56.36,2.34.5a27.72,27.72,0,0,0,3.13.44,17.48,17.48,0,0,0,2.51,0,15,15,0,0,0,1.88-.21h0c.31-.05.62-.12.93-.19.48-.11,1-.23,1.43-.36,1.43-.36,2.86-.73,4.29-1.08l2.85-.7q.71-.18,1.44-.33c1.43-.32,2.86-.61,4.3-.87h0l1.08-.18,1.09-.16,1.09-.14.85-.1.76-.07,1.62-.11,1.07-.05H665q1,0,2,0l1.19.05.25,0a2.06,2.06,0,0,1,.26,0h.07l.5,0,.8-.06.32,0,.3,0,.47-.07a2,2,0,0,0,.34-.1.33.33,0,0,0,.12-.05l.06,0a.2.2,0,0,0,.11-.13,8.27,8.27,0,0,0-.26-4.72c-.48-1.29-2-2.16-2.68-3.41-.94-1.67-2.1-3.51-2.18-5.32-.23-5.5,0-11,.08-16.52.18-2.94.37-5.88.55-8.82.08-.83.17-1.65.26-2.48h0l.36-4.41c.14-1.67.27-3.32.4-5h0c.06-.64.13-1.27.19-1.91.07-1,.13-2.08.19-3.12.29-1.12.6-2.23.88-3.36.09-.38.18-.75.26-1.13l.24-1.09c.23-1,.48-2,.73-3l.15-.56c.25-1,.51-2,.76-2.95a37.29,37.29,0,0,0,1.47-11.44c-.73-12.79-.82-25.62-1.23-38.42a9.47,9.47,0,0,0-2.49-6.64,7.14,7.14,0,0,0-.56-.54,9.46,9.46,0,0,0-1.31-1c-.24-.15-.49-.3-.75-.44a16.54,16.54,0,0,0-1.69-.78l-.94-.35a5.55,5.55,0,0,0-.56-.56,6,6,0,0,0-.64-.49l-.34-.23-.25-.16-.73-.47a.94.94,0,0,1-.18-.12c-.15-.1-.3-.2-.45-.32a4.63,4.63,0,0,1-.48-.4l-.25-.26a2.17,2.17,0,0,1-.24-.29.47.47,0,0,1-.09-.12l-.08-.12a3.2,3.2,0,0,1-.37-.84,3.25,3.25,0,0,1-.1-.47,3.33,3.33,0,0,1,0-.56h0c0-.45,0-.9,0-1.35a0,0,0,0,1,0,0c.12-.2.25-.39.38-.59h0c.48-.79,1-1.54,1.59-2.3.19-.25.37-.5.55-.76s.31-.44.46-.67.3-.46.43-.69.29-.48.42-.74a10.93,10.93,0,0,0,.48-1.11c.05-.13.09-.27.13-.41a.88.88,0,0,0,.07-.23,3.88,3.88,0,0,0,.11-.49.41.41,0,0,0,0-.16c0-.2.06-.4.08-.6a8.22,8.22,0,0,0,0-1.31h0c0-.65.07-1.3.13-2a12.2,12.2,0,0,0-.11-3.92c0-.15-.08-.31-.13-.47s-.09-.3-.14-.46a8.4,8.4,0,0,0-.34-.91,4.48,4.48,0,0,0-.2-.44.15.15,0,0,0,0-.07,6.8,6.8,0,0,0-.38-.71c-.08-.14-.17-.27-.26-.4a5.37,5.37,0,0,0-.35-.45c-.08-.08-.15-.16-.23-.23l-.12-.11a2.43,2.43,0,0,0-.62-.42c-7.75-3.6-17-1.06-15.92,9.3-1.39,2.14-.78,4,.62,5.92,1.16,1.56,2.21,3.19,3.3,4.79a8.75,8.75,0,0,1,0,1.36c0,.1,0,.2,0,.3a2.67,2.67,0,0,1-.35,1,2.2,2.2,0,0,1-.17.25,2.73,2.73,0,0,1-.23.25,2.56,2.56,0,0,1-1,.55,1.73,1.73,0,0,1-.32.11l-1.83.21-4.4-.16-1.35.2c-2.79.74-5.39,1.76-6.61,4.69-.68,1.64-1.28,3.31-1.93,4.95q-1.56,3.92-3.14,7.83l-.79-.13h0l-4.32-11h0c-.09-1.16-.19-2.32-.28-3.48s-.19-2.32-.26-3.48a5.63,5.63,0,0,1,0-.71c0-.18,0-.37,0-.55a4.72,4.72,0,0,0-.21-2.43,11.36,11.36,0,0,0-1.94-2.68c-.15-.16-.31-.31-.48-.46a6.77,6.77,0,0,0-1-.75c-.7-.41-2.3.72-3.63,1.2h0c.11-.63.22-1.3.34-2s.24-1.41.37-2.2c.1-.6.21-1.23.32-1.91-.46.31-.81.6-1.12.83l-.29.22-.26.19a2.91,2.91,0,0,1-.36.22l-.2.08-.15.06a6.65,6.65,0,0,0-1.21.46c-.19.1-.39.21-.58.33a5.72,5.72,0,0,0-.57.39c-.15.11-.29.23-.43.35l-.41.38a6.5,6.5,0,0,0-2.12,4c-.14,3,1.15,5.09,3.32,7A13.52,13.52,0,0,1,614,125.5l.8,1.21c.13.2.27.4.41.59l-112.49,0c-3.52,0-4.69,1.12-4.53,4.38.51,11.06,1.08,22.11,1.59,33.17q.93,20.17,1.8,40.35c-4.89.2-9.77.5-14.66.58-10.79.19-21.59.32-32.38.46l-10.79.15h0c-.29-3.87-.85-6.28-2.23-7.76a6.68,6.68,0,0,0-4-1.85,29.66,29.66,0,0,0-4.68-.29l-86.69,0h0c-.14-1.62-.29-3.24-.44-4.84H313a44.27,44.27,0,0,1,2.17-17.05,12.07,12.07,0,0,1,2.6-4.3c.18-.19.37-.37.56-.54a9.47,9.47,0,0,1,1.2-.91,9.22,9.22,0,0,1,2-.95,2.64,2.64,0,0,1,.4-.12,7.43,7.43,0,0,1,1-.23,10,10,0,0,1,2.12-.1,7.37,7.37,0,0,1,2.62.65,6.91,6.91,0,0,1,1.17.69c1.86,1.34,3.29,3.65,4.17,6.81a18,18,0,0,0,.93,2.84,1.75,1.75,0,0,0,.16.27l.15.2.14.15c.73.69,1.92.49,4.69,0h0c-.52-2.31-.87-4.66-1.6-6.89a15.6,15.6,0,0,0-3.83-6.58,9.63,9.63,0,0,0-1.69-1.32,11.38,11.38,0,0,0-1.24-.67h0a11.41,11.41,0,0,0-1.35-.51l-.72-.19a14,14,0,0,0-3.12-.36c-4.42,0-8.06.78-10.74,2.6-.3.21-.6.43-.88.67a11.63,11.63,0,0,0-3.8,6.3,45.57,45.57,0,0,0-1,5.36l-.15,1.26c-.13,1.26-.24,2.53-.33,3.8-.15,2.2-.26,4.41-.42,6.59a8.18,8.18,0,0,1-.23,1.57l-.06.18a1.63,1.63,0,0,1-1,1.11l-.24.07a3.49,3.49,0,0,1-1.26,0l-.1,0h-.27a2.06,2.06,0,0,0-.34,0,2,2,0,0,0-1.5.5,1.61,1.61,0,0,0-.25.32,3.78,3.78,0,0,0-.34,2.12c.23,4.27.33,8.54.48,12.81l-46.62.19a16.46,16.46,0,0,0,.93,4.17c1.39,2.7,2.42,5.33.91,8.27s-5.2,4.47-7.87,3.21-3.92-5.09-2.14-8.12c1.19-2,3.45-3.39,5.13-5.14a14.76,14.76,0,0,0,1.59-2.48c-.73-.26-1.45-.56-2.18-.85l-1.45-.56a10.87,10.87,0,0,0-1.1-.36c-.37-.1-.74-.2-1.12-.27a62.27,62.27,0,0,0-25.72.37c-.58.13-1.15.27-1.7.42s-1.1.32-1.64.49-.83.28-1.23.44l-.69.26c-.65.26-1.29.55-1.9.85-.24.11-.48.23-.71.36l-.63.33a25.52,25.52,0,0,0-4.09,2.82c-.51.43-1,.88-1.47,1.34a23.55,23.55,0,0,0-5.71,9.25c-.11.32-.21.65-.31,1s-.19.67-.27,1c-.17.68-.31,1.36-.43,2.07s-.22,1.41-.28,2.14h0l-2.92.13-2.91.16-1.35.07c-3.81.2-7.62.38-11.42.33-7.32-.1-14.62-.73-21.94-1.13h0a13.38,13.38,0,0,0-1.31-.28,8.06,8.06,0,0,0-2.6,0l-.44.1s0,0,0,0l-.28.08a4.56,4.56,0,0,0-.52.18,4.46,4.46,0,0,0-.5.22c-.24.12-.47.26-.7.4a8.28,8.28,0,0,0-1.33,1.08c-.21.21-.41.43-.61.67a12.33,12.33,0,0,0-1.22,1.78c-.13.22-.25.45-.37.69s-.13.24-.19.37-.13.26-.19.4-.22.48-.32.73-.26.63-.37,1-.19.53-.28.81c-.19.55-.36,1.14-.52,1.75-.11.39-.2.78-.3,1.19h18.42c.21.59.45,1.17.67,1.75.11.29.21.59.3.88a7.37,7.37,0,0,1,.22.9,132.65,132.65,0,0,1,2.08,24.14c0,1.36,0,2.74.12,4.11,0,.66.09,1.33.15,2q.18,2,.48,4c.1.66.21,1.32.33,2q.36,2,.84,3.9c1.65,6.58,4.6,12.46,9.92,16.73.4.31.81.62,1.23.92a23.36,23.36,0,0,0,2,1.28c4.92,2.86,10.26,3.72,15.7,4.47h6.36c2.36,7.11,4.36,14.36,7.17,21.3,5.17,12.77,14.6,21,28,24.77,5.61,1.58,11.25,1.37,16.9,1.1l2.42-.11,1.19-.05c.28.31.74.58.78.91a3.44,3.44,0,0,0,.83,2.08l.19.18a0,0,0,0,1,0,0,2.28,2.28,0,0,0,.67.36l.31.09.21,0,.29,0a5.74,5.74,0,0,0,.6,0l.65,0,.61-.05c1.55-.16,3.11-.3,4.66-.41q1.56-.12,3.12-.21l3.11-.19,1.56-.09,1.78-.11,1.25-.61h0l-.81-2.44,0-.77.08,0,24.54-1.34h0l3.74-.47a1.16,1.16,0,0,1,.15-.57c0-.21-.09-.42-.13-.62l-7.57.36-3.09.15-16.32.94-1.89-.18c-.21-1.05-.43-2.1-.65-3.15l-3.72-.24-5,.14-5,.21-4.42.49-1.25-.27c-.07.31-.13.62-.2.92s.05.83.08,1.25l-1.76,2.08c-24.19,3.64-41.25-11.22-46.12-28.58-1.46-5.21-3.41-10.27-5.14-15.4l1.07-1.29,6.9-.11,3.14-.45,10-.73,6.9-.61,3.13-.11,3.75-.51.66,0,10-1.25.67.27,7.5-.36c2.67-.22,5.34-.67,8-.63a13.19,13.19,0,0,0,11.92-6.18c5-7.79,9.6-15.83,14.28-23.82a49,49,0,0,0,2.26-5.06h-.08l.84-.66c3.11-4.14,6.2-8.3,9.37-12.4a14.71,14.71,0,0,1,2.34-2l.72-1.23c4,2.23,8.12,4.23,11.89,6.77,2.17,1.45,3.74,3.79,5.58,5.73l2.52,3.77c.62,1,1.25,2.08,1.87,3.13,1.88,2.21,3.56,4.48,2.5,7.65h-.62l-5.65,1.81-.81-1c-.13.55-.26,1.1-.4,1.65l-3.83,3.65c-.49.87-1,1.75-1.45,2.63-2.33,5-1.28,9.93.52,14.81l-.79,1.13,1.37.78,5.09,14.4,1.65,5.13c.66,1.86,1.33,3.71,2,5.57.14.44.29.89.43,1.34q2.63,7.49,5.24,15c.25.63.49,1.26.74,1.9L334.39,348l-18.65,1.25.33.59h1.32c3,0,6,0,9-.05l4-.09,8.07-.23,4-.12q5.87,17.06,11.74,34.1h0l-10.71.95-.43,0c-.14,0-.28-.11-.42-.14a.5.5,0,0,0-.17,0q-29.28,1.6-58.56,3.26l-.45,0c-.22,0-.43.06-.64.11l-.6.18a4.78,4.78,0,0,0-1.66,1,3.44,3.44,0,0,0-.27.27,6,6,0,0,0-.5.63,7.37,7.37,0,0,0-.76,1.54v0h0a5.08,5.08,0,0,1-.17.51l-.18.5-.43,1.06q-.15.39-.27.78a2.25,2.25,0,0,0-.09.35,3.15,3.15,0,0,0-.09.42,2.9,2.9,0,0,0,0,1c.69,2.95,2.1,5.73,3.21,8.58h0l.63,1.9c.13.3.27.6.41.89.16.53.32,1.06.49,1.59l2,5.4.27.91c.12.33.24.65.37,1q-.11.21.12.27c.19.49.39,1,.58,1.46a.34.34,0,0,0,.1.43c.16.6.31,1.2.46,1.81a18.2,18.2,0,0,0,.53,1.78c1.51,4.29,3,8.56,4.56,12.84s3.05,8.55,4.54,12.84c.21.59.4,1.14.59,1.64l.27.71c.12.32.24.61.36.89l.18.4c.15.33.3.62.45.89l.33.54c.1.14.2.28.31.41a.1.1,0,0,0,0,.05,2.68,2.68,0,0,0,.28.3,3.17,3.17,0,0,0,.34.3,2.26,2.26,0,0,0,.37.26,2.21,2.21,0,0,0,.34.18,2.63,2.63,0,0,0,.42.17l.23.07a3.29,3.29,0,0,0,.58.13,3.19,3.19,0,0,0,.64.09,5.16,5.16,0,0,0,.71.05h1.48c.71,0,1.52-.05,2.43-.11l71-4.31c.29.67.61,1.32.85,2h0q1.14,3.25,2.26,6.5l2.24,6.5c.38,1.09.76,2.18,1.13,3.26,1.14,3.25,2.31,6.48,3.54,9.69a16.17,16.17,0,0,0,1.65,3.21,15.23,15.23,0,0,0,2.19,2.58,15.46,15.46,0,0,0,12.42,3.68l5.76-.61q5.51-.56,11-1.07l6.28-.6q33.19-3.26,66.41-6.51a15.59,15.59,0,0,0,6.52-2.05l.6-.37c.39-.26.76-.54,1.13-.84.18-.15.36-.3.53-.46s.47-.44.69-.67a17.45,17.45,0,0,0,2.88-4.07c1.59.57,3.21,1.06,4.81,1.62a30,30,0,0,1,2.81,1.14q6.6,3.11,13.31,5.84c1.5.61,3,1.21,4.49,1.79q4.5,1.75,9.05,3.38c1.52.54,3,1.07,4.56,1.59q2.85,1,5.72,1.91t5.75,1.83c1.92.59,3.85,1.18,5.78,1.75s3.86,1.14,5.8,1.69l4.65,1.31c4.66,1.3,9.34,2.54,14,3.76.84.22,1.67.41,2.51.57s1.68.3,2.52.42,1.64.2,2.47.25h0a34.57,34.57,0,0,0,5.48,0,35.77,35.77,0,0,0,5.08-.81c.94-.21,1.87-.46,2.81-.76.52-.16,1-.34,1.56-.53s1.09-.38,1.64-.56c1-.31,2-.59,3-.84.24-.07.48-.13.73-.18,1.08-.25,2.16-.47,3.24-.67s2.18-.38,3.27-.53l1.73-.23c1.27-.16,2.54-.32,3.81-.46q3.81-.45,7.63-.84l11.45-1.17c2.55-.27,5.09-.54,7.63-.83a10.28,10.28,0,0,0,2.63-.53,1.94,1.94,0,0,0,.43-.24l.18-.15c.66-.65.51-1.8,0-4q-.63-2.57-1.34-5.12c-.31-1.13-.62-2.26-.92-3.39h0c-.3-1.13-.6-2.26-.87-3.4l-.39-1.72a46.88,46.88,0,0,1-.92-5.89,31,31,0,0,1,1.94-14.65c.2-.5.42-1,.66-1.49h0c.24-.49.49-1,.76-1.45h0c.41-.72.84-1.43,1.32-2.13a31.86,31.86,0,0,1,5.35-6c.48-.42,1-.83,1.49-1.24.75-.59,1.49-1.2,2.23-1.82s1.45-1.25,2.16-1.9a72.48,72.48,0,0,0,6.7-6.88c5.71-6.75,11.18-13.75,16.3-21C692.21,405.8,692.56,404.68,691.57,404ZM524,440l-1.41-.21-24.86-5.19q-6.79-19.86-13.61-39.73l4.51.44c1.81,1.37,3.47,3.06,5.47,4.06,5.46,2.75,9.31,7.13,13.17,11.69,3.35,3.94,7.34,7.34,10.87,11.14,2.52,2.7,4.8,5.64,7.11,8.53,1.54,1.94,3,3.92,4.49,5.89l1.48,2h0a.49.49,0,0,0,.25.5l-.12,1.28Zm7.88-1-.65-.37a.49.49,0,0,0,.25.5l1,.24Zm0,0-.65-.37a.49.49,0,0,0,.25.5l1,.24Zm0,0-.65-.37a.49.49,0,0,0,.25.5l1,.24Zm0,0-.65-.37a.49.49,0,0,0,.25.5l1,.24Zm0,0-.65-.37a.49.49,0,0,0,.25.5l1,.24Zm0,0-.65-.37a.49.49,0,0,0,.25.5l1,.24Zm0,0-.65-.37a.49.49,0,0,0,.25.5l1,.24Zm0,0-.65-.37a.49.49,0,0,0,.25.5l1,.24Z"/><path class="cls-3" d="M691.57,404a2,2,0,0,0-.32-.2,2.7,2.7,0,0,0-.38-.17,15.32,15.32,0,0,0-2.78-.67h0c-.42-.07-.82-.13-1.24-.16-1.22-.09-2.45-.17-3.67-.21-2-.08-4.09-.1-6.13,0-.87,0-1.74.08-2.61.14h0c-1.31.1-2.62.24-3.92.43l-1.31.2h0c-1.39.23-2.78.52-4.16.88-.69.18-1.38.37-2.07.58l-.87.25c-.7.19-1.38.34-2.07.46s-1.36.21-2,.26l-.24,0a20.46,20.46,0,0,1-4.64-.17c-.5-.08-1-.17-1.47-.28s-1-.25-1.5-.4a22.47,22.47,0,0,1-2.9-1.12,27.72,27.72,0,0,1-2.86-1.56c-.73-.45-1.48-.89-2.22-1.32-1.24-.73-2.48-1.46-3.65-2.29q-2.81-2-5.59-4c-1.85-1.36-3.7-2.73-5.56-4.08-2.78-2-5.58-4.05-8.43-6-.95-.64-1.9-1.28-2.86-1.91a76.29,76.29,0,0,1-12.67-10.35c-.43-.43-.84-.86-1.26-1.3q-.93-1-1.83-2c-.59-.67-1.18-1.37-1.76-2.07-.77-.94-1.53-1.89-2.26-2.87-.37-.49-.73-1-1.09-1.48-2.38-3.31-4.89-6.52-7.45-9.69a38.85,38.85,0,0,0-2.93-3.33c-.35-.35-.7-.67-1-.95h0a8.84,8.84,0,0,0-1-.74h0a6.27,6.27,0,0,0-1.52-.74h0a7.48,7.48,0,0,0-1-.24.86.86,0,0,0-.17,0,8.72,8.72,0,0,0-2.59,0l-.54.09-.76.16c-1.16.26-2.48.67-4,1.19-.44.15-.92.24-1.36.39a3.2,3.2,0,0,0-.43.17l-.6.29-.45.19c-.29.11-.58.22-.87.31l-.42.12a8.2,8.2,0,0,1-6.21-.76,15.23,15.23,0,0,1-1.77-1.12l-.45-.34q-.45-.36-.9-.75c-8.52-7.4-12.66-7.44-22.69-2-1.48.8-3,1.56-4.49,2.31l-3.78,1.86c-1.26.62-2.51,1.24-3.76,1.88-.22.11-.44.22-.66.31a5.65,5.65,0,0,1-1.27.36,4.86,4.86,0,0,1-3-.6l-.67-.33A12.56,12.56,0,0,0,517,350a10,10,0,0,0-5.5-.31,9.7,9.7,0,0,0-2.3.85l-.56.31A10.91,10.91,0,0,0,507,352l-.85.73c-.29.23-.57.48-.85.72-1.14.95-2.26,1.93-3.38,2.91l-1.68,1.47c-2.23,2-4.45,3.94-6.69,5.9l-.61.57-.09.08c.06.08.12.23.19.24,7.45.61,12.66,5.92,18.94,9,7.31,3.58,14.81,6.76,22.16,10.26a12.36,12.36,0,0,1,4.43,3.92c-4.61-2.19-9.28-4.26-13.8-6.61-7.66-4-15.17-8.24-22.86-12.15a29.19,29.19,0,0,0-7.1-2.06,49.62,49.62,0,0,0-5.48-.58h0l-14,3.39-2.53.93-9.13,2.72-17.13,7.87-.69.31-1.12.39c-1.59,4.06-9.91,6.89-13.11,4.47-1.07,1.26-2.14,2.51-3.2,3.77,2.62,7.26,6.78,10.27,14.58,10.23,3.42,0,6.85-.45,10.27-.69l9.18-3.06,6.81-.39,2.48-.22,9.9-.77,2.46-.49,4.51.44c11.29-2.14,19.24,3.22,26.21,11.3a29.17,29.17,0,0,0,7.52,5.75c7.59,4.43,14.47,9.5,17.72,18.06a11.77,11.77,0,0,1,.46,6.09c-.2,1-1.93,2-3.16,2.6a12.76,12.76,0,0,1-3.56.63h9.07c-2,2.3-7.05,2.62-11.53.64L524,440l-1.41-.21-24.86-5.19L495,434.5c-7.68,1.16-15.37,2.28-23,3.53a20.93,20.93,0,0,0-5,1.64c-6,2.67-7.67,5.84-7.06,13.3l3.08,4.24,11.18,5.45,1.88-.54c-2.87-4.69-3-9.52-1.81-14.57.83-3.61-.6-4.75-4.31-3.84-1.93.47-3.88.83-5.83,1.24-.1-.37-.2-.74-.29-1.12,2.76-.7,5.49-1.75,8.3-2,3-.3,4.76,2,3.84,4.87-1.64,5.15-1.62,10.07,1.47,14.6.85,1.25,2.54,1.91,3.84,2.84l3.11,1h0c6,1.33,11.92,2.62,17.87,4a22.3,22.3,0,0,1,3.4,1.43c1.59.57,3.22,1.06,4.81,1.63a30,30,0,0,1,2.81,1.14q6.6,3.11,13.31,5.84c1.5.61,3,1.21,4.49,1.79q4.5,1.75,9.05,3.38c1.52.54,3,1.07,4.56,1.59q2.85,1,5.72,1.91t5.75,1.83c1.92.59,3.85,1.18,5.78,1.75s3.86,1.14,5.8,1.69l4.65,1.31c4.66,1.29,9.34,2.53,14,3.75.84.22,1.68.41,2.51.58s1.68.3,2.52.42,1.65.19,2.47.25h0a37.12,37.12,0,0,0,5.48,0,35.77,35.77,0,0,0,5.08-.81c.94-.21,1.87-.46,2.81-.76.52-.16,1-.34,1.56-.53s1.09-.38,1.64-.56c1-.31,2-.6,3-.84.24-.07.48-.13.73-.18,1.07-.25,2.15-.48,3.24-.67s2.18-.38,3.27-.53l1.73-.23c1.27-.16,2.54-.32,3.81-.46q3.81-.45,7.63-.84l11.45-1.17c2.55-.27,5.09-.54,7.63-.83a10.28,10.28,0,0,0,2.63-.53,1.94,1.94,0,0,0,.43-.24l.18-.15c.66-.65.51-1.8,0-4q-.63-2.57-1.34-5.12c-.31-1.13-.62-2.26-.92-3.39h0c-.3-1.13-.59-2.26-.87-3.4l-.39-1.72a46.88,46.88,0,0,1-.92-5.89,31,31,0,0,1,1.94-14.65c.21-.5.43-1,.66-1.49h0c.24-.49.49-1,.76-1.45h0c.41-.72.84-1.43,1.32-2.13a31.86,31.86,0,0,1,5.35-6c.48-.42,1-.83,1.49-1.24.75-.59,1.49-1.2,2.23-1.82s1.45-1.25,2.16-1.9a72.48,72.48,0,0,0,6.7-6.88c5.71-6.75,11.18-13.75,16.3-21C692.21,405.8,692.56,404.68,691.57,404ZM485.49,375.31l-.87-.64a19.94,19.94,0,0,1,2-3.29c2.21-2.4,5.44-3.27,7.79-1.79C490.17,369.58,487.58,372.08,485.49,375.31Zm43.3,17.54-9.34-6.06.76-1.07,9.3,6Zm-37.95,45.48c-4.14,8.18-3.77,16.06,2.08,24.19C485.69,458.54,484.72,443.37,490.84,438.33Zm61.33-65.77,6.83,4.59C557,378.65,554.05,376.91,552.17,372.56ZM566.3,379c-1.42-1.34-2.87-2.65-4.25-4-1.69-1.7-3.25-3.53-5-5.17a23,23,0,0,0-10.27-5.56c-4.45-1.18-8.7-3.23-12.94-5.12-3.22-1.44-6.3-3.19-9.42-4.85a14.7,14.7,0,0,1-1.88-1.39L523,352c1.95.85,4,1.56,5.83,2.57,6.75,3.64,13.16,7.88,21,9.09,2.47.38,5,2.23,6.92,4,3.65,3.27,6.91,7,10.33,10.5Zm-2.64-27.31c11,6.57,18.25,17.29,28.23,25C580.77,370.26,573.53,359.49,563.66,351.69Zm62.41,75.95c9.11-5.36,17.59-11.49,24.54-20.35C650.15,412.72,632.49,427.17,626.07,427.64Z"/><path class="cls-4" d="M505.62,470.57h0a17.45,17.45,0,0,1-2.88,4.07c-.22.23-.45.45-.69.67s-.35.31-.53.46c-.37.3-.74.58-1.13.84l-.6.37a15.59,15.59,0,0,1-6.52,2.05q-33.19,3.3-66.41,6.51l-6.28.6q-5.52.53-11,1.07l-5.76.61a15.46,15.46,0,0,1-12.42-3.68,15.23,15.23,0,0,1-2.19-2.58,16.69,16.69,0,0,1-1.64-3.21c-1.23-3.21-2.4-6.44-3.55-9.69-.37-1.08-.75-2.17-1.13-3.26l-2.24-6.5c-.74-2.17-1.5-4.33-2.26-6.5h0c-.24-.68-.56-1.33-.85-2h0l-.9-2h0l-6.12-17.55h0l-2.31-6.49h0l-4.28-12.42-3.65-10.56q-3-8.91-5.93-17.81h0q-5.86-17-11.74-34.1c-.32-.84-.63-1.68-.95-2.51-.25-.64-.49-1.27-.74-1.9q-2.61-7.5-5.24-15c-.14-.45-.29-.9-.43-1.34-.66-1.86-1.33-3.71-2-5.57L331.58,318l-5.09-14.4-.58-1.91c-1.8-4.88-2.85-9.79-.52-14.81.48-.88,1-1.76,1.45-2.63l3.83-3.65,1.21-.69,5.65-1.81h.62l13.24-.55,1.2-.05,52.68-2.1,1.24,0,11.29-.52h0l5.93-.08,3-.06c.66,0,1.31,0,2-.06l1,0c.65,0,1.27,0,1.89,0l.77,0,.74.06a14.63,14.63,0,0,1,1.52.22l.39.08a15,15,0,0,1,3.28,1.07l.53.26a13.39,13.39,0,0,1,2,1.25l.46.37a11,11,0,0,1,.87.8,17.12,17.12,0,0,1,4,6.6q5.82,16.59,11.57,33.2t11.51,33.22q1.56,4.5,3.1,9t3.07,9l-2.53.93a4.64,4.64,0,0,0-.13-.91Q459.33,331.35,446,292.9c-1-2.72-2.31-5.3-3.48-7.94-3.88-5.82-9.72-6-15.85-5.68-15.74.84-31.48,1.57-47.22,2.34q-15.48.75-30.95,1.49c-5.65.28-10,2.51-12.3,8-2.29,4.12-1.45,8.24,0,12.38q7.31,21.31,14.58,42.64l39.65,116.43c2.66,7.83,8.08,11.2,16.38,10.33,4.26-.44,8.53-.77,12.79-1.21q22.76-2.3,45.5-4.63l19.29-1.92h0c6,1.33,11.92,2.62,17.87,4A22.3,22.3,0,0,1,505.62,470.57Z"/><path class="cls-5" d="M673.22,172.86c-.73-12.79-.82-25.62-1.23-38.42a9.47,9.47,0,0,0-2.49-6.64,7.14,7.14,0,0,0-.56-.54,9.46,9.46,0,0,0-1.31-1c-.24-.15-.49-.3-.75-.44a16.54,16.54,0,0,0-1.69-.78l-.94-.35.07.27c0,.17,0,.35,0,.53l-1.83,7.55c-1.29,4.79-1.88,9.93-4.07,14.27-1.88,3.72-.92,7-.9,10.56s.41,6.85.47,10.28a3.28,3.28,0,0,1-1.05,2.35c-2.15,1.71-10.39,1.38-13.34-.63a11.17,11.17,0,0,1,2.17-.34c1,.07,2.06.42,3.08.44,9.33.19,8,1.26,7.8-8.44A44.69,44.69,0,0,0,655.5,152a43.74,43.74,0,0,0-3.18-7.62c-1.57-3.39-3.39-6.68-4.76-10.15-.59-1.51.34-4-.57-4.94-2.42-2.5-1.13-5.29-1.5-7.94h0l-4.4-.15-1.35.2c-2.79.74-5.39,1.76-6.61,4.69-.68,1.64-1.28,3.31-1.93,4.95q-1.56,3.92-3.14,7.83l-.79-.14-4.32-11c-2.35,3.84-4.78,4.36-6.9,1.48-.07,1.31-.51,2.72-.14,3.89.78,2.51,2,4.9,3,7.34,1.63,4,3.15,8.16,4.93,12.16,1.6,3.59,4.38,4.29,7.12,1.5,2.07-2.1,3.46-4.88,5.13-7.38.52-.77,1-1.58,1.8-3,2,6.44,4.4,12.05,3.56,18.57a97.53,97.53,0,0,0-.3,14.31c.3,16.81.7,33.61,1.05,50.41,0,1.25-.08,2.49-.12,3.74h0c.63,4.38.92,6.42-.11,7.47a2.2,2.2,0,0,1-.47.37,4.28,4.28,0,0,1-1.11.44l-.57.13c-1.11.22-2.62.36-4.62.55l-15.39,1.49q-15.4,1.51-30.78,3.06l-15.39,1.53a14.57,14.57,0,0,1-1.87,0l-.93,0-3.13.2-3.24.39c-3.24.4-6.48.81-9.73,1.12-5.7.54-11.4.94-17.11,1.4l-1.34,0-.95-.31c-.34-.16-.7-.3-1.06-.43l-.55-.2-1.09-.4a10.31,10.31,0,0,1-1.54-.7,4.43,4.43,0,0,1-.6-.39A4.69,4.69,0,0,1,530,246c-8.6-9.19-17-18.57-25.41-27.91a2.88,2.88,0,0,1-.36-.84h0c-1.48-.22-2,.48-1.4,1.76a37.74,37.74,0,0,0,3.5,6.48c2,2.63,4.35,4.95,7.07,8l-13,.78,1.06,2.35,1.21,1.53c2.25,4.68,6.17,5.9,10.76,4.57,6.07-1.76,10,.75,13.39,5.44,1.61,2.23,3.83,4,5.77,6,.65.06,1.3.14,1.94.23l.71.09a29.93,29.93,0,0,0,4.2.38c.27,0,.55,0,.82,0,1.36-.08,2.71-.18,4.07-.31l1.52-.15,2.8-.3,2.8-.31,1.86-.2,1.87-.19,17.31-1.6,27.17-2.5c7.35-.81,14.7-1.65,22.06-2.43,5.81-.61,11.63-1.17,17.45-1.74.78-.07,1.57,0,2.68,0A43.2,43.2,0,0,0,640,251c-.17,1,.22,2.74.92,3.11.92.5,3,.48,3.51-.17,2.85-3.65,5.35-7.57,5.86-12.38h-7v-.93l6.74-.39c.22-1.66.43-3.32.64-5,.55-9.37,1-18.74,1.66-28.11.53-8.23,1.17-16.45,1.82-24.67a21.55,21.55,0,0,1,.79-3.29l1.06,0a14.27,14.27,0,0,1,.82,3.24q.63,28.34,1.14,56.66l.74.61c1.68-.18,3.35-.44,5-.52,2.15-.1,2.44-1.4,2.42-3.17-.07-4-.05-7.9,0-11.85a7.8,7.8,0,0,1,.59-2c.18-2.94.37-5.88.55-8.82.08-.83.17-1.65.26-2.48h0l.36-4.41c.14-1.67.27-3.32.4-5h0c.06-.64.13-1.27.19-1.91.07-1,.13-2.08.2-3.12.28-1.13.6-2.24.87-3.36.09-.38.18-.75.26-1.13l.24-1.09c.22-1,.47-2,.73-3l.15-.56c.25-1,.51-2,.76-2.95A37.29,37.29,0,0,0,673.22,172.86Zm-39.18-27-1-.18q-1.47-2.61-2.93-5.24l.44-.74c1.25.81,2.86,1.39,3.63,2.54C634.72,143.07,634.13,144.65,634,145.88Zm13.19,82.83q-.37-7.83-.76-15.64l1.17-.07q.39,7.81.76,15.64Zm21.64-92.77,1.1.07q-.72,7.08-1.42,14.15l-1.09-.08Zm.77,46.82H669V172.52h.63Zm.55-12.86c-1.06,1.53-7.4,1.6-9.83-.42,2.49,0,4.23,0,6,0,2.19,0,3-.46,2.68-3.11-.62-4.73-.54-9.55-.75-14.34l.84,0c.48,5.38,1,10.75,1.43,16.12A2.88,2.88,0,0,1,670.19,169.9Z"/><path class="cls-6" d="M234.13,266.21a5.33,5.33,0,0,1-.63-1.79c-.36-3.5-.74-7-1.08-10.51-.25-2.63-.48-5.26-.66-7.89-.06-.88-.11-1.76-.16-2.64,0-.59-.09-1.17-.17-1.74a18.51,18.51,0,0,0-.75-3.27h0c-.14-.42-.28-.84-.45-1.25s-.45-1.08-.71-1.61c-.15-.31-.3-.61-.47-.91a25.62,25.62,0,0,0-2.24-3.47,3.34,3.34,0,0,0-.48-.53,4.68,4.68,0,0,0-.58-.49l-.37-.25a6.3,6.3,0,0,0-.8-.45c-.28-.14-.58-.26-.87-.37a8.3,8.3,0,0,0-1.33-.38,6.58,6.58,0,0,0-1.13-.14c-4.15-.14-8.3,0-12.45.15l-3.53.13-1.77.05-1.09,0h0l-2.92.14-2.91.16-1.35.07c-3.81.2-7.61.38-11.41.32-7.33-.1-14.64-.73-22-1.13h0a40.39,40.39,0,0,1,2.65,3.11c.2.27.4.54.59.82s.38.56.56.84.27.43.39.65.41.72.6,1.09.24.48.34.73.21.49.31.75.15.38.21.57a1.72,1.72,0,0,1,.07.21,15.44,15.44,0,0,1,.6,2.41h0c.21.59.45,1.17.67,1.75.11.29.21.59.3.88a7.37,7.37,0,0,1,.22.9,132.65,132.65,0,0,1,2.08,24.14c0,1.36,0,2.74.12,4.11,0,.66.09,1.33.15,2q.18,2,.48,4c.1.66.21,1.32.33,2q.36,2,.84,3.9c1.65,6.58,4.6,12.46,9.92,16.73.4.31.81.62,1.23.92.63.44,1.29.87,2,1.27,4.92,2.86,10.26,3.72,15.71,4.47.53-.53,1-1.4,1.61-1.55,6.08-1.43,10.49-5.39,13.76-10.23,5.59-8.27,10.53-17,15.74-25.5.43-.71.87-1.41,1.31-2.12h0C234.49,266.9,234.31,266.56,234.13,266.21Zm-24.92-2.69c-4,0-7.92,0-11.87,0-4.27,0-8.54,0-12.81,0-1.54,0-2.6-.16-2.59-2.14,0-1.81.73-2.28,2.43-2.31,8.3-.14,16.61-.39,24.92-.59,1.71,0,3.39-.17,3.45,2.39S211.09,263.53,209.21,263.52Zm16.36-11a8.23,8.23,0,0,1-1.43.29q-19.69.35-39.38.63c-3.64.05-4.29-.84-3.65-4.8a12.32,12.32,0,0,1,1.41-.18q19.69-.33,39.38-.63C225.48,247.79,226,248.49,225.57,252.53Z"/><path class="cls-7" d="M313.79,251l-.72,1.23a14.71,14.71,0,0,0-2.34,2c-3.17,4.1-6.26,8.26-9.37,12.4l-.84.66h.08c-4.62,1.06-9.43,1.63-13.82,3.28-15.44,5.82-26.5,16-30.82,32.5l-10,1.25-.66,0-3.75.51-3.13.11-6.9.61-10,.73-3.14.45-6.9.11-1.56-.07-1.33-.16h-6.35c.53-.53,1-1.4,1.61-1.55,6.08-1.43,10.49-5.39,13.76-10.23,5.59-8.27,10.53-17,15.74-25.5.43-.71.87-1.41,1.31-2.12h0l1.45-2.13c3.52-5.09,7.34-9.86,12.29-13.56.65-.48,1.32-.95,2-1.4s1.41-.88,2.14-1.28c1-.55,2-1,3-1.5.67-.31,1.36-.59,2.05-.85s1.38-.5,2.08-.72a31.88,31.88,0,0,1,3.19-.85c.36-.08.72-.16,1.08-.22.73-.14,1.46-.25,2.19-.34,1.1-.14,2.22-.22,3.34-.26l1.92,0c1.91-.05,3.83-.06,5.75-.06H281l3.84,0h0c7.05,1.15,14.14,2.1,21.13,3.55C308.7,248.12,311.18,249.82,313.79,251Z"/><path class="cls-8" d="M444.15,208.3c-.12-.64-.25-1.28-.37-1.93h0c-.29-3.87-.85-6.28-2.23-7.76a6.68,6.68,0,0,0-4-1.85,29.66,29.66,0,0,0-4.68-.29l-86.69,0c-.4,4.21-.59,8.46-1.26,12.64-.71,4.38-1.89,8.68-2.86,13l96.47.06h0c5.51-2.52,5.27-7.5,5.26-12.37Zm-82.26,7.13a6.24,6.24,0,0,1-6.36-6.33c0-4.21,3.36-8,7.17-8.06a6.77,6.77,0,0,1,7.07,6.77A7.75,7.75,0,0,1,361.89,215.43Zm20.49,0a6.14,6.14,0,0,1-6.36-6.58c.09-4.31,3.43-7.87,7.33-7.81a6.75,6.75,0,0,1,6.86,7A7.87,7.87,0,0,1,382.38,215.45Zm20.48,0a6.53,6.53,0,0,1-6.6-6.16c-.12-4.18,3.51-8.23,7.39-8.24a6.63,6.63,0,0,1,6.89,6.61A7.65,7.65,0,0,1,402.86,215.44Zm20.22,0a6.33,6.33,0,0,1-6.25-6.74c.19-4.3,3.64-7.8,7.52-7.64a6.64,6.64,0,0,1,6.65,7.13A7.76,7.76,0,0,1,423.08,215.44Z"/><path class="cls-9" d="M345.69,191.58H313a44.27,44.27,0,0,1,2.17-17.05,12.07,12.07,0,0,1,2.6-4.3c.18-.19.37-.37.56-.54a9.47,9.47,0,0,1,1.2-.91,9.22,9.22,0,0,1,2-.95,2.64,2.64,0,0,1,.4-.12,7.43,7.43,0,0,1,1-.23,9.34,9.34,0,0,1,2.12-.11,7,7,0,0,1,2.62.66,6.91,6.91,0,0,1,1.17.69c1.86,1.34,3.29,3.65,4.17,6.81a18,18,0,0,0,.93,2.84,1.75,1.75,0,0,0,.16.27l.15.2.14.15c.75.68,1.94.48,4.69,0-.52-2.31-.87-4.66-1.6-6.89a15.6,15.6,0,0,0-3.83-6.58,9.63,9.63,0,0,0-1.69-1.32,8.74,8.74,0,0,0-1.24-.67h0a11.41,11.41,0,0,0-1.35-.51l-.72-.19a14,14,0,0,0-3.12-.36c-4.42,0-8.06.78-10.74,2.6-.3.21-.6.43-.88.67a11.63,11.63,0,0,0-3.8,6.3,45.57,45.57,0,0,0-1,5.36l-.15,1.26c-.13,1.26-.24,2.53-.33,3.8-.15,2.2-.26,4.41-.42,6.59a8.18,8.18,0,0,1-.23,1.57l-.06.18a1.63,1.63,0,0,1-1,1.11l-.24.07a3.71,3.71,0,0,1-1.25,0h-.38a2.06,2.06,0,0,0-.34,0,2,2,0,0,0-1.5.5,1.61,1.61,0,0,0-.25.32,3.78,3.78,0,0,0-.34,2.12c.23,4.27.33,8.54.48,12.81,0,.45,0,.91.08,1.36h0c.34,1.09.65,2.19.95,3.29.19.69.39,1.38.58,2.06.37,1.29.74,2.58,1.15,3.85.25.76.5,1.51.78,2.26.2.53.4,1.06.62,1.58a18.12,18.12,0,0,0,3.74,5.78,15.49,15.49,0,0,0,2.62,2.14q.36.24.75.45c.49.28,1,.54,1.54.78.27.11.55.23.83.33a17.77,17.77,0,0,0,2,.6c4.68,1.1,8.76.95,12.45-.53a18.21,18.21,0,0,0,1.68-.78l.55-.3c.36-.21.72-.44,1.08-.67a21.89,21.89,0,0,0,2.09-1.6q.53-.45,1-.93a34.7,34.7,0,0,0,4.38-5.28h0c1-4.34,2.15-8.64,2.86-13,.67-4.18.86-8.43,1.26-12.64C346,194.8,345.84,193.18,345.69,191.58Zm-17.05,17a13.78,13.78,0,0,0-1.33,4.87,49,49,0,0,0,.06,5.93c.09,5,.09,5-6.13,5.68,0-4.19.12-8.13-.06-12.05a7.49,7.49,0,0,0-1.41-3.84c-2-2.78-2.08-5.62.14-7.92a5.74,5.74,0,0,1,7.69-.36C329.73,202.59,330,205.88,328.64,208.57Z"/><path class="cls-10" d="M417.81,274.81h0l-11.29.52-4.38-6.8h0a6.06,6.06,0,0,0-4.39-5.64c-1.11-2.24-1.83-4.88-5-5l-2.48-3.13-6.29-4.4h0l-3.15-1.89-.61-.61c-1.37-.63-2.72-1.77-4.1-1.81-6.41-.2-12.82-.13-19.23,0-.8,0-1.59.78-2.39,1.2l-5.64-.63-19.15.64c-.07.31-.13.61-.19.92l4.92,3.46h1.24l6.9,8.17.62.61,1.89,2.51,3.15,4.39,1.24,1.87a20.14,20.14,0,0,0,.32,2.59c.49,1.94,1.08,3.85,1.63,5.77l-13.24.55c1.06-3.17-.62-5.44-2.5-7.65-.62-1-1.25-2.09-1.87-3.13l-2.52-3.77c-1.84-1.94-3.41-4.28-5.58-5.73-3.77-2.54-7.9-4.54-11.89-6.77-2.61-1.18-5.09-2.88-7.82-3.45-7-1.45-14.08-2.4-21.13-3.55.31-.15.61-.34.92-.52a3.5,3.5,0,0,1,1.57-.61q5.78-.23,11.56-.37c3.85-.11,7.71-.2,11.56-.32q19.67-.6,39.35-1.24l.63,0c2.75-.09,5.5-.29,8.25-.43,1.05-.06,2.09-.1,3.14-.13.57,0,1.13,0,1.7,0a60.4,60.4,0,0,1,27.5,5.9,54.9,54.9,0,0,1,5.54,3.12,58,58,0,0,1,6.48,4.84l.93.82c.62.55,1.22,1.11,1.82,1.71a2.34,2.34,0,0,1,.23.22c.22.22.45.44.67.67q1.79,1.8,3.46,3.78a25.3,25.3,0,0,1,2.22,3.1c.34.54.66,1.1,1,1.66.63,1.13,1.22,2.29,1.8,3.45.65,1.32,1.29,2.64,2,3.93C417.34,274,417.57,274.39,417.81,274.81Z"/><path class="cls-9" d="M354.32,383.5l-10.71.95a1.58,1.58,0,0,0-.5-.12l-.35,0q-29.36,1.59-58.73,3.24l-.45,0c-.22,0-.43.06-.64.11l-.6.18a4.78,4.78,0,0,0-1.66,1,3.44,3.44,0,0,0-.27.27,6,6,0,0,0-.5.63,7.37,7.37,0,0,0-.76,1.54v0h0l.41,1.43c.2.7.39,1.41.59,2.11q1.37,4.86,2.71,9.72c.09.33.17.66.26,1l6.77.53H290l3.78-.17h0a.37.37,0,0,1,.21-.08h0a.34.34,0,0,1,.29.08h0l1.32-.05,8.82-.74,7.22-.16,6.09-.73,5.7-.21,5-.4,2.56-.16,2.47-.18,5.54-.14h.49l6-.71,1.49-.29.4.2,12.73-1.11Q357.28,392.4,354.32,383.5Zm-62.46,13h0c0-.4,0-.79,0-1.19l28.25-1.38.33,0,.06,1.13Z"/><path class="cls-11" d="M438.5,222.14c5.51-2.53,5.27-7.5,5.26-12.37,3.33-.05,6.66-.07,10-.13,7.2-.13,12.87,2.84,17.28,8.44,2.83,3.6,5.76,7.12,8.56,10.76,5.88,7.64,13.54,10.73,23.06,9.24,2.25,4.67,6.17,5.9,10.76,4.56,6.07-1.75,10,.76,13.39,5.45,1.61,2.22,3.83,4,5.77,6-3.18-.34-6.53-.17-9.52-1.12-16.94-5.37-33.87-10.79-50.65-16.63-10.79-3.76-21.33-8.26-32-12.49C439.69,223.54,439.14,222.72,438.5,222.14Z"/><path class="cls-11" d="M444.15,208.3l-.37-1.94c14.39-.19,28.78-.36,43.17-.6,4.89-.09,9.77-.39,14.66-.58.58,4.07-.2,8.43,2.6,12-1.49-.23-2,.48-1.41,1.76a37.64,37.64,0,0,0,3.5,6.47c2,2.64,4.35,5,7.07,8l-13,.77,1.06,2.36c-7.93,1.58-14.37-1.13-19.5-7.07-3.48-4-6.67-8.28-10-12.42-3.65-4.54-8.12-7.89-14.09-8.39C453.31,208.29,448.72,208.41,444.15,208.3Z"/><path class="cls-12" d="M650.07,240.2l.64-5L658,239l.74.6c.33,1.37.27,3.07,1.08,4,2.62,3.15,5.57,6,8.4,9-8.76-.51-17,2-25.36,4.09-5.54,1.35-10.87-.79-16.24-1.82-8.33-1.61-16.68-3.12-25-4.73a7.61,7.61,0,0,1-2-1.05c7.35-.81,14.7-1.65,22.06-2.43,5.81-.62,11.63-1.18,17.45-1.74.78-.07,1.57,0,2.68,0A43.1,43.1,0,0,0,640,251c-.17,1,.22,2.74.92,3.12.92.5,3,.47,3.51-.17,2.85-3.66,5.35-7.57,5.86-12.38Z"/><path class="cls-13" d="M286.08,418.46c1.53-3.66,4.52-2.54,7.26-2.24l-5.41,1.23a4.75,4.75,0,0,0,.1,1.2c3.55,10,7.09,20,10.71,30,1.25,3.44,3.29,4.46,7.11,4.14,6.75-.56,13.5-1.08,20.26-1.52,10.92-.72,21.84-1.37,32.76-2l17.74-.89.9,2-71,4.32c-7.33.44-7.9,0-10.35-7-3-8.57-6.08-17.11-9.1-25.67C286.66,420.88,286.41,419.66,286.08,418.46Z"/><path class="cls-14" d="M664.19,107.86c.38,4-2.52,6.49-4.35,9.48-.13.2-.26.4-.38.6,0,.45,0,.9,0,1.36l-3.23,3.79c.31-1.14.62-2.28.89-3.29l-6.8-1.76-.91-.73c-1.09-1.59-2.14-3.23-3.3-4.78-1.4-1.88-2-3.78-.62-5.93.59-.81,1.2-1.61,1.77-2.43s.92-2,1.69-2.42c5.49-3.07,11.26-.35,12.6,5.79a6.33,6.33,0,0,0,.56,1.16Z"/><path class="cls-15" d="M260.17,215.57a8,8,0,0,1-5.28,9.28,6.08,6.08,0,0,1-8.45-5.18,10.75,10.75,0,0,1,0-2.61,3.85,3.85,0,0,1,.07-.49.14.14,0,0,1,0-.06c0-.19.08-.38.13-.57a7.58,7.58,0,0,1,.64-1.72,4.92,4.92,0,0,1,.24-.45,8.1,8.1,0,0,1,.91-1.31q.13-.18.3-.36c.11-.13.24-.25.37-.38l.31-.3a12.07,12.07,0,0,1,.93-.79l.26-.2a5.85,5.85,0,0,1,.48-.34c.43-.29.88-.58,1.37-.85.14-.08.28-.16.43-.23l.57-.3c-.32-.15-.62-.31-.89-.46l-.58-.32-.27-.14a4.89,4.89,0,0,0-.52-.25,3.11,3.11,0,0,0-.75-.24c-.44-.08-.88-.16-1.33-.22s-.88-.15-1.32-.21c-.88-.14-1.76-.26-2.64-.37-1.77-.22-3.53-.38-5.29-.47-1.17-.07-2.34-.1-3.51-.1a54.71,54.71,0,0,0-8.47.64,46.76,46.76,0,0,0-6.29,1.43c-.69.21-1.39.43-2.08.68l-.87.33a24.64,24.64,0,0,0-7.24,4.24l-.39.34a21.88,21.88,0,0,0-2.56,2.72c-.33.42-.64.85-.94,1.3a22.2,22.2,0,0,0-1.64,2.85c-.23.5-.46,1-.66,1.52a0,0,0,0,1,0,0c-.2.52-.4,1.06-.57,1.6-.27.82-.5,1.67-.7,2.55-.1.43-.19.88-.27,1.33s-.16.91-.22,1.37l-1.09,0a28.45,28.45,0,0,1,.7-4.21c.08-.33.17-.67.27-1s.2-.66.31-1a23.55,23.55,0,0,1,5.71-9.25c.47-.46,1-.91,1.47-1.34a25.52,25.52,0,0,1,4.09-2.82l.63-.33c.23-.13.47-.25.71-.36.61-.3,1.25-.59,1.9-.85l.69-.26c.4-.16.81-.31,1.23-.44s1.08-.34,1.64-.49,1.12-.3,1.7-.43a62.44,62.44,0,0,1,25.72-.37,16.21,16.21,0,0,1,2.22.64l1.45.56c.73.29,1.45.59,2.18.85a14.76,14.76,0,0,1-1.59,2.48c-1.68,1.75-3.94,3.12-5.13,5.14-1.78,3-.47,6.89,2.14,8.12s6.34-.21,7.87-3.21.48-5.57-.91-8.27a16.46,16.46,0,0,1-.93-4.17l46.62-.19c0,.45,0,.91.08,1.36h-46l.3.55c.26.47.5.88.72,1.27.11.21.22.4.33.59.23.42.44.81.64,1.2s.37.78.51,1.16c.08.2.14.39.2.58A9.83,9.83,0,0,1,260.17,215.57Z"/><path class="cls-14" d="M622.67,124.2c-.09-1.16-.18-2.32-.25-3.48a5.61,5.61,0,0,1,0-.71c0-.18,0-.37,0-.55a4.72,4.72,0,0,0-.21-2.43,11.36,11.36,0,0,0-1.94-2.68c-.15-.16-.31-.31-.48-.46a6.21,6.21,0,0,0-1-.76c-.7-.41-2.3.72-3.63,1.2.11-.63.22-1.3.34-2s.24-1.41.37-2.2c.1-.6.21-1.23.32-1.91h0c-.46.32-.81.6-1.12.84l-.29.22-.26.19a2.91,2.91,0,0,1-.36.22l-.2.08-.15,0a5.49,5.49,0,0,0-1.21.47c-.19.1-.39.21-.58.33a5.72,5.72,0,0,0-.57.39c-.15.11-.29.23-.43.35l-.41.38a6.5,6.5,0,0,0-2.12,4c-.14,3,1.15,5.09,3.32,7A13.52,13.52,0,0,1,614,125.5l.8,1.21c.13.2.27.4.41.59l.81,1.87c2.12,2.88,4.55,2.36,6.9-1.48h0C622.86,126.52,622.76,125.36,622.67,124.2Zm-4.52-8.91c.09-.24,1.24-.33,1.25-.31.39,1.35.71,2.72,1,4.09C617.44,118.5,617.52,116.94,618.15,115.29Z"/><path class="cls-4" d="M284.84,355.71l-1.25.61-1.78.12-1.56.09-3.11.19q-1.56.09-3.12.21c-1.55.11-3.11.24-4.66.4l-.61.06-.65,0a5.74,5.74,0,0,1-.6,0l-.29,0-.21,0-.31-.09a2.28,2.28,0,0,1-.67-.36,0,0,0,0,0,0,0l-.19-.18a3.44,3.44,0,0,1-.83-2.08c0-.33-.5-.6-.78-.91h0l-.36-2.39-.44-1.2c0-.42-.05-.83-.08-1.25l1.45-.65,4.42-.49,5-.21,5-.14,3.72.24c.22,1.05.44,2.1.65,3.15l.57,1.73-.08.05c-.15.16-.3.33-.46.49l.43.28Z"/><path class="cls-7" d="M161.85,228.43c3,3.22,5.59,6.69,6.33,11.19H149.76C151.89,230.45,156,226.83,161.85,228.43Z"/><path class="cls-15" d="M264.21,353.66c-.4,0-.8,0-1.19.06l-2.42.11c-5.65.27-11.29.48-16.9-1.1-13.36-3.78-22.79-12-28-24.77-2.81-6.94-4.81-14.19-7.17-21.3h0l1.33.16.49,1.36c1.73,5.13,3.68,10.19,5.14,15.4,4.87,17.36,21.93,32.22,46.12,28.58l2.2-.88Z"/><path class="cls-8" d="M668.22,252.71c-2.83-3-5.78-5.88-8.4-9-.81-1-.75-2.67-1.08-4,1.68-.17,3.35-.43,5-.51,2.15-.1,2.44-1.4,2.42-3.17-.07-4-.05-7.9,0-11.85a8,8,0,0,1,.59-2c-.06,5.51-.31,11-.08,16.53.08,1.81,1.24,3.65,2.18,5.32.7,1.25,2.2,2.12,2.68,3.41a8.26,8.26,0,0,1,.26,4.72C671.7,252.57,669.48,252.52,668.22,252.71Z"/><path class="cls-8" d="M664.19,107.86l-2.09.84a6.33,6.33,0,0,1-.56-1.16c-1.34-6.14-7.11-8.86-12.6-5.79-.77.43-1.12,1.6-1.69,2.42s-1.18,1.62-1.77,2.43c-1.05-10.35,8.17-12.9,15.92-9.29,1.39.64,2.38,2.94,2.8,4.66S664.23,105.89,664.19,107.86Z"/><path class="cls-16" d="M662.45,133.07l-.1-.07q-1.85,5.19-3.68,10.37c-.42,1.17-.89,2.32-1.34,3.47l-.65-.7-1.43-.68c-.48-.24-1.22-.36-1.41-.75-1.82-3.84-3.7-7.67-5.23-11.63-.52-1.33-.08-3-.08-5-2.63-1.2-2.39-3.73-1.13-6.51a3,3,0,0,1-.08-.41h0l-1.83.21h0c.37,2.65-.92,5.44,1.5,7.94.91.94,0,3.43.57,4.94,1.37,3.47,3.19,6.76,4.76,10.15A43.74,43.74,0,0,1,655.5,152a44.69,44.69,0,0,1,1.11,9.58c.19,9.7,1.53,8.63-7.8,8.44-1,0-2-.37-3.08-.44a11.17,11.17,0,0,0-2.17.34c3,2,11.19,2.34,13.34.63a3.28,3.28,0,0,0,1.05-2.35c-.06-3.43-.44-6.85-.47-10.28s-1-6.84.9-10.56C660.57,143,661.16,137.86,662.45,133.07Zm-7,15a0,0,0,0,0,0,0l-.22-.26c.06,0,.14,0,.16.06a.59.59,0,0,1,.06.2l0,0,.27.14Z"/><path class="cls-17" d="M492.84,364.37c.06.08.12.23.19.24,7.45.61,12.66,5.91,18.94,9,7.31,3.58,14.81,6.75,22.16,10.26a12.27,12.27,0,0,1,4.43,3.92c-4.61-2.19-9.28-4.26-13.8-6.61-7.66-4-15.17-8.24-22.86-12.15a28.75,28.75,0,0,0-7.1-2.06,47.66,47.66,0,0,0-5.5-.58Z"/><path class="cls-15" d="M312.57,350.07a1.16,1.16,0,0,0-.15.57l-3.74.47-24.54,1.34-.57-1.73,1.89.18,16.32-.94,3.09-.15,7.57-.36C312.48,349.65,312.53,349.86,312.57,350.07Z"/><path class="cls-15" d="M342.58,349.39l-4,.12-8.07.23-4,.09c-3,.06-6,0-9,.05h-1.32l-.33-.59L334.39,348l7.24-1.16C342,347.71,342.26,348.55,342.58,349.39Z"/><path class="cls-13" d="M282.83,404.65l-1.68,0c-1.11-2.85-2.52-5.63-3.21-8.58-.32-1.39.77-3.11,1.22-4.68Q281,398,282.83,404.65Z"/><path class="cls-12" d="M647.4,121.53a3.1,3.1,0,0,1-.08-.42c2-.53,2.16-2.11,2.08-3.8l.91.73,4.54,5.44.66.39-3.14,3.31-.09.18-.18-.1-1.6-.5C649.46,125,648.43,123.27,647.4,121.53Z"/><path class="cls-18" d="M652.37,127.18l3.14-3.31.69-.81,0,0q1.6-1.91,3.23-3.8c0,3.2,3.27,3.55,4.8,5.42l.07.26h-.65a.52.52,0,0,0-.5-.16l-2.61-.5-4.28,1.85a.52.52,0,0,1-.24-.47l-1-.62Z"/><path class="cls-8" d="M668,206.4l.4-5Z"/><path class="cls-13" d="M282.68,409l2,5.4Z"/><path class="cls-8" d="M668.54,199.48c.07-1,.13-2.07.2-3.11C668.67,197.41,668.61,198.45,668.54,199.48Z"/><path class="cls-8" d="M667.33,213.3l.26-2.49Z"/><path class="cls-15" d="M283.59,356.32l1.25-.61Z"/><path class="cls-12" d="M641.09,121.16l-1.35.21Z"/><path class="cls-13" d="M285.4,416.57c.19.48.39,1,.59,1.45C285.79,417.54,285.59,417.05,285.4,416.57Z"/><path class="cls-18" d="M659.46,117.94c.12-.2.25-.4.38-.6C659.71,117.54,659.58,117.74,659.46,117.94Z"/><path class="cls-17" d="M493.54,363.72l-.61.57Z"/><path class="cls-13" d="M284.91,415.32c.12.32.24.65.37,1C285.15,416,285,415.64,284.91,415.32Z"/><path class="cls-15" d="M284,353.27l-.43-.28.46-.5Z"/><path class="cls-13" d="M281.78,406.52l.41.9Z"/><path class="cls-10" d="M454.93,462.39c-4.51.59-9.08.82-13.64,1.05-2.13.11-4.63-2.94-4.51-5.61.12-2.39,1.51-3.58,4.09-3.71,5.79-.29,11.56-.85,17.88-1.34-1.38-6.43,1.44-11.71,3.77-17.14,1.39-3.27-.49-6.06-1.52-9l-1.07-.21c-11.09.68-22.18,1.34-33.28,2-9.53.6-19,1.31-28.59,1.81-4.25.23-5.61-.7-7.05-4.63-3.8-10.36-7.48-20.75-11.18-31.14s-7.34-20.81-11-31.21c-.85-2.41-1.08-4.68,1.34-6.41.72-4.2,2.81-5.94,7.92-6.21,9.66-.49,19.34-.82,29-1.3q18.07-.87,36.14-1.89c2.38-.13,4.75-.43,7.14-.59,3.5-.23,5.71,1.43,6.8,4.74,2,6.13,4.07,12.22,6,18.35a19,19,0,0,1,.45,3.39l9.13-2.72a4.64,4.64,0,0,0-.13-.91Q459.33,331.35,446,292.9c-1-2.72-2.31-5.3-3.48-7.94-.58.36-1.13,1-1.73,1.06-3.31.31-6.62.55-9.94.68-11.22.46-22.44.83-33.66,1.29q-13.71.56-27.4,1.26c-11.2.58-22.39,1.24-33.59,1.86-2.29,4.12-1.45,8.24,0,12.38q7.31,21.31,14.58,42.64l39.65,116.43c2.66,7.83,8.08,11.2,16.38,10.33,4.26-.44,8.53-.77,12.79-1.21q22.76-2.3,45.5-4.63C463.31,461.94,459.42,461.8,454.93,462.39ZM443.39,329.46a9.27,9.27,0,0,1-2.13,10.13c.23-3,1.49-6.69.45-9.52s-4.37-5-6.54-7.26C438.61,322.84,441.76,325.23,443.39,329.46Zm-4.82,1.7a5.77,5.77,0,0,1-1.32,7c0-2.19.52-4.44-.15-6.24s-2.52-3-4.26-4.88C436.07,327,437.59,328.94,438.57,331.16Zm-4.35,1.19c1,1.56,1,3.23-.46,4.33-.7-2.1-1.31-3.91-2.08-6.17C432.56,331.12,433.7,331.53,434.22,332.35Zm-84.61-34.52c0-.56,1.16-1.59,1.84-1.63,5.18-.34,10.38-.52,15.57-.7,7-.24,13.94-.37,20.9-.66,8.72-.35,17.43-.89,26.15-1.2,5-.17,5,0,6.69,5.6-5.34.44-10.38,1-15.44,1.24-7.17.34-14.35.4-21.53.68-9.76.37-19.51.85-29.27,1.22C351.49,302.49,349.66,300.82,349.61,297.83Zm5,13.05a2.72,2.72,0,0,1,2-.92c6.86-.27,13.73-.44,20.59-.67q18.4-.62,36.81-1.28c1.86-.07,3.71-.54,5.56-.57,5.22-.09,5.56.29,6.07,5.91a5.39,5.39,0,0,1-1.13.31c-6.44.23-12.89.43-19.34.66q-17.94.62-35.87,1.27c-3.73.14-7.46.47-11.2.58C356,316.24,353.66,312.78,354.62,310.88Zm5.82,17.62a28.11,28.11,0,0,1-1.77-4.46,30,30,0,0,1,4.28-.91c4.45-.29,8.91-.49,13.37-.64,7.06-.25,14.12-.5,21.18-.63,5.39-.1,5.39,0,6.4,6.26-1.36,0-2.48,0-3.6,0-12.54.51-25.09,1.05-37.64,1.49A2.92,2.92,0,0,1,360.44,328.5Z"/><path class="cls-19" d="M454.32,420.46c-4.82-3.71-9.83-7.16-14.6-10.92-1.7-1.34-2.9-3.3-4.33-5h-17.5c.53,2.31.89,3.87,1.38,6l-18-10.37c3.25-5,6.39-9.77,10.23-15.66,0,7.28,4.22,6.48,8.18,6.22,2.91-.19,5.83-.33,8.75-.5,1.06-1.26,2.13-2.51,3.2-3.77L433,386h0l9.91-3.33,1.82-.63,1.12-.39.69-.31,17.13-7.87a19,19,0,0,0-.45-3.39c-2-6.13-4-12.22-6-18.35-1.09-3.31-3.3-5-6.8-4.74-2.39.16-4.76.46-7.14.59q-18.06,1-36.14,1.89c-9.66.48-19.34.81-29,1.3-5.11.27-7.2,2-7.92,6.21,3.17,9.26,6.29,18.54,9.53,27.78,4.38,12.48,8.92,24.91,13.27,37.41,1.2,3.43,3.48,4.68,6.93,4.48q17-1,34-1.91L456,423.43C455.46,422.42,455.15,421.1,454.32,420.46Zm-55.69-43c-1.69-4.13-3.1-8.38-4.74-13l35.48-1.4c-.39-1.81-.74-3.45-1.26-5.84l18.65,10.57-9.61,14.49c-.37-.21-.67-.29-.69-.41-.77-4.75-4-4.72-7.84-4.48-9.06.58-18.14.89-27.21,1.19C400.46,378.62,398.9,378.12,398.63,377.46Z"/><path class="cls-12" d="M465.05,467c-1.74-5.1-5.63-5.24-10.12-4.65s-9.08.82-13.64,1.05c-2.13.1-4.63-2.95-4.51-5.61.12-2.4,1.51-3.58,4.09-3.71,5.79-.3,11.56-.85,17.88-1.34-1.38-6.44,1.44-11.72,3.77-17.14,1.39-3.27-.49-6.06-1.52-9,3.07-.24,6.15-.37,9.19-.77,2.61-.34,5.19-1,5.32-4.41,3.1-2.78,2.9-6.13,1.68-9.65l-5.47-15.75,9.9-.77c.26.89.49,1.8.8,2.68q6.29,18.24,12.58,36.48c-7.68,1.17-15.37,2.28-23,3.54a20.93,20.93,0,0,0-5,1.64c-6,2.67-7.67,5.84-7.06,13.29-1.49,3,.28,5.3,1.71,8.47l1.37-4.22,11.18,5.44,7.09,1.46,3.12,1Z"/><path class="cls-20" d="M531.19,438.56h0l-1.48-2Z"/><path class="cls-21" d="M471.72,396.1l5.47,15.75c1.22,3.52,1.42,6.87-1.68,9.65-4.58.45-9.16.88-13.74,1.36-1.29.13-2.57.39-3.85.59l-1.9,0c-.56-1-.87-2.33-1.7-3-4.82-3.71-9.83-7.16-14.6-10.92-1.7-1.34-2.9-3.3-4.33-5l18.95-1.11c-.44-1.5-.76-2.59-1.09-3.68l9.18-3.07,6.81-.38Z"/><path class="cls-22" d="M540.5,436.48c-.2,1-1.93,2-3.16,2.6a12.76,12.76,0,0,1-3.56.63l-1.3-.4c-.43-.25-.85-.5-1.29-.74h0l-1.48-2c-1.48-2-3-3.95-4.49-5.89-2.31-2.89-4.59-5.83-7.11-8.53-3.53-3.8-7.52-7.2-10.87-11.14-3.86-4.56-7.71-8.94-13.17-11.69-2-1-3.66-2.69-5.47-4.06,11.29-2.14,19.24,3.22,26.21,11.3a29.17,29.17,0,0,0,7.52,5.75c7.59,4.43,14.47,9.5,17.72,18.06A11.77,11.77,0,0,1,540.5,436.48Z"/><path class="cls-4" d="M453.25,399.77c.33,1.09.65,2.18,1.09,3.68l-18.95,1.11h-17.5c.53,2.31.89,3.87,1.38,6l-18-10.37,10.23-15.66c0,7.27,4.22,6.48,8.18,6.22,2.91-.19,5.83-.34,8.75-.5,2.62,7.26,6.78,10.27,14.58,10.23C446.4,400.44,449.83,400,453.25,399.77Z"/><path class="cls-8" d="M497.69,434.57,495,434.5q-6.3-18.24-12.58-36.49c-.31-.88-.54-1.78-.8-2.68l2.46-.49Q490.89,414.7,497.69,434.57Z"/><path class="cls-17" d="M523,352c1.95.85,4,1.56,5.83,2.56,6.75,3.64,13.16,7.89,21,9.1,2.47.38,5,2.22,6.92,4,3.65,3.28,6.91,7,10.33,10.51-.27.27-.53.55-.8.83-1.42-1.34-2.87-2.65-4.25-4-1.69-1.69-3.25-3.53-5-5.17a23.2,23.2,0,0,0-10.27-5.56c-4.45-1.17-8.7-3.23-12.94-5.12-3.22-1.43-6.3-3.18-9.42-4.84a14.7,14.7,0,0,1-1.88-1.39Z"/><path class="cls-17" d="M591.89,376.65c-11.12-6.4-18.36-17.16-28.23-25C574.62,358.26,581.91,369,591.89,376.65Z"/><path class="cls-17" d="M481.23,464.11l-7.09-1.46,1.88-.54c-2.87-4.68-3-9.51-1.81-14.56.83-3.61-.6-4.75-4.31-3.84-1.93.47-3.88.83-5.83,1.24l-.29-1.12c2.76-.71,5.49-1.75,8.3-2,3-.3,4.76,2,3.84,4.87-1.64,5.15-1.62,10.07,1.47,14.6C478.24,462.51,479.93,463.18,481.23,464.11Z"/><path class="cls-17" d="M626.07,427.63c9.11-5.35,17.59-11.48,24.54-20.34C650.15,412.72,632.49,427.16,626.07,427.63Z"/><path class="cls-17" d="M492.92,462.51c-7.23-4-8.2-19.14-2.08-24.19C486.7,446.5,487.07,454.39,492.92,462.51Z"/><path class="cls-17" d="M542.85,439.71c-2,2.3-7.05,2.62-11.53.64l.12-1.28,1,.24,1.3.4Z"/><path class="cls-17" d="M494.45,369.59c-4.28,0-6.87,2.48-9,5.72l-.87-.64a19.53,19.53,0,0,1,2-3.29C488.87,369,492.1,368.11,494.45,369.59Z"/><path class="cls-17" d="M442.89,382.61l1.82-.62c-1.59,4.05-9.91,6.89-13.11,4.47L433,386A10.77,10.77,0,0,0,442.89,382.61Z"/><path class="cls-17" d="M520.21,385.72l9.3,6-.72,1.12-9.34-6.06Z"/><path class="cls-23" d="M463,457.21l-1.37,4.22c-1.43-3.17-3.2-5.43-1.71-8.47Q461.41,455.09,463,457.21Z"/><path class="cls-17" d="M552.17,372.56l6.83,4.59C557,378.65,554.05,376.9,552.17,372.56Z"/><path class="cls-12" d="M469.24,396.32l-6.81.38Z"/><path class="cls-17" d="M522.55,439.75,524,440Z"/><path class="cls-17" d="M445.83,381.6l.69-.31Z"/><path class="cls-24" d="M426.65,279.28c-15.74.84-31.48,1.57-47.22,2.34q-15.48.75-30.95,1.49c-5.65.28-10,2.51-12.3,8,11.2-.62,22.39-1.28,33.59-1.86q13.69-.71,27.4-1.26c11.22-.46,22.44-.83,33.66-1.29,3.32-.13,6.63-.37,9.94-.68.6-.06,1.15-.7,1.73-1.06C438.62,279.14,432.78,279,426.65,279.28ZM407.54,284c0-.35,0-.71,0-1.06l14.19.68c0,.13,0,.25,0,.38Z"/><path class="cls-10" d="M405.27,275.34l-52.68,2.11c.05-1.2.11-2.41.18-4,5.76,0,11.21.15,16.65,0,6.31-.22,12.62-.66,18.91-1.15a31.18,31.18,0,0,0,5-1.21h1.86a28,28,0,0,0,5,.57C403.12,271.43,404.75,272.54,405.27,275.34Z"/><path class="cls-3" d="M363.9,411.86,349.5,413a.7.7,0,0,1,0-.43c0-.15-.07-.3-.11-.44l-7.47,1-5,.23-5,.41-1.9.15-1.84.12-6.62.15-5.95.77-6.91.25c-1.95-.57-3.94-1.45-5.62.57l-2.51.11-1.24,0-5.93.29c-2.74-.3-5.73-1.42-7.26,2.23a.34.34,0,0,1-.1-.43c-.19-.49-.39-1-.58-1.46q-.22-.06-.12-.27c-.13-.33-.25-.65-.37-1l-.27-.91-2-5.4c-.17-.53-.33-1.06-.49-1.59-.14-.29-.28-.59-.41-.89l-.63-1.9,1.68,0c.09.33.17.66.26,1,1.09,1.91,4.42,2.16,6.8.53l3.75-.17h.6l1.3-.05,8.75-.74,7.16-.16,6-.73,5.66-.21,5-.4,2.54-.16,2.45-.18,6-.14,6-.72,1.87-.37.56.28,12.73-1.11Z"/><path class="cls-12" d="M352.72,425l15.46-.73,2.31,6.5-15.42,1-.63-.29-1.77-6.13C352.68,425.25,352.7,425.14,352.72,425Z"/><path class="cls-24" d="M393.36,271a31.18,31.18,0,0,1-5,1.21c-6.29.49-12.6.93-18.91,1.15-5.44.19-10.89,0-16.65,0-.07,1.61-.13,2.82-.18,4l-1.2.05c-.55-1.92-1.14-3.84-1.63-5.77a20.36,20.36,0,0,1-.32-2.59c1.58,3.49,4.08,4.59,7.78,3.28,1.11-.4,2.47-.12,3.71-.13,1.93,0,3.86,0,6.16,0-.3-1.61-.51-2.69-.71-3.77,2.13,2.67,4.8,3.49,8.26,3.22C380.86,271.25,387.11,271.24,393.36,271Z"/><path class="cls-24" d="M405.27,275.34c-.52-2.8-2.15-3.91-5-3.74a28,28,0,0,1-5-.57,44.72,44.72,0,0,0,5.44-.72c.6-.14,1-1.17,1.47-1.79l4.38,6.81Z"/><path class="cls-25" d="M326.49,303.56l-1.37-.78.79-1.13Z"/><path class="cls-25" d="M331.88,279.87l-1.21.69c.14-.55.27-1.1.4-1.65Z"/><path class="cls-25" d="M335.65,330l-.43-1.33Z"/><path class="cls-26" d="M619.29,213.1h0l0,0h0Z"/><path class="cls-20" d="M621.72,215l-.52-.43-.79-.63,0,0-1.17-.82.08,0c-1.86-2.38,1.31-1.83,1.69-2.91l.69-1v-4.68c0-.62-.06-1.23-.08-1.85l-.09-2.49-.09-2.52q-.4-6.22-.82-12.44c-.06-.86-.12-1.73-.19-2.6-.12-2.49-.24-5-.37-7.46l-.36-5.1c-.32-7.3-.69-14.6-1-21.91-.09-2.57.08-5.16.13-7.75,1.63,4.06,3.15,8.17,4.93,12.17,1.6,3.59,4.38,4.29,7.12,1.5,2.07-2.1,3.46-4.89,5.13-7.38.52-.77,1-1.58,1.8-3,2,6.44,4.4,12.05,3.56,18.57a97.53,97.53,0,0,0-.3,14.31c.3,16.8.7,33.61,1.05,50.41,0,1.24-.08,2.49-.12,3.74-1.3-.84-2.66-1.62-3.9-2.54-3-2.22-5.93-4.5-8.89-6.75l-.76-1.1a.23.23,0,0,0-.32-.2l-.88-.66.07.06-.73-.6,0,0-.68-.57,0,0-1.09-.85.06.08-.83-.72-.51-.42-1.2-.87.07.1Z"/><path class="cls-3" d="M642.08,230.74l-1-.63c-.66-.41-1.33-.82-2-1.25-.32-.22-.64-.44-1-.67-.75-.55-1.49-1.11-2.23-1.67q-2.24-1.68-4.44-3.38l-2.22-1.69h0l-.76-1.1a.27.27,0,0,0-.08-.15l0,0h0a.2.2,0,0,0-.11,0h-.09l-.41-.31-.4-.3-.07,0-.33-.27-.31-.26h0l-.66-.55,0,0-1.09-.85.06.08-.84-.71-.51-.42L623,216l-.59-.42,0,0,0,0h0l-.76-.75-.52-.43-.77-.61,0,0-1.1-.77h0c-.65.13-1.31.3-2,.44a4.42,4.42,0,0,1-.5.1,8.75,8.75,0,0,1-1,.14,4.06,4.06,0,0,1-.7,0l-.13,0a.67.67,0,0,1-.26-.09,1.22,1.22,0,0,1-.26-.16c-.47-.34-.93-.94-1.4-1.32.38-.37.74-.89,1.12-1.3a1.59,1.59,0,0,1,.13-.13l.12-.12a1.84,1.84,0,0,1,.22-.17l.18-.11a1,1,0,0,1,.28-.08,40.56,40.56,0,0,1,5.74-.12H621l.68-1c0-1.56,0-3.12,0-4.68h0l-.09-1.84c0-.83,0-1.66-.08-2.5l-.09-2.51h0l-.31-.32a4.44,4.44,0,0,1-.6-.65.44.44,0,0,1-.08-.17.45.45,0,0,1,0-.16c0-3.71.12-7.42.2-11.13-.06-.87-.13-1.73-.19-2.6h0q-.18-3.72-.37-7.46l-.36-5.1c-.32-7.3-.69-14.6-1-21.9-.09-2.58.08-5.16.13-7.75-1-2.44-2.22-4.83-3-7.34-.37-1.17.07-2.58.14-3.89l-.81-1.87-112.49,0c-3.52,0-4.69,1.12-4.53,4.38.51,11.06,1.08,22.11,1.59,33.17q.93,20.17,1.8,40.35c.07.51.12,1,.16,1.54s.07,1,.1,1.55.05,1,.08,1.55h0c0,.26,0,.51.06.77s0,.51.07.77,0,.25,0,.38h0c0,.25.07.51.12.76s0,.25.07.37.05.25.08.38l.09.37h0c.07.25.14.49.22.73s.08.25.13.37a8,8,0,0,0,.68,1.42h0c.14.23.29.46.45.68h0c.07.11.16.22.24.33h0a2.88,2.88,0,0,0,.36.84C513,227.39,521.38,236.77,530,246h0a3.8,3.8,0,0,0,.52.46,4.43,4.43,0,0,0,.6.39,10.31,10.31,0,0,0,1.54.7l1.09.4.55.2c.36.13.72.27,1.06.43l.95.32,1.34,0c5.7-.46,11.41-.86,17.1-1.4,3.25-.31,6.5-.72,9.74-1.13l3.24-.39,3.12-.19.94,0a14.57,14.57,0,0,0,1.87,0L589,244.25q15.39-1.53,30.78-3.06l15.39-1.49c2-.19,3.51-.33,4.62-.55l.57-.13a4.28,4.28,0,0,0,1.11-.44,2.2,2.2,0,0,0,.47-.37C643,237.16,642.71,235.12,642.08,230.74Zm-88.57-11.61.22-.51.52.22s0,.09,0,.14-.09.31-.18.35-.17,0-.27-.07l-.25-.12Z"/><path class="cls-24" d="M658,239l-7.29-3.82c.55-9.37,1-18.74,1.66-28.1.53-8.23,1.17-16.45,1.82-24.67a21.27,21.27,0,0,1,.79-3.29l1.06,0a14.14,14.14,0,0,1,.82,3.24Q657.49,210.7,658,239Z"/><path class="cls-15" d="M444.15,208.3c4.57.11,9.16,0,13.71.37,6,.5,10.44,3.85,14.09,8.39,3.33,4.14,6.52,8.4,10,12.42,5.13,5.94,11.57,8.65,19.5,7.07l1.21,1.53c-9.52,1.49-17.18-1.6-23.06-9.24-2.8-3.64-5.73-7.16-8.56-10.76-4.41-5.6-10.08-8.57-17.28-8.44-3.34.06-6.67.08-10,.13Z"/><path class="cls-16" d="M660.36,169.48c2.49,0,4.23,0,6,0,2.19,0,3-.46,2.68-3.11-.62-4.73-.54-9.55-.75-14.34l.84,0c.48,5.37,1,10.75,1.43,16.12a2.88,2.88,0,0,1-.33,1.78C669.13,171.42,662.79,171.49,660.36,169.48Z"/><path class="cls-16" d="M647.23,228.7l-.76-15.64,1.17-.06.76,15.64Z"/><path class="cls-16" d="M667.46,150.08l1.41-14.14,1.1.07q-.72,7.06-1.42,14.15Z"/><path class="cls-16" d="M633,145.7l-2.93-5.24c.15-.25.3-.5.44-.75,1.25.82,2.86,1.4,3.63,2.54.54.82,0,2.39-.14,3.63Z"/><path class="cls-16" d="M669,182.75V172.52h.63v10.23Z"/><path class="cls-16" d="M663.17,124.82a.49.49,0,0,1,.5.15l.61.55-1.83,7.55-.1-.07c.18-1.83-.5-3-2.45-3.11,0-.41.05-.82.07-1.24C663.15,129.14,663.05,126.88,663.17,124.82Z"/><path class="cls-16" d="M650.07,240.2l.24,1.32h-7v-.93Z"/><path class="cls-8" d="M664.28,125.52l-.61-.55h.65C664.31,125.16,664.29,125.34,664.28,125.52Z"/><path class="cls-26" d="M535.34,248.55l.95.31Z"/><path class="cls-25" d="M181.11,248.65c.6-.08,1-.18,1.41-.19q19.69-.33,39.38-.63c3.58-.05,4.1.66,3.67,4.69a7.41,7.41,0,0,1-1.43.3q-19.69.35-39.38.63C181.12,253.5,180.47,252.61,181.11,248.65Z"/><path class="cls-25" d="M197.34,263.51c-4.27,0-8.54,0-12.81,0-1.54,0-2.6-.15-2.59-2.13,0-1.81.73-2.28,2.43-2.31,8.3-.14,16.61-.39,24.92-.59,1.71,0,3.39-.17,3.45,2.39s-1.65,2.65-3.53,2.63C205.25,263.48,201.29,263.5,197.34,263.51Z"/><path class="cls-23" d="M300.6,267.3a49,49,0,0,1-2.26,5.06c-4.68,8-9.29,16-14.28,23.82a13.19,13.19,0,0,1-11.92,6.18c-2.67,0-5.34.41-8,.63l-7.5.36-.67-.27c4.32-16.48,15.38-26.68,30.82-32.5C291.17,268.93,296,268.36,300.6,267.3Z"/><path class="cls-27" d="M221.5,306.32l-3.14.45"/><path class="cls-25" d="M211.46,306.88l-1.07,1.29-.49-1.36Z"/><path class="cls-23" d="M301.36,266.65l-.84.66Z"/><path class="cls-9" d="M506.77,182.75a4.76,4.76,0,0,1-.52-1.38q-1-22.67-2-45.35c0-.91,0-1.83,0-2.91.95-.09,1.64-.2,2.34-.2h103c.62,0,1.25.09,1.87.13,1.37,22.68,2.75,45.35,4.17,68.85-5.38,0-10.26-.1-15.14,0-10.13.24-20.25.59-30.37.9.47-1,.9-2.05,1.42-3,1.64-3.18,3.31-6.34,5-9.5.4-.34.76-.71,1.18-1a28.05,28.05,0,0,0,8.8-35.15c-6.16-12.62-17.65-17.31-31.87-14.11a13.41,13.41,0,0,0-10.82,3.12c-3.65,3.17-6.68,7.05-10,10.63-.3.07-.71,0-.88.23-4.11,4.54-8.17,9.12-12.28,13.65C516,172.68,511.39,177.7,506.77,182.75Z"/><polygon class="cls-9" points="532.17 150.78 574.6 181.11 582.05 197.08 570.1 202.8 508.03 205.19 506.03 176.6 532.17 150.78"/><path class="cls-18" d="M508,205.19q30.12-1,60.25-2a11.83,11.83,0,0,0,1.83-.36c10.11-.31,20.23-.66,30.36-.9,4.88-.12,9.76,0,15.14,0-1.42-23.5-2.8-46.17-4.17-68.85,1.9-.74,2.07.42,2.14,1.87q.9,19,1.89,38.06a18.38,18.38,0,0,0,.95,3.69c0,.29.05.59.07.88q.35,4.26.68,8.5l.15,4.71.41,6.34c0,.39,0,.78.07,1.17v5l-4.28.53-11.25.38-1.41,0-2.1.25-11.63.19-8.19.39-2.45.11c-3.53,0-7.06,0-10.58.14-6,.28-12,.7-18,1.07l-8.49.12-8.82.43-16.24.41c-1.42.05-2.85,0-4.26.16C508.37,207.64,507.64,207,508,205.19Z"/><path class="cls-28" d="M555.83,215.32l-1.36,0-2.35-.21-8.32-.69,10.34-.95,6-.19,10.73-.42,3.69-.16,7.45-.2,1.41,0,4.39-.22,4.95-.21,7.51,0-.7,1.47-4,.36-6,0-10.92.58-8.53.17Z"/><path class="cls-28" d="M527.61,231l-1.42-.75c-1.61-1.88-3.23-3.75-4.85-5.63l.55-.56,2.46,2,3,3h4.85l7.93-.18,6.31,0c-.56.45-1.08,1.24-1.68,1.3-2.36.23-4.75.23-7.13.32l-2.58.2-1.16.1Z"/><path class="cls-28" d="M543.8,244.51l-1.18.25c-4.24.76-6.72-1.62-9.35-5.54,4.57,0,8.52,0,12.48,0,.24,0,.48.61.72.93l-.51.61-10.18-.67c3,3.74,6.74,4.23,11.66,2.17l.57-.55c.52.55,1,1.11,2,2.1l-4.22.36Z"/><path class="cls-17" d="M535,216.43c-3,0-5.93.13-8.9,0-.79,0-1.55-.79-2.33-1.22l13.16-.63,8.92.82a2.11,2.11,0,0,1-.12.48Z"/><path class="cls-11" d="M545.87,215.4l-8.92-.82,6.85-.14,8.32.69-2.53.32Z"/><path class="cls-28" d="M547.62,240.93l.39.82-.57.55-.9-1,.55-.48Z"/><path class="cls-28" d="M546.47,240.19c.21.22.41.44.62.65l-.55.48-.58-.52Z"/><path class="cls-18" d="M416.83,208.7c.19-4.3,3.64-7.8,7.52-7.65a6.64,6.64,0,0,1,6.65,7.14,7.75,7.75,0,0,1-7.92,7.24A6.31,6.31,0,0,1,416.83,208.7Z"/><path class="cls-18" d="M355.53,209.1c0-4.22,3.36-8,7.17-8.06a6.77,6.77,0,0,1,7.07,6.77,7.75,7.75,0,0,1-7.88,7.62A6.24,6.24,0,0,1,355.53,209.1Z"/><path class="cls-18" d="M410.54,207.64a7.65,7.65,0,0,1-7.68,7.8,6.53,6.53,0,0,1-6.6-6.16c-.12-4.18,3.51-8.23,7.39-8.24A6.62,6.62,0,0,1,410.54,207.64Z"/><path class="cls-18" d="M376,208.87c.09-4.31,3.43-7.88,7.33-7.81a6.74,6.74,0,0,1,6.86,7,7.86,7.86,0,0,1-7.83,7.41A6.13,6.13,0,0,1,376,208.87Z"/><path class="cls-4" d="M321.24,225.05c0-4.19.12-8.13-.06-12.06a7.49,7.49,0,0,0-1.41-3.84c-2-2.77-2.08-5.61.14-7.91a5.74,5.74,0,0,1,7.69-.36c2.13,1.71,2.42,5,1,7.68a13.84,13.84,0,0,0-1.33,4.87,49.1,49.1,0,0,0,.06,5.94C327.46,224.39,327.46,224.39,321.24,225.05Z"/><path class="cls-6" d="M402.13,268.52c-.49.62-.87,1.65-1.47,1.79a44.72,44.72,0,0,1-5.44.72h-1.86c-6.25.21-12.5.22-18.72.71-3.46.27-6.13-.55-8.26-3.22h0l-.87-4.34,18-1a59.32,59.32,0,0,0-10.95-.61c-4,.07-8.38,1.91-11.08-2.93-.19-.34-.92-.38-1.39-.56h0l-2.36-5c4,0,7.75.2,11.52,0,7-.45,14.05-2,21,.68.82,1.05,1.65,2.09,2.48,3.14l3.05,3.93H386.2l.06,1.09h11.48l4.39,5.64Z"/><path class="cls-6" d="M380.18,247.84l.61.61,3.15,1.88h0c.16,1.89-1.09,1.84-2.44,1.9q-10.89.57-21.78,1.24c-2.29.15-4.32-.05-5.86-2.1a10.44,10.44,0,0,0-2.45-1.76l-.32.47c.67.95,1.33,1.9,2.19,3.14-3.67.32-6.86.54-10,.89-3,.33-5.56-.21-7.61-2.52H334.4c-.55-1.13-1.1-2.26-2-4.05l16.39.92c.26.31.51.63.76.95l.21-.2-1-.76v-1.88l5.64.63C363,248.08,371.66,245.48,380.18,247.84Z"/><path class="cls-6" d="M343.16,260.37l-.62-.61c-.61-1.42-1.23-2.85-1.88-4.33,1.27-.06,2.53,0,3.76-.21,5.64-.79,11.37-2,15.41,3.76.05.07.18.09.28.14h0l1.83,3.61a43.47,43.47,0,0,1-16.89.16h0Z"/><path class="cls-6" d="M366.38,268.52c.2,1.08.41,2.16.71,3.77-2.3,0-4.23,0-6.16,0-1.24,0-2.6-.27-3.71.13-3.7,1.31-6.2.21-7.78-3.28-.41-.62-.82-1.25-1.24-1.87V265c3.18-.3,6.26-.55,9.34-.9,3.53-.4,6.63,0,8.09,3.86.09.24.49.36.75.53Z"/><path class="cls-24" d="M360.11,259.12c-.1-.05-.23-.07-.28-.14-4-5.78-9.77-4.55-15.41-3.76-1.23.18-2.49.15-3.76.21.65,1.48,1.27,2.91,1.88,4.33l-6.9-8.17c2.05,2.31,4.65,2.85,7.61,2.52,3.17-.35,6.36-.57,10-.89-.86-1.24-1.52-2.19-2.19-3.14l.32-.47a10.44,10.44,0,0,1,2.45,1.76c1.54,2,3.57,2.25,5.86,2.1q10.89-.67,21.78-1.24c1.35-.06,2.6,0,2.44-1.9q3.13,2.21,6.29,4.39c-6.91-2.66-13.94-1.13-21-.68-3.77.24-7.56,0-11.52,0Z"/><path class="cls-24" d="M366.38,268.52c-.26-.17-.66-.29-.75-.53-1.46-3.89-4.56-4.26-8.09-3.86-3.08.35-6.16.6-9.34.9v2.24l-3.15-4.39a43.47,43.47,0,0,0,16.89-.16l-1.83-3.61c.47.18,1.2.22,1.39.56,2.7,4.84,7.1,3,11.08,2.93a59.32,59.32,0,0,1,10.95.61l-18,1Z"/><path class="cls-24" d="M348.81,248.46l-16.39-.92c.88,1.79,1.43,2.92,2,4.05l-4.92-3.46.19-.92,19.15-.64v1.88Z"/><path class="cls-24" d="M380.18,247.84c-8.52-2.36-17.17.24-25.72-.64.8-.42,1.59-1.19,2.39-1.2,6.41-.1,12.82-.17,19.23,0C377.46,246.07,378.81,247.21,380.18,247.84Z"/><path class="cls-24" d="M397.74,262.88H386.26l-.06-1.09h9.56l-3.05-3.93C395.91,258,396.63,260.64,397.74,262.88Z"/><path class="cls-24" d="M402.13,268.52l-4.39-5.64A6.06,6.06,0,0,1,402.13,268.52Z"/><path class="cls-25" d="M333.78,267.26l-2.52-3.77Z"/><path class="cls-24" d="M383.94,250.33l-3.15-1.88Z"/><path class="cls-24" d="M343.16,260.37l1.89,2.51Z"/><path class="cls-11" d="M291.72,395.26l28.35-1.4.05,1.13-28.36,1.48Z"/><path class="cls-13" d="M304.3,405.2l-8.76.75Z"/><path class="cls-13" d="M289.89,406.18c-2.38,1.63-5.71,1.37-6.8-.53Z"/><path class="cls-13" d="M317.49,404.32l-6,.72Z"/><path class="cls-13" d="M328.15,403.71l-5,.39Z"/><path class="cls-13" d="M345.09,402.51l-6,.71Z"/><path class="cls-13" d="M333.13,403.37l-2.44.17Z"/><path class="cls-13" d="M294.24,406l-.6,0A.51.51,0,0,1,294.24,406Z"/><path class="cls-9" d="M370.49,430.8l-15.42,1-.63-.29-1.44.24c-1.55.24-2.54.29-3.28-.12a1.64,1.64,0,0,1-.22-.14,4.08,4.08,0,0,1-1.24-1.81l-.15-.38c-.09-.22-.18-.46-.27-.73s-.11-.33-.17-.5c-.25-.75-.53-1.64-.85-2.69h5.85c0-.12,0-.23.05-.34l15.46-.73h0l-4.28-12.42L349.5,413a.7.7,0,0,1,0-.43l-7.58.6-5,.23-5,.41-1.9.15-1.84.12-6.62.15-5.95.77-6.91.25-5.62.57-2.51.11-1.24,0-5.93.29-1.33.3-2.7.61-1.38.32a4.79,4.79,0,0,0,.1,1.2c3.55,10,7.09,20,10.71,30a10.56,10.56,0,0,0,.45,1.06c.07.13.13.26.2.38a3.87,3.87,0,0,0,.21.34,2.7,2.7,0,0,0,.22.33l0,0a3,3,0,0,0,.21.26,2,2,0,0,0,.24.27l.1.1a2.09,2.09,0,0,0,.22.2,2.88,2.88,0,0,0,.34.27,3,3,0,0,0,.38.24,5.27,5.27,0,0,0,.8.36,3.47,3.47,0,0,0,.46.13,3.56,3.56,0,0,0,.47.1,3.31,3.31,0,0,0,.47.07l.44,0h.67c.38,0,.78,0,1.21-.05l5.06-.42L316,452q5.06-.39,10.13-.72c10.91-.72,21.84-1.36,32.76-2l17.74-.88h0Zm-44.37,2.77-2.39.15-7.09.45c-3.12.2-6.22.37-9.32.5l-.15,0a1.59,1.59,0,0,1-.55-.28,2.91,2.91,0,0,1-.27-.24.57.57,0,0,1-.11-.11,5.46,5.46,0,0,1-.38-.44,3.55,3.55,0,0,1-.23-.31c-.1-.15-.19-.31-.27-.45a31.47,31.47,0,0,1-1.51-4.32l3.43-.24,1.69-.12c2.8-.2,5.54-.39,8.26-.56l1.7-.1,3.38-.18.3,0,.19.06h0a2.73,2.73,0,0,1,.41.22,3.18,3.18,0,0,1,.47.37l.24.24s0,0,0,0a2.55,2.55,0,0,1,.36.49,40.89,40.89,0,0,1,1.82,4.83Zm18.7-1.32c-5.06.39-9.86.79-14.65,1h-.09a1.49,1.49,0,0,1-.6-.19,1.91,1.91,0,0,1-.47-.31,6.35,6.35,0,0,1-.75-.72l-.24-.29c-.13-.17-.26-.35-.36-.51a23.25,23.25,0,0,1-1.56-4.3l3.3-.2c2.17-.14,4.26-.27,6.32-.37l1.54-.08,3.55-.15,2,0a1.06,1.06,0,0,1,.34.06,1.65,1.65,0,0,1,.53.29,3.11,3.11,0,0,1,.28.23h0l.16.15a1.25,1.25,0,0,1,.16.17c.11.11.21.22.31.34s.2.24.29.37.27.36.38.53a24,24,0,0,1,1.71,3.9Z"/><path class="cls-13" d="M349.48,412.55l-7.59.6,7.47-1Z"/><path class="cls-13" d="M308.64,415.22l-5.62.58C304.71,413.77,306.69,414.66,308.64,415.22Z"/><path class="cls-13" d="M336.87,413.37l-5,.41Z"/><path class="cls-13" d="M321.5,414.21l-5.95.76Z"/><path class="cls-13" d="M330,413.93l-1.84.13Z"/><path class="cls-13" d="M300.51,415.91l-1.24,0Z"/><path class="cls-29" d="M654.85,123.48,650.31,118l6.8,1.76c-.27,1-.58,2.15-.89,3.29l0,0Z"/><path class="cls-10" d="M620.44,119.06c-3-.56-2.92-2.12-2.29-3.77.09-.24,1.24-.34,1.25-.31C619.79,116.33,620.11,117.7,620.44,119.06Z"/><path class="cls-27" d="M279.2,347.33l-5,.14"/><path class="cls-25" d="M263.85,351.27l-2.2.88,1.76-2.08Z"/><path class="cls-15" d="M264.78,348.17l-1.45.65c.07-.3.13-.61.2-.92Z"/><path class="cls-30" d="M652.37,127.18l2.67-2.11c.33.21.66.42,1,.62a.52.52,0,0,0,.24.47c.43.63,1.37,1.63,1.22,1.85-2.13,3,.45,5.48.89,8.17l-1.71,9.95-1.43-.67c-.74-3.11-1.49-6.21-2.23-9.32.92-3.08,3-6.3-.92-8.88l.18.1Z"/><path class="cls-8" d="M653,136.14c.74,3.11,1.49,6.21,2.23,9.32-.48-.24-1.22-.37-1.41-.75-1.82-3.84-3.7-7.67-5.23-11.63-.52-1.33-.08-3-.08-5-2.63-1.21-2.39-3.73-1.13-6.51,1,1.74,2.06,3.49,3.1,5.23Z"/><path class="cls-8" d="M656.68,146.13l1.71-9.95q.75-3.13,1.51-6.29c2,.14,2.63,1.28,2.45,3.11q-1.85,5.19-3.68,10.37c-.42,1.17-.89,2.31-1.34,3.47Z"/><path class="cls-8" d="M655.5,148.1l.28.12-.27-.13Z"/><path class="cls-8" d="M655.51,148.09l-.24-.28c.06,0,.14,0,.16.06a.78.78,0,0,1,.07.23Z"/><path class="cls-27" d="M304.87,349.81l-3.09.15"/><path class="cls-18" d="M653,136.14l-2.52-9.38,1.6.5C656.05,129.84,653.94,133.06,653,136.14Z"/><path class="cls-14" d="M654.85,123.48l1.35-.42-.69.81Z"/><path class="cls-21" d="M659.9,129.89q-.76,3.15-1.51,6.29c-.44-2.69-3-5.13-.89-8.17.15-.22-.79-1.22-1.22-1.85l4.28-1.85c-.2,1.44-.39,2.89-.59,4.34C660,129.07,659.92,129.48,659.9,129.89Z"/><path class="cls-8" d="M660,128.65c.2-1.45.39-2.9.59-4.34l2.61.5C663.05,126.88,663.15,129.14,660,128.65Z"/><path class="cls-21" d="M656,125.69c-.34-.2-.67-.41-1-.62C655.37,125.28,655.7,125.49,656,125.69Z"/><path class="cls-11" d="M456,423.43l1.9,0,2,3c-11.09.68-22.18,1.34-33.28,2-9.53.59-19,1.31-28.59,1.81-4.25.22-5.61-.7-7.05-4.63-3.8-10.36-7.48-20.75-11.18-31.15s-7.34-20.8-11-31.2c-.85-2.42-1.08-4.69,1.34-6.41,3.17,9.26,6.29,18.54,9.53,27.78,4.38,12.48,8.92,24.91,13.27,37.4,1.2,3.44,3.48,4.69,6.93,4.49,11.33-.66,22.66-1.28,34-1.92Z"/><path class="cls-25" d="M425.67,313.34a4.87,4.87,0,0,1-1.13.32c-6.44.23-12.89.43-19.34.66q-17.94.62-35.87,1.27c-3.73.14-7.46.47-11.2.58-2.17.06-4.47-3.39-3.51-5.29a2.69,2.69,0,0,1,2-.92c6.86-.27,13.73-.44,20.59-.67q18.4-.62,36.81-1.28c1.86-.07,3.71-.54,5.56-.57C424.82,307.35,425.16,307.73,425.67,313.34Z"/><path class="cls-25" d="M420.76,299.24c-5.34.44-10.38,1-15.44,1.23-7.17.35-14.35.41-21.53.68-9.76.37-19.51.86-29.27,1.23-3,.11-4.86-1.56-4.91-4.55,0-.56,1.16-1.59,1.84-1.63,5.18-.34,10.38-.52,15.57-.7,7-.24,13.94-.38,20.9-.66,8.72-.36,17.43-.9,26.15-1.2C419.1,293.47,419.11,293.61,420.76,299.24Z"/><path class="cls-25" d="M403.9,328.11c-1.36,0-2.48,0-3.6,0-12.54.51-25.09,1.05-37.64,1.49a2.9,2.9,0,0,1-2.22-1.12,28,28,0,0,1-1.77-4.45,30,30,0,0,1,4.28-.91c4.45-.3,8.91-.49,13.37-.65,7.06-.24,14.12-.49,21.18-.62C402.89,321.76,402.89,321.84,403.9,328.11Z"/><path class="cls-23" d="M459.93,426.47l-2-3c1.28-.2,2.56-.46,3.85-.59,4.58-.48,9.16-.91,13.74-1.36-.13,3.44-2.71,4.07-5.32,4.41-3,.4-6.12.53-9.19.77Z"/><path class="cls-17" d="M435.17,322.81c3.44,0,6.59,2.42,8.22,6.64a9.26,9.26,0,0,1-2.13,10.13c.23-3,1.49-6.68.45-9.51S437.34,325.09,435.17,322.81Z"/><path class="cls-17" d="M432.84,327c3.23,0,4.75,1.92,5.73,4.14a5.77,5.77,0,0,1-1.32,7c0-2.2.52-4.44-.15-6.24S434.58,328.92,432.84,327Z"/><path class="cls-17" d="M433.76,336.67c-.7-2.09-1.31-3.9-2.08-6.16.88.61,2,1,2.54,1.84C435.2,333.9,435.27,335.58,433.76,336.67Z"/><path class="cls-1" d="M446.76,367.8l-9.61,14.49c-.37-.21-.67-.29-.69-.41-.77-4.75-4-4.72-7.84-4.48-9.06.58-18.14.89-27.21,1.19-1,0-2.51-.47-2.78-1.14-1.69-4.13-3.1-8.37-4.74-13l35.48-1.4c-.39-1.81-.74-3.45-1.26-5.84Z"/><path class="cls-13" d="M442.89,382.61A10.77,10.77,0,0,1,433,386Z"/><path class="cls-31" d="M532.48,439.31l-1-.24a.49.49,0,0,1-.25-.5h0Z"/><path class="cls-17" d="M407.56,283l14.19.68V284H407.54Z"/><path class="cls-6" d="M354.44,431.5c-5.4.95-5.48.89-7.62-6.13h5.85Z"/><path class="cls-28" d="M608.48,235.22l-.57-.58-6.46-6-2.51-1.2-25.2,1.54-12.13.75a2.56,2.56,0,0,1-.1.48l.4.71a.79.79,0,0,1,.27.38l10.71,9.92a1.13,1.13,0,0,1,.45.36l4.38.11c4.11-.22,8.24-.34,12.34-.7,6.69-.59,13.37-1.34,20.05-2l.12-2.08Zm-13,3.7c-5.81.53-11.65.83-17.46,1.4a7,7,0,0,1-6.39-2.3c-2.17-2.34-4.68-4.36-7-6.53.1-.26.19-.53.29-.8,4.87-.34,9.73-.74,14.6-1,5.84-.32,11.68-.65,17.52-.69a7.47,7.47,0,0,1,4.37,1.63c2.4,1.89,4.49,4.17,7.25,6.8C603.7,238,599.61,238.55,595.5,238.92Z"/><path class="cls-28" d="M605.05,222.17c.08-.29.15-.59.23-.89l.65,0c1.59,1.52,2.77,3.88,5.65,2.73l4.93-.27c-1-.88-1.36-1.27-1.77-1.66l-.59-1.34c2.67,1.24,4.8,3.7,8.11,2.53l4.4,0a7.84,7.84,0,0,1-2.1,1.24c-1.79.41-3.64.6-5.46.87l-1.2,0-2.59,0-3.34.37c-3,.59-5-.87-6.64-3.05Z"/><path class="cls-30" d="M570.91,212.88l-10.73.42c.78-1.5,1.57-3,2.21-4.21Z"/><path class="cls-28" d="M586.53,225.89l14.29-.71-1.63-2.68.32-.45c.69.42,1.38.84,2.08,1.25l0,0,.58.6,0,0,.59.61,0,0,.33.53c-.33.47-.65.94-1,1.4l-6.2.16c-2.44.16-4.88.42-7.32.4C588,227.1,587.24,226.31,586.53,225.89Z"/><path class="cls-30" d="M621,210.2c-.38,1.08-3.55.53-1.69,2.91a20.13,20.13,0,0,1-4.22.71c-.7,0-1.37-1-2-1.59.68-.66,1.29-1.8,2-1.91A43,43,0,0,1,621,210.2Z"/><path class="cls-30" d="M610.11,238.91l.12-2.09c.13-1.8.28-3.61.38-5.42,0-1,0-2,0-2.94H612c.22,3.37.46,6.74.55,10.11A21.32,21.32,0,0,1,610.11,238.91Z"/><path class="cls-30" d="M548,206.36c6-.37,12-.79,18-1.07,3.52-.16,7.05-.1,10.58-.14-.45.21-.9.6-1.36.61C566.07,206,557,206.17,548,206.36Z"/><path class="cls-30" d="M626.66,223.29l-4.4,0c-.08-1.78-.15-3.55-.23-5.33l1-.24Q624.81,220.52,626.66,223.29Z"/><path class="cls-30" d="M617,215.9l2.88,2.61-.43,1.07c-1.11-.2-2.43-.11-3.26-.7-.5-.36-.22-1.79-.29-2.74Z"/><path class="cls-30" d="M620.65,185.21l.82,12.44c-.35-.43-1-.87-1-1.3C620.45,192.64,620.57,188.93,620.65,185.21Z"/><path class="cls-30" d="M578.94,205l8.19-.39C584.49,206.65,581.72,206.09,578.94,205Z"/><path class="cls-30" d="M617.73,197.08c-.14-2.11-.27-4.23-.41-6.34,1.73.38,2.6,1,1.41,3A13,13,0,0,0,617.73,197.08Z"/><path class="cls-30" d="M530.64,206.91l8.82-.43C536.55,207.32,533.67,208.68,530.64,206.91Z"/><path class="cls-30" d="M602.27,204.18l11.25-.38Z"/><path class="cls-30" d="M596,226.7l6.2-.16-.75,2.05-2.51-1.21Z"/><path class="cls-30" d="M578.74,214.49l10.92-.58Z"/><path class="cls-30" d="M617.17,186q-.33-4.25-.68-8.5C616.72,180.36,617,183.2,617.17,186Z"/><path class="cls-30" d="M573.34,241.52l4.38.12C576.21,243.38,574.75,243.45,573.34,241.52Z"/><path class="cls-30" d="M620.09,175.15c.13,2.49.25,5,.37,7.46C620.34,180.12,620.22,177.64,620.09,175.15Z"/><path class="cls-30" d="M600.31,212l-7.51,0Z"/><path class="cls-30" d="M582.05,212.52l-7.45.2Z"/><path class="cls-30" d="M587.85,212.27l-4.39.22Z"/><path class="cls-30" d="M621.73,204.51v0Z"/><path class="cls-30" d="M614.74,222.12c.41.39.82.78,1.77,1.66l-4.93.27Z"/><path class="cls-30" d="M617.8,203.27v0Z"/><path class="cls-30" d="M595.64,213.86l4-.36Z"/><path class="cls-30" d="M612,225.78l3.34-.37Z"/><path class="cls-30" d="M621.56,200.17l.09,2.49Z"/><path class="cls-30" d="M598.76,204.46l2.1-.25Z"/><path class="cls-30" d="M619.27,213.09l1.17.82Z"/><path class="cls-30" d="M617.9,225.36l1.2,0Z"/><path class="cls-30" d="M622.41,215.59l1.2.87Z"/><path class="cls-30" d="M628.53,220.34l.76,1.1Z"/><path class="cls-30" d="M624.89,217.52l1.09.85Z"/><path class="cls-30" d="M605.05,222.17l.28.56Z"/><path class="cls-30" d="M627.33,219.48l.88.66Z"/><path class="cls-30" d="M608.48,235.21l-.57-.57Z"/><path class="cls-30" d="M603.18,225.14l-.33-.53Z"/><path class="cls-30" d="M605.93,221.32l-.65,0a2.69,2.69,0,0,0,0-.4l0,0Z"/><path class="cls-30" d="M624.12,216.88l.83.72Z"/><path class="cls-30" d="M626.67,218.94l.73.6Z"/><path class="cls-30" d="M626,218.39l.68.57Z"/><path class="cls-30" d="M621.72,215l.76.74Z"/><path class="cls-30" d="M602.83,224.59l-.59-.61Z"/><path class="cls-30" d="M602.21,224l-.58-.6Z"/><path class="cls-30" d="M620.41,213.89l.79.63Z"/><path class="cls-13" d="M596,226.7l2.94.68-25.2,1.55-12.13.75-.78-.06c0-.23,0-.45,0-.68l-4.38-1.29c0-.18,0-.35,0-.52l7,.06c.29.36.59,1.06.86,1,6-.31,11.9-.7,17.86-1.07l4.42-1.27c.71.42,1.43,1.21,2.15,1.21C591.12,227.12,593.56,226.86,596,226.7Z"/><path class="cls-28" d="M582.11,227.16c-6,.37-11.91.76-17.86,1.07-.27,0-.57-.68-.86-1l3.05-.14Z"/><path class="cls-28" d="M542.73,220.56c.15-.42.31-.83.46-1.25l1.33.92.56.75.74,1.14a.83.83,0,0,0,.16.57,37.29,37.29,0,0,1-3.77,1.18,23.83,23.83,0,0,1-3.39.22l-4.94-.22,3.12-1.23h7.39C543.46,221.47,543.1,221,542.73,220.56Z"/><path class="cls-28" d="M556.41,227.65l4.38,1.29-2.57.66a16.82,16.82,0,0,0-3.1.08c-3.35.73-4.79-1.36-5.77-4.26l2.4,1.8Z"/><path class="cls-30" d="M546.41,228.89l-6.31,0C541.54,226.55,543.88,226.55,546.41,228.89Z"/><path class="cls-30" d="M535,216.43l10.73-.55Z"/><path class="cls-30" d="M542.73,220.56c.37.45.73.91,1.66,2.08H537a21.67,21.67,0,0,0,3.53-.58A9.75,9.75,0,0,0,542.73,220.56Z"/><path class="cls-30" d="M533.88,223.87l4.94.22C537.17,224,535.39,226.89,533.88,223.87Z"/><path class="cls-30" d="M527.61,231l6.25-.23Z"/><path class="cls-30" d="M535,230.71l2.58-.2Z"/><path class="cls-30" d="M549.59,215.45l2.53-.32,2.35.21Z"/><path class="cls-30" d="M556.41,227.65l-4.66-.43,4.67-.09C556.41,227.3,556.41,227.47,556.41,227.65Z"/><path class="cls-30" d="M532.17,229.09h0Z"/><path class="cls-30" d="M543.8,244.51l2-.3Z"/><path class="cls-30" d="M553.73,218.61l.52.22c-.07.17-.11.45-.23.49s-.34-.12-.51-.19C553.58,219,553.66,218.78,553.73,218.61Z"/><path class="cls-30" d="M558.22,229.6l2.57-.66c0,.23,0,.45,0,.68Z"/><path class="cls-13" d="M561.51,230.16l.4.71Z"/><path class="cls-30" d="M546,222.69a.83.83,0,0,1-.16-.57,3.26,3.26,0,0,1,.29.36S546,222.62,546,222.69Z"/><path class="cls-30" d="M545.08,221l-.56-.75Z"/><path class="cls-10" d="M589.33,165.2c0-.42-.05-.84-.09-1.27v0l-.06-.55c0-.11,0-.22,0-.32a3.4,3.4,0,0,0-.06-.46.78.78,0,0,0,0-.16c0-.33-.11-.67-.17-1,0-.14,0-.28-.08-.42-.12-.59-.25-1.18-.41-1.76-.06-.22-.12-.45-.19-.67s-.07-.23-.1-.34l-.11-.32c-.16-.51-.34-1-.54-1.53s-.34-.85-.53-1.28-.3-.66-.46-1c-6.16-12.62-17.65-17.31-31.87-14.11a17.44,17.44,0,0,1-2.19,1.56,28,28,0,0,0-3.47,2.13l-.89.67-.49.39-.48.41q-.48.41-.93.84c-.17.16-.34.32-.5.49a25,25,0,0,0-2.07,2.31c-.23.29-.46.59-.68.89l-.35.49c-.23.33-.46.67-.67,1l-.31.51q-.32.52-.6,1c-.39.71-.75,1.44-1.07,2.18-.15.35-.3.71-.44,1.08s-.24.65-.36,1-.22.63-.31.95a6.13,6.13,0,0,0-.18.61c-.14.49-.27,1-.38,1.47s-.16.76-.23,1.14-.11.62-.15.93a.43.43,0,0,0,0,.11c0,.19-.06.38-.08.57q-.07.54-.12,1.08t-.09,1.35c0,.43,0,.85,0,1.28s0,.63,0,.95c0,.81.08,1.62.18,2.42,0,.49.12,1,.2,1.45q0,.15.06.33c.06.32.12.63.19.94s.13.58.2.87.17.68.27,1,.11.4.17.6.17.52.26.78.21.6.33.9.29.74.45,1.11.32.73.5,1.09.31.62.47.92.44.81.68,1.21.61,1,.94,1.45c.1.15.2.3.31.44s.17.23.26.35q.3.41.6.78c.24.3.49.6.76.9s.36.41.55.61.61.64.93,1,.66.62,1,.92c.68.59,1.4,1.17,2.16,1.71.38.27.76.54,1.16.79,1.74,1.12,3.51,2.19,5.27,3.28,7.31,1.05,14.43.78,21.06-3,.4-.34.76-.71,1.18-1l.54-.41c.22-.17.45-.35.66-.53l.65-.54.62-.56.61-.57c.2-.19.39-.39.58-.59s.39-.4.57-.6.37-.41.55-.61l.53-.62c.62-.77,1.2-1.56,1.74-2.38.23-.34.44-.68.65-1s.53-.91.78-1.38c0,0,0-.07.05-.1s0,0,0,0l.29-.57.27-.57,0-.08c.13-.31.27-.62.39-.92s.17-.39.24-.58.19-.5.28-.75.18-.5.26-.75c.14-.42.27-.85.38-1.27s.22-.86.32-1.29.15-.69.22-1,.12-.7.17-1.05.12-.87.16-1.31c0-.07,0-.14,0-.21s0-.39,0-.59,0-.63.05-1,0-.61,0-.92S589.35,165.62,589.33,165.2Zm-16.79,14.44a4,4,0,0,1-.5.1,5,5,0,0,1-.56.09l-.87.11-1,.13-.48.08a4,4,0,0,0-.48.09c-.88.2-2.38.62-2.42,1.07-.34,3.25-3,2.54-5,3.25-.27-.93-.5-1.68-.8-2.71l-6,.77c-1.09-5.34-1-5.47,3.95-6.24,1.54-.25,3.08-.5,4.61-.78.76-.13,1.51-.27,2.26-.42l.81-.15,2.46-.51a5.89,5.89,0,0,0,2.55-1.44c-.48-1.35-1-3.18-2.07-3.72-3.16-1.59-6.58-2.62-9.89-3.9-3.72-1.43-5.33-3.5-4.79-7.35.2-1.41,1.76-2.86,3.06-3.83,1.5-1.13,3.25-1.72,3-4.21-.06-.57,1.31-1.67,2.17-1.87,1-.24,2.19.25,3.3.42,0,.29,0,.59,0,.88l4.94-2.5c2.91,4.74,2.9,4.72-1.68,7.3-2.89,1.62-5.75,3.29-9.33,5.34,4,1.7,7.33,3.15,10.7,4.57,5.41,2.27,7.75,7,5.86,12.63a5.07,5.07,0,0,1-2.82,2.5,6,6,0,0,1-1,.3S572.55,179.65,572.54,179.64Z"/><path class="cls-4" d="M554.6,140a17.36,17.36,0,0,1-2.19,1.55c-18.81,9.74-20.09,36.95-2.25,48.41,1.74,1.12,3.51,2.19,5.27,3.28-1.94-.07-4.08.37-5.81-.27-15.37-5.76-22.39-21.78-16.46-37.17.25-.67.43-1.37.64-2.05,3.3-3.58,6.33-7.46,10-10.63A13.41,13.41,0,0,1,554.6,140Z"/><path class="cls-30" d="M546,240.8l.58.52.9,1c-4.92,2.06-8.64,1.57-11.66-2.17Z"/><path class="cls-24" d="M348.82,248.45l1,.76-.21.2c-.25-.32-.5-.64-.76-.95Z"/><path class="cls-24" d="M303.85,428.49c6.44-.44,12.45-.9,18.46-1.2a2.82,2.82,0,0,1,2,1.44,40.23,40.23,0,0,1,1.82,4.83c-6.4.41-12.6.86-18.8,1.1-.65,0-1.55-1.07-2-1.84A31.19,31.19,0,0,1,303.85,428.49Z"/><path class="cls-24" d="M326.1,426.87c6-.34,11.35-.74,16.73-.84.82,0,1.86,1.26,2.46,2.16a24,24,0,0,1,1.71,3.9c-5.87.42-11.34.91-16.83,1.11-.83,0-1.95-1.14-2.51-2A23.38,23.38,0,0,1,326.1,426.87Z"/><path class="cls-3" d="M565.9,149.5l4.94-2.5c2.91,4.74,2.9,4.72-1.68,7.3-2.89,1.62-5.75,3.29-9.33,5.34,4,1.7,7.33,3.15,10.7,4.57,5.41,2.27,7.75,7,5.86,12.62a5.05,5.05,0,0,1-2.82,2.51c-1.52.59-3.28.54-4.9.9-.88.2-2.38.62-2.42,1.06-.34,3.26-3,2.55-5,3.26-.27-.93-.5-1.68-.8-2.71l-6,.77c-1.09-5.35-1-5.47,3.95-6.25,3.39-.53,6.78-1.13,10.14-1.85a5.89,5.89,0,0,0,2.55-1.44c-.48-1.35-1-3.19-2.07-3.73-3.16-1.58-6.58-2.61-9.89-3.89-3.72-1.43-5.33-3.5-4.79-7.35.2-1.41,1.76-2.87,3.06-3.83,1.5-1.13,3.25-1.72,3-4.21-.06-.57,1.31-1.68,2.17-1.87,1-.24,2.19.25,3.3.42Z"/></g></svg>