<svg xmlns="http://www.w3.org/2000/svg" viewBox="0 0 841.89 595.28"><defs><style>.cls-1{fill:#fb3640;}.cls-2{fill:#00e6bb;}.cls-3{fill:none;stroke:#2630ea;stroke-miterlimit:10;stroke-width:3px;}.cls-4{fill:#f0e100;}.cls-5{fill:#2630ea;}.cls-6{fill:#fff;}.cls-7{fill:#001395;}</style></defs><g id="Layer_2" data-name="Layer 2"><path class="cls-1" d="M152.66,264.76c3.71-6.73,6.83-12.59,10.18-18.3.57-1,2.25-2,3.14-1.73,5.71,1.62,11.34,3.58,17.56,5.6-2.69,6.56-4.86,12.17-7.34,17.6-.51,1.14-2.32,2.51-3.25,2.29C166.39,268.68,159.89,266.76,152.66,264.76Z"/><path class="cls-1" d="M746.81,178.21c3.71-6.73,6.83-12.59,10.18-18.3.57-1,2.25-2,3.13-1.73,5.72,1.61,11.35,3.57,17.57,5.6-2.69,6.55-4.86,12.16-7.34,17.6-.52,1.14-2.32,2.5-3.25,2.28C760.53,182.13,754,180.21,746.81,178.21Z"/><path class="cls-1" d="M267.53,80.34c3.71-6.73,6.83-12.59,10.18-18.3.57-1,2.25-2,3.14-1.73,5.71,1.62,11.34,3.58,17.56,5.6-2.69,6.56-4.86,12.17-7.34,17.6-.51,1.14-2.32,2.51-3.25,2.29C281.26,84.26,274.76,82.34,267.53,80.34Z"/><path class="cls-1" d="M641.5,342.42c3.7-6.73,6.83-12.6,10.18-18.3.57-1,2.25-2,3.13-1.73,5.71,1.61,11.35,3.57,17.57,5.6-2.69,6.55-4.87,12.16-7.34,17.6-.52,1.13-2.32,2.5-3.25,2.28C655.22,346.33,648.73,344.41,641.5,342.42Z"/></g><g id="Layer_3" data-name="Layer 3"><path class="cls-2" d="M306.33,386.75V167.83c0-32.06,31-54.39,60.28-43.48l181.56,67.58c17.8,6.63,29.66,24,29.66,43.48V446.28c0,31.31-29.63,53.57-58.64,44.05L337.64,430.8C319,424.69,306.33,406.88,306.33,386.75Z"/><path class="cls-3" d="M333.41,365.31V142c0-32.7,31.58-55.48,61.49-44.35l185.21,68.95c18.16,6.76,30.26,24.49,30.26,44.34V426c0,31.94-30.22,54.64-59.82,44.94l-185.2-60.73C346.32,404,333.41,385.83,333.41,365.31Z"/><path d="M325.31,420.51a33.68,33.68,0,0,1,4.73,2c.67.42.9,1.54,1.32,2.34-.85.19-1.92.81-2.53.5-7-3.43-12.45-.19-18.24,4,2.23,2.74,4.28,5.28,6.36,7.78a18.48,18.48,0,0,1,2.18,2.46,12.73,12.73,0,0,1,.83,3c-1-.25-2.4-.17-3-.81-2.56-2.66-5.29-5.29-7.21-8.39-3.35-5.39-6.16-11.12-9.17-16.72-.47-.86-.82-1.79-1.39-3C279,425.81,257.63,432.16,233.63,428a25,25,0,0,0,.21,3.19c3.93,19.79,10.73,38.49,22.14,55.23,12.46,18.27,28.49,32.17,50.41,37.78,19.07,4.87,36.17.32,51.27-12.17a6.07,6.07,0,0,0,2.31-4.86c1.15-27.15,2.3-54.3,3.61-81.44.69-14.26,1.65-28.51,2.59-42.76.08-1.08,1-2.1,1.48-3.15.44,1.16,1.31,2.33,1.25,3.46-.52,11.27-1.31,22.54-1.8,33.82q-2.13,48-4.07,96.09c-.31,7.25-.28,7.34,6.94,8.47,9.47,1.47,19,2.87,28.46,4.12,2.7.35,3.8,1.32,3.73,4.15-.24,8.68-.21,17.37-.42,26,0,.94-.93,1.85-1.42,2.77-.44-1-1.23-2-1.25-2.95-.2-7.68-.35-15.37-.3-23.06,0-2.59-.69-3.6-3.4-4-9.8-1.32-19.55-2.95-29.33-4.46-1-.15-1.94-.25-3.42-.43-.15,3.17-.31,6.12-.44,9.06s-.1,6.21-.46,9.27c-.13,1.1-1.22,2.09-1.86,3.13-.5-1-1.44-2.1-1.41-3.13.21-7.79.61-15.57.94-23.36,0-1,0-2.1,0-3.71-2.15,1.52-3.79,2.77-5.51,3.89-21.88,14.27-44.14,13.26-66.4,1.2-18.42-10-31.5-25.26-41.16-43.58a162.59,162.59,0,0,1-18.61-72.46c-.12-4.68.09-4.82,4.68-3.71,1.07.26,2.14.49,3.22.69s2,.28,3.1.43a5.2,5.2,0,0,0,.25-1.46c-1.74-13.17-3.42-26.35-8.42-38.81-2.7-6.74-6.91-11.86-14.16-14-6-1.77-12-3.59-18.08-5.4-1.33-.4-2.66-.84-4-1.25-4.13-1.25-5.78-3.42-3.6-8.51,1.44-3.37,4.4-5.67,5.19-9.22a1.89,1.89,0,0,1,.63-1c5.55-4.5,10.44-9.86,18.64-9.78a84.08,84.08,0,0,1,31.76,6.6c.74.31,1.48.6,2.23.86.14.05.34-.11,1.16-.4-2.05-1.44-3.86-2.58-5.51-3.92-2.24-1.81-4.68-3.53-6.4-5.76-1-1.26-1.44-3.88-.77-5.17s3.07-2.28,4.68-2.24c7.18.19,13.11,3.83,18.92,7.6,13.44,8.71,20.87,21.65,25.76,36.44,5,15.15,7.29,30.87,10.15,46.49a149.4,149.4,0,0,0,4.63,18.88c1.63,5.06,4.24,9.81,6.25,14.33,4.84-1.92,9.11-3.45,13.19-5.38,1-.48,1.55-2.22,2.07-3.48,7.47-17.87,14.55-35.92,22.43-53.61,9.54-21.42,22.73-40.56,38.58-57.84.74-.81,1.47-1.63,2.19-2.47.12-.13.12-.37.23-.7a9.83,9.83,0,0,0-1.29-1.08c-11.36-6.52-12.78-19.1-9.27-29.06,2.64-7.48,7.37-13.7,12.26-19.77a13.2,13.2,0,0,0,3-8.12c.92-17.35,1.86-34.72,3.29-52,.76-9.18,3.7-17.81,9.9-25a33.15,33.15,0,0,1,22.14-11.37c20.82-2.24,41.26-.64,61.11,6.59a224.27,224.27,0,0,1,38.24,17.78c6.32,3.75,8.82,8.44,7.71,15.75-2.87,19.05-5.19,38.18-8.12,57.23-2.27,14.8-5.12,29.51-7.74,44.26-.26,1.52-.49,2.74,1.21,3.83,18.36,11.77,30.65,28.61,39.77,48,7.75,16.54,11.67,34.13,14.38,52.09q7.68,50.83,11.29,102.12c.91,12.55,1.44,25.12,2.13,37.69a4.6,4.6,0,0,1-.1,1.78,14.13,14.13,0,0,1-1.16,2.12A7.45,7.45,0,0,1,584,543.2a27.48,27.48,0,0,1-.55-4.45c-2.59-32-4.72-64-7.93-95.85-2.06-20.44-5.07-40.85-8.87-61a129.37,129.37,0,0,0-25.3-56c-7-9-15-16.92-24.91-22.63-1.94-1.11-1.94-2.45-1.62-4.24,2.29-12.68,4.82-25.32,6.76-38,3.39-22.3,6.36-44.67,9.63-67,.65-4.45-.92-7.33-4.64-9.7-16.85-10.72-35.08-18.13-54.33-23.17a12.29,12.29,0,0,0-1.88-.21c4.23,3,8.67,5.76,12.54,9.12,11,9.58,16.42,22,16.66,36.48.44,27.86-3.66,55-14.69,80.75-7.64,17.86-18.69,33.18-35,44.33a5,5,0,0,0-1.88,3.57q.65,43.89,1.51,87.79.92,48.38,1.91,96.76c.13,6.89.32,13.78.48,20.67a8,8,0,0,1,0,2.39,16.26,16.26,0,0,1-1.34,2.67c-.6-.89-1.7-1.75-1.73-2.66-.27-6.89-.31-13.78-.45-20.68-.59-31-1.25-61.92-1.78-92.88q-.8-46.74-1.36-93.49a6.32,6.32,0,0,0-2.15-4.89c-6.19-6.09-12.14-12.42-18.3-18.54a8.18,8.18,0,0,0-4-2.13c-7.17-1.3-14.39-2.35-21.58-3.56a12.92,12.92,0,0,1-4.32-1.17c-3.86-2.23-6.16-.55-8.81,2.37a231.18,231.18,0,0,0-42.28,66.77c-5.87,14.11-11.59,28.28-17.35,42.43C326,418,325.71,419.19,325.31,420.51ZM433.52,301c1.67.59,2.65,1,3.68,1.29,8.86,2.17,17.81,1.8,26.81,1.1,7.58-.59,13.14-3.57,15.47-11.21a1.11,1.11,0,0,1,.13-.27c1.36-2.1,1.88-4-.59-5.86a5.6,5.6,0,0,1-1.67-3.12c-2-9.3-2.69-18.52,1.4-27.58,1.08-2.38,2.23-2.88,4.7-2.55,7.11,1,9.49-1,10.55-8a1,1,0,0,1,.05-.3c1-2.85-.32-4.85-2.75-5.79-3.78-1.45-7.75-2.4-11.62-3.63a7.74,7.74,0,0,1-3.08-1.43c-6.9-6.74-9.88-15.08-9.53-24.63a2.6,2.6,0,0,0-2-3c-13.34-5-24.47-13.29-34.45-23.31a5,5,0,0,0-3.85-1,92,92,0,0,0-10.46,2.52,3.77,3.77,0,0,0-2.24,2,85.42,85.42,0,0,0-3.46,11.72c-2.29,12.37-4.68,24.74-6.29,37.2a259.29,259.29,0,0,0-2.16,31c-.09,10.28,5.1,17.84,15.07,21.12,7,2.3,14.25,3.7,21.38,5.56a18.29,18.29,0,0,1,2.84,1.25,12.21,12.21,0,0,1-1.79,2.47C437.91,297.9,436,299.17,433.52,301ZM205.83,317.47l.18.76c.34.08.68.17,1,.23,7.66,1.28,15.34,2.55,23,3.86a13.6,13.6,0,0,1,3.44,1c.47.21.66,1,1,1.59-.56.31-1.1.86-1.66.89a10.34,10.34,0,0,1-2.33-.5c-6.76-1.29-13.5-2.76-20.31-3.74-2.78-.4-5.74.14-8.59.52-.92.12-1.73,1.08-2.59,1.65,9.86.12,19,2.49,28.08,4.67,1.23.3,2.26,1.43,3.38,2.18-1.3.18-2.67.72-3.9.5-5.59-1-11.12-2.49-16.74-3.31a54,54,0,0,0-11-.19c-1.41.08-2.75,1.25-4.12,1.93l.35.84c10.64-.78,20.83,1.57,30.95,4.28,1,.27,1.73,1.39,2.59,2.12a10.18,10.18,0,0,1-3.17.46c-7-1.26-13.89-2.81-20.89-3.93a30.75,30.75,0,0,0-8.62.09c-1.26.17-2.36,1.51-3.54,2.32,1.08.85,2,2.1,3.27,2.49,6.09,1.91,12.23,3.71,18.41,5.32,10.25,2.67,16.83,9.1,20.07,19.08.62,1.9,1.4,3.76,1.83,5.7,1.49,6.82,2.94,13.65,4.23,20.51.35,1.84.86,2.93,3,2.8,7.66-.46,15.4-.37,23-1.42,8.75-1.21,17.15-4,23.93-10.1a4.47,4.47,0,0,0,1.33-3.51c-2-9-3.76-18-6.33-26.78-4.2-14.32-10.49-27.58-23.47-36.16a107.64,107.64,0,0,0-15.89-8.14c-1.55-.69-3.74,0-5.63.14,1,1.67,1.78,3.6,3.12,5a22.57,22.57,0,0,0,5.55,4c3.94,2.08,4.9,5.18,3.94,9.26A29.9,29.9,0,0,0,257,348.2c.16.25.46.51.45.76a15.51,15.51,0,0,1-.27,1.9c-.69-.16-1.54-.11-2-.52a8.31,8.31,0,0,1-1.53-2.2c-4.15-6.88-5.24-14.32-4.19-22.21.14-1-.34-2.85-1.05-3.18-11.85-5.55-24.18-8.87-37.41-7A27.36,27.36,0,0,0,205.83,317.47Zm286.4-130a44.14,44.14,0,0,0-24.45-23.89c-12.82-5.26-26.32-6.32-40-4.81a31.84,31.84,0,0,0-18.41,7.92c-8,7.23-11,16.78-11.93,27-1.16,12.62-1.88,25.28-2.65,37.93-.24,3.82,0,7.66,0,11.5,3-2.47,6.91-10.21,7.76-15.08,2.06-11.8,3.92-23.64,6.31-35.37,2.46-12,9.76-20,21.91-22.74,13.83-3.15,27.25-.59,40.26,4.09C479,176.91,486.58,180.73,492.23,187.47Zm-262,215.8c.65,6.31,1.32,12.21,1.82,18.13.21,2.4,1.26,3.37,3.65,3.75,22.23,3.57,42.24-2.74,61.19-13.71.64-.37,1-2,.78-2.93-.9-4.49-2-8.94-3.09-13.4a6.91,6.91,0,0,0-.63-1.39C273.78,402.51,253.11,407.05,230.28,403.27Zm213-96.72c.26,4.46.46,8.7.81,12.92a2.28,2.28,0,0,0,1.46,1.44c5.54,1.33,6.92.17,6.54-5.33-.05-.69-.07-1.39-.12-2.08C451.31,305.54,452.82,306.74,443.24,306.55Zm11.86,13.7c8.73-.49,8.44-4.39,7.15-13.8l-7.93.37C454.6,311.61,454.85,315.85,455.1,320.25ZM274.65,391.31,261.93,394c.07,5.94.7,6.49,5.82,5.45,1-.2,1.94-.4,2.9-.66C276.11,397.23,276.34,398.8,274.65,391.31ZM435.31,305c.25,4,.58,7.77.7,11.53.1,3.34,2.12,3.78,4.62,3.6,0-3.51,0-6.87,0-10.24C440.62,305.53,440.61,305.53,435.31,305ZM428,300.2c-3.54,3.66-.88,12.6,4.75,15.82V305.51a1.44,1.44,0,0,0,0-.59,4.51,4.51,0,0,0-.82-1.44C430.69,302.4,429.42,301.41,428,300.2ZM286.55,386.38c-2.56,1.14-4.95,2.09-7.21,3.29a3,3,0,0,0-1.35,2.19,25.72,25.72,0,0,0,.67,4.66c1.5-.48,2.71-.85,3.9-1.25C288.86,393.18,288.86,393.17,286.55,386.38ZM260.14,400.8l-1.57-6.61-8.9.47c.34,2.54.64,4.75,1,7.28Zm179.49-77.06c2.31,2.11,4.22,3.92,6.22,5.63a1.67,1.67,0,0,0,1.58.18c2.41-1.61,4.74-3.34,7.09-5l-.32-.78Zm-192.28,77.9c.15-7.05-.58-7.88-5.8-6.81C241.67,403.13,242,402.34,247.35,401.64Zm218.34-89.73.79.51,5.41-7.19-.53-.54-5.67,1.36Zm-174.5,79.56c2.78-1.46,3-3.48,1.05-8.76C289.07,384,288.83,385.81,291.19,391.47Z"/><path d="M540.31,523.8l-8.1,1.37c-7.09,1.2-14.17,2.48-21.28,3.55-2.12.31-2.81,1.09-2.81,3.24,0,8.79-.1,17.57-.18,26.36a8.15,8.15,0,0,1-.1,2.38c-.22.64-.88,1.12-1.34,1.68a9.82,9.82,0,0,1-1.31-1.67,3.45,3.45,0,0,1-.07-1.48c-.07-9.59,0-19.18-.27-28.76-.07-3.07.79-4.35,4-4.81,9.59-1.37,19.1-3.22,28.67-4.74,2.29-.36,2.9-1.3,2.76-3.56q-2.47-42-4.79-84-1-18.24-2-36.49a7.06,7.06,0,0,1,0-2.38c.19-.62.85-1.11,1.31-1.66.47.55,1.3,1.06,1.36,1.65.3,2.88.39,5.78.56,8.67q3.5,59.81,7,119.62c.38,6.57.79,13.15,1,19.73,0,.95-.83,1.94-1.27,2.91-.56-.91-1.51-1.78-1.6-2.73-.51-5.27-.81-10.55-1.2-15.83C540.63,525.94,540.48,525.08,540.31,523.8Z"/><path d="M484.72,371.65q2.19-28.2,4.39-56.4a2.08,2.08,0,0,1,.1-.88c.55-.89,1.17-1.74,1.76-2.61.34.91,1,1.84,1,2.73-.54,8.06-1.2,16.12-1.84,24.17q-1.41,17.61-2.83,35.21a5.9,5.9,0,0,1-.31,2,1.7,1.7,0,0,1-1.38.78,1.59,1.59,0,0,1-1-1.15,36,36,0,0,1,.18-3.88Z"/><path class="cls-4" d="M705.44,270.64c2,4.19,4,8.19,5.88,12.22a7.36,7.36,0,0,1,.67,2.52c0,.28-.79,1-1,.88a3.6,3.6,0,0,1-1.74-1.28c-1.87-3.64-3.75-7.27-5.34-11-.89-2.1-2-2.41-3.89-1.54a41.27,41.27,0,0,1-5.6,2.06c-.66.18-1.5-.3-2.26-.47.42-.68.69-1.68,1.29-2,2.42-1.13,4.93-2,7.71-3.16-.48-1.19-.85-2.19-1.29-3.15a50.93,50.93,0,0,1-2.42-5.13c-.32-.92,0-2.07.11-3.12.76.6,1.8,1,2.25,1.83a70.46,70.46,0,0,1,3.29,6.7c.66,1.5,1.46,1.81,3,1.18,3.79-1.53,7.61-3,11.49-4.27,1.11-.37,2.45-.08,3.69-.1-.87.87-1.59,2.1-2.64,2.55-3.56,1.53-7.25,2.78-10.89,4.16C707.09,269.79,706.41,270.18,705.44,270.64Z"/><path class="cls-4" d="M94.78,411.78c2,4.18,4,8.18,5.88,12.21a7.64,7.64,0,0,1,.66,2.52c0,.29-.79,1-1,.88a3.54,3.54,0,0,1-1.74-1.28c-1.86-3.63-3.75-7.27-5.34-11-.89-2.09-2-2.4-3.88-1.54a41.9,41.9,0,0,1-5.61,2.06c-.65.18-1.5-.29-2.25-.47.42-.67.68-1.68,1.29-2,2.41-1.14,4.93-2.05,7.71-3.16-.49-1.2-.85-2.2-1.3-3.16a54.19,54.19,0,0,1-2.42-5.12c-.31-.93.05-2.08.11-3.13.77.6,1.8,1,2.25,1.83a69.26,69.26,0,0,1,3.29,6.7c.66,1.5,1.46,1.81,3,1.18,3.79-1.53,7.61-3,11.49-4.26,1.12-.38,2.46-.09,3.69-.1-.87.87-1.58,2.09-2.63,2.54-3.57,1.54-7.26,2.78-10.89,4.16C96.42,410.93,95.75,411.31,94.78,411.78Z"/><path class="cls-4" d="M123.9,180.33c2,4.19,4,8.19,5.88,12.22a7.59,7.59,0,0,1,.67,2.52c0,.28-.79,1-1,.88a3.56,3.56,0,0,1-1.74-1.28c-1.87-3.64-3.75-7.27-5.34-11-.89-2.1-2-2.41-3.89-1.54a41.27,41.27,0,0,1-5.6,2.06c-.66.18-1.5-.3-2.26-.47.42-.68.69-1.68,1.29-2,2.41-1.13,4.93-2,7.71-3.16-.49-1.19-.85-2.19-1.29-3.15a48.83,48.83,0,0,1-2.42-5.13c-.32-.92,0-2.07.11-3.12.76.6,1.79,1.05,2.24,1.83a68.22,68.22,0,0,1,3.3,6.7c.66,1.5,1.46,1.81,3,1.18,3.78-1.53,7.61-3,11.48-4.27,1.12-.37,2.46-.08,3.7-.1-.87.88-1.59,2.1-2.64,2.55-3.57,1.53-7.25,2.78-10.89,4.16C125.54,179.48,124.87,179.87,123.9,180.33Z"/><path class="cls-5" d="M196.2,209.42c-1.72-7.09-3.29-13.77-4.41-20.53l1.58-.38c1.28,5.59,2.55,11.17,3.94,17.26a25.22,25.22,0,0,0,2.75-1.66c8.84-7.16,17.71-14.29,26.46-21.57,1.88-1.56,3.42-1.88,5.62-.78,3.39,1.69,7,3,10.4,4.6a15.88,15.88,0,0,1,2.44,1.69l-.38.86a12.67,12.67,0,0,1-2.29-.52c-3.5-1.45-7-2.83-10.43-4.51-2.12-1.06-3.48-.32-5.08,1-9.42,7.72-18.89,15.37-28.36,23C197.92,208.32,197.34,208.65,196.2,209.42Z"/><path class="cls-5" d="M676.79,517.22c-1.72-7.1-3.29-13.77-4.41-20.54l1.58-.38c1.28,5.59,2.55,11.17,3.94,17.26a25.22,25.22,0,0,0,2.75-1.66c8.84-7.16,17.71-14.29,26.46-21.57,1.88-1.56,3.42-1.87,5.62-.78,3.39,1.69,6.95,3,10.4,4.6a15.28,15.28,0,0,1,2.44,1.7l-.38.85a13.56,13.56,0,0,1-2.29-.51c-3.5-1.46-7-2.84-10.43-4.52-2.12-1.05-3.48-.32-5.08,1C698,500.37,688.5,508,679,515.69,678.51,516.11,677.93,516.44,676.79,517.22Z"/><path class="cls-5" d="M713.47,108.92c-1.72-7.09-3.29-13.77-4.41-20.53l1.58-.38c1.28,5.58,2.55,11.17,3.94,17.26a25.22,25.22,0,0,0,2.75-1.66C726.18,96.45,735,89.32,743.79,82c1.88-1.57,3.42-1.88,5.62-.78,3.39,1.69,7,3,10.4,4.6a15.88,15.88,0,0,1,2.44,1.69l-.37.86a13.15,13.15,0,0,1-2.29-.52c-3.5-1.45-7-2.84-10.44-4.52-2.12-1.05-3.48-.32-5.07,1-9.42,7.72-18.9,15.37-28.36,23C715.2,107.82,714.61,108.15,713.47,108.92Z"/><path d="M416.93,374.35c-.2.27-.64.81-1.07,1.36-.62-.73-1.69-1.39-1.8-2.19-1.05-7.82-1.95-15.66-2.89-23.49-1.12-9.43-2.27-18.84-3.3-28.28-.1-.94.61-2,.95-3,.59.89,1.59,1.73,1.71,2.68,2.15,17.25,4.19,34.51,6.25,51.77C416.81,373.43,416.84,373.63,416.93,374.35Z"/><path class="cls-1" d="M629.92,133.44a21.72,21.72,0,0,1-2,2.26c-8.17,6.56-16.33,13.12-24.58,19.57-.73.58-2.07.4-3.12.57.42-.87.61-2,1.29-2.57q12.19-9.92,24.53-19.64a5.2,5.2,0,0,1,2.38-.85C628.79,132.71,629.27,133.15,629.92,133.44Z"/><path d="M443.12,336.18a19.17,19.17,0,0,1-1,1.93c-2.55,3.82-5.06,7.67-7.74,11.39-.49.69-1.68.87-2.54,1.29.1-1-.11-2.12.36-2.86,2.5-4,5.13-7.84,7.83-11.68a4.32,4.32,0,0,1,2.15-1.13C442.36,335.07,442.77,335.77,443.12,336.18Z"/><path class="cls-6" d="M433.52,301c2.49-1.81,4.39-3.08,6.15-4.53a12.21,12.21,0,0,0,1.79-2.47,18.29,18.29,0,0,0-2.84-1.25c-7.13-1.86-14.41-3.26-21.38-5.56-10-3.28-15.16-10.84-15.07-21.12a259.29,259.29,0,0,1,2.16-31c1.61-12.46,4-24.83,6.29-37.2a85.42,85.42,0,0,1,3.46-11.72,3.77,3.77,0,0,1,2.24-2,92,92,0,0,1,10.46-2.52,5,5,0,0,1,3.85,1c10,10,21.11,18.29,34.45,23.31a2.6,2.6,0,0,1,2,3c-.35,9.55,2.63,17.89,9.53,24.63a7.74,7.74,0,0,0,3.08,1.43c3.87,1.23,7.84,2.18,11.62,3.63,2.43.94,3.77,2.94,2.75,5.79a1,1,0,0,0-.05.3c-1.06,7-3.44,9-10.55,8-2.47-.33-3.62.17-4.7,2.55-4.09,9.06-3.42,18.28-1.4,27.58A5.6,5.6,0,0,0,479,286c2.47,1.86,2,3.76.59,5.86a1.11,1.11,0,0,0-.13.27c-2.33,7.64-7.89,10.62-15.47,11.21-9,.7-17.95,1.07-26.81-1.1C436.17,302,435.19,301.57,433.52,301Zm-14-63.83c0,3.39,4.92,7.43,8.23,6.73.47-.1,1.21-.72,1.18-1a2.16,2.16,0,0,0-1-1.56c-1.14-.58-2.6-.67-3.56-1.42a4.58,4.58,0,0,1-1.81-3.05c0-.81,1.3-1.95,2.26-2.32,1.45-.56,3.17-.39,4.66-.88.94-.32,2.23-1.16,2.41-2,.8-3.59,1.33-7.26,1.78-10.92.08-.65-.66-1.41-1-2.12-.58.55-1.49,1-1.66,1.65a26.13,26.13,0,0,0-.89,5.61c-.11,3.43-1.21,5.31-5.11,5.66C421.27,231.83,419.45,234.25,419.48,237.15Zm4-27.09c-.61-.43-1.59-1.58-2.76-1.83-1.78-.37-3.74,2.43-3.35,5.07a4.07,4.07,0,0,0,2.51,2.61C421.78,216.42,423.41,214,423.48,210.06Zm24.65,11.79c.62.43,1.62,1.55,2.79,1.79,1.77.36,3.68-2.45,3.26-5.11a4,4,0,0,0-2.51-2.55C449.74,215.52,448.15,217.94,448.13,221.85Zm4.46-15.58-2,1.31a9.84,9.84,0,0,0,2.37,1.59,14.35,14.35,0,0,0,4.12.59,6.36,6.36,0,0,0,2.18-.94c-.51-.57-.93-1.46-1.56-1.65A38.27,38.27,0,0,0,452.59,206.27Zm-42.76,39.07c-.29.82-.88,1.62-.68,2a46.86,46.86,0,0,0,3.24,5.34,1.59,1.59,0,0,0,1.56.22,2,2,0,0,0,.48-1.74,48.83,48.83,0,0,0-2.95-4.84C411.24,246,410.69,245.84,409.83,245.34Zm9-46.45c1.87-.66,3.49-1.14,5-1.84.48-.22.7-1,1-1.52-.63-.33-1.33-1-1.88-.91a19.38,19.38,0,0,0-4.52,1.45,2.47,2.47,0,0,0-1,1.78C417.45,198.17,418.39,198.57,418.83,198.89Z"/><path class="cls-6" d="M205.83,317.47a27.36,27.36,0,0,1,5.11-1.76c13.23-1.83,25.56,1.49,37.41,7,.71.33,1.19,2.15,1.05,3.18-1.05,7.89,0,15.33,4.19,22.21a8.31,8.31,0,0,0,1.53,2.2c.48.41,1.33.36,2,.52a15.51,15.51,0,0,0,.27-1.9c0-.25-.29-.51-.45-.76a29.9,29.9,0,0,1-4.32-24.32c1-4.08,0-7.18-3.94-9.26a22.57,22.57,0,0,1-5.55-4c-1.34-1.36-2.1-3.29-3.12-5,1.89-.09,4.08-.83,5.63-.14a107.64,107.64,0,0,1,15.89,8.14c13,8.58,19.27,21.84,23.47,36.16,2.57,8.79,4.38,17.82,6.33,26.78a4.47,4.47,0,0,1-1.33,3.51c-6.78,6.13-15.18,8.89-23.93,10.1-7.58,1.05-15.32,1-23,1.42-2.1.13-2.61-1-3-2.8-1.29-6.86-2.74-13.69-4.23-20.51-.43-1.94-1.21-3.8-1.83-5.7-3.24-10-9.82-16.41-20.07-19.08-6.18-1.61-12.32-3.41-18.41-5.32-1.23-.39-2.19-1.64-3.27-2.49,1.18-.81,2.28-2.15,3.54-2.32a30.75,30.75,0,0,1,8.62-.09c7,1.12,13.92,2.67,20.89,3.93a10.18,10.18,0,0,0,3.17-.46c-.86-.73-1.61-1.85-2.59-2.12-10.12-2.71-20.31-5.06-30.95-4.28l-.35-.84c1.37-.68,2.71-1.85,4.12-1.93a54,54,0,0,1,11,.19c5.62.82,11.15,2.29,16.74,3.31,1.23.22,2.6-.32,3.9-.5-1.12-.75-2.15-1.88-3.38-2.18-9.12-2.18-18.22-4.55-28.08-4.67.86-.57,1.67-1.53,2.59-1.65,2.85-.38,5.81-.92,8.59-.52,6.81,1,13.55,2.45,20.31,3.74a10.34,10.34,0,0,0,2.33.5c.56,0,1.1-.58,1.66-.89-.32-.55-.51-1.38-1-1.59a13.6,13.6,0,0,0-3.44-1c-7.66-1.31-15.34-2.58-23-3.86-.35-.06-.69-.15-1-.23Z"/><path class="cls-6" d="M492.23,187.47c-5.65-6.74-13.27-10.56-21.25-13.42-13-4.68-26.43-7.24-40.26-4.09-12.15,2.77-19.45,10.69-21.91,22.74-2.39,11.73-4.25,23.57-6.31,35.37-.85,4.87-4.78,12.61-7.76,15.08,0-3.84-.2-7.68,0-11.5.77-12.65,1.49-25.31,2.65-37.93.95-10.25,4-19.8,11.93-27a31.84,31.84,0,0,1,18.41-7.92c13.69-1.51,27.19-.45,40,4.81A44.14,44.14,0,0,1,492.23,187.47Z"/><path class="cls-6" d="M230.28,403.27c22.83,3.78,43.5-.76,63.72-9.55a6.91,6.91,0,0,1,.63,1.39c1.08,4.46,2.19,8.91,3.09,13.4.19.92-.14,2.56-.78,2.93-18.95,11-39,17.28-61.19,13.71-2.39-.38-3.44-1.35-3.65-3.75C231.6,415.48,230.93,409.58,230.28,403.27Z"/><path class="cls-6" d="M443.24,306.55c9.58.19,8.07-1,8.69,6.95.05.69.07,1.39.12,2.08.38,5.5-1,6.66-6.54,5.33a2.28,2.28,0,0,1-1.46-1.44C443.7,315.25,443.5,311,443.24,306.55Z"/><path class="cls-6" d="M455.1,320.25c-.25-4.4-.5-8.64-.78-13.43l7.93-.37C463.54,315.86,463.83,319.76,455.1,320.25Z"/><path class="cls-6" d="M274.65,391.31c1.69,7.49,1.46,5.92-4,7.43-1,.26-1.93.46-2.9.66-5.12,1-5.75.49-5.82-5.45Z"/><path class="cls-6" d="M435.31,305c5.3.52,5.31.52,5.32,4.89,0,3.37,0,6.73,0,10.24-2.5.18-4.52-.26-4.62-3.6C435.89,312.78,435.56,309,435.31,305Z"/><path class="cls-6" d="M428,300.2c1.46,1.21,2.73,2.2,3.91,3.28a4.51,4.51,0,0,1,.82,1.44,1.44,1.44,0,0,1,0,.59V316C427.08,312.8,424.42,303.86,428,300.2Z"/><path class="cls-6" d="M286.55,386.38c2.31,6.79,2.31,6.8-4,8.89-1.19.4-2.4.77-3.9,1.25a25.72,25.72,0,0,1-.67-4.66,3,3,0,0,1,1.35-2.19C281.6,388.47,284,387.52,286.55,386.38Z"/><path class="cls-6" d="M260.14,400.8l-9.49,1.14c-.34-2.53-.64-4.74-1-7.28l8.9-.47Z"/><path class="cls-6" d="M439.63,323.74H454.2l.32.78c-2.35,1.69-4.68,3.42-7.09,5a1.67,1.67,0,0,1-1.58-.18C443.85,327.66,441.94,325.85,439.63,323.74Z"/><path class="cls-6" d="M247.35,401.64c-5.34.7-5.68,1.49-5.8-6.81C246.77,393.76,247.5,394.59,247.35,401.64Z"/><path class="cls-6" d="M465.69,311.91v-5.86l5.67-1.36.53.54-5.41,7.19Z"/><path class="cls-6" d="M291.19,391.47c-2.36-5.66-2.12-7.43,1.05-8.76C294.18,388,294,390,291.19,391.47Z"/><path d="M419.48,237.15c0-2.9,1.79-5.32,5.5-5.64,3.9-.35,5-2.23,5.11-5.66a26.13,26.13,0,0,1,.89-5.61c.17-.65,1.08-1.1,1.66-1.65.36.71,1.1,1.47,1,2.12-.45,3.66-1,7.33-1.78,10.92-.18.82-1.47,1.66-2.41,2-1.49.49-3.21.32-4.66.88-1,.37-2.25,1.51-2.26,2.32a4.58,4.58,0,0,0,1.81,3.05c1,.75,2.42.84,3.56,1.42a2.16,2.16,0,0,1,1,1.56c0,.32-.71.94-1.18,1C424.4,244.58,419.51,240.54,419.48,237.15Z"/><path d="M423.48,210.06c-.07,3.92-1.7,6.36-3.6,5.85a4.07,4.07,0,0,1-2.51-2.61c-.39-2.64,1.57-5.44,3.35-5.07C421.89,208.48,422.87,209.63,423.48,210.06Z"/><path d="M448.13,221.85c0-3.91,1.61-6.33,3.54-5.87a4,4,0,0,1,2.51,2.55c.42,2.66-1.49,5.47-3.26,5.11C449.75,223.4,448.75,222.28,448.13,221.85Z"/><path d="M452.59,206.27a38.27,38.27,0,0,1,5.11.9c.63.19,1.05,1.08,1.56,1.65a6.36,6.36,0,0,1-2.18.94,14.35,14.35,0,0,1-4.12-.59,9.84,9.84,0,0,1-2.37-1.59Z"/><path d="M409.83,245.34c.86.5,1.41.64,1.65,1a48.83,48.83,0,0,1,2.95,4.84,2,2,0,0,1-.48,1.74,1.59,1.59,0,0,1-1.56-.22,46.86,46.86,0,0,1-3.24-5.34C409,247,409.54,246.16,409.83,245.34Z"/><path d="M418.83,198.89c-.44-.32-1.38-.72-1.36-1a2.47,2.47,0,0,1,1-1.78,19.38,19.38,0,0,1,4.52-1.45c.55-.1,1.25.58,1.88.91-.35.52-.57,1.3-1,1.52C422.32,197.75,420.7,198.23,418.83,198.89Z"/><rect class="cls-4" x="184.13" y="93.55" width="62.7" height="2.44" rx="1.22" transform="translate(151.77 -131.85) rotate(50.56)"/><rect class="cls-4" x="546.48" y="59.06" width="62.7" height="2.44" rx="1.22" transform="translate(991.48 -347.67) rotate(129.44)"/><rect class="cls-4" x="210.2" y="547.82" width="62.7" height="2.44" rx="1.22" transform="translate(819.01 711.31) rotate(129.44)"/><rect class="cls-1" x="635.75" y="383.77" width="126.45" height="0.94" rx="0.47" transform="translate(1439.77 88.57) rotate(129.44)"/><rect class="cls-7" x="403.96" y="59.06" width="62.7" height="2.44" rx="1.22" transform="translate(564.65 -359.73) rotate(99.23)"/><rect class="cls-4" x="305.55" y="412.53" width="126.45" height="0.94" rx="0.47" transform="translate(922.01 390.59) rotate(129.44)"/><rect class="cls-4" x="301.43" y="217.11" width="62.7" height="2.44" rx="1.22" transform="translate(712.8 100.05) rotate(129.44)"/></g></svg>