<svg xmlns="http://www.w3.org/2000/svg" viewBox="0 0 841.89 595.28"><defs><style>.cls-1{fill:#f0e100;}.cls-2{fill:none;stroke:#00e6bb;stroke-miterlimit:10;stroke-width:3px;}.cls-3{fill:#fff;}.cls-4{fill:#00e6bb;}.cls-5{fill:#2630ea;}.cls-6{fill:#fb3640;}.cls-7{fill:#f6f4ef;}</style></defs><g id="Layer_12" data-name="Layer 12"><path class="cls-1" d="M258.54,393V131.08c0-38.36,37-65.07,72.12-52l217.2,80.85c21.3,7.93,35.49,28.73,35.49,52V464.21c0,37.45-35.44,64.08-70.15,52.7L296,445.69C273.69,438.38,258.54,417.06,258.54,393Z"/><path class="cls-2" d="M293.53,369.2V91.5c0-40.66,39.27-69,76.46-55.14l230.3,85.72c22.58,8.41,37.62,30.46,37.62,55.15V444.71c0,39.72-37.58,67.95-74.37,55.88l-230.3-75.51C309.59,417.32,293.53,394.73,293.53,369.2Z"/><path d="M306.09,151.51h78c4.7,0,4.82.11,4.82,4.73q0,21,0,42c0,5.08,1.53,6.58,6.67,6.59H508.32c5.3,0,5.38.08,5.38,5.26q0,20.64,0,41.3c0,5.51,1.23,6.78,6.73,6.79q45.87,0,91.76,0c6.57,0,6.57,0,6.57,6.41,0,30.71.05,61.41-.06,92.11a8.62,8.62,0,0,0,4.29,8.11c13.69,9,27.28,18.13,40.91,27.22,3.48,2.33,3.58,2.74,1.3,6.18-4.76,7.2-9.62,14.32-14.26,21.59-1.75,2.74-3.36,2.76-5.85,1q-10.38-7.17-21-14a5.52,5.52,0,0,0-4.08-.92c-.73.23-1.16,2.37-1.17,3.66-.09,9.94,0,19.88-.06,29.82,0,4-.39,4.44-4.21,4.44H457.29c-4,0-4.43-.47-4.43-4.61q0-21,0-42c0-5.5-1.41-6.88-7-6.89H333.41c-5.21,0-5.28-.07-5.28-5.33q0-20.49,0-41c0-5.73-1.22-7-6.88-7H228.17c-4.91,0-5.08-.18-5.09-5.23,0-4.7,0-9.39,0-14.09,0-5.05-1.3-6.28-6.5-6.3-6,0-12-.11-18,0-3,.08-4-1.11-4-4.06q.12-26.88,0-53.75c0-3.08,1.2-4,4.09-3.94,6,.13,12,.06,18,0,5,0,6.42-1.4,6.42-6.47q0-43.26,0-86.53c0-5.22,0-5.26,5.34-5.26Zm115,57.84H339.8c-5.82,0-7.09,1.27-7.09,7.14V378.41c0,6.42,1,7.37,7.45,7.37H501.73c6.38,0,7.42-1,7.42-7.41V216.45c0-5.82-1.29-7.11-7.13-7.11ZM539,439.21h68.8c4.93,0,6.38-1.5,6.39-6.48,0-9-.14-17.91.06-26.87a9.39,9.39,0,0,0-4.74-8.93c-11.72-7.6-23.3-15.42-34.9-23.21a9.19,9.19,0,0,1-3-2.89q-7.11-12.9-14-25.95c-.49-.93-.85-2.66-.36-3.19a4.58,4.58,0,0,1,3.4-1.07c6.31.49,12.59,1.39,18.91,1.75,7.91.44,15.19,2.19,21.35,7.59a43,43,0,0,0,7.36,4.86,24.57,24.57,0,0,0,4.64,1.56c.4-1.5,1.16-3,1.17-4.51.08-18.57.06-37.13,0-55.7,0-5.42-1.37-6.81-6.75-6.81q-43.41,0-86.82,0c-5.59,0-6.87,1.32-6.87,7,0,26.43-.53,52.88.26,79.29.3,10-2.76,16.76-10.19,23.2-12.62,10.92-24.39,22.82-36.41,34.41-1,1-2,3.12-1.54,4s2.56,1.46,4,1.85a12.65,12.65,0,0,0,3.26.06ZM289.4,181.79q-27.67,0-55.37,0c-4.77,0-6.3,1.47-6.31,6.27q-.06,27.69,0,55.38c0,4.61,1.74,6.22,6.45,6.25,6,0,12,.09,18,0,2.84-.05,4.17.82,4.15,3.93q-.15,26.86,0,53.74c0,3.2-1.29,4.21-4.32,4.15-6.22-.14-12.45-.07-18.68,0-4.08,0-5.47,1.38-5.62,5.51-.1,2.94-.05,5.9,0,8.85.06,5.24,1.4,6.56,6.63,6.56H320.5c6.87,0,7.62-.76,7.62-7.79q0-57.35,0-114.69a8,8,0,0,1,2.83-6.55q8-7.23,15.69-14.86c1.24-1.24,1.78-3.19,2.64-4.82-1.71-.63-3.41-1.81-5.12-1.82C325.88,181.73,307.64,181.79,289.4,181.79Zm13.5-25.3v.23c-12.78,0-25.56,0-38.34,0-10,0-20.09-.13-30.14-.2-4.35,0-6,1.54-6,5.82,0,2.4,0,4.81,0,7.21,0,6.25.75,7,7,7q56.85,0,113.71-.07a24.91,24.91,0,0,0,7.41-1c8.22-2.62,12.91-9.79,18.87-15.28,1.53-1.42.26-2.92-1.37-3.47a11.42,11.42,0,0,0-3.57-.27Q336.64,156.47,302.9,156.49ZM563.75,284.11h0c14.63,0,29.27,0,43.9,0,4.66,0,5.78-1.17,5.86-5.85.06-3.05,0-6.11,0-9.17-.08-4.29-1.44-5.68-5.75-5.73-5.9-.07-11.8,0-17.69,0q-34.91,0-69.79,0c-4.64,0-6.06,1.46-6.09,6.07,0,2.62,0,5.24,0,7.87,0,5.7,1.14,6.83,6.95,6.84Zm91.71,120.31a31,31,0,0,0-3.37-3.09q-31.32-20.93-62.67-41.79c-1.74-1.16-3.48-2.31-5.06,0s-.06,3.51,1.76,4.72c12.47,8.27,24.89,16.61,37.33,24.91,8.81,5.87,17.61,11.76,26.48,17.54a4.24,4.24,0,0,0,3.22.53C654,407,654.47,405.7,655.46,404.42ZM245.77,305.79a15.72,15.72,0,0,0-1.46-2.22c-5.53-5.57-11.13-11.09-16.63-16.7-1.74-1.78-3.1-1.46-4.69.15-5.52,5.6-11.1,11.13-16.63,16.7a19.41,19.41,0,0,0-1.52,2.07Zm4.1-5,.78-.49V260.05a13.27,13.27,0,0,0-1.72,1.1c-5.8,5.74-11.61,11.49-17.37,17.27-1.55,1.55-1.21,3,.32,4.49,4.3,4.18,8.49,8.45,12.73,12.69C246.36,297.34,248.12,299.06,249.87,300.79Zm-49.64-.13a6.16,6.16,0,0,0,1.51-.66q8.72-8.65,17.39-17.34c1.75-1.75,1.09-3.2-.47-4.74-5.36-5.29-10.62-10.67-15.95-16a24.85,24.85,0,0,0-2.48-1.88Zm46.25-45.26H204.91c6.65,6.77,12.85,13.15,19.19,19.4a3,3,0,0,0,2.88-.13C233.33,268.55,239.55,262.3,246.48,255.4Zm413.1,140.83a11.74,11.74,0,0,0-2-2.19q-31.43-21-62.94-41.92c-1-.66-2.7-.27-4.07-.37.61,1.2.9,2.88,1.88,3.54,17.36,11.71,34.81,23.3,52.24,34.92,3.63,2.42,7.25,4.86,10.89,7.26C657.13,398.49,658.58,398.89,659.58,396.23ZM648.84,413a23.65,23.65,0,0,0-2.68-2.45Q622.07,394.4,598,378.34c-5-3.33-10-6.69-15.07-9.86-.85-.53-2.27-.13-3.43-.15.48,1.15.94,2.3,1.45,3.44.08.17.35.24.54.36q23.56,15.72,47.13,31.44c5.26,3.52,10.51,7.06,15.84,10.48a5.49,5.49,0,0,0,3,.55C647.85,414.59,648.24,413.72,648.84,413Zm-69.39-66.24a14.58,14.58,0,0,0-3.34,1A11.17,11.17,0,0,0,572.57,363c1.39,2.22,2.54,2,3.86,0,2.11-3.19,4.32-6.31,6.32-9.56a45.49,45.49,0,0,0,2.37-5.1Z"/><path d="M461.22,172.05c-1.23,0-2.46-.09-3.68,0-8.41.72-16.79,1.17-25-1.37A24.17,24.17,0,0,1,419.29,161c-3.63-5.32-.89-11.61,5.46-12.61,4.42-.69,8.87-1.25,13.3-1.9.89-.13,1.77-.4,2.65-.61,0-.29,0-.57,0-.86-1-.23-2-.39-2.9-.7-6.7-2.21-13.58-4-20-6.81-5.13-2.23-8.37-6.89-10.55-12.07-2.85-6.81,1.26-12.52,8.62-11.94,4.79.37,9.56.93,14.35,1.35,1.14.1,2.3,0,4.38,0a31.29,31.29,0,0,0-2.29-3c-5.28-5.18-7.68-11.55-7.92-18.84s4.83-11.08,11.84-8.84q54.72,17.53,109.45,35c14.45,4.62,28.94,9.11,43.32,14a83.86,83.86,0,0,0,50.59,1.33,38.78,38.78,0,0,1,12.52-1.69c6,.37,10.76,3.85,14.37,8.75a52,52,0,0,1,9.68,41.52c-1.35,7.57-6.14,12.77-13.45,15.19-23.93,7.92-47.91,15.69-71.88,23.52q-24.42,8-48.85,16c-9.25,3-15-1.3-14.93-11,.11-10.91,5.56-18.56,14.58-24,3.83-2.31,7.9-4.24,11.66-6.65a47,47,0,0,0,8.75-6.75,12.36,12.36,0,0,0,2.73-13.13c-1.71-4.82-5.81-6.88-10.65-7.54-7.11-1-14.06.34-20.61,2.74-12.28,4.48-24.28,9.75-36.51,14.39a232.47,232.47,0,0,1-22.65,7.46c-7,1.87-14.09,1.34-20.43-3-2.76-1.88-4.36-4.38-4-7.7a8,8,0,0,1,5.33-6.87c2.12-.86,4.18-1.84,6.27-2.77Zm211.2,2.59c0-10.82-2.57-19.8-8-28-5.78-8.76-11.61-11.18-21.77-8.26-17.22,4.94-34.38,5.66-51.6.17-19.33-6.17-38.68-12.29-58-18.55-2.94-1-5.12-.37-7,1.91-1.16,1.44-2.08,3.09-3.31,4.46-.53.58-1.59.69-2.41,1-.19-.86-.74-1.86-.49-2.56.54-1.53,1.7-2.83,2.22-4.36.37-1.07.58-3,0-3.4a5.16,5.16,0,0,0-3.87-.5c-1,.27-1.75,1.53-2.63,2.33-1.22,1.1-1.57,4.25-4,2.64-2.22-1.49.12-3.36.88-4.79,1.13-2.13.76-3.1-1.51-3.8-8.44-2.6-16.89-5.21-25.27-8-3.18-1.07-5.19-.08-6.94,2.5-.8,1.19-1.33,3.61-3.44,2.21-.55-.37.11-2.62.29-4,.05-.41.61-.83.54-1.15-.21-1-.4-2.49-1-2.72a88.85,88.85,0,0,0-10.9-3.43,6.16,6.16,0,0,0-4.34.78c-7.29,4.81-14.74,3.84-22.24.88-1.05-.42-1.7-1.84-2.54-2.8a16.52,16.52,0,0,1,3.7-.53c3.77.3,7.52,1,11.29,1.13,1,0,2-1.34,3-2.06a10.77,10.77,0,0,0-2.68-2c-5.28-1.78-10.7-3.14-15.88-5.15-3.46-1.34-5.88.83-5.71,4.53.29,6.6,2.53,12.42,7.75,16.33,4.84,3.63,10.09,7.11,15.68,9.27,17.4,6.73,35.09,12.68,52.58,19.16,15.13,5.6,30.35,11.05,45.14,17.46,9.42,4.08,17.69,10.18,20,21.41a2.49,2.49,0,0,0,1.67,1.63,2.38,2.38,0,0,0,1.81-1.46c.51-3,.68-6,1.13-9a16.44,16.44,0,0,1,1.2-3.21c.75.9,2,1.71,2.17,2.72A21.51,21.51,0,0,1,572,188.18a56.21,56.21,0,0,1-9.49,7.46c-6.62,4.22-13.55,8-20.17,12.16-7.29,4.62-11,11.36-10.67,20.11.16,5.26,3,7.39,7.93,5.82,5.41-1.72,10.82-3.44,16.15-5.37,1.47-.52,2.67-1.79,4-2.71-1.53-.6-3.09-1.78-4.57-1.68-4.11.27-8.17,1.15-12.28,1.59-.95.1-2-.62-3-1,.64-.76,1.14-1.92,2-2.21a53,53,0,0,1,8.19-2.22c5.51-.95,10.84-.92,15.53,3,.95.79,2.89.75,4.3.57a27.89,27.89,0,0,0,5-1.55c7.38-2.44,10.32-1.4,6-11.46-.3-.69.24-1.73.39-2.6.89.37,2.15.49,2.61,1.15,1.1,1.61,1.59,3.65,2.77,5.16.85,1.09,2.6,2.45,3.61,2.22,2.11-.49,2-2.52,1.34-4.33a12.45,12.45,0,0,1-.93-2.78,6.44,6.44,0,0,1,.62-2.25,9.11,9.11,0,0,1,2.26.76,4.5,4.5,0,0,1,1.05,1.63c2.78,5.17,2.78,5.17,8.4,3.31l1.56-.5q28.16-9.21,56.31-18.42c6.57-2.16,10.22-6.83,11.09-13.65C672.25,178.17,672.33,175.87,672.42,174.64Z"/><path d="M380.25,423.38c2.3-.15,4.61-.28,6.91-.46,7.33-.6,14.62-.66,21.78,1.42a24,24,0,0,1,13.76,10c3.47,5.25.77,11.31-5.46,12.36-4.19.71-8.43,1.21-12.64,1.83-1.14.17-2.27.45-3.4.68l-.07.87c1.59.37,3.18.77,4.78,1.11,7.51,1.59,15.18,3.17,21,8.49a34,34,0,0,1,7.74,10.7c2.91,6.38-1.64,12-8.62,11.37-4.46-.41-8.9-1-13.36-1.38-1.54-.14-3.11,0-5.75,0,1.5,1.7,2.27,2.66,3.12,3.52,5,5.09,7.29,11.34,7.45,18.36.17,7.23-4.65,10.91-11.61,8.75-14.28-4.45-28.5-9.07-42.74-13.63q-32.89-10.51-65.79-21.05c-14.25-4.55-28.64-8.68-42.72-13.68-18.07-6.42-36.13-7.08-54.31-1.28-11.83,3.78-21-1.24-26.69-10.16a52.73,52.73,0,0,1-7.94-38.83A18.84,18.84,0,0,1,178.93,397c24.54-8.16,49.17-16.09,73.76-24.12q23.81-7.77,47.61-15.57c8.66-2.82,14.53,1.49,14.56,10.55.05,10.72-4.94,18.57-13.82,24.1-4,2.48-8.26,4.48-12.21,7a50.56,50.56,0,0,0-9,6.94A12.25,12.25,0,0,0,277,418.7c1.56,4.71,5.42,6.91,10.16,7.71,7.57,1.28,14.9-.38,21.87-2.85,11-3.9,21.72-8.51,32.54-12.87,9.92-4,19.7-8.4,30.52-9.49a23.13,23.13,0,0,1,15.64,3.56c2.84,1.89,4.58,4.38,4.21,7.94-.36,3.37-2.34,5.52-5.38,6.82-2.21.94-4.4,1.92-6.6,2.88Zm5.89,76.19c2.43.93,3.89,1.57,5.4,2.06,5.09,1.63,10.21,3.18,15.3,4.81,4.38,1.4,6.18.11,6.06-4.5-.25-9.07-5-15.52-12.51-19.84a113.28,113.28,0,0,0-17.68-8.45c-20.51-7.44-41.27-14.23-61.73-21.79a341.48,341.48,0,0,1-33.62-14.44c-7.85-3.9-14.21-9.86-15.5-19.45-.09-.7-1.11-1.89-1.45-1.81-.83.2-2.06.91-2.19,1.58-.54,3-.66,6-1.11,9a23.75,23.75,0,0,1-1.22,3.84c-.77-1.15-2-2.22-2.22-3.47-1.23-6.92.06-13.43,5-18.59a62,62,0,0,1,10.78-8.93c7-4.61,14.46-8.55,21.46-13.17s9.72-11.53,9.31-19.77c-.23-4.56-3.18-6.64-7.58-5.25-5.21,1.63-10.42,3.26-15.54,5.14-1.76.64-3.25,2-4.86,3,2,.58,4,1.72,6,1.62,3.67-.18,7.3-1.17,11-1.63.88-.11,1.86.53,2.79.83-.55.8-.94,2-1.71,2.32a31.74,31.74,0,0,1-5.6,1.78c-6.57,1.59-12.94,2-18.67-2.69a4.78,4.78,0,0,0-3.71-.4c-3.68,1-7.29,2.26-10.93,3.42-2,.65-2.79,2-2.18,4.05s1.44,3.67,1.87,5.57c.19.84-.4,1.85-.63,2.79-.8-.4-1.93-.59-2.32-1.23-1.2-1.94-1.92-4.18-3.19-6.06-.58-.85-2.31-1.79-3-1.49a3.93,3.93,0,0,0-1.69,3c0,1.34.87,2.69,1,4.08a6.84,6.84,0,0,1-.72,2.5c-.74-.31-1.77-.42-2.15-1-1-1.43-1.44-3.24-2.54-4.53-.73-.86-2.42-1.78-3.29-1.5q-31.17,10-62.23,20.35a14.46,14.46,0,0,0-10.15,12.2c-2.21,14.46,1,27.56,10.37,38.93A13.61,13.61,0,0,0,192,457.9a37,37,0,0,0,8.35-1.36,88.07,88.07,0,0,1,53.48,1c16.66,5.57,33.45,10.75,50.2,16.06,9.07,2.87,9.06,2.82,15.1-4.79.48-.59,1.57-.7,2.38-1,.21.87.78,1.86.54,2.57-.52,1.53-1.66,2.85-2.19,4.37-.37,1.09-.55,3.21-.11,3.42a6.4,6.4,0,0,0,4.14.39c1-.27,1.69-1.59,2.55-2.41,1.14-1.07,1.53-3.81,3.76-2.34.54.35,0,3.16-.72,4.44-1.4,2.46-.79,3.38,1.76,4.15,8,2.42,16,5,24,7.59,5.09,1.61,5,1.56,8.07-2.58.7-.93,2.11-1.33,3.19-2a30.36,30.36,0,0,1-.1,3.82c-.1.71-.84,1.34-.93,2.06a2.48,2.48,0,0,0,.57,1.94c3.17,2.85,13.49,4,17.46,1.9,7.38-3.87,14.59-2.61,21.72.61.69.32,1,1.43,1.53,2.17-.91.33-1.87,1-2.72.9-2.47-.35-4.88-1.16-7.35-1.54A14,14,0,0,0,386.14,499.57Z"/><path d="M358,91.8a31.1,31.1,0,0,1-.59,4.71c-.21.74-1.19,1.27-1.82,1.89-.56-.57-1.54-1.12-1.58-1.73a82.3,82.3,0,0,1-.15-9.68c0-.76,1.23-1.47,1.89-2.2.62.78,1.56,1.48,1.8,2.37A27,27,0,0,1,358,91.8Z"/><path d="M368.55,107.17c-1.7-.28-3.43-.45-5.08-.89-.58-.16-1.46-1.07-1.37-1.46.15-.69.9-1.75,1.44-1.77,3.54-.16,7.08-.13,10.62,0,.49,0,1.38,1.06,1.3,1.49a2.53,2.53,0,0,1-1.44,1.74A47.64,47.64,0,0,1,368.55,107.17Z"/><path d="M358.07,118a38.13,38.13,0,0,1-.67,5,2.43,2.43,0,0,1-1.68,1.55,2.24,2.24,0,0,1-1.67-1.51c-.19-3.35-.22-6.71-.1-10.06,0-.63,1.17-1.8,1.52-1.7a3,3,0,0,1,2,1.67A34.35,34.35,0,0,1,358.07,118Z"/><path d="M342.41,107.17a42.06,42.06,0,0,1-5.12-.87,2.57,2.57,0,0,1-1.41-1.78c-.06-.43.86-1.45,1.36-1.46,3.53-.14,7.07-.15,10.6,0,.52,0,1.26,1.11,1.38,1.79.07.41-.8,1.29-1.38,1.43C346.07,106.71,344.24,106.89,342.41,107.17Z"/><path d="M488.63,503.93a36.9,36.9,0,0,1-.79,4.85,2.67,2.67,0,0,1-1.76,1.49c-.43.09-1.5-.83-1.52-1.32q-.18-5.47.05-10.95c0-.44,1.07-1.19,1.61-1.16a2.13,2.13,0,0,1,1.52,1.34C488.18,500.07,488.36,502,488.63,503.93Z"/><path d="M488.62,477.61a38.16,38.16,0,0,1-.82,5,2.5,2.5,0,0,1-1.85,1.3c-.45.05-1.43-.85-1.45-1.35-.12-3.53-.11-7.07,0-10.6,0-.49,1.05-1.4,1.46-1.32a2.57,2.57,0,0,1,1.79,1.42A51.46,51.46,0,0,1,488.62,477.61Z"/><path d="M473.18,492.83a31.94,31.94,0,0,1-5-.53c-.75-.19-1.29-1.18-1.93-1.81.65-.59,1.27-1.67,1.95-1.71a86.65,86.65,0,0,1,9.67,0c.67,0,1.29,1.15,1.93,1.77-.65.62-1.21,1.58-2,1.77A29.66,29.66,0,0,1,473.18,492.83Z"/><path d="M499.3,492.86a40.81,40.81,0,0,1-5.2-.65,2.42,2.42,0,0,1-1.51-1.73,2.27,2.27,0,0,1,1.56-1.63c3.43-.16,6.87-.15,10.3,0a2.24,2.24,0,0,1,1.46,1.68,2.41,2.41,0,0,1-1.53,1.7A39.8,39.8,0,0,1,499.3,492.86Z"/><path d="M519.43,525.54c-2.11-1.17-5.2-2.16-5.15-3,.15-3,3.18-2.28,5.12-2.34s5-.66,5.2,2.26C524.67,523.31,521.44,524.4,519.43,525.54Z"/><path d="M308.91,82.89c1.26-2,2.46-5.12,3.28-5,2.76.33,2.23,3.22,2.27,5.23s.37,4.92-2.41,5.11C311.21,88.26,310.13,85.05,308.91,82.89Z"/><path d="M539.77,525.67l-5.29-3.31c1.64-.74,3.23-1.93,4.93-2.11,2.08-.22,5.05-.78,5.6,2.11C545.14,523.06,541.82,524.42,539.77,525.67Z"/><path d="M308.9,62.34c1.28-2,2.34-5,3.25-4.91,2.74.14,2.24,3,2.29,4.92s.58,5-2.33,5.15C311.22,67.56,310.13,64.41,308.9,62.34Z"/><path d="M301.77,75.9c-2-1.18-5-2.24-4.95-3,.25-3,3.18-2.34,5.15-2.28s5-.73,5.07,2.29C307.07,73.76,303.87,74.75,301.77,75.9Z"/><path d="M322.2,75.9c-2-1.18-5-2.22-4.9-3.06.21-3,3.19-2.29,5.14-2.25s5-.71,5.1,2.3C327.58,73.76,324.34,74.75,322.2,75.9Z"/><path d="M526.45,532.59c1.3-2,2.44-5,3.39-5,2.77.17,2.1,3.08,2.09,5s.66,4.94-2.19,5.26C528.93,537.94,527.75,534.76,526.45,532.59Z"/><path d="M533,512.07c-1.31,2.22-2.44,5.41-3.28,5.34-2.89-.27-2.3-3.29-2.18-5.21s1.3-3.52,2-5.27C530.64,508.52,531.71,510.11,533,512.07Z"/><path d="M536.81,474c.5.05,1.27-.11,1.76.2A18.89,18.89,0,0,1,541,476.3c-.71.68-1.32,1.74-2.15,1.95a8.37,8.37,0,0,1-4.1,0c-.94-.26-1.66-1.32-2.47-2a34.59,34.59,0,0,1,2.8-2.05C535.48,473.93,536.12,474.07,536.81,474Z"/><path d="M287.76,116.65a5.94,5.94,0,0,1,2.24.3,13.37,13.37,0,0,1,2.22,2,11.12,11.12,0,0,1-2,1.8,3.09,3.09,0,0,1-2.21.39,47.36,47.36,0,0,1-4.56-2.16l3.82-3Z"/><path d="M294.17,110.23a7.94,7.94,0,0,1,.35-2.53c.38-.77,1.17-1.75,1.86-1.81s1.52.91,1.93,1.63a3.47,3.47,0,0,1,.41,2.49,38.94,38.94,0,0,1-2.18,4.57l-3-3.83Z"/><path d="M554.21,478.65a6.93,6.93,0,0,1-2.35-.45,12.16,12.16,0,0,1-2.18-2c.78-.65,1.46-1.57,2.35-1.86a6.34,6.34,0,0,1,3.53-.11,11.19,11.19,0,0,1,2.87,2c-.91.76-1.78,1.55-2.74,2.23C555.37,478.66,554.84,478.58,554.21,478.65Z"/><path d="M305.51,116.66a7.8,7.8,0,0,1,2.45.44,2.75,2.75,0,0,1,1.49,1.81A2.39,2.39,0,0,1,308,120.7a10.22,10.22,0,0,1-4.48.32c-1-.22-1.8-1.44-2.69-2.22,1-.69,1.92-1.42,2.94-2C304.12,116.57,304.65,116.7,305.51,116.66Z"/><path d="M294.2,127.43a5.89,5.89,0,0,1,.29-2.1,11.1,11.1,0,0,1,1.77-2.08c.72.67,1.82,1.22,2.07,2a8.35,8.35,0,0,1,.19,4.15c-.23.95-1.32,1.69-2,2.53a29.91,29.91,0,0,1-2.15-2.78C294.08,128.77,294.24,128.11,294.2,127.43Z"/><path d="M543.11,485.05a5.82,5.82,0,0,1,.35-2.22,12.33,12.33,0,0,1,2.06-2.09,10.19,10.19,0,0,1,1.82,2,4,4,0,0,1,.28,2.23c-.19,1.73.38,4.3-2.15,4.3-1,0-2-2.39-3-3.69Z"/><path d="M543.09,467.32a8.25,8.25,0,0,1,.5-2.54c.37-.66,1.21-1.46,1.84-1.46s1.47.81,1.81,1.47a3.74,3.74,0,0,1,.34,2.55,44.62,44.62,0,0,1-2,4.68l-3.11-4.16Z"/><path class="cls-3" d="M421.07,209.35H502c5.84,0,7.13,1.29,7.13,7.11V378.37c0,6.39-1,7.41-7.42,7.41H340.16c-6.47,0-7.45-.95-7.45-7.37V216.49c0-5.87,1.27-7.14,7.09-7.14Z"/><path class="cls-3" d="M539,439.21H473.11a12.65,12.65,0,0,1-3.26-.06c-1.46-.39-3.52-.82-4-1.85s.55-3.08,1.54-4c12-11.59,23.79-23.49,36.41-34.41,7.43-6.44,10.49-13.17,10.19-23.2-.79-26.41-.27-52.86-.26-79.29,0-5.69,1.28-7,6.87-7q43.41,0,86.82,0c5.38,0,6.75,1.39,6.75,6.81,0,18.57,0,37.13,0,55.7,0,1.51-.77,3-1.17,4.51a24.57,24.57,0,0,1-4.64-1.56,43,43,0,0,1-7.36-4.86c-6.16-5.4-13.44-7.15-21.35-7.59-6.32-.36-12.6-1.26-18.91-1.75a4.58,4.58,0,0,0-3.4,1.07c-.49.53-.13,2.26.36,3.19q6.86,13,14,25.95a9.19,9.19,0,0,0,3,2.89c11.6,7.79,23.18,15.61,34.9,23.21a9.39,9.39,0,0,1,4.74,8.93c-.2,9-.06,17.91-.06,26.87,0,5-1.46,6.48-6.39,6.48Zm26.45-54c-1.1.24-2.28.46-3.44.75-9.51,2.38-19,4.67-28.49,7.26a9.5,9.5,0,0,0-4.73,3.42c-4.31,6-7.1,13-13.51,17.41-1.74,1.18-1.35,2.69-.08,4.19q5.61,6.6,11.1,13.31c1.51,1.85,3,2,4.66.34,3.71-3.78,8.5-5.57,13.29-7.39a43.07,43.07,0,0,0,6.33-2.64,9.31,9.31,0,0,0,3.53-3.46c2.1-4.06,3.86-8.29,5.75-12.45,2.52-5.56,5.09-11.1,7.52-16.69C568.42,386.79,567.62,385.29,565.41,385.22Zm1.74-57.48c1-1.09,1.78-1.95,2.56-2.79a23.83,23.83,0,0,0,6.67-13.23c.56-4.14-.73-6.88-3.48-8.08-2.54-1.11-5.82.05-8.3,3.1-3.63,4.45-4.82,9.69-4.74,15.31,0,1.7.73,3.77-1.67,4.36-2.59.64-5.31,1.17-7.19-1.12,2-3.87,4.13-7.32,5.68-11a23.08,23.08,0,0,0,1.55-14.43c-1.28-5.43-6.49-7.45-10.81-4a16.53,16.53,0,0,0-4.58,6.21c-2.59,6.12-2.59,12.54-1,19,.8,3.28.21,4.17-3.15,4.2-4.6.05-7.89-2.15-10-6.16-2.28-4.29-2-8.83-1.56-13.45.08-.83-.71-1.74-1.1-2.61-.77.63-2.1,1.17-2.21,1.9-.54,3.63-1.43,7.4-1,11,1.38,10.53,10.07,15.92,20.54,13.45a6.93,6.93,0,0,1,4.35.49,17.65,17.65,0,0,0,11.44,1.54,11.48,11.48,0,0,1,6.12.87c4.22,1.78,8.1,1.55,11.78-1,.7-.5.88-1.73,1.31-2.62-1-.16-2-.67-2.82-.42C572.91,329,570.36,329.91,567.15,327.74ZM548.88,376c-1.29-.9-2-1.83-2.76-1.85-3.21-.1-4.35-1.89-4.69-4.78-.07-.65-1-1.2-1.57-1.79-.63.61-1.73,1.16-1.83,1.85-.39,2.89-1.63,4.59-4.76,4.78-.66,0-1.26,1.2-1.89,1.85.69.58,1.32,1.56,2.08,1.67,2.81.42,4.22,1.86,4.55,4.69.08.7,1.16,1.29,1.78,1.93.59-.67,1.6-1.3,1.68-2,.31-2.9,1.87-4.19,4.63-4.58C546.89,377.61,547.59,376.82,548.88,376Z"/><path class="cls-3" d="M289.4,181.79c18.24,0,36.48-.06,54.72.08,1.71,0,3.41,1.19,5.12,1.82-.86,1.63-1.4,3.58-2.64,4.82q-7.65,7.62-15.69,14.86a8,8,0,0,0-2.83,6.55q.1,57.35,0,114.69c0,7-.75,7.79-7.62,7.79H234.33c-5.23,0-6.57-1.32-6.63-6.56,0-2.95-.08-5.91,0-8.85.15-4.13,1.54-5.48,5.62-5.51,6.23,0,12.46-.11,18.68,0,3,.06,4.33-.95,4.32-4.15q-.15-26.87,0-53.74c0-3.11-1.31-4-4.15-3.93-6,.11-12,.06-18,0-4.71,0-6.44-1.64-6.45-6.25q-.06-27.69,0-55.38c0-4.8,1.54-6.27,6.31-6.27Q261.72,181.77,289.4,181.79Zm-9.87,112.26h-.34c0,5.45-.07,10.91,0,16.36.08,4.68,3.66,7.08,8.06,5.52a14.7,14.7,0,0,0,2.66-1.26c1.69-1,2.85-.57,3.71,1.13,1,1.95,2,3.9,3,5.8a5.83,5.83,0,0,0,7.83,2.69c1.2-.5,2.32-1.2,3.48-1.81,9.07-4.78,9.44-5.64,4.59-14.71-1.55-2.91-1.22-4.28,1.78-5.77,5.67-2.81,6-7.56.86-11.17-8.56-6-17.21-11.91-25.79-17.9-2.14-1.5-4.32-2.06-6.74-.9s-3.15,3.44-3.15,6ZM290.06,211v-.09c1.42,0,2.84,0,4.26,0,4.58-.12,9.16-.18,13.73-.49.93-.06,1.8-1.14,2.69-1.75a24.54,24.54,0,0,0-2.55-1.91c-.42-.24-1.07-.08-1.62-.09-11.12-.18-22.24-.41-33.36-.5-2.49,0-4-.57-3.79-3.46.19-2.24-1.1-3.13-3.21-3.1-1.42,0-2.84.06-4.26,0-2.51-.13-4.06.71-3.81,3.51.22,2.5-1.11,3.23-3.35,3.25a60.15,60.15,0,0,0-7.83.42c-1.2.16-2.29,1.1-3.43,1.69,1.19.68,2.31,1.78,3.56,2a74,74,0,0,0,8.17.36c1.79.05,3,.76,2.84,2.74-.28,3.25,1.35,4.29,4.33,4.05,1.3-.11,2.61,0,3.92,0,2,0,3.22-.83,3.06-2.91-.25-3,1.32-3.7,4-3.65C278.94,211,284.5,211,290.06,211ZM261,228v-.15c-5,.28-10,.48-15,.9-.82.07-1.56,1.13-2.34,1.73.78.6,1.49,1.49,2.37,1.73a18.58,18.58,0,0,0,4.54.47q11.46.17,22.92.21c1.92,0,3.61.23,3.45,2.75-.19,3.1,1.44,4,4.26,3.79a25.44,25.44,0,0,1,3.6,0c2.43.13,3.8-.87,3.6-3.42s1-3.2,3.31-3.23c5.35-.06,10.7-.23,16-.56,1.05-.07,2-1.1,3.06-1.69-1-.62-1.93-1.71-2.94-1.78-5.33-.35-10.68-.5-16-.58-2.19,0-3.65-.52-3.42-3.12s-1.2-3.53-3.59-3.47c-1.42,0-2.84.06-4.26,0-2.41-.1-3.78.84-3.6,3.43.17,2.3-1,3.06-3.16,3C269.52,228,265.26,228,261,228Zm20.38,36.55c-1.38-2.58-2.68-5.19-4.17-7.68a2,2,0,0,0-1.93-.58c-.59.39-1.29,1.53-1.1,2a71.19,71.19,0,0,0,3.64,7.94c.25.45,1.59.64,2.27.43C280.58,266.54,280.82,265.54,281.38,264.56Zm-7.74,8.65c.29-.34,1.67-1.29,1.53-1.88-.71-2.89-3.39-3.08-5.73-3.22a3.18,3.18,0,0,0-2.54,1.66C266.42,271.36,269.84,273.28,273.64,273.21Zm11-10c1.36,1.21,2.24,2.57,2.89,2.47,2.95-.45,3-3.08,3-5.28,0-.83-1.12-1.7-1.73-2.56Z"/><path class="cls-4" d="M302.9,156.49q33.74,0,67.49,0a11.42,11.42,0,0,1,3.57.27c1.63.55,2.9,2,1.37,3.47-6,5.49-10.65,12.66-18.87,15.28a24.91,24.91,0,0,1-7.41,1q-56.85.11-113.71.07c-6.2,0-6.93-.79-7-7,0-2.4,0-4.81,0-7.21,0-4.28,1.68-5.85,6-5.82,10.05.07,20.1.18,30.14.2,12.78,0,25.56,0,38.34,0Zm-47.74,14a4.47,4.47,0,0,0,4.21-4.15,4.2,4.2,0,0,0-4.31-4.3,4,4,0,0,0-4.17,4.09A4.24,4.24,0,0,0,255.16,170.46ZM270.62,162a4.23,4.23,0,0,0-4.59,4.23,4.12,4.12,0,0,0,4.08,4.22,4.31,4.31,0,0,0,4.39-4.27A4.1,4.1,0,0,0,270.62,162Zm-26.48,4.51c-.06-2.77-1.89-4.64-4.21-4.5-2.52.16-4,1.55-4.14,4.16a4.22,4.22,0,0,0,4.37,4.3C242.66,170.16,244,168.66,244.14,166.5Z"/><path class="cls-5" d="M563.75,284.11h-42.6c-5.81,0-6.94-1.14-6.95-6.84,0-2.63,0-5.25,0-7.87,0-4.61,1.45-6.07,6.09-6.07q34.89,0,69.79,0c5.89,0,11.79-.05,17.69,0,4.31.05,5.67,1.44,5.75,5.73,0,3.06.06,6.12,0,9.17-.08,4.68-1.2,5.84-5.86,5.85-14.63,0-29.27,0-43.9,0Zm11.93-10.48a4.24,4.24,0,0,0-4.25-4.44,4,4,0,0,0-4.13,4.2c-.06,2.49,1.23,4.12,3.9,4.29A3.94,3.94,0,0,0,575.68,273.63Zm10.76-4.45a4.31,4.31,0,0,0-4,4.63c.25,2.54,1.68,3.94,4.32,3.85s3.93-1.68,4.08-4.16A4.3,4.3,0,0,0,586.44,269.18Zm19.5,4.34c0-2.31-2.14-4.56-4.33-4.34a4.05,4.05,0,0,0-4,4.32c0,2.5,1.31,4.09,4,4.2A4,4,0,0,0,605.94,273.52Z"/><path class="cls-3" d="M655.46,404.42c-1,1.28-1.48,2.55-2.31,2.83a4.24,4.24,0,0,1-3.22-.53c-8.87-5.78-17.67-11.67-26.48-17.54-12.44-8.3-24.86-16.64-37.33-24.91-1.82-1.21-3.28-2.46-1.76-4.72s3.32-1.17,5.06,0q31.32,20.9,62.67,41.79A31,31,0,0,1,655.46,404.42Z"/><path class="cls-5" d="M245.77,305.79H204.84a19.41,19.41,0,0,1,1.52-2.07c5.53-5.57,11.11-11.1,16.63-16.7,1.59-1.61,2.95-1.93,4.69-.15,5.5,5.61,11.1,11.13,16.63,16.7A15.72,15.72,0,0,1,245.77,305.79Z"/><path class="cls-5" d="M249.87,300.79c-1.75-1.73-3.51-3.45-5.26-5.19-4.24-4.24-8.43-8.51-12.73-12.69-1.53-1.5-1.87-2.94-.32-4.49,5.76-5.78,11.57-11.53,17.37-17.27a13.27,13.27,0,0,1,1.72-1.1V300.3Z"/><path class="cls-5" d="M200.23,300.66V260.05a24.85,24.85,0,0,1,2.48,1.88c5.33,5.32,10.59,10.7,15.95,16,1.56,1.54,2.22,3,.47,4.74q-8.67,8.68-17.39,17.34A6.16,6.16,0,0,1,200.23,300.66Z"/><path class="cls-5" d="M246.48,255.4c-6.93,6.9-13.15,13.15-19.5,19.27a3,3,0,0,1-2.88.13c-6.34-6.25-12.54-12.63-19.19-19.4Z"/><path class="cls-6" d="M659.58,396.23c-1,2.66-2.45,2.26-4,1.24-3.64-2.4-7.26-4.84-10.89-7.26-17.43-11.62-34.88-23.21-52.24-34.92-1-.66-1.27-2.34-1.88-3.54,1.37.1,3.07-.29,4.07.37Q626.19,373,657.59,394A11.74,11.74,0,0,1,659.58,396.23Z"/><path class="cls-6" d="M648.84,413c-.6.73-1,1.6-1.4,1.61a5.49,5.49,0,0,1-3-.55c-5.33-3.42-10.58-7-15.84-10.48q-23.58-15.7-47.13-31.44c-.19-.12-.46-.19-.54-.36-.51-1.14-1-2.29-1.45-3.44,1.16,0,2.58-.38,3.43.15C588,371.65,593,375,598,378.34q24.12,16.08,48.21,32.2A23.65,23.65,0,0,1,648.84,413Z"/><path class="cls-3" d="M579.45,346.75l5.67,1.64a45.49,45.49,0,0,1-2.37,5.1c-2,3.25-4.21,6.37-6.32,9.56-1.32,2-2.47,2.18-3.86,0a11.17,11.17,0,0,1,3.54-15.25A14.58,14.58,0,0,1,579.45,346.75Z"/><path class="cls-3" d="M672.42,174.64c-.09,1.23-.17,3.53-.46,5.8-.87,6.82-4.52,11.49-11.09,13.65q-28.12,9.27-56.31,18.42L603,213c-5.62,1.86-5.62,1.86-8.4-3.31a4.5,4.5,0,0,0-1.05-1.63,9.11,9.11,0,0,0-2.26-.76,6.44,6.44,0,0,0-.62,2.25,12.45,12.45,0,0,0,.93,2.78c.64,1.81.77,3.84-1.34,4.33-1,.23-2.76-1.13-3.61-2.22-1.18-1.51-1.67-3.55-2.77-5.16-.46-.66-1.72-.78-2.61-1.15-.15.87-.69,1.91-.39,2.6,4.31,10.06,1.37,9-6,11.46a27.89,27.89,0,0,1-5,1.55c-1.41.18-3.35.22-4.3-.57-4.69-3.93-10-4-15.53-3a53,53,0,0,0-8.19,2.22c-.81.29-1.31,1.45-2,2.21,1,.34,2,1.06,3,1,4.11-.44,8.17-1.32,12.28-1.59,1.48-.1,3,1.08,4.57,1.68-1.32.92-2.52,2.19-4,2.71-5.33,1.93-10.74,3.65-16.15,5.37-5,1.57-7.77-.56-7.93-5.82-.28-8.75,3.38-15.49,10.67-20.11,6.62-4.21,13.55-7.94,20.17-12.16a56.21,56.21,0,0,0,9.49-7.46,21.51,21.51,0,0,0,6.08-20.74c-.22-1-1.42-1.82-2.17-2.72a16.44,16.44,0,0,0-1.2,3.21c-.45,3-.62,6-1.13,9a2.38,2.38,0,0,1-1.81,1.46,2.49,2.49,0,0,1-1.67-1.63c-2.31-11.23-10.58-17.33-20-21.41-14.79-6.41-30-11.86-45.14-17.46-17.49-6.48-35.18-12.43-52.58-19.16-5.59-2.16-10.84-5.64-15.68-9.27-5.22-3.91-7.46-9.73-7.75-16.33-.17-3.7,2.25-5.87,5.71-4.53,5.18,2,10.6,3.37,15.88,5.15a10.77,10.77,0,0,1,2.68,2c-1,.72-2,2.1-3,2.06-3.77-.15-7.52-.83-11.29-1.13a16.52,16.52,0,0,0-3.7.53c.84,1,1.49,2.38,2.54,2.8,7.5,3,14.95,3.93,22.24-.88a6.16,6.16,0,0,1,4.34-.78,88.85,88.85,0,0,1,10.9,3.43c.6.23.79,1.75,1,2.72.07.32-.49.74-.54,1.15-.18,1.38-.84,3.63-.29,4,2.11,1.4,2.64-1,3.44-2.21,1.75-2.58,3.76-3.57,6.94-2.5,8.38,2.81,16.83,5.42,25.27,8,2.27.7,2.64,1.67,1.51,3.8-.76,1.43-3.1,3.3-.88,4.79,2.38,1.61,2.73-1.54,4-2.64.88-.8,1.62-2.06,2.63-2.33a5.16,5.16,0,0,1,3.87.5c.54.37.33,2.33,0,3.4-.52,1.53-1.68,2.83-2.22,4.36-.25.7.3,1.7.49,2.56.82-.32,1.88-.43,2.41-1,1.23-1.37,2.15-3,3.31-4.46,1.83-2.28,4-2.87,7-1.91,19.31,6.26,38.66,12.38,58,18.55,17.22,5.49,34.38,4.77,51.6-.17,10.16-2.92,16-.5,21.77,8.26C669.85,154.84,672.42,163.82,672.42,174.64Zm-14.79,2a17.19,17.19,0,0,0,0,3.59,15.28,15.28,0,0,0,1.46,3.13c.71-.94,1.87-1.79,2.06-2.83,1.11-6,1.17-12.12-1.11-17.75-1.79-4.46-4.76-8.46-7.36-12.57-.35-.55-1.63-.52-2.48-.75a20.12,20.12,0,0,0-.14,2.9c0,.48.54.93.83,1.39A40.21,40.21,0,0,1,657.63,176.68Zm-67.07-7.81c-1.41-3.36-2.88-7.14-4.63-10.78-.29-.62-1.77-.67-2.7-1-.15.86-.67,1.87-.39,2.56,2.16,5.47,3.36,11,1.82,16.86-.18.7.57,1.64.88,2.47.83-.51,2.11-.84,2.39-1.57C588.91,174.93,589.54,172.31,590.56,168.87Z"/><path class="cls-3" d="M386.14,499.57a14,14,0,0,1,10.53-2.3c2.47.38,4.88,1.19,7.35,1.54.85.12,1.81-.57,2.72-.9-.5-.74-.84-1.85-1.53-2.17-7.13-3.22-14.34-4.48-21.72-.61-4,2.09-14.29.95-17.46-1.9a2.48,2.48,0,0,1-.57-1.94c.09-.72.83-1.35.93-2.06a30.36,30.36,0,0,0,.1-3.82c-1.08.64-2.49,1-3.19,2-3.06,4.14-3,4.19-8.07,2.58-8-2.55-16-5.17-24-7.59-2.55-.77-3.16-1.69-1.76-4.15.74-1.28,1.26-4.09.72-4.44-2.23-1.47-2.62,1.27-3.76,2.34-.86.82-1.55,2.14-2.55,2.41a6.4,6.4,0,0,1-4.14-.39c-.44-.21-.26-2.33.11-3.42.53-1.52,1.67-2.84,2.19-4.37.24-.71-.33-1.7-.54-2.57-.81.33-1.9.44-2.38,1-6,7.61-6,7.66-15.1,4.79-16.75-5.31-33.54-10.49-50.2-16.06a88.07,88.07,0,0,0-53.48-1A37,37,0,0,1,192,457.9a13.61,13.61,0,0,1-11.46-5.34c-9.39-11.37-12.58-24.47-10.37-38.93a14.46,14.46,0,0,1,10.15-12.2q31-10.38,62.23-20.35c.87-.28,2.56.64,3.29,1.5,1.1,1.29,1.57,3.1,2.54,4.53.38.56,1.41.67,2.15,1a6.84,6.84,0,0,0,.72-2.5c-.17-1.39-1.09-2.74-1-4.08a3.93,3.93,0,0,1,1.69-3c.68-.3,2.41.64,3,1.49,1.27,1.88,2,4.12,3.19,6.06.39.64,1.52.83,2.32,1.23.23-.94.82-1.95.63-2.79-.43-1.9-1.31-3.7-1.87-5.57s.15-3.4,2.18-4.05c3.64-1.16,7.25-2.44,10.93-3.42a4.78,4.78,0,0,1,3.71.4c5.73,4.73,12.1,4.28,18.67,2.69a31.74,31.74,0,0,0,5.6-1.78c.77-.35,1.16-1.52,1.71-2.32-.93-.3-1.91-.94-2.79-.83-3.67.46-7.3,1.45-11,1.63-2,.1-4-1-6-1.62,1.61-1,3.1-2.41,4.86-3,5.12-1.88,10.33-3.51,15.54-5.14,4.4-1.39,7.35.69,7.58,5.25.41,8.24-2.33,15.17-9.31,19.77s-14.45,8.56-21.46,13.17a62,62,0,0,0-10.78,8.93c-4.9,5.16-6.19,11.67-5,18.59.23,1.25,1.45,2.32,2.22,3.47a23.75,23.75,0,0,0,1.22-3.84c.45-3,.57-6,1.11-9,.13-.67,1.36-1.38,2.19-1.58.34-.08,1.36,1.11,1.45,1.81,1.29,9.59,7.65,15.55,15.5,19.45A341.48,341.48,0,0,0,321,451.86c20.46,7.56,41.22,14.35,61.73,21.79a113.28,113.28,0,0,1,17.68,8.45c7.5,4.32,12.26,10.77,12.51,19.84.12,4.61-1.68,5.9-6.06,4.5-5.09-1.63-10.21-3.18-15.3-4.81C390,501.14,388.57,500.5,386.14,499.57ZM179.89,421c.06,9,2.66,17,8.9,23.66.63.67,2,.66,3,1a9.9,9.9,0,0,0-.3-3.07c-1.9-4.39-4.58-8.54-5.76-13.1-1.25-4.77-1.07-9.91-1.63-14.88a9.62,9.62,0,0,0-1.22-2.66c-.73.75-1.9,1.41-2.11,2.29A58.8,58.8,0,0,0,179.89,421Zm71.41,5.49c1.45,3.39,3,7.15,4.72,10.8.28.58,1.59.68,2.42,1,.21-.94.83-2.06.54-2.81-2.12-5.49-3.4-11-1.71-16.89.18-.63-.7-1.58-1.09-2.38-.74.47-1.92.78-2.16,1.43C253,420.21,252.35,422.93,251.3,426.45Z"/><path d="M565.41,385.22c2.21.07,3,1.57,1.93,4-2.43,5.59-5,11.13-7.52,16.69-1.89,4.16-3.65,8.39-5.75,12.45a9.31,9.31,0,0,1-3.53,3.46,43.07,43.07,0,0,1-6.33,2.64c-4.79,1.82-9.58,3.61-13.29,7.39-1.64,1.67-3.15,1.51-4.66-.34q-5.47-6.72-11.1-13.31c-1.27-1.5-1.66-3,.08-4.19,6.41-4.37,9.2-11.46,13.51-17.41a9.5,9.5,0,0,1,4.73-3.42c9.45-2.59,19-4.88,28.49-7.26C563.13,385.68,564.31,385.46,565.41,385.22Zm-7.65,13.38-.39-.49a12.28,12.28,0,0,0-2.14,1.43c-3.15,3.13-6.12,6.45-9.41,9.42a6.37,6.37,0,0,1-4.51,1.55,4.24,4.24,0,0,1-2.72-3.05c-.11-1.32,1-2.88,1.89-4.09.52-.7,1.78-.79,2.56-1.34,3.66-2.58,7.28-5.23,10.91-7.85l-.56-1c-4.19,1-8.33,2.38-12.58,3.05-5.29.84-9.09,3.3-11.32,8.18a13.28,13.28,0,0,1-1,1.68c-3,4.68-3,4.85.56,9.06,7.47,8.75,4.68,8.32,15.64,3.81,2-.83,4.43-2.07,5.38-3.81C553,409.82,555.24,404.15,557.76,398.6Z"/><path d="M567.15,327.74c3.21,2.17,5.76,1.24,8.39.41.82-.25,1.87.26,2.82.42-.43.89-.61,2.12-1.31,2.62-3.68,2.59-7.56,2.82-11.78,1a11.48,11.48,0,0,0-6.12-.87,17.65,17.65,0,0,1-11.44-1.54,6.93,6.93,0,0,0-4.35-.49c-10.47,2.47-19.16-2.92-20.54-13.45-.46-3.56.43-7.33,1-11,.11-.73,1.44-1.27,2.21-1.9.39.87,1.18,1.78,1.1,2.61-.46,4.62-.72,9.16,1.56,13.45,2.13,4,5.42,6.21,10,6.16,3.36,0,4-.92,3.15-4.2-1.58-6.43-1.58-12.85,1-19a16.53,16.53,0,0,1,4.58-6.21c4.32-3.46,9.53-1.44,10.81,4a23.08,23.08,0,0,1-1.55,14.43c-1.55,3.69-3.65,7.14-5.68,11,1.88,2.29,4.6,1.76,7.19,1.12,2.4-.59,1.69-2.66,1.67-4.36-.08-5.62,1.11-10.86,4.74-15.31,2.48-3.05,5.76-4.21,8.3-3.1,2.75,1.2,4,3.94,3.48,8.08A23.83,23.83,0,0,1,569.71,325C568.93,325.79,568.16,326.65,567.15,327.74Zm-20-7.73c4.44-2.59,8.37-14.79,6.34-19.13-1-2.13-2.44-2.19-4.26-.18C545.61,304.64,544.43,315,547.11,320Zm17.75,2.19c4.62-2.67,7.54-9.32,6.26-13.83C567,309.27,563.73,316.18,564.86,322.2Z"/><path d="M548.88,376c-1.29.84-2,1.63-2.78,1.74-2.76.39-4.32,1.68-4.63,4.58-.08.73-1.09,1.36-1.68,2-.62-.64-1.7-1.23-1.78-1.93-.33-2.83-1.74-4.27-4.55-4.69-.76-.11-1.39-1.09-2.08-1.67.63-.65,1.23-1.81,1.89-1.85,3.13-.19,4.37-1.89,4.76-4.78.1-.69,1.2-1.24,1.83-1.85.55.59,1.5,1.14,1.57,1.79.34,2.89,1.48,4.68,4.69,4.78C546.87,374.15,547.59,375.08,548.88,376Z"/><path d="M279.53,294.05V278c0-2.55.64-4.79,3.15-6s4.6-.6,6.74.9c8.58,6,17.23,11.87,25.79,17.9,5.12,3.61,4.81,8.36-.86,11.17-3,1.49-3.33,2.86-1.78,5.77,4.85,9.07,4.48,9.93-4.59,14.71-1.16.61-2.28,1.31-3.48,1.81a5.83,5.83,0,0,1-7.83-2.69c-1.07-1.9-2.05-3.85-3-5.8-.86-1.7-2-2.14-3.71-1.13a14.7,14.7,0,0,1-2.66,1.26c-4.4,1.56-8-.84-8.06-5.52-.1-5.45,0-10.91,0-16.36Zm35,2.28-30-20.84v36.22c1.65-.76,3-1.33,4.31-2,4.24-2.16,6.28-1.55,8.5,2.59,1.37,2.55,2.76,5.1,4.26,7.88l7.33-3.67c1.54-.77,2-1.75,1-3.4-1.22-2.06-2.22-4.26-3.27-6.42-1.61-3.34-.93-5.51,2.3-7.36C310.43,298.49,312,297.7,314.51,296.33Z"/><path d="M290.06,211c-5.56,0-11.12.08-16.68,0-2.65,0-4.22.62-4,3.65.16,2.08-1.1,2.92-3.06,2.91-1.31,0-2.62-.07-3.92,0-3,.24-4.61-.8-4.33-4.05.17-2-1.05-2.69-2.84-2.74a74,74,0,0,1-8.17-.36c-1.25-.17-2.37-1.27-3.56-2,1.14-.59,2.23-1.53,3.43-1.69a60.15,60.15,0,0,1,7.83-.42c2.24,0,3.57-.75,3.35-3.25-.25-2.8,1.3-3.64,3.81-3.51,1.42.07,2.84,0,4.26,0,2.11,0,3.4.86,3.21,3.1-.24,2.89,1.3,3.44,3.79,3.46,11.12.09,22.24.32,33.36.5.55,0,1.2-.15,1.62.09a24.54,24.54,0,0,1,2.55,1.91c-.89.61-1.76,1.69-2.69,1.75-4.57.31-9.15.37-13.73.49-1.42,0-2.84,0-4.26,0Z"/><path d="M261,228c4.26,0,8.52-.06,12.77,0,2.18,0,3.33-.72,3.16-3-.18-2.59,1.19-3.53,3.6-3.43,1.42.06,2.84,0,4.26,0,2.39-.06,3.81.89,3.59,3.47s1.23,3.08,3.42,3.12c5.35.08,10.7.23,16,.58,1,.07,2,1.16,2.94,1.78-1,.59-2,1.62-3.06,1.69-5.33.33-10.68.5-16,.56-2.3,0-3.5.75-3.31,3.23s-1.17,3.55-3.6,3.42a25.44,25.44,0,0,0-3.6,0c-2.82.26-4.45-.69-4.26-3.79.16-2.52-1.53-2.74-3.45-2.75q-11.46-.06-22.92-.21a18.58,18.58,0,0,1-4.54-.47c-.88-.24-1.59-1.13-2.37-1.73.78-.6,1.52-1.66,2.34-1.73,5-.42,10-.62,15-.9Z"/><path d="M281.38,264.56c-.56,1-.8,2-1.29,2.13-.68.21-2,0-2.27-.43a71.19,71.19,0,0,1-3.64-7.94c-.19-.49.51-1.63,1.1-2a2,2,0,0,1,1.93.58C278.7,259.37,280,262,281.38,264.56Z"/><path d="M273.64,273.21c-3.8.07-7.22-1.85-6.74-3.44a3.18,3.18,0,0,1,2.54-1.66c2.34.14,5,.33,5.73,3.22C275.31,271.92,273.93,272.87,273.64,273.21Z"/><path d="M284.65,263.19l4.19-5.37c.61.86,1.75,1.73,1.73,2.56-.06,2.2-.08,4.83-3,5.28C286.89,265.76,286,264.4,284.65,263.19Z"/><path d="M255.16,170.46a4.24,4.24,0,0,1-4.27-4.36,4,4,0,0,1,4.17-4.09,4.2,4.2,0,0,1,4.31,4.3A4.47,4.47,0,0,1,255.16,170.46Z"/><path d="M270.62,162a4.1,4.1,0,0,1,3.88,4.18,4.31,4.31,0,0,1-4.39,4.27,4.12,4.12,0,0,1-4.08-4.22A4.23,4.23,0,0,1,270.62,162Z"/><path d="M244.14,166.5c-.11,2.16-1.48,3.66-4,4a4.22,4.22,0,0,1-4.37-4.3c.1-2.61,1.62-4,4.14-4.16C242.25,161.86,244.08,163.73,244.14,166.5Z"/><path d="M575.68,273.63a3.94,3.94,0,0,1-4.48,4.05c-2.67-.17-4-1.8-3.9-4.29a4,4,0,0,1,4.13-4.2A4.24,4.24,0,0,1,575.68,273.63Z"/><path d="M586.44,269.18a4.3,4.3,0,0,1,4.37,4.32c-.15,2.48-1.44,4.06-4.08,4.16s-4.07-1.31-4.32-3.85A4.31,4.31,0,0,1,586.44,269.18Z"/><path d="M605.94,273.52a4,4,0,0,1-4.35,4.18c-2.65-.11-4-1.7-4-4.2a4.05,4.05,0,0,1,4-4.32C603.8,269,605.94,271.21,605.94,273.52Z"/><path d="M657.63,176.68a40.21,40.21,0,0,0-6.69-22.89c-.29-.46-.78-.91-.83-1.39a20.12,20.12,0,0,1,.14-2.9c.85.23,2.13.2,2.48.75,2.6,4.11,5.57,8.11,7.36,12.57,2.28,5.63,2.22,11.76,1.11,17.75-.19,1-1.35,1.89-2.06,2.83a15.28,15.28,0,0,1-1.46-3.13A17.19,17.19,0,0,1,657.63,176.68Z"/><path d="M590.56,168.87c-1,3.44-1.65,6.06-2.63,8.55-.28.73-1.56,1.06-2.39,1.57-.31-.83-1.06-1.77-.88-2.47,1.54-5.88.34-11.39-1.82-16.86-.28-.69.24-1.7.39-2.56.93.32,2.41.37,2.7,1C587.68,161.73,589.15,165.51,590.56,168.87Z"/><path d="M179.89,421a58.8,58.8,0,0,1,.9-6.8c.21-.88,1.38-1.54,2.11-2.29a9.62,9.62,0,0,1,1.22,2.66c.56,5,.38,10.11,1.63,14.88,1.18,4.56,3.86,8.71,5.76,13.1a9.9,9.9,0,0,1,.3,3.07c-1-.3-2.39-.29-3-1C182.55,438,180,430,179.89,421Z"/><path d="M251.3,426.45c1-3.52,1.74-6.24,2.72-8.85.24-.65,1.42-1,2.16-1.43.39.8,1.27,1.75,1.09,2.38-1.69,5.89-.41,11.4,1.71,16.89.29.75-.33,1.87-.54,2.81-.83-.32-2.14-.42-2.42-1C254.27,433.6,252.75,429.84,251.3,426.45Z"/><path class="cls-1" d="M557.76,398.6c-2.52,5.55-4.81,11.22-7.72,16.56-.95,1.74-3.36,3-5.38,3.81-11,4.51-8.17,4.94-15.64-3.81-3.6-4.21-3.54-4.38-.56-9.06a13.28,13.28,0,0,0,1-1.68c2.23-4.88,6-7.34,11.32-8.18,4.25-.67,8.39-2,12.58-3.05l.56,1c-3.63,2.62-7.25,5.27-10.91,7.85-.78.55-2,.64-2.56,1.34-.91,1.21-2,2.77-1.89,4.09a4.24,4.24,0,0,0,2.72,3.05,6.37,6.37,0,0,0,4.51-1.55c3.29-3,6.26-6.29,9.41-9.42a12.28,12.28,0,0,1,2.14-1.43Z"/><path class="cls-3" d="M547.11,320c-2.68-5-1.5-15.37,2.08-19.31,1.82-2,3.27-1.95,4.26.18C555.48,305.22,551.55,317.42,547.11,320Z"/><path class="cls-3" d="M564.86,322.2c-1.13-6,2.09-12.93,6.26-13.83C572.4,312.88,569.48,319.53,564.86,322.2Z"/><path class="cls-3" d="M314.51,296.33c-2.54,1.37-4.08,2.16-5.58,3-3.23,1.85-3.91,4-2.3,7.36,1.05,2.16,2.05,4.36,3.27,6.42,1,1.65.53,2.63-1,3.4l-7.33,3.67c-1.5-2.78-2.89-5.33-4.26-7.88-2.22-4.14-4.26-4.75-8.5-2.59-1.31.66-2.66,1.23-4.31,2V275.49Z"/><path class="cls-5" d="M456.74,280.05v54.69c0,8.33-7.9,14.27-15.62,11.73l-45.56-14.94a10.85,10.85,0,0,0,6.25-3.68c3.12-3.44,6.5-6.65,10.58-10.78.78,4.55,1.38,7.81,1.89,11.08.36,2.31,1.59,3.49,4,3.49,8.43,0,16.85,0,25.28,0,2.54,0,3.59-1,2.68-3.77q-10-30.39-19.89-60.83c-.76-2.35-2-3.47-4.53-3.46-7.81.06-15.62,0-23.42,0-3,0-4.05,1-2.93,4.08,2.95,8.25,5.45,16.66,8.61,24.81,1.53,3.93.64,6.17-2.49,8.76q-8.65,7.11-17.16,14.43V260.55c0-8.54,8.24-14.5,16-11.59L443.58,265c-3.73,2.47-8.53,7.65-8.65,9.85a6.74,6.74,0,0,0,.51,2.51q2,5.76,4.11,11.5c1.4,3.82,2.35,4.1,5.45,1.41Z"/><path class="cls-7" d="M393.32,333.73h-.7c-2.43-.1-5.06-.14-8.29-.14l-5.61,0c-1.87,0-3.75,0-5.63,0h-1.23c-1.3,0-2.84,0-5.26,0l-4.83-.07,3.57-3.48c1.6-1.55,2.65-2.57,3.62-3.41,2.3-2,4.61-4,6.85-6.06s4.84-4.36,7.3-6.46c6.65-5.69,12.12-10.28,17.19-14.45,2.62-2.16,3-3.56,1.89-6.48-1.9-4.92-3.59-10-5.22-14.88-1.09-3.29-2.22-6.68-3.4-10-.28-.77-1.14-3.15.13-5,1.13-1.6,3.18-1.79,4.63-1.79l12.52,0q5.46,0,10.94,0c3.3,0,5.39,1.58,6.45,4.84,6.48,20,13.17,40.5,19.88,60.82.24.72,1,2.91-.29,4.65s-3.52,1.74-4.28,1.75q-6.32,0-12.65,0H418.27c-3.33,0-5.44-1.84-6-5.18-.35-2.25-.74-4.49-1.2-7.16a.29.29,0,0,1,0-.09l-.92.92c-2.56,2.54-4.76,4.74-6.87,7.06a12.9,12.9,0,0,1-7.37,4.31A13.59,13.59,0,0,1,393.32,333.73Z"/><path class="cls-5" d="M421.85,263.55c2.48,0,3.73,1.12,4.48,3.46q9.85,30.45,19.89,60.83c.91,2.73-.14,3.75-2.68,3.77q-6.33,0-12.67,0H418.26c-2.39,0-3.62-1.18-4-3.49-.51-3.27-1.11-6.53-1.89-11.08-4.08,4.13-7.46,7.34-10.58,10.78a10.85,10.85,0,0,1-6.25,3.68,11.49,11.49,0,0,1-2.25.2h-.62c-2.79-.11-5.58-.14-8.38-.14-3.74,0-7.5.05-11.24.05h-1.2c-1.31,0-2.83,0-5.24,0,1.61-1.57,2.69-2.63,3.63-3.44,4.75-4.06,9.38-8.46,14.15-12.51q8.52-7.31,17.16-14.43c3.13-2.59,4-4.83,2.49-8.76-3.16-8.15-5.66-16.56-8.61-24.81-1.11-3.09,0-4.08,2.88-4.08h.05q6.27,0,12.53,0,5.44,0,10.89,0h.05m0-4h-.06c-3.3,0-6.86,0-10.88,0q-6.27,0-12.51,0h-.07c-1.09,0-4.41,0-6.27,2.64s-.74,5.77-.37,6.8c1.17,3.27,2.3,6.66,3.39,9.94,1.63,4.91,3.33,10,5.25,15,.78,2,.76,2.52-1.31,4.22-5.11,4.2-10.58,8.8-17.21,14.48-2.48,2.11-4.95,4.33-7.34,6.49-2.23,2-4.53,4.08-6.81,6-1,.88-2.12,1.94-3.78,3.56l0,0-6.92,6.74,9.66.13c2.45,0,4,0,5.29,0h1.2l5.65,0,5.59,0c3.22,0,5.83,0,8.22.14h.78a15.64,15.64,0,0,0,3-.27,14.84,14.84,0,0,0,8.46-4.92c1.57-1.73,3.2-3.4,5-5.2.2,1.18.38,2.31.56,3.42.67,4.31,3.63,6.88,7.93,6.88h12.61c3.84,0,8.3,0,12.7,0,2.69,0,4.67-.88,5.89-2.58s1.41-3.88.55-6.45c-6.71-20.34-13.4-40.8-19.87-60.8-1.66-5.15-5.43-6.23-8.29-6.23Z"/><path class="cls-7" d="M442,294.07c-2.65,0-3.67-2.82-4.29-4.5-1.35-3.69-2.74-7.57-4.12-11.53a8.5,8.5,0,0,1-.62-3.29c.2-3.5,6.23-9.2,9.55-11.4a8.24,8.24,0,0,1,4.25-1.72l3.5-.05c4.23-.05,7.87-.1,11.8-.1,2.67,0,5.25,0,7.89.07s4.1.08,5.42.13l4.69.19-3.38,3.25c-1.69,1.63-3.67,3.37-4,3.7l-14.54,12.74q-5.44,4.77-10.91,9.51l-.84.73C444.74,293.16,443.4,294.07,442,294.07Z"/><path class="cls-5" d="M462,263.48c2.49,0,5.05,0,7.86.07s4.07.08,5.38.13c-1.38,1.33-3.09,2.86-4,3.64q-7.26,6.38-14.54,12.73L445,290.29c-1.35,1.17-2.29,1.78-3,1.78-1,0-1.62-1-2.41-3.19q-2.1-5.75-4.11-11.5a6.74,6.74,0,0,1-.51-2.51c.12-2.2,4.92-7.38,8.65-9.85a7,7,0,0,1,3.19-1.4c5.62-.06,10.27-.14,15.25-.14m0-4v0c-3.94,0-7.59,0-11.81.1l-3.49.05a10.13,10.13,0,0,0-5.37,2.07c-2.67,1.77-10.15,8.16-10.42,12.94a10.26,10.26,0,0,0,.72,4c1.42,4.09,2.78,7.87,4.15,11.6.63,1.73,2.11,5.81,6.16,5.81,2.29,0,4.12-1.42,5.66-2.76l.13-.11q5.82-5.06,11.63-10.14l14.54-12.74c.38-.33,2.41-2.11,4.12-3.76l6.75-6.51-9.37-.37c-1.33-.05-2.66-.08-5.47-.13-2.65-.05-5.24-.07-7.93-.07Z"/></g></svg>