<svg xmlns="http://www.w3.org/2000/svg" viewBox="0 0 841.89 595.28"><defs><style>.cls-1{fill:#f0e100;}.cls-2{fill:none;stroke:#00e6bb;stroke-miterlimit:10;stroke-width:2px;}.cls-3{fill:#00e6bb;}.cls-4{fill:#231f20;}.cls-5{fill:#fff;}</style></defs><g id="Layer_8" data-name="Layer 8"><path class="cls-1" d="M285.2,377.34V158.41c0-32.06,31-54.39,60.28-43.47L527,182.52c17.8,6.63,29.66,24,29.66,43.47V436.87c0,31.31-29.62,53.56-58.63,44.05L316.5,421.39C297.86,415.28,285.2,397.46,285.2,377.34Z"/><path class="cls-2" d="M317.38,388.84V141.89c0-36.16,34.92-61.35,68-49l204.79,76.23c20.08,7.48,33.46,27.08,33.46,49V456c0,35.31-33.42,60.42-66.14,49.69L352.69,438.52C331.66,431.63,317.38,411.53,317.38,388.84Z"/><rect class="cls-3" x="277.03" y="379.28" width="74.71" height="95.02"/><polygon class="cls-3" points="570.72 146.88 345 139.59 336.05 321.93 452.52 430.68 563.99 420.4 570.72 146.88"/><path class="cls-4" d="M389.27,401.57l-34.86,22.56c-1.45.94-3.32,1.7-2.08,4.36.73-.41,1.45-.75,2.11-1.19l39.75-25.73Zm203.35,81.68c-.23-10.5-.48-21-.69-31.49-1.25-63.24-2.57-126.47-3.61-189.71-.09-5.69-1.29-9.73-6.7-12a37.78,37.78,0,0,1-4.56-2.87c-.41,5.32-.7,9.87-1.15,14.41a5.7,5.7,0,0,1-1.16,3.19c-5.75,6.09-11.62,12.07-17.46,18.07a3.49,3.49,0,0,1-.6.48v4l28.72-29.05c1.5,75.1,3,149.43,4.49,224.53l-121.84-81.2h-4.78q60.2,40.19,120.42,80.31c.69.46,1.35,1,2.56,1.86H268.43l-.2-.54c5-3.2,9.89-6.46,14.93-9.54.84-.52,2.13-.38,3.21-.39q28.47,0,56.92,0c3.77,0,3.78,0,3.8-3.82q.15-33.93.28-67.87l.06-13.91c0-4.44,0-4.45-4.55-4.45h-10q-21.81,0-43.61,0c-3.22,0-6.43.22-9.64.19-2,0-2.42.93-2.32,2.7.59,10.39,1.11,20.8,1.66,31.19.91,17.08,1.79,34.16,2.77,51.24a3.93,3.93,0,0,1-2.08,4.12c-4.69,2.88-9.26,5.94-13.89,8.92-.54.34-1.13.61-2.07,1.11q-5.79-112.06-11.55-223.43l.59-.42,80.14,74.52V218.55q-1,52.77-2.06,105.55c0,.94-.12,1.88-.22,3.38l-76.44-71c1.17-.14,1.74-.25,2.3-.27,9-.31,17.94-.64,26.91-.93,7.11-.23,14.23-.38,21.33-.69.75,0,1.47-.86,2.19-1.32a15.8,15.8,0,0,0-2.16-1.29,4.05,4.05,0,0,0-1.51,0l-45.45,1.45c-1,0-2.1,0-3.66,0,.83-1,1.24-1.65,1.73-2.19q24.2-26.4,48.44-52.76A3.81,3.81,0,0,0,305,194a15.57,15.57,0,0,0-1.44,1.22Q277.23,224,250.85,252.69a5.65,5.65,0,0,0-1.58,4.54c.73,12.68,1.39,25.36,2,38q3,56.82,5.95,113.64,1.94,37.15,3.77,74.32c.17,3.44.2,3.44,3.74,3.44H589.25C592.59,486.67,592.69,486.57,592.62,483.25ZM280,386.08h3.41l49.44.29,7.19,0c4,0,4,0,4,4.17v11q0,30.57,0,61.14c0,1.94.17,3.89.28,5.83.07,1.31-.33,2.06-1.83,2.06q-26.42-.08-52.84-.09c-.15,0-.3-.13-1-.46l4.74-3.35c-3.89-1.63-6,1.29-9.06,2.54C282.94,441.52,281.5,414,280,386.08Zm74.41,41.22,39.75-25.73h-4.92l-34.86,22.56c-1.45.94-3.32,1.7-2.08,4.36C353.06,428.08,353.78,427.74,354.44,427.3ZM510.63,154.88l-24.3-.24q-74.56-.72-149.13-1.49c-1.81,0-2.67.46-3,1.73Z"/><path class="cls-4" d="M305,194a3.8,3.8,0,0,1-.74,4.5Q280,224.86,255.84,251.3c-.49.53-.9,1.14-1.73,2.19,1.56,0,2.61,0,3.66,0L303.22,252a4.06,4.06,0,0,1,1.51,0,15.8,15.8,0,0,1,2.16,1.29c-.72.46-1.44,1.29-2.19,1.33-7.1.3-14.22.45-21.33.69q-13.46.44-26.91.93c-.56,0-1.13.13-2.3.27l76.44,71c.1-1.5.2-2.44.22-3.38q1.46-73.78,2.88-147.56c.13-6.77.35-13.54.39-20.31,0-2.29.76-3.1,3.11-3.08q74.57.81,149.13,1.5l70.88.68c3.7,0,3.72,0,3.57,3.69q-2.49,60.4-5,120.81c-.05,1.23,0,2.46,0,4.09a14.41,14.41,0,0,0,1.48-1.1c5.84-6,11.71-12,17.46-18.07a5.7,5.7,0,0,0,1.16-3.19c.45-4.54.74-9.09,1.15-14.4a36.36,36.36,0,0,0,4.56,2.86c5.41,2.31,6.61,6.34,6.7,12,1,63.24,2.36,126.48,3.61,189.71.21,10.5.46,21,.69,31.49.07,3.32,0,3.42-3.37,3.42H264.78c-3.54,0-3.57,0-3.74-3.45q-1.89-37.16-3.77-74.32-2.94-56.82-5.95-113.63c-.66-12.68-1.32-25.37-2-38a5.66,5.66,0,0,1,1.58-4.55q26.41-28.68,52.73-57.45A15.62,15.62,0,0,1,305,194ZM268.23,483.2l.2.54H586.26c-1.21-.89-1.87-1.4-2.56-1.86q-76.19-50.79-152.35-101.62c-1.72-1.15-2.81-1-4.45.06q-36.18,23.57-72.46,47c-.66.43-1.38.78-2.11,1.18-1.24-2.66.63-3.42,2.08-4.36l38.6-25c2-1.31,4-2.67,6.18-4.12L252.74,258.85l-.59.42q5.76,111.54,11.55,223.42c.94-.5,1.53-.76,2.07-1.11,4.63-3,9.2-6,13.89-8.91a3.94,3.94,0,0,0,2.08-4.13c-1-17.07-1.86-34.15-2.77-51.23-.55-10.4-1.07-20.8-1.66-31.2-.1-1.77.32-2.71,2.32-2.7,3.21,0,6.42-.18,9.64-.19q26.81,0,53.61,0c4.55,0,4.57,0,4.55,4.46q-.17,40.89-.34,81.77c0,3.82,0,3.82-3.8,3.82q-28.46,0-56.92,0a6.6,6.6,0,0,0-3.21.38C278.12,476.75,273.19,480,268.23,483.2Zm182.73-93c.5-.42.84-.66,1.13-.95Q479.42,361.6,506.72,334a4.9,4.9,0,0,0,1.16-1.9c2.38-7.59,5-15.12,7-22.8A465.39,465.39,0,0,0,527,246.47c1.11-8.71,1.56-17.52,1.84-26.3a19.33,19.33,0,0,0-2.16-8.49c-2-4.24-5.48-4.48-8.29-.74a20,20,0,0,0-3.76,6.84c-2,8.2-3.92,16.45-5.15,24.79a491,491,0,0,1-12.71,60.85c-.26.93-1.47,2.45-1.88,2.34-1.91-.51-.82-2.06-.56-3.14,1.05-4.36,2.46-8.64,3.33-13q4.93-25.15,9.59-50.37c1-5.49,2.21-11,2.44-16.56.39-9.38.18-18.79,0-28.19a23.27,23.27,0,0,0-1.38-7.68c-2.33-6.17-7.92-7-12.27-2a7.47,7.47,0,0,0-1.58,2.29c-1.69,4.75-3.92,9.44-4.76,14.35-2.55,14.93-4.17,30-6.87,44.92-3,16.63-6.79,33.13-10.33,49.67-.17.85-1.21,1.5-1.85,2.25-.23-.93-.81-1.94-.64-2.78,3.32-16.16,6.84-32.27,10.08-48.44a265.32,265.32,0,0,0,4.49-66.2,22.4,22.4,0,0,0-1.92-8c-2.33-5-7.12-5.84-10.86-1.79-2.12,2.3-4.22,5.18-4.9,8.13-2.11,9.13-3.84,18.38-5.15,27.66-3.13,22.12-6.39,44.21-11.64,66-.89,3.7-1.81,7.4-2.87,11.05-.17.6-1.11,1-1.69,1.46a19.4,19.4,0,0,1-.85-2.06c-.08-.28.11-.66.2-1,5.13-18.81,8.53-38,11.59-57.19,1.18-7.44,1.07-14.61-1.92-21.65-4.42-10.44-14.62-16.14-24.8-12.87-11.75,3.76-19.56,12.11-24,23.5-1.35,3.44.32,5.83,4,6.25a20.13,20.13,0,0,0,14-3.55c3.22-2.18,5.81-1.42,7.13,2.29a25,25,0,0,1,1.34,6.17c1.07,12.46-1,24.62-3.56,36.75-1.38,6.64-3.6,12.85-7.78,18.29-8.79,11.39-24.64,13.28-35.35,4.18-8.2-7-11-19.62-5.61-28,2.32-3.61,5.78-6.58,9.05-9.46,4.06-3.57,8.62-6.57,12.67-10.15A14.61,14.61,0,0,0,407,224.89a5,5,0,0,0-.87-2.82c-2.09-2.49-4.91-3.85-8.1-2.94-5.17,1.49-10.48,2.86-15.28,5.2-11.86,5.8-21.21,14.13-25.35,27.29a126.69,126.69,0,0,0-5.17,30.72c-1.3,22.05.5,44,2.34,65.94a6,6,0,0,0,2,3.31c14.34,13.42,28.77,26.75,43.09,40.19,1.55,1.45,2.58,1.54,4.32.38,7.67-5.12,15.47-10.05,23.16-15.15a3.32,3.32,0,0,1,4.32.05C437.79,381.46,444.3,385.73,451,390.18Zm2.42,1.62,136.52,91c-1.51-75.11-3-149.44-4.49-224.54ZM288.72,470.06c.7.32.85.45,1,.45q26.41,0,52.84.09c1.5,0,1.9-.75,1.83-2.06-.11-1.94-.28-3.88-.28-5.82q0-36.08,0-72.14c0-4.16,0-4.14-4-4.16l-56.63-.34H280c1.47,27.95,2.91,55.44,4.37,83.17,3.05-1.25,5.17-4.18,9.06-2.54Zm98.13-302.77c-.25,1.39-.56,2.06-.42,2.6a40.47,40.47,0,0,0,1.35,3.83c2.41,6.41,4.78,12.83,7.28,19.21.25.64,1.26,1,1.91,1.47.11-.58.47-1.26.29-1.74Q393,181,388.53,169.39A12.06,12.06,0,0,0,386.85,167.29Zm-20.58,17.49c-.35.28-.95.59-.91.76a3.64,3.64,0,0,0,.82,1.87q5.86,5.4,11.87,10.65c.51.44,1.43.41,2.15.6-.24-.77-.25-1.8-.76-2.29-3.89-3.62-7.87-7.15-11.84-10.69A12.22,12.22,0,0,0,366.27,184.78Z"/><path d="M409.93,83.24l-15.82,17.22q-12.87,14-25.72,28.1c-1.2,1.31-2.37,2.11-4.46,1.19.5-.66.87-1.26,1.34-1.78q21.09-23,42.17-46.1c1.64-1.81,2.74-2.09,4.74-.38q28.67,24.49,57.49,48.82a17.59,17.59,0,0,0,1.66,1.06c-2.45,1-3.87.65-5.37-.63q-26.76-22.8-53.61-45.53C411.64,84.61,410.91,84,409.93,83.24Z"/><path class="cls-5" d="M268.23,483.2c5-3.2,9.89-6.45,14.93-9.54a6.6,6.6,0,0,1,3.21-.38q28.47,0,56.92,0c3.77,0,3.78,0,3.8-3.82q.18-40.89.34-81.77c0-4.45,0-4.46-4.55-4.46q-26.81,0-53.61,0c-3.22,0-6.43.22-9.64.19-2,0-2.42.93-2.32,2.7.59,10.4,1.11,20.8,1.66,31.2.91,17.08,1.79,34.16,2.77,51.23a3.94,3.94,0,0,1-2.08,4.13c-4.69,2.87-9.26,5.94-13.89,8.91-.54.35-1.13.61-2.07,1.11q-5.79-112-11.55-223.42l.59-.42L399.19,395c-2.17,1.45-4.16,2.81-6.18,4.12l-38.6,25c-1.45.94-3.32,1.7-2.08,4.36.73-.4,1.45-.75,2.11-1.18q36.26-23.47,72.46-47c1.64-1.07,2.73-1.21,4.45-.06q76.14,50.87,152.35,101.62c.69.46,1.35,1,2.56,1.86H268.43Z"/><path class="cls-5" d="M451,390.18c-6.66-4.45-13.17-8.72-19.59-13.12a3.32,3.32,0,0,0-4.32-.05c-7.69,5.1-15.49,10-23.16,15.15-1.74,1.16-2.77,1.07-4.32-.38-14.32-13.44-28.75-26.77-43.09-40.19a6,6,0,0,1-2-3.31c-1.84-21.94-3.64-43.89-2.34-65.94a126.69,126.69,0,0,1,5.17-30.72c4.14-13.16,13.49-21.49,25.35-27.29,4.8-2.34,10.11-3.71,15.28-5.2,3.19-.91,6,.45,8.1,2.94a5,5,0,0,1,.87,2.82,14.61,14.61,0,0,1-5.31,11.89c-4.05,3.58-8.61,6.58-12.67,10.15-3.27,2.88-6.73,5.85-9.05,9.46-5.4,8.39-2.59,21,5.61,28,10.71,9.1,26.56,7.21,35.35-4.18,4.18-5.44,6.4-11.65,7.78-18.29,2.53-12.13,4.63-24.29,3.56-36.75a25,25,0,0,0-1.34-6.17c-1.32-3.71-3.91-4.47-7.13-2.29a20.13,20.13,0,0,1-14,3.55c-3.71-.42-5.38-2.81-4-6.25,4.47-11.39,12.28-19.74,24-23.5,10.18-3.27,20.38,2.43,24.8,12.87,3,7,3.1,14.21,1.92,21.65-3.06,19.23-6.46,38.38-11.59,57.19-.09.32-.28.7-.2,1a19.4,19.4,0,0,0,.85,2.06c.58-.48,1.52-.86,1.69-1.46,1.06-3.65,2-7.35,2.87-11.05,5.25-21.75,8.51-43.84,11.64-66,1.31-9.28,3-18.53,5.15-27.66.68-2.95,2.78-5.83,4.9-8.13,3.74-4,8.53-3.23,10.86,1.79a22.4,22.4,0,0,1,1.92,8A265.32,265.32,0,0,1,480.1,247c-3.24,16.17-6.76,32.28-10.08,48.44-.17.84.41,1.85.64,2.78.64-.75,1.68-1.4,1.85-2.25,3.54-16.54,7.32-33,10.33-49.67,2.7-14.9,4.32-30,6.87-44.92.84-4.91,3.07-9.6,4.76-14.35a7.47,7.47,0,0,1,1.58-2.29c4.35-5,9.94-4.15,12.27,2a23.27,23.27,0,0,1,1.38,7.68c.17,9.4.38,18.81,0,28.19-.23,5.55-1.42,11.07-2.44,16.56q-4.68,25.21-9.59,50.37c-.87,4.39-2.28,8.67-3.33,13-.26,1.08-1.35,2.63.56,3.14.41.11,1.62-1.41,1.88-2.34a491,491,0,0,0,12.71-60.85c1.23-8.34,3.17-16.59,5.15-24.79a20,20,0,0,1,3.76-6.84c2.81-3.74,6.28-3.5,8.29.74a19.33,19.33,0,0,1,2.16,8.49c-.28,8.78-.73,17.59-1.84,26.3a465.39,465.39,0,0,1-12.09,62.79c-2.07,7.68-4.65,15.21-7,22.8a4.9,4.9,0,0,1-1.16,1.9q-27.29,27.66-54.63,55.27C451.8,389.52,451.46,389.76,451,390.18Zm-17.15-29.8h.12c-.15-1.94-.21-3.89-.47-5.81-2.61-19.47-11.69-35.44-26.32-48.36-1-.87-2.18-3.07-3.65-1.36-1.33,1.54.89,2.4,1.84,3.26,10.91,9.73,18.89,21.34,23.09,35.45a66.67,66.67,0,0,1,2.79,21.28c0,.73.68,1.49,1.05,2.24.52-.71,1.36-1.37,1.49-2.14A30.12,30.12,0,0,0,433.81,360.38Z"/><path class="cls-5" d="M453.38,391.8l132-133.56c1.5,75.1,3,149.43,4.49,224.54Zm107.69-15.15,0-.83L550.79,371v10.56Z"/><path class="cls-5" d="M386.85,167.29a12.06,12.06,0,0,1,1.68,2.1Q393,181,397.26,192.66c.18.48-.18,1.16-.29,1.74-.65-.48-1.66-.83-1.91-1.47-2.5-6.38-4.87-12.8-7.28-19.21a40.47,40.47,0,0,1-1.35-3.83C386.29,169.35,386.6,168.68,386.85,167.29Z"/><path class="cls-5" d="M366.27,184.78a12.22,12.22,0,0,1,1.33.9c4,3.54,7.95,7.07,11.84,10.69.51.49.52,1.52.76,2.29-.72-.19-1.64-.16-2.15-.6q-6-5.24-11.87-10.65a3.64,3.64,0,0,1-.82-1.87C365.32,185.37,365.92,185.06,366.27,184.78Z"/><path d="M433.81,360.38a30.12,30.12,0,0,1-.06,4.56c-.13.77-1,1.43-1.49,2.14-.37-.75-1.08-1.51-1.05-2.24a66.67,66.67,0,0,0-2.79-21.28c-4.2-14.11-12.18-25.72-23.09-35.45-.95-.86-3.17-1.72-1.84-3.26,1.47-1.71,2.67.49,3.65,1.36,14.63,12.92,23.71,28.89,26.32,48.36.26,1.92.32,3.87.47,5.81Z"/><path d="M561.07,376.65l-10.28,4.89V371L561,375.82Z"/><path d="M311.15,452.05c-9.28-.46-17.28-4.8-21.84-13.65C282.42,425,286,409,299.7,401.76a26.38,26.38,0,0,1,36.57,12.15c4.72,10,2.37,26.38-5.75,32.67C325,450.89,318.58,451.87,311.15,452.05Zm.65-14.29h-.46c0-3,0-6.08,0-9.12,0-1.39-.54-2-2-1.94-2.53.07-5.07.06-7.6,0-1.34,0-1.91.57-1.73,1.83a56.3,56.3,0,0,0,1.18,7.22,23.79,23.79,0,0,0,6.94,11.86,3.72,3.72,0,0,0,2.71.76c.41-.06.83-1.45.87-2.25C311.86,443.33,311.8,440.54,311.8,437.76Zm-1.5-36.38a22,22,0,0,0-3.13,2.38c-4.47,5.1-6.1,11.35-7,17.87-.18,1.36.55,1.79,1.79,1.78,2.2,0,4.4-.11,6.59,0,2,.12,2.69-.55,2.59-2.59-.27-5.48-.35-11-.53-16.46C310.6,403.58,310.46,402.79,310.3,401.38Zm3.76.19c-.06,1.31-.16,2.12-.14,2.93.1,3.81.18,7.61.36,11.41.11,2.41-.51,5.76.8,6.95s4.64.37,7.06.57c2.18.18,2.83-.92,2.34-2.73A93.23,93.23,0,0,0,321,409.12,14.41,14.41,0,0,0,314.06,401.57Zm1.11,46.52.9.69a11.32,11.32,0,0,0,2.46-2.18,43.33,43.33,0,0,0,5.73-15.87c.64-3.94.54-4-3.34-4a28.72,28.72,0,0,0-4.55.09c-.63.1-1.62,1-1.62,1.59C314.8,435,315,441.52,315.17,448.09Zm7.09-1.06a23,23,0,0,0,2.3-.69c6-2.74,8.85-7.77,10.15-13.94,1.18-5.58.74-6.15-4.93-5.62-.71.07-1.86,1-1.91,1.61A50.24,50.24,0,0,1,322.26,447Zm-19.61-42.91c-7.74,3.05-14.16,12.7-13.07,19.27,1.7,0,3.46-.05,5.21,0,1.33.05,1.95-.41,2.13-1.82C297.67,415.6,299.1,409.81,302.65,404.12ZM302.31,446a36.31,36.31,0,0,1-5.61-17.8,2,2,0,0,0-1.32-1.38c-2-.16-4-.07-6-.07C289,433.88,295,443,302.31,446Zm32.48-22.6c1.08-6.58-6.35-17.52-12.6-18.8a35.68,35.68,0,0,1,5.66,16.66c.07.75.91,1.95,1.53,2A34.94,34.94,0,0,0,334.79,423.38Z"/></g></svg>