<svg xmlns="http://www.w3.org/2000/svg" viewBox="0 0 841.89 595.28"><defs><style>.cls-1{fill:#00e6bb;}.cls-2{fill:none;stroke:#2630ea;stroke-miterlimit:10;stroke-width:2px;}.cls-3{fill:#fff;}.cls-4{fill:#f0e100;}</style></defs><g id="Layer_9" data-name="Layer 9"><path class="cls-1" d="M267.82,387.54V140.59c0-36.16,34.92-61.35,68-49l204.79,76.23c20.09,7.48,33.46,27.08,33.46,49V454.69c0,35.32-33.42,60.42-66.14,49.69l-204.8-67.15C282.1,430.34,267.82,410.24,267.82,387.54Z"/><path class="cls-2" d="M326.62,383.86V129.31c0-37.27,36-63.24,70.09-50.55L607.8,157.34c20.7,7.71,34.49,27.92,34.49,50.55V453.08c0,36.4-34.45,62.28-68.18,51.22L363,435.08C341.34,428,326.62,407.26,326.62,383.86Z"/><path d="M614.32,430.68c-.16-3.5-.56-3.9-4-3.81-10.37.28-20.73.59-31.1.87-3.34.09-3.4,0-3.4-3.43v-27q0-18.1,0-36.22c0-3.05-.42-3.49-3.41-3.42-7.29.2-14.58.52-21.87.69-10.31.24-20.6.38-30.91.59-1.22,0-1.69-.43-1.67-1.67.06-3,.12-6.07,0-9.09,0-.24,0-.48,0-.72s0-.21,0-.31v-5.25H518c0-3.61,0-7.09,0-10.56,0-1.58.49-2,2.08-2.18,10.61-.93,17.82-9.17,17.33-19.77-.43-9.55-1-19.08-1.45-28.62q-2.24-44.25-4.46-88.51c-.41-7.93-4.22-13.69-11.54-16.92a2.78,2.78,0,0,1-2-3c.07-13.37,0-26.75,0-40.12,0-2.82-.06-2.88-2.84-2.89q-58.14-.21-116.28-.4l-111-.37c-3.65,0-3.65,0-3.61,3.72q.13,9.72.25,19.45.76,62.31,1.52,124.62.53,41.87,1.2,83.71c0,2-.59,2.52-2.52,2.48-3.68-.08-7.36.16-11.05.18-1.51,0-2.14.6-2,2.09.06.48,0,1,.06,1.43q1.55,38.25,3.08,76.48C275,446,275,446,278.4,446q34.31,0,68.59,0c1.93,0,2.6.49,2.56,2.5-.14,4.9-.05,9.82-.05,14.73,0,3.56,0,3.56,3.63,3.55h.21c23.27-.11,46.54-.28,69.81-.3,42.44-.05,84.88,0,127.32,0,20.89,0,41.77-.26,62.64-.37,1.75,0,2.89-.31,2.77-2.48C615.31,452.61,614.83,441.65,614.32,430.68Zm-85-237.27c1.24,23.43,2.36,46.86,3.54,70.3.73,14.51,1.4,29,2.28,43.53.36,5.73-.58,10.87-4.8,15.05a14.85,14.85,0,0,1-10.18,4.65c-5,.14-10,0-14.94,0a6.72,6.72,0,0,1-1.14-.21c.82-3.11,1.72-6.1,2.42-9.12A195.51,195.51,0,0,0,511,274.13c0-14-.44-28.09-1-42.13-.14-3.77-1.15-7.53-1.92-11.25a10.47,10.47,0,0,0-1.6-3.52c-1.55-2.34-3.54-2.51-5.67-.67-.25.22-.51.43-.75.62-4.3-3.6-5.62-3.5-8.19.53-.13,0-.3,0-.37-.1-1.29-1.65-2.8-3-5.06-2.15s-2.76,2.79-2.83,4.8c-.12,3.81,0,7.63,0,11.45v3.2c-.94-.61-1.69-1.12-2.45-1.6-4.83-3.05-9.15-2.54-13,1.67-1.95,2.12-4.17,4.64-3.73,7.47s-1,4-2.48,5.68c-3.79,4.24-3.43,9.28-1.49,14.06A82.85,82.85,0,0,0,466.93,274a18.3,18.3,0,0,1,2.81,8c.78,8.07-.67,15.93-2.68,23.66-1.69,6.53-3.91,12.92-5.85,19.38a1.84,1.84,0,0,1-2,1.52c-5.73-.06-11.47,0-17.19-.14a2.42,2.42,0,0,1-1.85-1.3c-3.67-13.28-11.93-23.29-22.47-31.67a81.21,81.21,0,0,0-23.29-13c-.62-.22-1.52-1.08-1.44-1.5a3.67,3.67,0,0,1,1.41-2.37c1.73-.93,3.68-1.44,5.48-2.24a15.67,15.67,0,0,0,8.81-9.2c.7-1.94,1.78-2.29,3.62-2.4a57.51,57.51,0,0,0,9.72-1.19c10.57-2.53,17.26-11.54,16.9-22.42-.22-6.46-1.7-12.43-6.65-17-2.79-2.61-6.3-3.68-9.83-4.78s-7.22-2.42-10.79-3.76c-1.68-.63-2.29-2-2.44-3.87a103.86,103.86,0,0,0-1.54-13c-1.91-9.15-8-14.48-16.78-16.89s-17.45-1.7-26.19-.18a36.8,36.8,0,0,0-16.61,7,3.11,3.11,0,0,1-.88.51c-7.28,2.27-12.16,7.55-16.67,13.31-.57.74-1.16,1.48-1.75,2.23-.22-.24-.38-.33-.38-.43,0-5.1-.61-10.28.07-15.3,1.1-8,8-13.23,16.25-13.17,6.48.06,13,.12,19.44.22l128.94,1.8c6,.09,12,.18,18,.23C522.29,176.12,528.73,182.15,529.32,193.41Zm-57.9,85.1c-.78-3.22-3.13-6.11-4.88-9.08-2.31-3.9-4.36-7.89-4.85-12.48a8.91,8.91,0,0,1,2.89-8.14c.55-.49,1.65-1.14,2-.92A3.44,3.44,0,0,1,467.8,250a8.34,8.34,0,0,1,0,2.64,7.71,7.71,0,0,0,4.48,7.57c2.81,1.25,5.37.55,6.81-2.16a17.22,17.22,0,0,0,1.15-13.51c-1.38-4.36-5.89-5.15-9.07-1.82-1,1.08-2.06,2.67-3.7,1.5s-.53-2.86.07-4.25a13.66,13.66,0,0,1,1.44-2.23c2.52-3.44,5.31-4.69,8.31-3.77,4.33,1.33,7,4.54,7.26,8.62a7.07,7.07,0,0,0,.21,2,7.44,7.44,0,0,0,1.15,1.65,9.48,9.48,0,0,0,.95-2,7.77,7.77,0,0,0-.1-2c-.34-6-.72-12-1-18a21.71,21.71,0,0,1,.42-4.88c.13-.67.81-1.64,1.36-1.73a2.26,2.26,0,0,1,1.82,1.21,60.18,60.18,0,0,1,2.42,9.64c.6,4.73.67,9.52,1,14.28a1.92,1.92,0,0,0,.1.81c.41.64.89,1.25,1.34,1.86.29-.67.85-1.35.82-2-.28-5.93-.7-11.84-1-17.77a39.61,39.61,0,0,1,.27-6.53c.09-.8.92-1.5,1.41-2.24.72.62,1.88,1.11,2.09,1.87a42.92,42.92,0,0,1,1.65,8c.51,5.77.71,11.57,1.13,17.35.06.73.73,1.41,1.11,2.11.35-.76,1-1.53,1-2.27-.27-6.48-.72-12.94-1-19.41a24.77,24.77,0,0,1,.41-5.08c.11-.68.83-1.26,1.28-1.87.6.48,1.51.84,1.74,1.46a23.45,23.45,0,0,1,1.83,6.24c.78,9.77,1.64,19.56,1.9,29.36.49,18.29.06,36.58-3,54.67-.9,5.29-2.44,10.48-3.69,15.71-.28,1.16-.79,1.87-2.21,1.86-11.74-.1-23.47-.14-35.21-.21a10,10,0,0,1-1.38-.23c.34-1.07.62-2,1-3,3.7-10.49,7.11-21.1,7.92-32.26A42,42,0,0,0,471.42,278.51Zm-1.23-28.46a24.5,24.5,0,0,0-.55-2.76c1.3-1.17,2.44-2.22,3.59-3.25,1.71-1.53,3.69-1.34,4.52.74a14.1,14.1,0,0,1-.88,12.4c-.38.71-2,1.2-2.95,1.07-2.21-.32-3.9-2.88-3.79-5.14A24,24,0,0,0,470.19,250.05ZM376,279.79c2.48,3.61,6.22,5.41,10.2,6.8l2.65.93a10.54,10.54,0,0,1-7.78,6.07c-5.39,1-10.27-.72-14.95-3.12a48,48,0,0,1-13.35-10.37,6.09,6.09,0,0,1,0-8c5.74-6.09,7.54-17.42,4-24.28a10,10,0,0,0-8.78-5.73,52.16,52.16,0,0,1-7.48-1,5.23,5.23,0,0,1-4.38-4.79c-.28-2.6.76-4.48,3.25-5.84a20.48,20.48,0,0,1,9.9-2.17,3.41,3.41,0,0,0,3.34-2.13c3.36-6.58,4.43-13.73,5.22-20.92.43-4,.56-8,.84-12.09,14,4.4,28.09,4.94,42.31,4.59.48,0,1,0,1.43-.08,3.19-.31,3.36-.32,3.61,2.78,1.43,17.52,3.79,35,2.89,52.66-.1,1.77-.37,3.53-.63,5.29-1.19,8-5.47,13.56-13.44,15.47-5.68,1.36-11.54,2-17.31,2.95a20.32,20.32,0,0,0-2.25.62A8,8,0,0,0,376,279.79Zm-27.33-4.09c.62,1.42,1,2.39-.8,3-5.61,1.89-11.16,3.9-16.74,5.86a4,4,0,0,1-.81.05v-5.23C336.66,279.42,343,279,348.68,275.7ZM332,286.86c5.34-1.87,10.67-3.76,16-5.71a3,3,0,0,1,3.59,1c5.47,5.77,11.68,10.57,19.43,12.76a27.18,27.18,0,0,0,9.65,1c5.6-.51,9.3-3.89,11-9.28.39-1.22.72-2.46,1.06-3.64,15.24,1,45,29.81,44.68,43.38-.71,0-1.45.09-2.18.08q-43.8-.21-87.59-.48c-9.94,0-16.65-6.73-16.9-16.67-.17-6.54-.27-13.09-.48-19.63C330.25,288.23,330.63,287.35,332,286.86ZM287,166c-.14-10.92-.34-21.83-.51-32.74,0-2.56,0-2.56,2.6-2.56H401.24v.71q56,0,112,0c2.13,0,2.62.65,2.6,2.68q-.12,18.72,0,37.45c0,2-.5,2.5-2.51,2.47q-43.92-.75-87.82-1.32c-27-.37-53.9-.76-80.86-1-11-.12-19.31,8.27-19.08,19.37.55,26.73,1.23,53.47,1.86,80.2.31,12.83.6,25.65,1,38.47.33,11.14,8.14,18.68,19.31,18.74l155.39.88c3.54,0,7.1,0,10.64-.1,1.41,0,2.11.35,2.1,1.95q-.09,13,0,26c0,1.87-1,1.88-2.31,1.9q-34.41.47-68.78.95-64.79,1-129.57,2.05c-7.7.13-15.42.2-23.13.41-1.88.05-2.56-.35-2.58-2.41Q288.27,263,287,166Zm62.55,272.09a32.28,32.28,0,0,1-.08,4.29c-.08.53-.85,1-1.42,1.42-.28.19-.8,0-1.2,0H279.87c-2.79,0-2.77,0-2.89-2.78q-1.49-36.6-3-73.2c-.13-3-.1-3,2.89-3.07l134.66-2v0q66.9-1,133.84-2c8.23-.12,16.47.05,24.71,0,1.79,0,2.44.68,2.43,2.41,0,6.55,0,13.1,0,19.65q0,20.76,0,41.53c0,3.78,0,3.74-3.67,3.84-20.18.56-40.39.69-60.54,1.81-52,2.92-104,3.31-156,5.36C349.62,435.4,349.52,435.48,349.51,438.09Zm263.6,25.56c-6,0-11.76,0-17.48,0l-130.4.5-95.39.33c-5.39,0-10.79,0-16.17.12-1.53,0-2-.5-2-2,.07-7.56.09-15.14,0-22.71,0-1.88.55-2.41,2.4-2.46q40.31-1.16,80.61-2.43,67.83-2.06,135.66-4.12c12.89-.39,25.78-.79,38.66-1.27,1.93-.07,2.57.48,2.65,2.44.41,9.74,1,19.48,1.45,29.23C613.14,461.92,613.11,462.58,613.11,463.65Z"/><path d="M247.86,345.17c-.42-.62-.89-1.21-1.26-1.86-3.36-6.07-6.6-12.21-10.13-18.18a26.9,26.9,0,0,0-4.92-5.7c-1.15-1.07-2.79-1.6-4.19-2.41a14.38,14.38,0,0,1-1.36-1c.43-.45.77-1,1.3-1.31,2.37-1.18,4.92-2,7.18-3.42,5.56-3.35,9.71-7.87,10.93-14.56.08-.49.67-.89,1-1.32a5.4,5.4,0,0,1,1.31,1.09c2.27,3.55,4.17,7.4,6.81,10.63,2.28,2.8,5.32,5,8.18,7.29,1.62,1.3,1.89,1.79.18,3-8.57,6.23-12.16,15.1-13.6,25.16a17.24,17.24,0,0,1-.73,2.49Zm-.4-6c2-9.13,5.71-17.21,13.72-23-6.53-4.05-10.38-9.8-14.24-16-3.25,7.77-9,12.34-16.17,15.7C238.72,322.12,242.76,330.74,247.46,339.13Z"/><path d="M581.86,165c.64,1,1,1.6,1.36,2.21,2.22,4.51,4.21,9.16,6.73,13.5,1.17,2,3.28,3.57,5.15,5.12,1.2,1,1.51,1.68.12,2.64a32.06,32.06,0,0,0-12.75,17.76c-.14.49-.72.86-1.09,1.28-.45-.44-1.06-.79-1.31-1.32-1.84-3.86-3.45-7.85-5.46-11.62a12.79,12.79,0,0,0-7.05-6.24c-1.32-.47-1.63-1.4-.39-2.22,6.82-4.57,10.17-11.55,13.25-18.75A21.51,21.51,0,0,1,581.86,165ZM570.08,186.9c5.79,3.78,8.36,9.51,11.22,15.78a36.49,36.49,0,0,1,11.59-15.34c-5.48-4.55-8.14-10.73-11.13-17.23C578.75,176.6,575.51,182.31,570.08,186.9Z"/><path class="cls-3" d="M401.24,131.4q56,0,112,0c2.13,0,2.62.65,2.6,2.68q-.12,18.72,0,37.45c0,2-.5,2.5-2.52,2.47q-43.9-.75-87.81-1.32-40.42-.55-80.86-1c-11.05-.11-19.31,8.28-19.08,19.38.55,26.74,1.22,53.47,1.86,80.2.31,12.83.6,25.65,1,38.47.32,11.13,8.13,18.68,19.31,18.74l155.38.88q5.31,0,10.64-.09c1.41,0,2.11.34,2.1,1.94q-.09,13,0,26c0,1.87-1,1.88-2.32,1.9q-34.39.45-68.78.95-64.79,1-129.57,2.06c-7.71.12-15.42.18-23.13.39-1.88.06-2.56-.33-2.58-2.4q-1.17-97-2.48-194c-.14-10.92-.33-21.83-.5-32.74,0-2.55,0-2.56,2.59-2.56H401.24ZM304.53,351.14c3.41,0,6.82.06,10.23-.06.67,0,1.32-.73,2-1.13-.65-.34-1.3-1-1.95-1q-10.14-.1-20.27,0c-.66,0-1.33.74-2,1.14.65.34,1.3.95,2,1C297.84,351.19,301.18,351.14,304.53,351.14Zm0,4.54c3.41,0,6.81.06,10.22,0,.66,0,1.31-.62,2-.95-.67-.39-1.33-1.1-2-1.11q-10.11-.12-20.23,0c-.66,0-1.3.63-2,1,.67.38,1.33,1.07,2,1.09C297.89,355.75,301.23,355.69,304.57,355.68Z"/><path class="cls-3" d="M411.55,362.72q66.93-1,133.85-2c8.23-.12,16.47.05,24.71,0,1.78,0,2.44.68,2.43,2.41,0,6.55,0,13.1,0,19.64q0,20.78,0,41.55c0,3.77,0,3.73-3.67,3.83-20.18.57-40.39.68-60.54,1.81-52,2.92-104,3.32-156,5.36-2.68.11-2.79.18-2.8,2.79a32.28,32.28,0,0,1-.08,4.29c-.08.54-.85,1.05-1.42,1.42-.28.19-.79,0-1.2,0H279.87c-2.79,0-2.77,0-2.88-2.77q-1.49-36.6-3-73.2c-.13-3-.1-3,2.88-3.07l134.66-2ZM347.06,411v.86h43.16c2.5,0,2.71-.2,2.4-2.71-.25-2.1-.55-4.19-.81-6.28-.36-3-.36-3-3.37-2.93Q346.11,401,303.78,402c-1.89,0-2.82.58-2.61,2.6a32.41,32.41,0,0,1,0,3.27c0,3,0,3.05,3.12,3.05Zm194.8.57c3.57-.24,8-1.14,10.79-5.47,5.75-9.05,1.86-21.48-8.36-24-1.39-.35-2.49-.82-2.53-2.65a2.8,2.8,0,0,0-1.49-2.16c-1.42-.28-1.75,1.05-1.76,2.18,0,1.51-.75,2.14-2.12,2.54a18,18,0,0,0-4.13,1.71,15,15,0,0,0-6.33,17.44C528,407.37,533.75,411.56,541.86,411.53Zm-122.48.31c3.27,0,6.54,0,9.81,0,1.58,0,2.08-.64,1.73-2.14-.64-2.72-1.25-5.45-1.81-8.18a1.86,1.86,0,0,0-2.1-1.72q-9.19,0-18.39,0c-1.45,0-2,.66-1.78,2,.36,2.7.74,5.4,1,8.11.16,1.47.9,1.93,2.31,1.9C413.24,411.79,416.31,411.84,419.38,411.84Z"/><path class="cls-3" d="M515.54,190.37c-2,1.68-3.61,3-5.13,4.46-.28.27-.09,1-.12,1.58a4.62,4.62,0,0,0,1.6-.15,6.8,6.8,0,0,0,1.33-1.25c1.14-1.08,2.26-3,3.41-3s2.49,1.78,3.82,2.63a5.52,5.52,0,0,0,2,.4c-.14-.65-.08-1.46-.45-1.9-1-1.17-2.21-2.17-3.85-3.73,1.61-1.36,3.14-2.51,4.47-3.86.52-.53.56-1.53.82-2.32a8.46,8.46,0,0,0-2.36.91,30.69,30.69,0,0,0-3.19,3.16,1.55,1.55,0,0,1-2.46.17,32.81,32.81,0,0,0-3.75-2.82,5.82,5.82,0,0,0-2.1-.36c.25.68.32,1.56.8,2C511.74,187.55,513.3,188.64,515.54,190.37Z"/><path class="cls-3" d="M613.12,463.65c-6,0-11.77,0-17.49,0l-130.4.5-95.39.34c-5.39,0-10.78,0-16.17.11-1.53,0-2-.5-2-2,.07-7.57.09-15.14,0-22.71,0-1.89.54-2.41,2.4-2.46q40.31-1.16,80.61-2.42l135.66-4.13c12.89-.39,25.78-.78,38.66-1.27,1.93-.07,2.57.47,2.65,2.44.41,9.74,1,19.48,1.45,29.23C613.15,461.92,613.12,462.59,613.12,463.65Zm-132.53-6.71v-.64h1.84l29.46-.66c2.73-.06,2.81-.18,2.51-2.81-.33-2.85-.69-5.69-1-8.54-.14-1.4-.73-2-2.23-2q-30.57,1.14-61.15,2.19c-1.54.06-2.21.69-2.3,2.2-.16,2.45-.39,4.89-.66,7.33-.31,2.76-.18,2.92,2.61,2.91Zm97.67,0h0c6.55,0,13.1,0,19.65,0,1.51,0,2.27-.45,2.35-2.05q.24-4.5.69-9c.16-1.67-.49-2.22-2.1-2.09-2.78.24-5.58.34-8.37.58-1.26.12-1.86-.28-2.05-1.58-.31-2.09-.83-4.15-1.18-6.23a1.8,1.8,0,0,0-2-1.78q-6.86,0-13.71,0c-1.4,0-2,.63-1.93,2,0,1.77,0,3.54.06,5.31.05,1.35-.51,1.8-1.83,1.73-3.34-.19-6.68-.23-10-.41-1.71-.1-2.34.55-2.21,2.26.22,2.92.4,5.85.43,8.78,0,1.87.79,2.46,2.61,2.44C565.17,456.91,571.72,457,578.26,457Zm-155.2,0c2.52,0,5.05,0,7.57,0,1.23,0,1.94-.39,1.9-1.76-.07-2.53-.09-5.05-.12-7.57,0-1.23-.62-1.73-1.81-1.63-5.1.44-10.2.88-15.3,1.28-1.31.1-1.77.75-1.75,2,0,1.91,0,3.83,0,5.73,0,1.39.57,2,2,2C418,456.93,420.53,457,423.06,457ZM401,457c.76,0,1.51,0,2.26,0,7-.2,5.88,1.46,5.88-6.53,0-1.3-.59-1.83-1.88-1.82-2.73,0-5.46,0-8.19,0-7.22.14-6-1.32-6.12,6.35,0,1.55.69,2,2.12,2C397.06,456.91,399,457,401,457Zm-33.44-6.22v0h2.65c4.93-.06,4.58.73,4.61-4.81,0-1.62-.68-2.16-2.21-2.11-2.52.06-5,0-7.56,0-5.27,0-4.62-.72-4.66,4.9,0,.14-.06.33,0,.4.54.54,1,1.45,1.65,1.52A50.59,50.59,0,0,0,367.57,450.74Z"/><path class="cls-3" d="M358.67,193.09c14,4.4,28.09,4.94,42.31,4.59.48,0,1,0,1.43-.08,3.19-.31,3.35-.33,3.61,2.78,1.43,17.53,3.79,35,2.88,52.66-.09,1.77-.36,3.53-.62,5.28-1.19,8-5.47,13.56-13.44,15.48-5.68,1.36-11.53,2-17.3,2.94a22.27,22.27,0,0,0-2.26.63,8.76,8.76,0,0,0,.73,2.42c2.48,3.61,6.22,5.41,10.21,6.8l2.65.93c-1.79,3.42-4.27,5.43-7.79,6.07-5.39,1-10.27-.72-14.95-3.12a48,48,0,0,1-13.35-10.37,6.08,6.08,0,0,1,0-8c5.74-6.09,7.54-17.42,4-24.28a10,10,0,0,0-8.78-5.73,52.16,52.16,0,0,1-7.48-1,5.23,5.23,0,0,1-4.38-4.79c-.28-2.59.76-4.48,3.25-5.84a20.36,20.36,0,0,1,9.9-2.17,3.4,3.4,0,0,0,3.34-2.14c3.37-6.57,4.43-13.72,5.21-20.91C358.26,201.19,358.39,197.18,358.67,193.09Zm36.75,40.74a14.51,14.51,0,0,0-2.25-3.14,8.06,8.06,0,0,0-3.52-1.48c-1.54-.27-2-1-2-2.45a61,61,0,0,0-.42-6.33c-.06-.52-.67-1-1-1.48-.36.54-1,1.09-1,1.63.06,2.86.3,5.71.45,8.57.06,1.25.68,1.75,1.9,1.92a11.69,11.69,0,0,1,3.71,1,3,3,0,0,1,1.53,2.08,3.2,3.2,0,0,1-1.54,2.13c-.83.51-2,.47-2.9.86a2.35,2.35,0,0,0-1.07,1.22c-.06.13.54.76.91.87C391.09,240.06,395,237.08,395.42,233.83Zm-2.23-15.51c0,.47-.1,1.08.15,1.38a20.29,20.29,0,0,0,2.12,2,22.18,22.18,0,0,0,1.89-2.24c.21-.32,0-.92,0-1.39-.07-1.5-.47-2.79-2.31-2.62S393.11,216.92,393.19,218.32ZM367,219.87c0,2.55.69,3.56,2.23,3.43s2.19-1.14,2-2.66.07-3.35-2.19-3.42C367.24,217.16,366.85,218.41,367,219.87Zm7.91,32.2,1-.9c-.4-.36-.74-.94-1.2-1-1.7-.37-3.07-1-3.68-2.82-.11-.33-.83-.46-1.26-.68-.18.46-.53,1-.49,1.39C369.47,250,372.27,252.15,374.9,252.07Zm-7.83-43.41c-1.68.67-3.27,1.25-4.8,2-.29.13-.36.76-.53,1.16.45.19,1,.64,1.34.54a34.37,34.37,0,0,0,4.4-1.57,1.56,1.56,0,0,0,.64-1.24C368.11,209.23,367.49,209,367.07,208.66Zm26.09-4.41c-.45.32-.91.49-1,.79a1.13,1.13,0,0,0,.26,1q1.89,1.17,3.89,2.15a1.11,1.11,0,0,0,1-.24c.17-.34.19-1.09,0-1.23C396,205.86,394.57,205.08,393.16,204.25Z"/><path class="cls-3" d="M463.34,326.51c.34-1.07.62-2,1-3,3.71-10.5,7.12-21.1,7.93-32.27a41.87,41.87,0,0,0-.8-12.75c-.79-3.24-3.12-6.12-4.88-9.09-2.31-3.9-4.37-7.88-4.85-12.48a8.93,8.93,0,0,1,2.88-8.14c.57-.5,1.66-1.15,2-.92a3.45,3.45,0,0,1,1.2,2.14,9,9,0,0,1,0,2.64,7.72,7.72,0,0,0,4.47,7.57c2.82,1.25,5.38.56,6.82-2.16a17.15,17.15,0,0,0,1.15-13.5c-1.38-4.37-5.89-5.16-9.06-1.83-1,1.09-2.07,2.67-3.71,1.5s-.54-2.85.08-4.24a12.12,12.12,0,0,1,1.43-2.24c2.52-3.44,5.3-4.7,8.31-3.77,4.33,1.32,7,4.55,7.26,8.62a7.15,7.15,0,0,0,.21,2,7.79,7.79,0,0,0,1.15,1.65,8.78,8.78,0,0,0,.95-2,7.77,7.77,0,0,0-.1-2c-.34-6-.72-12-1-18a22.11,22.11,0,0,1,.42-4.87c.13-.68.81-1.65,1.36-1.74a2.24,2.24,0,0,1,1.82,1.21,60.18,60.18,0,0,1,2.42,9.64c.6,4.73.67,9.52,1,14.28a1.76,1.76,0,0,0,.09.81c.41.64.89,1.25,1.34,1.86.29-.67.85-1.35.82-2-.28-5.93-.71-11.85-1-17.77a39.61,39.61,0,0,1,.27-6.53c.09-.79.92-1.5,1.41-2.24.72.61,1.88,1.11,2.1,1.87a43.55,43.55,0,0,1,1.64,8c.51,5.77.71,11.57,1.13,17.35.06.73.73,1.41,1.12,2.11.34-.76,1-1.53,1-2.27-.28-6.47-.72-12.94-1-19.41a23.44,23.44,0,0,1,.4-5.08c.12-.68.84-1.26,1.28-1.88.6.48,1.51.85,1.75,1.47a23.8,23.8,0,0,1,1.82,6.24c.78,9.77,1.64,19.56,1.9,29.36.49,18.29.05,36.57-3,54.66-.91,5.3-2.45,10.48-3.7,15.72a2,2,0,0,1-2.22,1.86c-11.73-.11-23.46-.14-35.2-.21A10,10,0,0,1,463.34,326.51Zm17.46-64.32-.62-.54c-.16.46-.51,1-.43,1.36a2.41,2.41,0,0,0,.84,1.44,18,18,0,0,1,7,8.36c.22.6,1.16.94,1.77,1.41a5.69,5.69,0,0,0,.19-2.17,18,18,0,0,0-7.62-9.31A11,11,0,0,0,480.8,262.19Z"/><path d="M304.53,351.14c-3.35,0-6.69.05-10-.05-.66,0-1.31-.63-2-1,.66-.4,1.33-1.13,2-1.14q10.14-.14,20.27,0c.65,0,1.3.65,1.95,1-.67.4-1.32,1.11-2,1.13C311.35,351.2,307.94,351.14,304.53,351.14Z"/><path d="M304.57,355.69c-3.34,0-6.68.06-10-.06-.67,0-1.33-.71-2-1.09.66-.34,1.3-1,2-1q10.11-.1,20.23,0c.68,0,1.34.72,2,1.11-.65.33-1.3.93-2,.95C311.38,355.74,308,355.68,304.57,355.69Z"/><path d="M347.06,411H304.31c-3.11,0-3.12,0-3.12-3.05a32.41,32.41,0,0,0,0-3.27c-.21-2,.72-2.56,2.61-2.6q42.35-1,84.66-2.13c3-.08,3-.06,3.37,2.93.26,2.09.56,4.18.81,6.28.31,2.51.1,2.72-2.4,2.71H347.06Z"/><path d="M541.86,411.53c-8.11,0-13.85-4.16-15.93-10.45a15,15,0,0,1,6.33-17.44,18,18,0,0,1,4.13-1.71c1.37-.4,2.12-1,2.12-2.54,0-1.13.34-2.46,1.76-2.18a2.8,2.8,0,0,1,1.49,2.16c0,1.83,1.14,2.3,2.53,2.65,10.22,2.56,14.11,15,8.36,24C549.91,410.39,545.43,411.29,541.86,411.53Zm0-19.16h-.06c0,2,0,4.08,0,6.13,0,1.08-.34,2.31-1.63,2-.67-.14-1.26-1.3-1.62-2.12a5.4,5.4,0,0,1-.08-2c0-3.27,0-6.54,0-9.81,0-1.57-.59-2.19-2.11-1.58a11.93,11.93,0,0,0-7.53,8.06,11.7,11.7,0,0,0,4.8,13.11c4.34,3,9.05,2.67,13.61.58a7,7,0,0,0,3.17-3.31c1.84-4.2,2.27-8.57,0-12.82A12,12,0,0,0,544,385c-1.34-.52-2.1-.16-2.07,1.41C541.91,388.42,541.89,390.39,541.89,392.37Z"/><path d="M419.38,411.84c-3.07,0-6.14,0-9.2,0-1.41,0-2.15-.43-2.31-1.9-.29-2.71-.67-5.41-1-8.11-.18-1.38.33-2,1.78-2q9.19,0,18.39,0a1.86,1.86,0,0,1,2.1,1.72c.56,2.73,1.17,5.46,1.81,8.18.35,1.5-.15,2.17-1.73,2.14C425.92,411.81,422.65,411.84,419.38,411.84Z"/><path d="M515.54,190.37c-2.24-1.73-3.8-2.82-5.2-4.09-.48-.43-.55-1.31-.8-2a5.82,5.82,0,0,1,2.1.36,32.81,32.81,0,0,1,3.75,2.82,1.55,1.55,0,0,0,2.46-.17,30.69,30.69,0,0,1,3.19-3.16,8.46,8.46,0,0,1,2.36-.91c-.26.79-.3,1.79-.82,2.32-1.33,1.35-2.86,2.5-4.47,3.86C519.75,191,521,192,522,193.14c.37.44.31,1.25.45,1.9a5.52,5.52,0,0,1-2-.4c-1.33-.85-2.57-2.65-3.82-2.63s-2.27,1.92-3.41,3a6.8,6.8,0,0,1-1.33,1.25,4.62,4.62,0,0,1-1.6.15c0-.54-.16-1.31.12-1.58C511.93,193.38,513.58,192.05,515.54,190.37Z"/><path d="M480.59,456.94h-30.9c-2.79,0-2.92-.15-2.61-2.91.27-2.44.5-4.88.66-7.33.09-1.51.76-2.14,2.3-2.2q30.58-1,61.15-2.19c1.5-.06,2.09.58,2.23,2,.29,2.85.65,5.69,1,8.54.3,2.63.22,2.75-2.51,2.81l-29.46.66h-1.84Zm31.7-3.47c-.31-2.46-.67-4.59-.8-6.74-.11-1.76-.82-2.26-2.58-2.18-7.9.38-15.81.63-23.71.91-11.05.4-22.09.77-33.13,1.22-.73,0-2,.52-2.07,1-.41,2.24-.51,4.54-.75,7.14Z"/><path d="M578.26,457c-6.54,0-13.09,0-19.64,0-1.82,0-2.59-.57-2.61-2.44,0-2.93-.21-5.86-.43-8.78-.13-1.71.5-2.36,2.21-2.26,3.34.18,6.68.22,10,.41,1.32.07,1.88-.38,1.83-1.73-.08-1.77,0-3.54-.06-5.31,0-1.37.53-2,1.93-2q6.86,0,13.71,0a1.8,1.8,0,0,1,2,1.78c.35,2.08.87,4.14,1.18,6.23.19,1.3.79,1.7,2.05,1.58,2.79-.24,5.59-.34,8.37-.58,1.61-.13,2.26.42,2.1,2.09q-.45,4.47-.69,9c-.08,1.6-.84,2.06-2.35,2.05-6.55-.05-13.1,0-19.65,0Zm-.11-2.12c4.43,0,8.86,0,13.28,0,2.1,0,5.09.64,6.07-.45,1.23-1.36.76-4.21,1.09-6.41.24-1.54-.46-1.9-1.84-1.78-2.45.22-4.91.26-7.34.54-1.79.2-2.65-.38-2.89-2.2s-.81-3.87-1.12-5.82c-.18-1.14-.64-1.66-1.85-1.64-3.41.05-6.81,0-10.22,0-1.12,0-1.62.41-1.58,1.56,0,1.77,0,3.54,0,5.31s-.56,2.34-2.26,2.24c-3.26-.2-6.54-.23-9.8-.43-1.56-.09-2.08.47-1.91,2a40,40,0,0,1,.24,4.9c0,1.64.59,2.25,2.29,2.23C566.29,454.78,572.22,454.83,578.15,454.83Z"/><path d="M423.06,457c-2.53,0-5.05,0-7.58,0-1.38,0-2-.58-2-2,.05-1.9.05-3.82,0-5.73,0-1.23.44-1.88,1.75-2,5.1-.4,10.2-.84,15.3-1.28,1.19-.1,1.8.4,1.81,1.63,0,2.52,0,5,.12,7.57,0,1.37-.67,1.78-1.9,1.76C428.11,456.93,425.58,457,423.06,457Zm7.24-8.68c-4.16.32-7.82.58-11.47.88-3.14.25-3.14.26-3.09,3.5,0,.21,0,.41,0,.61-.07,1.14.47,1.58,1.59,1.57q5.71,0,11.44,0c1,0,1.56-.27,1.54-1.38C430.28,451.85,430.3,450.23,430.3,448.27Z"/><path d="M401,457c-2,0-3.95,0-5.93,0-1.43,0-2.15-.44-2.12-2,.15-7.67-1.1-6.21,6.12-6.35,2.73-.06,5.46,0,8.19,0,1.29,0,1.88.52,1.88,1.82,0,8,1.07,6.33-5.88,6.53C402.52,457,401.77,457,401,457Zm0-2.14c1.43,0,2.86-.05,4.29,0s1.83-.52,1.75-1.82.09-2.35-1.73-2.29c-2.72.09-5.45.07-8.18,0-1.43,0-2.11.34-2.07,1.94s.34,2.33,2.05,2.18C398.4,454.73,399.7,454.82,401,454.82Z"/><path d="M367.57,450.74a50.59,50.59,0,0,1-5.51-.07c-.6-.07-1.11-1-1.65-1.52-.07-.07,0-.26,0-.4,0-5.62-.61-4.85,4.66-4.9,2.52,0,5,0,7.56,0,1.53-.05,2.22.49,2.21,2.11,0,5.54.32,4.75-4.61,4.81h-2.65Zm.05-4.73h0a23.58,23.58,0,0,0-3.67.07c-.52.08-.92.82-1.38,1.26.41.42.8,1.18,1.23,1.2,2.52.11,5,.12,7.56,0,.45,0,.85-.89,1.27-1.37-.45-.38-.85-1-1.34-1.1A28,28,0,0,0,367.62,446Z"/><path d="M395.42,233.83c-.39,3.25-4.33,6.23-7.28,5.43-.37-.11-1-.74-.91-.87a2.35,2.35,0,0,1,1.07-1.22c.93-.39,2.07-.35,2.9-.86a3.2,3.2,0,0,0,1.54-2.13,3,3,0,0,0-1.53-2.08,11.69,11.69,0,0,0-3.71-1c-1.22-.17-1.84-.67-1.9-1.92-.15-2.86-.39-5.71-.45-8.57,0-.54.66-1.09,1-1.63.36.49,1,1,1,1.48a61,61,0,0,1,.42,6.33c0,1.44.49,2.18,2,2.45a8.06,8.06,0,0,1,3.52,1.48A14.51,14.51,0,0,1,395.42,233.83Z"/><path d="M393.19,218.31c-.08-1.39.11-2.69,1.82-2.84s2.24,1.12,2.31,2.62c0,.47.24,1.07,0,1.39a22.18,22.18,0,0,1-1.89,2.24,20.29,20.29,0,0,1-2.12-2C393.09,219.4,393.23,218.79,393.19,218.31Z"/><path d="M367,219.87c-.14-1.46.25-2.71,2.08-2.65,2.26.07,2.05,1.9,2.19,3.42s-.43,2.53-2,2.66S367,222.42,367,219.87Z"/><path d="M374.9,252.07c-2.63.08-5.43-2-5.65-4,0-.44.31-.93.49-1.39.43.22,1.15.35,1.26.68.61,1.81,2,2.45,3.68,2.82.46.1.8.68,1.2,1Z"/><path d="M367.07,208.66c.42.32,1,.57,1.05.84a1.56,1.56,0,0,1-.64,1.24,34.37,34.37,0,0,1-4.4,1.57c-.37.1-.89-.35-1.34-.54.17-.4.24-1,.53-1.16C363.8,209.91,365.39,209.33,367.07,208.66Z"/><path d="M393.16,204.25c1.41.83,2.82,1.61,4.14,2.51.21.14.19.89,0,1.23a1.11,1.11,0,0,1-1,.24q-2-1-3.89-2.15a1.13,1.13,0,0,1-.26-1C392.25,204.74,392.71,204.57,393.16,204.25Z"/><path d="M480.8,262.19a11,11,0,0,1,1.08.55,18,18,0,0,1,7.62,9.31,5.69,5.69,0,0,1-.19,2.17c-.61-.47-1.55-.81-1.77-1.41a18,18,0,0,0-7-8.36,2.41,2.41,0,0,1-.84-1.44c-.08-.41.27-.9.43-1.36Z"/><path class="cls-3" d="M541.89,392.37c0-2,0-3.95,0-5.93,0-1.57.73-1.93,2.07-1.41a12,12,0,0,1,6.52,5.6c2.24,4.25,1.81,8.62,0,12.82a7,7,0,0,1-3.17,3.31c-4.56,2.09-9.27,2.45-13.61-.58a11.7,11.7,0,0,1-4.8-13.11,11.93,11.93,0,0,1,7.53-8.06c1.52-.61,2.13,0,2.11,1.58,0,3.27,0,6.54,0,9.81a5.4,5.4,0,0,0,.08,2c.36.82.95,2,1.62,2.12,1.29.27,1.61-1,1.63-2,0-2.05,0-4.09,0-6.13Z"/><path class="cls-3" d="M512.29,453.47l-63,1.33c.24-2.6.34-4.9.75-7.14.09-.46,1.34-1,2.07-1,11-.45,22.08-.82,33.13-1.22,7.9-.28,15.81-.53,23.71-.91,1.76-.08,2.47.42,2.58,2.18C511.62,448.88,512,451,512.29,453.47Z"/><path class="cls-3" d="M578.15,454.83c-5.93,0-11.86-.05-17.79,0-1.7,0-2.31-.59-2.29-2.23a40,40,0,0,0-.24-4.9c-.17-1.53.35-2.09,1.91-2,3.26.2,6.54.23,9.8.43,1.7.1,2.36-.56,2.26-2.24s0-3.54,0-5.31c0-1.15.46-1.57,1.58-1.56,3.41,0,6.81.05,10.22,0,1.21,0,1.67.5,1.85,1.64.31,1.95.86,3.86,1.12,5.82s1.1,2.4,2.89,2.2c2.43-.28,4.89-.32,7.34-.54,1.38-.12,2.08.24,1.84,1.78-.33,2.2.14,5.05-1.09,6.41-1,1.09-4,.43-6.07.45C587,454.86,582.58,454.83,578.15,454.83Z"/><path class="cls-3" d="M430.3,448.27c0,2,0,3.58,0,5.19,0,1.11-.57,1.38-1.54,1.38q-5.73,0-11.44,0c-1.12,0-1.66-.43-1.59-1.57,0-.2,0-.4,0-.61-.05-3.24-.05-3.25,3.09-3.5C422.48,448.85,426.14,448.59,430.3,448.27Z"/><path class="cls-3" d="M401,454.82c-1.3,0-2.6-.09-3.89,0-1.71.15-2-.68-2.05-2.18s.64-2,2.07-1.94c2.73.07,5.46.09,8.18,0,1.82-.06,1.67,1.1,1.73,2.29s-.39,1.89-1.75,1.82S402.43,454.82,401,454.82Z"/><path class="cls-3" d="M367.62,446a28,28,0,0,1,3.67.05c.49.07.89.72,1.34,1.1-.42.48-.82,1.35-1.27,1.37-2.52.14-5,.13-7.56,0-.43,0-.82-.78-1.23-1.2.46-.44.86-1.18,1.38-1.26a23.58,23.58,0,0,1,3.67-.07Z"/><path d="M518,348.17h0v-1c0,.1,0,.2,0,.31S518,347.93,518,348.17Z"/><rect class="cls-4" x="460.79" y="203.85" width="15.44" height="2.37" rx="1.19" transform="translate(759.88 -215.24) rotate(101.1)"/><rect class="cls-4" x="448.67" y="219.21" width="11.97" height="2.14" rx="1.07" transform="translate(324.38 -267.84) rotate(49.21)"/><rect class="cls-1" x="217.54" y="287.95" width="11.97" height="2.14" rx="1.07" transform="translate(388.18 -37.15) rotate(64.5)"/><rect class="cls-1" x="191.15" y="344.05" width="29.06" height="2.55" rx="1.07" transform="translate(-128.62 122.17) rotate(-25.5)"/><rect class="cls-1" x="560.93" y="163.52" width="10.92" height="1.69" rx="0.85" transform="translate(356.24 -386.68) rotate(52.94)"/><rect class="cls-1" x="595.93" y="196.27" width="10.92" height="1.69" rx="0.85" transform="translate(1121.09 -164.03) rotate(127.06)"/></g></svg>