<svg xmlns="http://www.w3.org/2000/svg" viewBox="0 0 841.89 595.28"><defs><style>.cls-1{fill:#00e6bb;}.cls-2{fill:none;stroke:#2630ea;stroke-miterlimit:10;stroke-width:3px;}.cls-3{fill:#fff;}.cls-4{fill:#231f20;}.cls-5{fill:#fb3640;}.cls-6{fill:#f0e100;}</style></defs><g id="Layer_7" data-name="Layer 7"><path class="cls-1" d="M285.2,377.34V158.41c0-32.06,31-54.39,60.28-43.47L527,182.52c17.8,6.63,29.66,24,29.66,43.47V436.87c0,31.31-29.62,53.56-58.63,44.05L316.5,421.39C297.86,415.28,285.2,397.46,285.2,377.34Z"/><path class="cls-2" d="M330.8,359.75V120.65c0-35,33.82-59.4,65.84-47.48L594.92,147c19.44,7.23,32.4,26.22,32.4,47.48v230.3c0,34.2-32.36,58.5-64,48.11L365,407.86C344.63,401.18,330.8,381.73,330.8,359.75Z"/><circle class="cls-3" cx="554.43" cy="255.52" r="29.78"/><path d="M348.19,285.8c-6.61-2-9.28-7.42-11.5-12.79-4.05-9.77-7.93-19.64-11.14-29.7-3-9.39-.17-17.82,7.05-24.34,10.71-9.67,23.6-14.83,37.87-16,10.88-.85,18.88,4.59,23,14.76q4.41,10.83,8.2,21.89c.85,2.45,1.92,3.25,4.51,3.13,3.93-.17,6.24,2.76,4.82,5.8a7.06,7.06,0,0,1-2.65,3c-1.51.9-1.53,1.79-1.1,3.3a149.71,149.71,0,0,1,3.93,15.36c2.14,12.6-2.21,20-14.08,24.79a13.16,13.16,0,0,1-3.23,1.11c-3.17.35-4.47,2.21-5.3,5.13-1.27,4.44-1.48,4.37,2.53,6.73,12.08,7.13,19.45,17.84,23.64,31,3.54,11.12,5.09,22.6,5.83,34.18.55,8.63.69,17.29.88,25.93,0,1.64.45,2.49,2.1,2.82a27.16,27.16,0,0,1,3.65,1.3l41.08-74.33a9.82,9.82,0,0,0-.93-1c-23.82-18.33-38-42.39-41.31-72.23-3.21-29.17,3.12-56.22,21.54-79.7a92.73,92.73,0,0,1,43.81-30.78c22.17-7.6,44.75-9,67.36-2.45,30.06,8.67,52.44,27.15,66,55.36,15.49,32.3,14.48,65-1.48,96.74-13.67,27.22-36.43,43.77-65.94,50.85-20.77,5-41.43,4.33-61.72-2.79-1.22-.43-1.76-.1-2.38.92q-17.38,28.73-34.82,57.41c-3.12,5.14-6.2,10.29-9.37,15.39a2.91,2.91,0,0,0-.08,3.4,23.85,23.85,0,0,1,2.48,7.43c.59,4.37-1.35,7.8-5.14,10.07a3,3,0,0,0-1.69,2.65c-.21,3.14-2.08,5.37-4.41,7.32a4.16,4.16,0,0,0-1.4,2,11.37,11.37,0,0,1-6.33,7.67,7.7,7.7,0,0,0-1.76,1.14,15.62,15.62,0,0,1-7.75,3.89,4.22,4.22,0,0,0-2.46,1.64c-6.32,10.22-12.55,20.49-18.8,30.75-1.45,2.39-1.55,2.47-4,1-4.71-2.86-9.36-5.8-14.1-8.6-1.55-.92-1.65-1.76-.81-3.27,4.91-8.73,9.74-17.5,14.59-26.26.44-.8.86-1.62,1.32-2.48-7-5.47-14.43-9.07-23.5-8.58q-17.68,1-35.38,1.53a325,325,0,0,1-44.78-1.27c-15.7-1.67-31.18-4.33-45.76-10.73-10.86-4.77-20.37-11.29-26.94-21.48-5.35-8.31-7.51-17.53-7.74-27.29-.54-22.16,8.47-40,24.64-54.67A135.3,135.3,0,0,1,278,308.16c12-5.05,24.89-7.62,37.86-9.14,9.15-1.08,18.36-1.75,27.55-2.52,1.44-.11,2.19-.51,2.52-2C346.56,291.68,347.38,288.86,348.19,285.8Zm-5.41,13.06c-.93,0-1.64-.05-2.33,0-5.57.43-11.14.79-16.69,1.34-22.38,2.21-43.78,7.5-63.08,19.73-11.25,7.13-21.85,14.91-30,25.61-.44.57-.81,1.2-1.39,2.07a48.06,48.06,0,0,1,24.87,6.19c7.64,4.17,14.09,9.64,18.6,17.34.94-1,1.66-1.74,2.44-2.47A26.59,26.59,0,0,1,295.86,361c2,.12,2.6,1,2.35,2.86a36.38,36.38,0,0,1-9.86,21,8.63,8.63,0,0,0-1.84,3.63,23.49,23.49,0,0,0-.48,4.31,11.28,11.28,0,0,0,1.66.47c4.75.61,9.49,1.49,14.26,1.71,18.57.85,37.15,1.5,55.73,2.2q21.87.82,43.75,1.57c.48,0,1-.05,1.57-.08.45-6.16.89-12.21,1.33-18.26.25-3.57.43-7.14.8-10.7.07-.72.81-1.38,1.25-2.07a11.38,11.38,0,0,1,.87,2.31,12.33,12.33,0,0,1-.14,2.56c-.37,5.21-.7,10.42-1.14,15.62-.12,1.38.29,2.06,1.69,2,2.84-.14,5.69-.2,8.52-.49,2.11-.22,3.38-1.29,2.87-3.74a21.55,21.55,0,0,1-.14-3.42c-.59-13.75-1.83-27.41-5.66-40.7-4.05-14-11.62-25.41-24.66-32.66-.65-.36-1.32-.67-2-1-1.53,2.93-1.61,3.38-1.45,7.63.24,6.52-2.78,9.93-9.26,10.39a20.23,20.23,0,0,1-3.21,0c-10.8-.91-18.82-6.65-25.39-14.78C344.46,307.78,342.5,303.85,342.78,298.86ZM446.71,420.48c-1.27,2.08-2.36,3.67-3.25,5.37-2.48,4.72-5,5.59-9.66,2.95a36.74,36.74,0,0,1-13.72-14.13,8.12,8.12,0,0,1-.5-2.36h2.64l3.75-6.92a9.31,9.31,0,0,0-1.13-.69,17.15,17.15,0,0,0-1.82-.65c-8.37-2.54-17-2.93-25.68-3.28-17.86-.73-35.73-1.14-53.6-1.59-18.3-.46-36.61-.76-54.8-3.15-5.07-.66-9.94-2-14.2-5-5.2-3.7-6.94-9.45-4.45-15.31a3.88,3.88,0,0,0-.18-3.81c-3.4-6.05-8.49-10.37-14.23-14a46.68,46.68,0,0,0-25.31-7.69,5.22,5.22,0,0,0-5.09,3,65,65,0,0,0-8.1,37.82c1.32,15.52,8.54,27.61,21.52,36.28,10.23,6.83,21.66,10.6,33.52,13.22,21,4.64,42.41,5.24,63.8,5.13,13-.06,26-1,39-1.5a32,32,0,0,1,19.16,5.14c2.82,1.83,5.63,3.68,8.54,5.36,4.93,2.83,10.08,5.14,15.88,5.44a13.5,13.5,0,0,0,8.51-2.07c-1.1-.3-1.77-.44-2.4-.68-4.73-1.82-9.46-3.64-14.15-5.55-.5-.2-.76-1-1.13-1.54.67-.14,1.44-.54,2-.35,1.55.53,3,1.42,4.52,2a82,82,0,0,0,11,3.58,7.47,7.47,0,0,0,9.09-6.13c-7.16.19-13.22-3.2-19.46-6-.57-.26-.87-1.1-1.29-1.68.74-.09,1.58-.45,2.22-.23,1.55.52,3,1.38,4.5,2,4,1.62,8,3.67,12.48,3.62a8,8,0,0,0,7.61-7.69c-6.52,1.41-12.48-.22-18.06-3.49a7.91,7.91,0,0,1-2.34-2.4c1.3-1.63,2.36,0,3.4.57,4.63,2.44,9.38,4.37,14.75,3.5,3.75-.6,7.13-2.18,8.65-5.89S449,424.28,446.71,420.48ZM427,242.77c.58,5.83.83,11.71,1.8,17.46,4.39,26.14,16.81,47.81,37.68,64.13,28.06,21.95,59.78,27.24,93.86,18.21,26.52-7,47.13-22.55,59.9-46.9,16.88-32.18,18.06-65.35,1.69-98.08-14.71-29.4-38.86-47.57-71-54.45-21-4.49-41.75-2.46-61.81,5.24a91.75,91.75,0,0,0-46,37.65C432.29,203.35,427.71,222.45,427,242.77Zm-41.48-33.08c-1.92-1.13-3.1-1.91-4.36-2.55a20.42,20.42,0,0,0-11.92-1.89c-12.92,1.61-24.68,6.22-34.54,14.84-7.68,6.7-9.83,15.16-6.49,24.87,1.81,5.28,3.51,10.6,5.62,15.76,2.32,5.68,4.94,11.24,7.65,16.75a10.74,10.74,0,0,0,5.89,5.69c3.91,1.43,7.48,0,8.35-3.48,1-4.13-.09-8-1.49-11.81a53.11,53.11,0,0,1-5.73.57,8.12,8.12,0,0,1-8-5.41,7.61,7.61,0,0,1,3.06-9.08,52.48,52.48,0,0,1,9.55-4.67c.75-.29,2.4.48,3,1.25a25.57,25.57,0,0,1,2.85,5.25c3.83,8.78,7.35,17.7,11.47,26.35,2,4.2,5,8,7.68,11.8a5.66,5.66,0,0,0,6.35,2.15c5.2-1.47,10.52-2.8,15.42-5,6.79-3,10-8.71,9.57-16.25-.34-6.65-2.26-12.94-4.29-19.2-1.06-3.27-2.07-4-5.48-3.27a53,53,0,0,0-8.79,2.66c-4.7,1.91-9.22,4.26-13.92,6.16-3.26,1.32-5,.62-6.85-2.42a30.37,30.37,0,0,1-2.84-6.22c-2.63-8.24-5.13-16.52-7.6-24.81a6.83,6.83,0,0,1,3.24-8.3,38,38,0,0,1,6.46-2.83c3.7-1.32,7.51-2.33,11.18-3.72C382.19,212.27,383.54,211,385.56,209.69Zm93.5,153.1-21.14-10.42c-.7,1.23-1.24,2.15-1.76,3.08q-6.69,12.1-13.36,24.22-9.45,17.07-18.85,34.17c-.36.65-.65,1.81-.33,2.28,3.16,4.58,6.91,8.6,12,11.1,2.86,1.41,3.73,1,5.37-1.67q15.24-25.11,30.51-50.21C474,371.26,476.42,367.17,479.06,362.79Zm-96.87-42.3c-2.48-.35-1.79-1.79-1.31-3.19,1-2.91,1.93-5.84,3-8.73.38-1.06.08-1.56-.72-2.32-1.63-1.55-3.61-3.15-4.34-5.14a34.31,34.31,0,0,0-6-10.22,5.35,5.35,0,0,1-.69-1.08c-3.33-6.88-6.74-13.72-9.93-20.66-2.44-5.32-4.56-10.79-6.95-16.14-.31-.69-1.65-1.64-2.06-1.46a57.38,57.38,0,0,0-8.49,4.41,5.18,5.18,0,0,0-2.08,6.26,6.09,6.09,0,0,0,6,4c1.75-.05,3.48-.69,5.24-.87.69-.07,1.91.21,2.08.65,1.77,4.49,3.15,9.1,2.05,14a6.62,6.62,0,0,1-5.78,5.57,2.38,2.38,0,0,0-2.23,2.12c-1.23,4.77-2.64,9.5-3.75,14.31a6.4,6.4,0,0,0,.41,4c2.76,5.51,7.14,9.6,12.23,12.94a27.46,27.46,0,0,0,16.79,4.93C378.21,323.81,380.58,323.17,382.19,320.49Zm4.52-109.22c-3.06,3.25-6.88,4.43-10.7,5.69a104.79,104.79,0,0,0-11.62,4.27c-2.78,1.3-3.29,3.36-2.41,6.34.83,2.81,1.73,5.6,2.6,8.39,1.92,6.14,3.66,12.34,5.83,18.39,2.09,5.84,3.26,6.14,8.87,3.58,4.75-2.16,9.48-4.36,14.3-6.33,3.27-1.33,6.74-2.17,10.27-1.23,2.25.6,3.58-.53,4.76-2a1.86,1.86,0,0,0-1.17-3.23,10.23,10.23,0,0,0-3.82,0c-1.6.31-2.29-.17-2.84-1.69-2.82-7.79-5.74-15.55-8.68-23.3A23.42,23.42,0,0,0,386.71,211.27ZM470,330.42l-11,20,21.33,10.52,11.43-18.85Zm-80.8,146.44c4.6,2.66,9,5.07,13.21,7.69,1.66,1,2.41.67,3.33-.89,3.9-6.57,7.91-13.08,11.87-19.62a5.49,5.49,0,0,0,.44-1l-17.56-6.49ZM286.62,364.61c-6.29,2.25-10.93,5.69-13.75,11.38-3.64,7.31,1.3,14.37,10.68,16C284.55,383,285.56,374,286.62,364.61ZM388.11,478.83c-1.06,1.86-2.05,3.5-2.9,5.2a1.49,1.49,0,0,0,.36,1.39c4.5,2.85,9.05,5.63,13.83,8.57l3.88-6.41Zm31-87.51c-2.46.43-4.55.94-6.66,1.12s-4.37,0-6.76,0c-.13,1.67-.34,3.44-.37,5.21,0,.45.52,1.27.88,1.32,4.28.59,8.58,1.07,12.91,1.58Z"/><path class="cls-3" d="M342.78,298.86c-.28,5,1.68,8.92,4.52,12.44,6.57,8.13,14.59,13.87,25.39,14.78a20.23,20.23,0,0,0,3.21,0c6.48-.46,9.5-3.87,9.26-10.39-.16-4.25-.08-4.7,1.45-7.63.66.34,1.33.65,2,1,13,7.25,20.61,18.62,24.66,32.66,3.83,13.29,5.07,26.95,5.66,40.7a21.55,21.55,0,0,0,.14,3.42c.51,2.45-.76,3.52-2.87,3.74-2.83.29-5.68.35-8.52.49-1.4.07-1.81-.61-1.69-2,.44-5.2.77-10.41,1.14-15.62a12.33,12.33,0,0,0,.14-2.56,11.38,11.38,0,0,0-.87-2.31c-.44.69-1.18,1.35-1.25,2.07-.37,3.56-.55,7.13-.8,10.7-.44,6.05-.88,12.1-1.33,18.26-.61,0-1.09.1-1.57.08q-21.87-.78-43.75-1.57c-18.58-.7-37.16-1.35-55.73-2.2-4.77-.22-9.51-1.1-14.26-1.71a11.28,11.28,0,0,1-1.66-.47,23.49,23.49,0,0,1,.48-4.31,8.63,8.63,0,0,1,1.84-3.63,36.38,36.38,0,0,0,9.86-21c.25-1.89-.33-2.74-2.35-2.86a26.59,26.59,0,0,0-20.68,7.67c-.78.73-1.5,1.51-2.44,2.47-4.51-7.7-11-13.17-18.6-17.34a48.06,48.06,0,0,0-24.87-6.19c.58-.87.95-1.5,1.39-2.07,8.17-10.7,18.77-18.48,30-25.61,19.3-12.23,40.7-17.52,63.08-19.73,5.55-.55,11.12-.91,16.69-1.34C341.14,298.81,341.85,298.86,342.78,298.86Z"/><path class="cls-3" d="M446.71,420.48c2.31,3.8,3.52,7.37,2,11.17s-4.9,5.29-8.65,5.89c-5.37.87-10.12-1.06-14.75-3.5-1-.55-2.1-2.2-3.4-.57a7.91,7.91,0,0,0,2.34,2.4c5.58,3.27,11.54,4.9,18.06,3.49a8,8,0,0,1-7.61,7.69c-4.52.05-8.44-2-12.48-3.62-1.52-.61-2.95-1.47-4.5-2-.64-.22-1.48.14-2.22.23.42.58.72,1.42,1.29,1.68,6.24,2.78,12.3,6.17,19.46,6a7.47,7.47,0,0,1-9.09,6.13,82,82,0,0,1-11-3.58c-1.55-.55-3-1.44-4.52-2-.57-.19-1.34.21-2,.35.37.53.63,1.34,1.13,1.54,4.69,1.91,9.42,3.73,14.15,5.55.63.24,1.3.38,2.4.68a13.5,13.5,0,0,1-8.51,2.07c-5.8-.3-10.95-2.61-15.88-5.44-2.91-1.68-5.72-3.53-8.54-5.36a32,32,0,0,0-19.16-5.14c-13,.55-26,1.44-39,1.5-21.39.11-42.78-.49-63.8-5.13-11.86-2.62-23.29-6.39-33.52-13.22-13-8.67-20.2-20.76-21.52-36.28a65,65,0,0,1,8.1-37.82,5.22,5.22,0,0,1,5.09-3,46.68,46.68,0,0,1,25.31,7.69c5.74,3.62,10.83,7.94,14.23,14a3.88,3.88,0,0,1,.18,3.81c-2.49,5.86-.75,11.61,4.45,15.31,4.26,3,9.13,4.39,14.2,5,18.19,2.39,36.5,2.69,54.8,3.15,17.87.45,35.74.86,53.6,1.59,8.63.35,17.31.74,25.68,3.28a17.15,17.15,0,0,1,1.82.65,9.31,9.31,0,0,1,1.13.69l-3.75,6.92h-2.64a8.12,8.12,0,0,0,.5,2.36A36.74,36.74,0,0,0,433.8,428.8c4.66,2.64,7.18,1.77,9.66-2.95C444.35,424.15,445.44,422.56,446.71,420.48Z"/><path class="cls-3" d="M427,242.77c.67-20.32,5.25-39.42,16.14-56.74a91.75,91.75,0,0,1,46-37.65c20.06-7.7,40.81-9.73,61.81-5.24,32.14,6.88,56.29,25.05,71,54.45,16.37,32.73,15.19,65.9-1.69,98.08-12.77,24.35-33.38,39.88-59.9,46.9-34.08,9-65.8,3.74-93.86-18.21-20.87-16.32-33.29-38-37.68-64.13C427.87,254.48,427.62,248.6,427,242.77Zm25.33-59.9c-2.59,3.51-5.18,6.81-7.52,10.28s-2.25,3.58.64,6.52c.87.89,1.34,1.65.74,3A95,95,0,0,0,438,236.2c-1.93,30.57,8.14,56.51,31.05,76.85,23.23,20.6,50.67,27.12,81,21.43,21.64-4.07,40.15-14.18,53.53-31.89,20.38-27,24.57-57.2,14.17-89-12.21-37.34-47.86-62.39-87.32-62.34-29.47,0-54.61,9.85-73.46,33.38a11.41,11.41,0,0,1-1.23,1.15Z"/><path class="cls-4" d="M385.56,209.69c-2,1.33-3.37,2.58-4.95,3.19-3.67,1.39-7.48,2.4-11.18,3.72a38,38,0,0,0-6.46,2.83,6.83,6.83,0,0,0-3.24,8.3c2.47,8.29,5,16.57,7.6,24.81a30.37,30.37,0,0,0,2.84,6.22c1.8,3,3.59,3.74,6.85,2.42,4.7-1.9,9.22-4.25,13.92-6.16a53,53,0,0,1,8.79-2.66c3.41-.73,4.42,0,5.48,3.27,2,6.26,4,12.55,4.29,19.2.39,7.54-2.78,13.22-9.57,16.25-4.9,2.2-10.22,3.53-15.42,5a5.66,5.66,0,0,1-6.35-2.15c-2.72-3.83-5.68-7.6-7.68-11.8-4.12-8.65-7.64-17.57-11.47-26.35a25.57,25.57,0,0,0-2.85-5.25c-.58-.77-2.23-1.54-3-1.25a52.48,52.48,0,0,0-9.55,4.67,7.61,7.61,0,0,0-3.06,9.08,8.12,8.12,0,0,0,8,5.41,53.11,53.11,0,0,0,5.73-.57c1.4,3.78,2.5,7.68,1.49,11.81-.87,3.51-4.44,4.91-8.35,3.48a10.74,10.74,0,0,1-5.89-5.69c-2.71-5.51-5.33-11.07-7.65-16.75-2.11-5.16-3.81-10.48-5.62-15.76-3.34-9.71-1.19-18.17,6.49-24.87,9.86-8.62,21.62-13.23,34.54-14.84a20.42,20.42,0,0,1,11.92,1.89C382.46,207.78,383.64,208.56,385.56,209.69ZM396,259.28c-.54.7-1.12,1.4-1.09,1.42a20,20,0,0,0,2.69,2.09c.15.08.76-.59,1.15-.91Z"/><path class="cls-3" d="M479.06,362.79c-2.64,4.38-5.1,8.47-7.58,12.55Q456.23,400.45,441,425.55c-1.64,2.69-2.51,3.08-5.37,1.67-5.07-2.5-8.82-6.52-12-11.1-.32-.47,0-1.63.33-2.28q9.38-17.11,18.85-34.17,6.68-12.1,13.36-24.22c.52-.93,1.06-1.85,1.76-3.08Z"/><path class="cls-3" d="M382.19,320.49c-1.61,2.68-4,3.32-6.55,3.44A27.46,27.46,0,0,1,358.85,319c-5.09-3.34-9.47-7.43-12.23-12.94a6.4,6.4,0,0,1-.41-4c1.11-4.81,2.52-9.54,3.75-14.31a2.38,2.38,0,0,1,2.23-2.12A6.62,6.62,0,0,0,358,280c1.1-4.89-.28-9.5-2.05-14-.17-.44-1.39-.72-2.08-.65-1.76.18-3.49.82-5.24.87a6.09,6.09,0,0,1-6-4,5.18,5.18,0,0,1,2.08-6.26,57.38,57.38,0,0,1,8.49-4.41c.41-.18,1.75.77,2.06,1.46,2.39,5.35,4.51,10.82,6.95,16.14,3.19,6.94,6.6,13.78,9.93,20.66a5.35,5.35,0,0,0,.69,1.08,34.31,34.31,0,0,1,6,10.22c.73,2,2.71,3.59,4.34,5.14.8.76,1.1,1.26.72,2.32-1.05,2.89-2,5.82-3,8.73C380.4,318.7,379.71,320.14,382.19,320.49Z"/><path class="cls-3" d="M386.71,211.27a23.42,23.42,0,0,1,5.39,8.85c2.94,7.75,5.86,15.51,8.68,23.3.55,1.52,1.24,2,2.84,1.69a10.23,10.23,0,0,1,3.82,0,1.86,1.86,0,0,1,1.17,3.23c-1.18,1.47-2.51,2.6-4.76,2-3.53-.94-7-.1-10.27,1.23-4.82,2-9.55,4.17-14.3,6.33-5.61,2.56-6.78,2.26-8.87-3.58-2.17-6-3.91-12.25-5.83-18.39-.87-2.79-1.77-5.58-2.6-8.39-.88-3-.37-5,2.41-6.34A104.79,104.79,0,0,1,376,217C379.83,215.7,383.65,214.52,386.71,211.27Zm6,27.51c-.09-2.81-1.45-4.73-2.86-4.65a2,2,0,0,0-2.19,2.32c.09,2.19,1.47,4.09,2.91,3.75A6.23,6.23,0,0,0,392.66,238.78Zm-2.83-14.15c-1-.62-1.63-1.22-1.79-1.11a53.55,53.55,0,0,0-4.24,3.3,8.28,8.28,0,0,0,.76,1.16C386.19,227,387.79,226,389.83,224.63Z"/><path class="cls-3" d="M470,330.42l21.73,11.63L480.27,360.9l-21.33-10.52Z"/><path class="cls-3" d="M389.17,476.86l11.29-20.3L418,463.05a5.49,5.49,0,0,1-.44,1c-4,6.54-8,13-11.87,19.62-.92,1.56-1.67,1.91-3.33.89C398.14,481.93,393.77,479.52,389.17,476.86Z"/><path class="cls-3" d="M388.11,478.83l15.17,8.75L399.4,494c-4.78-2.94-9.33-5.72-13.83-8.57a1.49,1.49,0,0,1-.36-1.39C386.06,482.33,387.05,480.69,388.11,478.83Z"/><path class="cls-3" d="M419.09,391.32v9.27c-4.33-.51-8.63-1-12.91-1.58-.36-.05-.88-.87-.88-1.32,0-1.77.24-3.54.37-5.21,2.39,0,4.59.15,6.76,0S416.63,391.75,419.09,391.32Z"/><path d="M452.37,182.87l3.33,2.91a11.41,11.41,0,0,0,1.23-1.15c18.85-23.53,44-33.35,73.46-33.38,39.46-.05,75.11,25,87.32,62.34,10.4,31.8,6.21,62-14.17,89-13.38,17.71-31.89,27.82-53.53,31.89-30.29,5.69-57.73-.83-81-21.43-22.91-20.34-33-46.28-31.05-76.85a95,95,0,0,1,8.23-33.55c.6-1.33.13-2.09-.74-3-2.89-2.94-3-3-.64-6.52S449.78,186.38,452.37,182.87Zm77.4,151.07a22.7,22.7,0,0,1-2.54-19.55,19,19,0,0,1,14-13.29c6.16-1.66,12.13-1.11,17.57,2.32,8.3,5.24,11.16,13.11,10.12,22.83.7-.24,1.11-.34,1.48-.51,15.46-7,28.08-17.46,36.77-32.09,14.78-24.89,17.83-51.46,8.64-78.84-9-26.84-27.41-45.29-53.78-55.63-13.64-5.35-27.88-6.69-42.4-5.28-18.26,1.78-34.81,7.84-49,19.74-2.6,2.19-5,4.63-7.69,7.15,4.05,4,7.89,7.73,11.63,11.56a4.75,4.75,0,0,0,3.75,1.57c8.08-.07,16.17,0,24.25,0a5,5,0,0,1,1.7.08c.46.16.8.66,1.19,1-.37.36-.69.89-1.13,1a6.44,6.44,0,0,1-1.92.1h-21c-.75,0-1.5.06-2.72.11.86.94,1.37,1.52,1.91,2.06q18.57,18.59,37.15,37.18c.54.54,1.37,1.24,1.34,1.83-.17,4,2.34,7.1,3.25,10.72a11.44,11.44,0,0,0,.94,1.79c.35-1.42.57-2.37.82-3.32a26.49,26.49,0,0,1,7.28-12.92c9.9-9.33,21.58-11.39,34-6.55,12.25,4.78,18.76,14.42,19.42,27.6.73,14.49-7.89,26.78-21,30.61-14.44,4.2-29.13-1.26-36.32-13.58-.53-.9-.88-3-.61-3.1,1.74-.88,1.84,1,2.37,1.89a29.39,29.39,0,0,0,39.64,10.23C582.67,272.6,586.89,254,578,240c-10-15.7-33.44-17.74-45.89-4-4.78,5.29-6.76,11.68-7,18.68-.06,1.84-.77,2.3-2.41,1.66a50.06,50.06,0,0,0-4.83-1.79c-4.14-1.14-7.77-3.94-12.32-3.81-.39,0-.83-.51-1.19-.84a22.9,22.9,0,0,1-2-2c-.95-1.1-1.73-.93-2.65.06s-1.94,1.82-3.31,3.08L448.58,203a17.22,17.22,0,0,0-.9,1.65A100.33,100.33,0,0,0,440.43,254c.18,1.92.93,2.42,2.8,2.41q31.54-.1,63.09,0c1,0,2.83.68,2.81,1-.11,1.91-1.77,1.17-2.81,1.17q-31.12.06-62.23,0h-2.75a8.27,8.27,0,0,0,0,1.36,88.43,88.43,0,0,0,20,42.11,4.29,4.29,0,0,0,2.94,1.16c12.66.07,25.33,0,38,.05a7.09,7.09,0,0,1,2.12.12c.42.13.69.73,1,1.12-.35.3-.66.76-1.06.86a7.73,7.73,0,0,1-1.93.08h-37.6C472.77,319.59,510.68,336.22,529.77,333.94Zm8.08-.09a88.18,88.18,0,0,0,26.49-5.73,3.78,3.78,0,0,0,2.11-2.24,19.41,19.41,0,0,0-9.1-20.78,20,20,0,0,0-22.85,2c-6,5.21-7.89,14.45-4.62,22.26C531.81,334,532.29,334.28,537.85,333.85ZM516.1,237.48l-54.67-54.65c-.69.81-1.43,1.75-2.26,2.61-1.44,1.48-1.53,2.58.12,4.21q23.4,23.16,46.61,46.5c.9.89,1.74,1.84,3.2,3.38-1.46,1.17-2.89,2.14-4.12,3.32-2.55,2.44-2.51,2.48.22,4.82a2.65,2.65,0,0,0,.53.27Q510.95,242.68,516.1,237.48Z"/><path class="cls-3" d="M396,259.28l2.75,2.6c-.39.32-1,1-1.15.91a20,20,0,0,1-2.69-2.09S395.43,260,396,259.28Z"/><path d="M392.66,238.78a6.23,6.23,0,0,1-2.14,1.42c-1.44.34-2.82-1.56-2.91-3.75a2,2,0,0,1,2.19-2.32C391.21,234.05,392.57,236,392.66,238.78Z"/><path d="M389.83,224.63c-2,1.33-3.64,2.37-5.27,3.35a8.28,8.28,0,0,1-.76-1.16,53.55,53.55,0,0,1,4.24-3.3C388.2,223.41,388.85,224,389.83,224.63Z"/><path class="cls-3" d="M537.85,333.85c-5.56.43-6,.13-8-4.48-3.27-7.81-1.35-17.05,4.62-22.26a20,20,0,0,1,22.85-2,19.41,19.41,0,0,1,9.1,20.78,3.78,3.78,0,0,1-2.11,2.24A88.18,88.18,0,0,1,537.85,333.85Zm7.34-5.65c-1.7-1.79-3-3.28-4.47-4.63-.33-.31-1.1-.14-1.67-.19,0,.56-.13,1.31.17,1.65,1.39,1.62,2.93,3.12,4.39,4.68s2.39,1.2,3.42-.36c2.41-3.62,4.89-7.2,7.26-10.85.28-.44,0-1.23.05-1.86-.65.26-1.52.35-1.88.82-1.13,1.47-2,3.1-3.07,4.64C548.09,324,546.74,326,545.19,328.2Z"/><path class="cls-3" d="M516.1,237.48q-5.15,5.21-10.37,10.46a2.65,2.65,0,0,1-.53-.27c-2.73-2.34-2.77-2.38-.22-4.82,1.23-1.18,2.66-2.15,4.12-3.32-1.46-1.54-2.3-2.49-3.2-3.38q-23.28-23.28-46.61-46.5c-1.65-1.63-1.56-2.73-.12-4.21.83-.86,1.57-1.8,2.26-2.61Z"/><path d="M547.62,215.36a21.38,21.38,0,0,1-21.47-21.57c0-12.61,8.76-21.38,21.29-21.4A21.53,21.53,0,0,1,569.12,194C569.08,206.35,560,215.38,547.62,215.36Zm0-2.19c11.07,0,19.21-8.13,19.25-19.25a19.44,19.44,0,0,0-19.39-19.38c-11.18,0-19.23,8.1-19.22,19.24A19.38,19.38,0,0,0,547.65,213.17Z"/><path d="M545.19,328.2c1.55-2.25,2.9-4.16,4.2-6.1,1-1.54,1.94-3.17,3.07-4.64.36-.47,1.23-.56,1.88-.82,0,.63.23,1.42-.05,1.86-2.37,3.65-4.85,7.23-7.26,10.85-1,1.56-2.1,1.78-3.42.36s-3-3.06-4.39-4.68c-.3-.34-.13-1.09-.17-1.65.57.05,1.34-.12,1.67.19C542.17,324.92,543.49,326.41,545.19,328.2Z"/><path class="cls-3" d="M547.65,213.17a19.38,19.38,0,0,1-19.36-19.39c0-11.14,8-19.2,19.22-19.24a19.44,19.44,0,0,1,19.39,19.38C566.86,205,558.72,213.18,547.65,213.17Zm-1.59-13.45c-.46-.54-1.11-1.28-1.72-2-1.36-1.66-2.64-3.38-4.07-5-.36-.39-1.15-.4-1.74-.58,0,.64-.23,1.48.08,1.88,2.36,3.06,4.8,6,7.27,9,1,1.18,1.88.94,2.3-.52,1.82-6.3,5.56-11.55,9.24-16.83a6.81,6.81,0,0,0,1-1.61,4,4,0,0,0-.08-1.53,5.58,5.58,0,0,0-1.67.36c-.39.22-.61.77-.88,1.2Z"/><path d="M546.06,199.72l9.77-15.64c.27-.43.49-1,.88-1.2a5.58,5.58,0,0,1,1.67-.36,4,4,0,0,1,.08,1.53,6.81,6.81,0,0,1-1,1.61c-3.68,5.28-7.42,10.53-9.24,16.83-.42,1.46-1.31,1.7-2.3.52-2.47-3-4.91-5.95-7.27-9-.31-.4-.06-1.24-.08-1.88.59.18,1.38.19,1.74.58,1.43,1.6,2.71,3.32,4.07,5C545,198.44,545.6,199.18,546.06,199.72Z"/><path class="cls-5" d="M554.4,252.28c-1.43,3.09-7.19-7.71-10.76-2.31s9.43,17,12.47,15.92,9.17-9.69,7.83-14.4S556.53,247.7,554.4,252.28Z"/><path class="cls-5" d="M209,189.11c0,3.41-9.81-3.87-10.71,2.54s15.83,11.29,18.11,9,4.1-12.69.87-16.37S208.92,184.06,209,189.11Z"/><path class="cls-5" d="M277.87,75c1.07,3.23,8-6.83,11-1s-11.34,15.78-14.24,14.37-8-10.7-6.1-15.22S276.3,70.2,277.87,75Z"/><path class="cls-5" d="M674,206.7c2.63,2.16,3.12-10.07,8.68-6.76s-1.1,19.41-4.3,19.77S665.86,215,665,210.14,670,203.5,674,206.7Z"/><path class="cls-5" d="M288.32,476c2.63,2.16,3.12-10.07,8.68-6.77s-1.09,19.41-4.3,19.77-12.47-4.74-13.32-9.56S284.41,472.79,288.32,476Z"/><path class="cls-5" d="M585.11,413.52c-2.63,2.16-3.12-10.08-8.68-6.77s1.1,19.41,4.3,19.77,12.47-4.74,13.32-9.56S589,410.32,585.11,413.52Z"/><path class="cls-5" d="M641.3,82.7c-2.63,2.16-3.12-10.07-8.68-6.76s1.1,19.41,4.3,19.77,12.47-4.75,13.32-9.57S645.21,79.5,641.3,82.7Z"/><polygon class="cls-6" points="509.43 239.31 495.99 251.61 439.91 194.63 449.29 179.17 509.43 239.31"/><rect class="cls-6" x="145.38" y="250.23" width="126.45" height="0.94" rx="0.47" transform="translate(534.74 248.87) rotate(129.44)"/><rect class="cls-6" x="388.04" y="101.51" width="126.45" height="0.94" rx="0.47" transform="translate(816.72 -181.73) rotate(129.44)"/><rect class="cls-6" x="601.7" y="297.17" width="126.45" height="0.94" rx="0.47" transform="translate(1317.22 -26.77) rotate(129.44)"/><rect class="cls-6" x="431.68" y="487.75" width="126.45" height="0.94" rx="0.47" transform="translate(1186.36 416.19) rotate(129.44)"/><rect class="cls-6" x="188.17" y="456.09" width="126.45" height="0.94" rx="0.47" transform="matrix(-0.64, 0.77, -0.77, -0.64, 763.69, 552.47)"/></g></svg>