<svg xmlns="http://www.w3.org/2000/svg" viewBox="0 0 841.89 595.28"><defs><style>.cls-1{fill:#00e6bb;}.cls-2{fill:#fff;}.cls-3{fill:none;stroke:#f0e100;stroke-miterlimit:10;stroke-width:2px;}</style></defs><g id="Layer_4" data-name="Layer 4"><path class="cls-1" d="M311.21,389.27V170.34c0-32.06,31-54.38,60.28-43.47l181.56,67.58c17.8,6.63,29.66,24,29.66,43.48V448.8c0,31.31-29.63,53.56-58.64,44.05L342.52,433.32C323.87,427.21,311.21,409.4,311.21,389.27Z"/><path d="M431,450c-.27,3.87-.52,7.34-.76,10.8-.29,4.32-.6,8.63-.82,12.95-.07,1.33-.59,1.81-1.9,2-15,1.7-28.42,7.33-40.87,15.59a5.93,5.93,0,0,0-1.45,1.09c-.37.48-.83,1.26-.66,1.69s1,.74,1.61.9a7.26,7.26,0,0,0,1.81,0H489.47a3.86,3.86,0,0,0,1.13,0c.8-.26,1.57-.61,2.35-.93-.36-.78-.52-1.83-1.13-2.29a70.18,70.18,0,0,0-9-6.16c-9.72-5.08-20.22-7.8-31-9.32-1.92-.27-2.72-.79-2.68-2.9q.21-10.25,0-20.49c0-2.17.68-2.63,2.73-2.6q57.38.94,114.75,1.75l42.8.65c2.88,0,3.12-.17,3.19-3.05.22-9.86.4-19.73.64-29.59Q614.91,351,616.6,282t3.18-138.15c.29-13,.46-25.94.69-38.91,0-3.17-.07-3.29-3.33-3.29H267.37c-3.27,0-3.35.08-3.38,3.27q-.17,20.72-.32,41.44v3.23c-1.2-.25-2.07-.38-2.92-.6L224,139.27a9.32,9.32,0,0,1-2.12-.79c-10.36-5.73-21.2-2.44-25.26,8.51-4.23,11.41-4.34,23.09,1.47,34.21,3.64,7,9.22,10.92,17.5,10.91,7.58,0,15.17.57,22.75.9.42,0,.84.11,1.57.2-2.19,3.74-4.29,7.22-6.29,10.76-9.16,16.14-16.37,33.08-19.4,51.48-1.31,7.9-1.47,16-2.25,24a6.62,6.62,0,0,1-1.33,3.36c-2.45,3-2.39,5.41.28,8.25a4.3,4.3,0,0,1,1.09,2.52c1.94,33,16.92,58.47,44.2,76.86a3.2,3.2,0,0,1,1.54,3.17q-.87,35.28-1.64,70.56c-.08,3.24,0,3.26,3.27,3.31L428.08,450ZM490.5,355.4c4.76-5.41,12.89-7.33,19.28-4.21,1.79.86,3.21,2.63,4.54,4.21.67.79.91,2.24,2.19,1.4.48-.32.51-1.92.2-2.73-1.11-2.94-1.11-3.38,1.57-5.24a23.28,23.28,0,0,1,20.12-3.64,64.14,64.14,0,0,1,19,9.07c.7.46,1.84.24,2.77.33-.42-.84-.61-2-1.28-2.44-4.3-2.55-8.46-5.76-13.14-7.14-7.32-2.15-12.8-6.5-17.93-11.7a1.63,1.63,0,0,0-.34-.3c-1-.66-1.82-2.53-3.14-1.07s.53,2.24,1.37,3.06c2.13,2.08,4.34,4.07,6.71,6.27a9.25,9.25,0,0,1-1.09.29c-6.65.49-12.59,2.58-17.34,7.5a2.2,2.2,0,0,1-1.92.06c-8.18-3.74-16.37-2.43-23,3.66a3,3,0,0,1-2.29.56,4.67,4.67,0,0,0-4.76,1.3,4.4,4.4,0,0,1-2.75,1.33c-14.73.22-29.45.15-44.17.53-11.52.3-23,1-34.53,1.78-3.74.25-7.43,1.19-11.27,1.84-.18-.67-.36-1.24-.48-1.82a144.47,144.47,0,0,0-9.23-29.22c-.53-1.2-.62-3.7-2.71-2.78-1.91.84-.07,2.48.23,3.74.49,2,1.77,4.13,1.46,6a59.48,59.48,0,0,1-6.88,19.42,7.43,7.43,0,0,1-1.89,2.21c-11.5,8.74-23.95,15.72-37.83,20s-28.35,5.9-42.74,3.18c-37.87-7.16-67.73-38.55-73.48-76.67-.51-3.4-.75-6.84-1.11-10.28.56,0,.72-.1.85-.05,11.67,4.14,23.44,3.57,35.21.62,6.24-1.56,12.17-3.95,16.89-8.5a65.41,65.41,0,0,0,5.08-6.21c1.42,2,2.95,3.84,4.19,5.89,5.39,9,6.16,18.72,4.71,28.83-.26,1.8-.67,3.59-.77,5.4,0,.72.58,1.47.91,2.21.58-.64,1.5-1.19,1.67-1.92.49-2.06.68-4.19,1-6.29.16-1.09.3-2.17.48-3.5a9.91,9.91,0,0,1,1,.7c5.88,5.62,13,8.84,20.86,10.53A26.71,26.71,0,0,0,322.8,320a50.25,50.25,0,0,0,15.28-9.74c8.16-7.6,16-15.54,24.05-23.25,8.8-8.42,18.12-16.17,29.21-21.5.91-.43,1.88-.77,3-1.23a39.67,39.67,0,0,0,.61,4.55c2.68,10.68,9.83,17,20.26,19.28,21.94,4.75,43.54-8.16,46.71-31.71.22-1.59.73-2.16,2.4-2.17,26.05-.06,50.87,5.44,73.85,17.71,11.75,6.27,22.85,13.79,34.06,21,6.49,4.2,12.61,8.95,18.86,13.52,2,1.49,3.46,3.13,3.38,6.16-.71,28.67-1.22,57.34-1.8,86,0,1.5-.13,3-.2,4.59H500.18C504.62,385.68,501.16,369.9,490.5,355.4ZM266.65,104.3h2.87q172.73,0,345.43-.07c2.46,0,2.88.8,2.81,3q-.66,18.65-1.11,37.31-1,42.56-1.94,85.12-1.58,69.53-3.15,139.06Q610.69,408,610,447.23c0,2.07-.47,2.86-2.78,2.82q-108.37-1.73-216.74-3.33c-32.17-.5-64.34-1.13-96.51-1.69-10.32-.18-20.65-.29-31-.45-4-.06-4-.08-3.93-4,.16-10.62.27-21.23.47-31.84.21-11.16.5-22.31.77-33.46a16.82,16.82,0,0,1,.26-2c2.94,1.43,5.55,2.83,8.28,3.95a2.9,2.9,0,0,1,2,3.26c-.14,7.58-.17,15.17-.21,22.76,0,2.79.12,2.92,3,2.94,10.7.07,21.4.19,32.1.2q142.89,0,285.78,0c3.84,0,3.89-.08,4-4q1.08-56,2.16-112,.66-34.6,1.26-69.2.83-45.85,1.64-91.72c0-2-.69-2.63-2.63-2.67-8.27-.17-16.54-.49-24.81-.69Q495,124.26,417,122.35l-137.71-3.42c-3.05-.08-3.26.09-3.32,3.1q-.3,14-.58,28c0,.79-.1,1.58-.18,2.66-2.27-.58-4.21-1.21-6.21-1.53s-2.77-1.31-2.73-3.49c.23-13.58.29-27.17.41-40.75C266.66,106.17,266.65,105.43,266.65,104.3ZM594.38,305.44c-1.45-1.15-2.34-1.95-3.32-2.62-12.23-8.32-24.36-16.78-36.73-24.88-28.82-18.87-60.54-27.52-94.94-26.42-.79,0-1.59,0-2.6,0,.35-13.92.7-27.54,1-41.26,1.43-.18,2.55-.29,3.67-.46,7.36-1.17,11.84-7.18,10.05-13.48-1.07-3.75-3.93-5.67-7.33-6.87a2.33,2.33,0,0,1-1.82-2.64c.08-3.87.11-7.74,0-11.61-.13-5.15,0-10.36-.7-15.44-1.5-10.72-6.87-19.16-17.21-23.12-15.44-5.91-31.36-6.17-47.14-1.36-9.81,3-16.06,9.9-18.17,20.05a66.39,66.39,0,0,0-1,11.29c-.17,5-.05,10-.05,15.65-2.25-.87-4.31-1-5.1-2.12a8.15,8.15,0,0,0-5-3.15c-15.11-3.95-30.21-8-45.32-11.91q-21.24-5.55-42.51-11c-1.22-.32-2.26-.52-2.21-2.26q.38-14.22.56-28.45c0-1.47.66-1.77,2-1.71,3,.14,6.07.16,9.11.23l252.2,6.26q26.74.67,53.49,1.27c2,0,2.68.6,2.52,2.64-.28,3.62-.36,7.27-.43,10.91q-.46,22-.86,43.92-1.1,57.48-2.16,115C594.36,302.85,594.38,303.87,594.38,305.44ZM377.5,196.3c0,1.1,0,1.92,0,2.73.52,9.31.89,18.63,1.64,27.91a34.84,34.84,0,0,0,5,15.68c3.75,6.07,9.67,8.72,16.3,10.23,1.27.29,2.47.46,2.34,2.35-.1,1.66,0,2.88-2.15,3.53a82.88,82.88,0,0,0-24.93,12.91C366,278.85,357.44,287.34,349,296a142.52,142.52,0,0,1-20.38,17.76c-15.47,10.8-32.62,3.5-41.46-5.34a7.78,7.78,0,0,1-2.38-5.45,39.88,39.88,0,0,0-7.95-22.4,6.86,6.86,0,0,1-1.2-3.91c.29-18,.75-35.95,1-53.93a8.6,8.6,0,0,1,2.63-6.39c5.5-5.66,10.95-11.43,14.17-18.79.71-1.64,1.57-2,3.24-1.93q19.77,1,39.55,1.94,16.38.75,32.75,1.36c.89,0,2.36-.2,2.61-.75C372.89,195.46,375.08,196.38,377.5,196.3Zm3.22,0c.42,0,.72-.1,1-.11,4.36-.13,5.11-.89,5.17-5.33,0-.83-.08-1.66-.13-2.49-.18-3-1.22-5.24-4.73-5.44a2.1,2.1,0,0,1-1.36-1.55c.17-7.66.48-15.31.71-23a3.88,3.88,0,0,1,3.09-3.9,85.44,85.44,0,0,1,48.2-1.86c7.06,1.8,11.55,6.21,12.84,13.48,1.19,6.72,2.21,13.46,3.22,20.21.66,4.39.59,4.35,4.94,4.42,4.1.06,8.23.22,11.88,2.45a6.83,6.83,0,0,1,.86,11.35c-2.58,2.23-5.73,2.66-9,2.64-1.7,0-2.47.59-2.51,2.37q-.49,21.38-1.09,42.76c-.05,1.76.57,2.56,2.41,2.33a25.62,25.62,0,0,1,3.07,0c-.61,7.39-3,13.87-7.66,19.3-9.6,11.16-22,14.24-36,11.53-9.27-1.79-18.63-9.63-18.59-22.45l5.84-2c0,1.21,0,2,0,2.7,0,2.62.54,3.14,3,2.36a89.06,89.06,0,0,0,9.78-3.66,17.62,17.62,0,0,0,8.27-6.89,11.83,11.83,0,0,0,.81-2.9A10.81,10.81,0,0,0,422,252a93.34,93.34,0,0,1-21.46-2c-10.11-2.25-15.8-8.57-17.67-18.45a121.65,121.65,0,0,1-2.07-16C380.45,209.2,380.72,202.83,380.72,196.29ZM354,398.22l-.61-.29c.36-1.31.39-2.85,1.13-3.89a56.26,56.26,0,0,1,6.9-8.64c5.91-5.56,13.05-9.32,20.27-12.91.76-.38,1.19-1.43,1.77-2.17-.92-.1-2-.58-2.72-.25-8.33,3.94-16.3,8.45-23,14.92-.43.41-.93.75-1.4,1.13a2.42,2.42,0,0,1,.43-1.47A12.23,12.23,0,0,1,358,383a70.32,70.32,0,0,1,29.43-19.16c12.38-4.1,25.4-4.26,38.28-4.55,16.77-.36,33.54-.11,50.3-.58,4.49-.13,7.38.68,8.55,5.21a5.93,5.93,0,0,0,.75,1.4c5.95,11.06,7.87,22.67,4.92,35-.56,2.34-1.53,3.27-4.15,3.26q-59.65-.15-119.3-.06h-2.18l-.44-.7c.89-1,1.59-2.41,2.71-3,4-2,8-3.87,12.17-5.53,3.86-1.55,7.88-2.71,11.78-4.19.54-.21.78-1.22,1.15-1.86-.64-.23-1.4-.8-1.9-.62-7,2.47-14,4.87-20.92,7.68-3.59,1.46-7,3.58-7.74,8h-6.55a31.51,31.51,0,0,1,2.36-4.7,24.93,24.93,0,0,1,4-4.05c7.76-6.45,16.69-11,25.57-15.64.67-.35,1-1.4,1.45-2.11-.86-.1-1.93-.56-2.56-.22-6.08,3.26-12.17,6.52-18.1,10A45.36,45.36,0,0,0,354,398.22Zm-95.32-205,.17.94a13.43,13.43,0,0,0-1.42,1.06c-3.07,3-6.19,6-9.13,9.12-.51.54-.26,1.81-.36,2.74a8.92,8.92,0,0,0,2.47-1.23c2-2,3.63-4.3,5.72-6.13,5.81-5.07,12.72-8.19,19.88-10.81,4.3-1.57,5.25-4.7,2.7-8.56a51.8,51.8,0,0,1-3.81-6.72c-.79-1.71-2-3.92-.07-5.41s3.77.19,5.32,1.33c4.82,3.56,8,8.4,10.67,13.68a14.67,14.67,0,0,1-.11,14c-3.58,7.09-8.93,12.8-14.38,18.39a25.48,25.48,0,0,0-6.21,9.93c-4.43,13.6-5.63,27.58-4.83,41.8a5.83,5.83,0,0,1-.32,2.61,23.17,23.17,0,0,1-15.61,13.21c-11.11,3.13-22.08,2.11-33-1.07a2,2,0,0,1-1.64-2.28c.24-4.47.22-9,.64-13.41a137.69,137.69,0,0,1,10.32-40.16,206.14,206.14,0,0,1,16.7-31.53c.39-.62,1.18-1.39,1.8-1.41C249,193.15,253.83,193.2,258.66,193.2Zm-32-50.46c3.31.88,6.07,1.64,8.84,2.36l130.24,34.27c4.6,1.21,6.39,3.25,6.43,8.1a24.71,24.71,0,0,1-1.18,6.18c-.49,1.89-1.6,2.63-3.8,2.51-17.8-.9-35.61-1.62-53.42-2.42-6.13-.27-12.24-.59-18.08-.88-.48-2.87-.58-5.63-1.42-8.15a35.53,35.53,0,0,0-9.07-14.28,25.28,25.28,0,0,0-6.79-4.84c-4.17-1.94-7.77,1-7.08,5.5a15.61,15.61,0,0,0,1.48,4.51c1.09,2.16,2.38,4.22,3.67,6.27,1.5,2.39,1.18,3.43-1.4,4.48-3.29,1.35-6.53,2.85-9.84,4.16a10,10,0,0,1-3.89.81c-12.44-.47-24.86-1-37.29-1.59-.63,0-1.25-.15-2.13-.26C234.6,179.38,236.43,156.92,226.64,142.74ZM384,349.88c.75,3.31,1.36,6.26,2.08,9.18.33,1.35,0,2-1.36,2.51a89.68,89.68,0,0,0-24.87,15.33c-4.43,3.76-8,8.15-7.62,14.54a1.91,1.91,0,0,1-.19.88c-1.64,3.56-2,7.11.32,10.78a17,17,0,0,1-1.8.21q-37.56.1-75.11.22c-1.64,0-2.07-.57-2-2.12.12-6.67.12-13.35.19-20a16.15,16.15,0,0,1,.26-1.94c1,.32,1.9.54,2.74.83,12.41,4.39,25.2,5.34,38.16,3.86,21.3-2.45,40-11.31,56.82-24.23C375.64,356.79,379.56,353.45,384,349.88ZM487.49,492H390.6c16.78-10.58,34.45-15.45,53.72-13.82C459.72,479.52,474.48,483,487.49,492ZM196,162.8c.88-4.6,1.4-9.3,2.71-13.77,1.81-6.13,6.12-9.81,12.65-10.52,6.16-.67,10.49,2.33,13.78,7.14,6.83,10,6.87,26.27.09,36.27-2.22,3.27-5,5.93-9,6.92-5.6,1.38-11.18-1.37-14.89-7.26C197.74,175.86,196.48,169.55,196,162.8ZM233.51,294c0,.21-.09.41-.13.61-5.19-1-10.41-1.78-15.54-3-1.9-.46-3.62-1.82-5.3-2.95a2.14,2.14,0,0,1-.5-3.21,2.22,2.22,0,0,1,3-1.08,63.36,63.36,0,0,0,26.71,2.92c10.76-1.13,20.06-4.83,25.21-15.31a2.27,2.27,0,0,1,1.67-1.21c.57.06,1.5.9,1.51,1.41,0,2.06.23,4.29-.46,6.14-1.88,5-6,7.89-10.59,10.13C251,292.42,242.38,293.8,233.51,294Zm259,109.46a3.72,3.72,0,0,1-.12-.76c.07-.38.17-.74.26-1.11,2.74-11.11,2.12-22-2.59-32.47-1.67-3.73-3.59-7.35-5.32-11.06a5.82,5.82,0,0,1-.11-2.06c.72.11,1.6,0,2.11.37a10.91,10.91,0,0,1,3.26,3.11c2.47,4.57,5.16,9.12,6.88,14a45.27,45.27,0,0,1,.83,28.19c-.38,1.32-1,1.95-2.37,1.81C494.34,403.43,493.37,403.5,492.46,403.5ZM272.92,224.79,274,225c-.31,15.15-.63,30.3-.95,45.72-1.25-1-2.08-2.19-3.1-2.4-2-.42-2.06-1.69-2.13-3.17a114.49,114.49,0,0,1,2-27.16C270.63,233.52,271.86,229.17,272.92,224.79ZM445.61,474.73l-.26.54c-4.07,0-8.14,0-12.2,0a1.52,1.52,0,0,1-1-1.08c.14-3.52.41-7,.68-11.22Z"/><path class="cls-2" d="M490.5,355.4c10.66,14.5,14.12,30.28,9.68,47.88h92.27c.07-1.59.17-3.09.2-4.59.58-28.68,1.09-57.35,1.8-86,.08-3-1.34-4.67-3.38-6.16-6.25-4.57-12.37-9.32-18.86-13.52-11.21-7.25-22.31-14.77-34.06-21-23-12.27-47.8-17.77-73.85-17.71-1.67,0-2.18.58-2.4,2.17-3.17,23.55-24.77,36.46-46.71,31.71-10.43-2.26-17.58-8.6-20.26-19.28a39.67,39.67,0,0,1-.61-4.55c-1.1.46-2.07.8-3,1.23-11.09,5.33-20.41,13.08-29.21,21.5-8.06,7.71-15.89,15.65-24.05,23.25A50.25,50.25,0,0,1,322.8,320a26.71,26.71,0,0,1-16.07,1.55c-7.85-1.69-15-4.91-20.86-10.53a9.91,9.91,0,0,0-1-.7c-.18,1.33-.32,2.41-.48,3.5-.3,2.1-.49,4.23-1,6.29-.17.73-1.09,1.28-1.67,1.92-.33-.74-1-1.49-.91-2.21.1-1.81.51-3.6.77-5.4,1.45-10.11.68-19.86-4.71-28.83-1.24-2.05-2.77-3.91-4.19-5.89a65.41,65.41,0,0,1-5.08,6.21c-4.72,4.55-10.65,6.94-16.89,8.5-11.77,2.95-23.54,3.52-35.21-.62-.13-.05-.29,0-.85.05.36,3.44.6,6.88,1.11,10.28,5.75,38.12,35.61,69.51,73.48,76.67,14.39,2.72,28.73,1.1,42.74-3.18s26.33-11.22,37.83-20a7.43,7.43,0,0,0,1.89-2.21A59.48,59.48,0,0,0,378.59,336c.31-1.86-1-4-1.46-6-.3-1.26-2.14-2.9-.23-3.74,2.09-.92,2.18,1.58,2.71,2.78a144.47,144.47,0,0,1,9.23,29.22c.12.58.3,1.15.48,1.82,3.84-.65,7.53-1.59,11.27-1.84,11.5-.75,23-1.48,34.53-1.78,14.72-.38,29.44-.31,44.17-.53a4.4,4.4,0,0,0,2.75-1.33,4.67,4.67,0,0,1,4.76-1.3,3,3,0,0,0,2.29-.56c6.62-6.09,14.81-7.4,23-3.66a2.2,2.2,0,0,0,1.92-.06c4.75-4.92,10.69-7,17.34-7.5a9.25,9.25,0,0,0,1.09-.29c-2.37-2.2-4.58-4.19-6.71-6.27-.84-.82-2.64-1.64-1.37-3.06s2.17.41,3.14,1.07a1.63,1.63,0,0,1,.34.3c5.13,5.2,10.61,9.55,17.93,11.7,4.68,1.38,8.84,4.59,13.14,7.14.67.39.86,1.6,1.28,2.44-.93-.09-2.07.13-2.77-.33a64.14,64.14,0,0,0-19-9.07,23.28,23.28,0,0,0-20.12,3.64c-2.68,1.86-2.68,2.3-1.57,5.24.31.81.28,2.41-.2,2.73-1.28.84-1.52-.61-2.19-1.4-1.33-1.58-2.75-3.35-4.54-4.21C503.39,348.07,495.26,350,490.5,355.4Z"/><path class="cls-2" d="M266.65,104.3c0,1.13,0,1.87,0,2.62-.12,13.58-.18,27.17-.41,40.75,0,2.18.6,3.15,2.73,3.49s3.94,1,6.21,1.53c.08-1.08.16-1.87.18-2.66q.3-14,.58-28c.06-3,.27-3.18,3.32-3.1L417,122.35q78.07,1.94,156.15,3.83c8.27.2,16.54.52,24.81.69,1.94,0,2.67.67,2.63,2.67q-.87,45.86-1.64,91.72-.61,34.61-1.26,69.2-1.06,56-2.16,112c-.07,3.88-.12,4-4,4q-142.89,0-285.78,0c-10.7,0-21.4-.13-32.1-.2-2.85,0-3-.15-3-2.94,0-7.59.07-15.18.21-22.76a2.9,2.9,0,0,0-2-3.26c-2.73-1.12-5.34-2.52-8.28-3.95a16.82,16.82,0,0,0-.26,2c-.27,11.15-.56,22.3-.77,33.46-.2,10.61-.31,21.22-.47,31.84,0,3.9-.07,3.92,3.93,4,10.32.16,20.65.27,31,.45,32.17.56,64.34,1.19,96.51,1.69q108.36,1.69,216.74,3.33c2.31,0,2.74-.75,2.78-2.82q.69-39.27,1.54-78.52,1.53-69.54,3.15-139.06,1-42.57,1.94-85.12.45-18.66,1.11-37.31c.07-2.19-.35-3-2.81-3q-172.71.1-345.43.07ZM570.94,441.94c-5.26,0-9.4-1.75-11.52-5.2-5.51-8.9-1.65-21.15,8.76-23.44,1.31-.29,1.65-.84,1.76-2.11.07-.84.85-1.61,1.31-2.42.51.78,1.38,1.54,1.45,2.36.12,1.33.41,1.89,1.85,2.22a14.51,14.51,0,0,1-3.61,28.59ZM311.65,428.85c-2.27,0-4.54.1-6.79-.06-.71-.05-1.37-.8-2.05-1.23.65-.46,1.3-1.31,2-1.33q6.68-.18,13.36,0c.65,0,1.28.89,1.91,1.36-.68.42-1.35,1.14-2.06,1.2C315.88,429,313.76,428.84,311.65,428.85Z"/><path class="cls-2" d="M380.72,196.29c0,6.54-.27,12.91.09,19.24a121.65,121.65,0,0,0,2.07,16c1.87,9.88,7.56,16.2,17.67,18.45A93.34,93.34,0,0,0,422,252a10.81,10.81,0,0,1,2.73.64,11.83,11.83,0,0,1-.81,2.9,17.62,17.62,0,0,1-8.27,6.89,89.06,89.06,0,0,1-9.78,3.66c-2.42.78-2.92.26-3-2.36,0-.75,0-1.49,0-2.7l-5.84,2c0,12.82,9.32,20.66,18.59,22.45,14,2.71,26.43-.37,36-11.53,4.68-5.43,7.05-11.91,7.66-19.3a25.62,25.62,0,0,0-3.07,0c-1.84.23-2.46-.57-2.41-2.33q.58-21.37,1.09-42.76c0-1.78.81-2.37,2.51-2.37,3.23,0,6.38-.41,9-2.64a6.83,6.83,0,0,0-.86-11.35c-3.65-2.23-7.78-2.39-11.88-2.45-4.35-.07-4.28,0-4.94-4.42-1-6.75-2-13.49-3.22-20.21-1.29-7.27-5.78-11.68-12.84-13.48a85.44,85.44,0,0,0-48.2,1.86,3.88,3.88,0,0,0-3.09,3.9c-.23,7.65-.54,15.3-.71,23a2.1,2.1,0,0,0,1.36,1.55c3.51.2,4.55,2.41,4.73,5.44.05.83.14,1.66.13,2.49-.06,4.44-.81,5.2-5.17,5.33C381.44,196.19,381.14,196.25,380.72,196.29Zm13.37,4.63c.82-1.28,1.41-2.82,2.52-3.74a11.44,11.44,0,0,1,4.45-2.11c1.49-.39,1.94-1,1.88-2.49-.1-2.65-.12-5.31,0-8,0-.78.81-1.51,1.25-2.27.46.73,1.27,1.43,1.3,2.17.15,3.18,0,6.37.1,9.55.09,2-.43,3.14-2.62,3.33a7.08,7.08,0,0,0-3.43,1.08c-1,.71-2.22,2-2.14,3s1.46,2.09,2.52,2.7,2.23.34,3.31.66a1.76,1.76,0,0,1,1.14,1.13,1.64,1.64,0,0,1-.91,1.3C399.82,208.65,394.55,205.06,394.09,200.92Zm36-16.73,1.74,1.55c-.51.55-.92,1.35-1.55,1.6q-4.61,1.86-9.32,3.44c-.57.2-1.32-.15-2-.24.25-.7.31-1.83.78-2C423.05,187,426.48,185.64,430,184.19Zm-35,3.46c-.78,1.51-1.11,3-2,3.63-.71.47-3.07,0-3.14-.35a16.81,16.81,0,0,1-.24-5.83c.06-.43,2.32-1.15,3-.76C393.7,184.91,394.21,186.37,395.08,187.65Zm25.16,34.29c-.24-.21-1.08-.62-1.13-1.12s.67-1.28,1.21-1.45c2-.64,3.89-1.25,4.45-3.69.1-.41,1.14-.6,1.75-.9.24.56.75,1.15.7,1.68C427,219.12,423.6,221.87,420.24,221.94Zm2.82-47.18c1.24-.48,2-1.07,2.55-.95a39,39,0,0,1,5.59,1.67c.45.17.67,1,1,1.47-.67.31-1.41,1-2,.86a35.93,35.93,0,0,1-5.17-1.5C424.49,176.12,424.07,175.58,423.06,174.76Zm-29.66-4.7c.57.5,1.16.81,1.34,1.27a1.48,1.48,0,0,1-.49,1.31,44.61,44.61,0,0,1-4.6,2.86,1.71,1.71,0,0,1-1.52-.4,1.41,1.41,0,0,1,0-1.39C389.77,172.46,391.52,171.33,393.4,170.06Z"/><path class="cls-2" d="M354,398.22a45.36,45.36,0,0,1,13.52-11.58c5.93-3.52,12-6.78,18.1-10,.63-.34,1.7.12,2.56.22-.47.71-.78,1.76-1.45,2.11-8.88,4.64-17.81,9.19-25.57,15.64a24.93,24.93,0,0,0-4,4.05,31.51,31.51,0,0,0-2.36,4.7h6.55c.78-4.43,4.15-6.55,7.74-8C376,392.5,383,390.1,390,387.63c.5-.18,1.26.39,1.9.62-.37.64-.61,1.65-1.15,1.86-3.9,1.48-7.92,2.64-11.78,4.19-4.14,1.66-8.2,3.52-12.17,5.53-1.12.57-1.82,2-2.71,3l.44.7h2.18q59.65,0,119.3.06c2.62,0,3.59-.92,4.15-3.26,2.95-12.33,1-23.94-4.92-35a5.93,5.93,0,0,1-.75-1.4c-1.17-4.53-4.06-5.34-8.55-5.21-16.76.47-33.53.22-50.3.58-12.88.29-25.9.45-38.28,4.55A70.32,70.32,0,0,0,358,383a12.23,12.23,0,0,0-1.19,1.66,2.42,2.42,0,0,0-.43,1.47c.47-.38,1-.72,1.4-1.13,6.69-6.47,14.66-11,23-14.92.71-.33,1.8.15,2.72.25-.58.74-1,1.79-1.77,2.17-7.22,3.59-14.36,7.35-20.27,12.91a56.26,56.26,0,0,0-6.9,8.64c-.74,1-.77,2.58-1.13,3.89Z"/><path class="cls-2" d="M258.66,193.2c-4.83,0-9.66,0-14.49.06-.62,0-1.41.79-1.8,1.41a206.14,206.14,0,0,0-16.7,31.53,137.69,137.69,0,0,0-10.32,40.16c-.42,4.45-.4,8.94-.64,13.41a2,2,0,0,0,1.64,2.28c10.91,3.18,21.88,4.2,33,1.07A23.17,23.17,0,0,0,265,269.91a5.83,5.83,0,0,0,.32-2.61c-.8-14.22.4-28.2,4.83-41.8a25.48,25.48,0,0,1,6.21-9.93c5.45-5.59,10.8-11.3,14.38-18.39a14.67,14.67,0,0,0,.11-14c-2.65-5.28-5.85-10.12-10.67-13.68-1.55-1.14-3.42-2.77-5.32-1.33s-.72,3.7.07,5.41a51.8,51.8,0,0,0,3.81,6.72c2.55,3.86,1.6,7-2.7,8.56-7.16,2.62-14.07,5.74-19.88,10.81-2.09,1.83-3.75,4.15-5.72,6.13a8.92,8.92,0,0,1-2.47,1.23c.1-.93-.15-2.2.36-2.74,2.94-3.14,6.06-6.11,9.13-9.12a13.43,13.43,0,0,1,1.42-1.06Z"/><path class="cls-2" d="M226.64,142.74c9.79,14.18,8,36.64-4.73,46.73.88.11,1.5.23,2.13.26,12.43.55,24.85,1.12,37.29,1.59a10,10,0,0,0,3.89-.81c3.31-1.31,6.55-2.81,9.84-4.16,2.58-1,2.9-2.09,1.4-4.48-1.29-2.05-2.58-4.11-3.67-6.27a15.61,15.61,0,0,1-1.48-4.51c-.69-4.53,2.91-7.44,7.08-5.5a25.28,25.28,0,0,1,6.79,4.84,35.53,35.53,0,0,1,9.07,14.28c.84,2.52.94,5.28,1.42,8.15,5.84.29,11.95.61,18.08.88,17.81.8,35.62,1.52,53.42,2.42,2.2.12,3.31-.62,3.8-2.51a24.71,24.71,0,0,0,1.18-6.18c0-4.85-1.83-6.89-6.43-8.1L235.48,145.1C232.71,144.38,230,143.62,226.64,142.74Z"/><path class="cls-2" d="M487.49,492c-13-9-27.77-12.52-43.17-13.82-19.27-1.63-36.94,3.24-53.72,13.82Z"/><path class="cls-2" d="M196,162.8c.5,6.75,1.76,13.06,5.35,18.78,3.71,5.89,9.29,8.64,14.89,7.26,4-1,6.77-3.65,9-6.92,6.78-10,6.74-26.31-.09-36.27-3.29-4.81-7.62-7.81-13.78-7.14-6.53.71-10.84,4.39-12.65,10.52C197.38,153.5,196.86,158.2,196,162.8Zm5.55-14.59c1.14,1.61,2.14,2.82,2.94,4.16,5.23,8.7,10.46,17.41,15.6,26.16,2.2,3.74,1.85,4.63-2.23,6.37a11.21,11.21,0,0,1-3.27.86c-5.44.55-10.44-2.75-13.28-8.83-4-8.49-3.7-17.18-1-26A24.79,24.79,0,0,1,201.53,148.21Zm5.11-4.8c5.84-3.34,12.7-1.77,16.84,4.12,5.38,7.65,6.1,16.12,3.73,25-.25.91-.66,1.78-1.08,2.87Z"/><path class="cls-2" d="M233.51,294c8.87-.24,17.51-1.62,25.58-5.56,4.59-2.24,8.71-5.16,10.59-10.13.69-1.85.5-4.08.46-6.14,0-.51-.94-1.35-1.51-1.41A2.27,2.27,0,0,0,267,272c-5.15,10.48-14.45,14.18-25.21,15.31A63.36,63.36,0,0,1,215,284.4a2.22,2.22,0,0,0-3,1.08,2.14,2.14,0,0,0,.5,3.21c1.68,1.13,3.4,2.49,5.3,2.95,5.13,1.23,10.35,2,15.54,3C233.42,294.45,233.47,294.25,233.51,294Z"/><path class="cls-2" d="M492.46,403.5c.91,0,1.88-.07,2.83,0,1.4.14,2-.49,2.37-1.81a45.27,45.27,0,0,0-.83-28.19c-1.72-4.87-4.41-9.42-6.88-14a10.91,10.91,0,0,0-3.26-3.11c-.51-.38-1.39-.26-2.11-.37a5.82,5.82,0,0,0,.11,2.06c1.73,3.71,3.65,7.33,5.32,11.06,4.71,10.5,5.33,21.36,2.59,32.47-.09.37-.19.73-.26,1.11A3.72,3.72,0,0,0,492.46,403.5Z"/><path class="cls-2" d="M272.92,224.79c-1.06,4.38-2.29,8.73-3.15,13.16a114.49,114.49,0,0,0-2,27.16c.07,1.48.15,2.75,2.13,3.17,1,.21,1.85,1.39,3.1,2.4.32-15.42.64-30.57.95-45.72Z"/><path class="cls-2" d="M445.61,474.73,432.8,462.92c-.27,4.2-.54,7.7-.68,11.22a1.52,1.52,0,0,0,1,1.08c4.06.08,8.13,0,12.2,0Z"/><path d="M570.94,441.94a14.51,14.51,0,0,0,3.61-28.59c-1.44-.33-1.73-.89-1.85-2.22-.07-.82-.94-1.58-1.45-2.36-.46.81-1.24,1.58-1.31,2.42-.11,1.27-.45,1.82-1.76,2.11-10.41,2.29-14.27,14.54-8.76,23.44C561.54,440.19,565.68,441.9,570.94,441.94Zm-1.17-25.63c.07.71.18,1.3.18,1.9,0,3.86,0,7.73.07,11.59,0,.57.72,1.13,1.11,1.69.5-.54,1.23-1,1.45-1.64a8.24,8.24,0,0,0,.07-2.49c0-3.68,0-7.37,0-11.05,5.41-.11,10.39,5.43,10.22,11.29A12,12,0,0,1,571,439.24c-7.43,0-11.29-3.87-11.39-11.41C559.53,421.72,564,416.53,569.77,416.31Z"/><path d="M311.65,428.85c2.11,0,4.23.1,6.34-.06.71-.06,1.38-.78,2.06-1.2-.63-.47-1.26-1.34-1.91-1.36q-6.67-.18-13.36,0c-.67,0-1.32.87-2,1.33.68.43,1.34,1.18,2.05,1.23C307.11,429,309.38,428.85,311.65,428.85Z"/><path d="M575.57,152.89a6.24,6.24,0,1,0-.23-12.48c-3.57.09-6,2.83-6,6.61S571.64,153,575.57,152.89Z"/><path d="M559.09,225.3h15.25c1.15,0,2.53.08,2.56-1.51s-1.39-1.55-2.52-1.55q-15.25,0-30.51,0c-1.12,0-2.54-.13-2.55,1.5s1.35,1.55,2.51,1.55Z"/><path d="M550.63,147.07c.16,3.8,2.5,6,6.32,5.84a6.27,6.27,0,0,0-.35-12.53A6.3,6.3,0,0,0,550.63,147.07Zm3,.14c-.12-2.24,1.1-3.69,3.07-3.74a3.08,3.08,0,0,1,3.23,3.05,3.17,3.17,0,0,1-3.21,3.35C555,149.85,553.65,149.24,553.68,147.21Z"/><path d="M539.41,140.4a6.25,6.25,0,0,0-6.28,6.38c0,3.8,2.29,6.14,6,6.15a6.27,6.27,0,0,0,.25-12.53Zm-.3,9.43a2.76,2.76,0,0,1-3-2.9,3.38,3.38,0,0,1,3.17-3.47,3.19,3.19,0,1,1-.13,6.37Z"/><path d="M565.07,243c3.17,0,6.35.11,9.52-.06.81,0,1.57-.95,2.36-1.46-.77-.53-1.54-1.52-2.32-1.54q-9.63-.18-19.27,0c-.76,0-1.49,1-2.24,1.6.73.48,1.45,1.35,2.2,1.39C558.56,243.13,561.82,243,565.07,243Z"/><path d="M394.09,200.92c.46,4.14,5.73,7.73,9.41,6.32a1.64,1.64,0,0,0,.91-1.3,1.76,1.76,0,0,0-1.14-1.13c-1.08-.32-2.38-.13-3.31-.66s-2.44-1.72-2.52-2.7,1.17-2.25,2.14-3a7.08,7.08,0,0,1,3.43-1.08c2.19-.19,2.71-1.32,2.62-3.33-.14-3.18.05-6.37-.1-9.55,0-.74-.84-1.44-1.3-2.17-.44.76-1.21,1.49-1.25,2.27-.16,2.64-.14,5.3,0,8,.06,1.47-.39,2.1-1.88,2.49a11.44,11.44,0,0,0-4.45,2.11C395.5,198.1,394.91,199.64,394.09,200.92Z"/><path d="M430,184.19c-3.56,1.45-7,2.79-10.34,4.31-.47.21-.53,1.34-.78,2,.67.09,1.42.44,2,.24q4.71-1.59,9.32-3.44c.63-.25,1-1.05,1.55-1.6Z"/><path d="M395.08,187.65c-.87-1.28-1.38-2.74-2.4-3.31-.69-.39-2.95.33-3,.76a16.81,16.81,0,0,0,.24,5.83c.07.37,2.43.82,3.14.35C394,190.66,394.3,189.16,395.08,187.65Z"/><path d="M420.24,221.94c3.36-.07,6.71-2.82,7-5.48,0-.53-.46-1.12-.7-1.68-.61.3-1.65.49-1.75.9-.56,2.44-2.44,3-4.45,3.69-.54.17-1.26,1-1.21,1.45S420,221.73,420.24,221.94Z"/><path d="M423.06,174.76c1,.82,1.43,1.36,2,1.55a35.93,35.93,0,0,0,5.17,1.5c.59.11,1.33-.55,2-.86-.33-.51-.55-1.3-1-1.47a39,39,0,0,0-5.59-1.67C425,173.69,424.3,174.28,423.06,174.76Z"/><path d="M393.4,170.06c-1.88,1.27-3.63,2.4-5.3,3.65a1.41,1.41,0,0,0,0,1.39,1.71,1.71,0,0,0,1.52.4,44.61,44.61,0,0,0,4.6-2.86,1.48,1.48,0,0,0,.49-1.31C394.56,170.87,394,170.56,393.4,170.06Z"/><path d="M201.53,148.21a24.79,24.79,0,0,0-1.29,2.77c-2.65,8.77-2.93,17.46,1,26,2.84,6.08,7.84,9.38,13.28,8.83a11.21,11.21,0,0,0,3.27-.86c4.08-1.74,4.43-2.63,2.23-6.37-5.14-8.75-10.37-17.46-15.6-26.16C203.67,151,202.67,149.82,201.53,148.21Z"/><path d="M206.64,143.41l19.49,32c.42-1.09.83-2,1.08-2.87,2.37-8.86,1.65-17.33-3.73-25C219.34,141.64,212.48,140.07,206.64,143.41Z"/><path class="cls-2" d="M569.77,416.31c-5.78.22-10.24,5.41-10.16,11.52.1,7.54,4,11.4,11.39,11.41a12,12,0,0,0,11.88-11.64c.17-5.86-4.81-11.4-10.22-11.29,0,3.68,0,7.37,0,11.05a8.24,8.24,0,0,1-.07,2.49c-.22.63-1,1.1-1.45,1.64-.39-.56-1.09-1.12-1.11-1.69-.1-3.86,0-7.73-.07-11.59C570,417.61,569.84,417,569.77,416.31Z"/><path class="cls-2" d="M553.68,147.21c0,2,1.31,2.64,3.09,2.66a3.17,3.17,0,0,0,3.21-3.35,3.08,3.08,0,0,0-3.23-3.05C554.78,143.52,553.56,145,553.68,147.21Z"/><path class="cls-2" d="M539.11,149.83a3.19,3.19,0,1,0,.13-6.37,3.38,3.38,0,0,0-3.17,3.47A2.76,2.76,0,0,0,539.11,149.83Z"/><path class="cls-3" d="M343.07,377.22V139.62c0-34.79,33.6-59,65.42-47.18l197,73.34c19.32,7.2,32.19,26.06,32.19,47.19V441.83c0,34-32.15,58.13-63.64,47.8l-197-64.6C356.81,418.39,343.07,399.06,343.07,377.22Z"/></g></svg>