<svg fill="none" xmlns="http://www.w3.org/2000/svg" viewBox="81.97 0 49.05 49">
<path d="M106.5 48.9999C102.796 49.0103 99.1384 48.1722 95.8083 46.5498C94.5896 45.957 93.4219 45.2646 92.3171 44.4796L91.9814 44.2346C88.943 41.9919 86.4589 39.0828 84.7197 35.7307C82.9208 32.2612 81.9878 28.408 82.0001 24.4999C82.0001 10.969 92.9692 0 106.5 0C120.031 0 131 10.969 131 24.4999C131.012 28.4062 130.08 32.2575 128.283 35.7258C126.546 39.076 124.065 41.9841 121.031 44.2272C119.886 45.0651 118.671 45.8029 117.4 46.4322L117.204 46.5302C113.872 48.1612 110.21 49.0061 106.5 48.9999ZM106.5 36.7498C102.829 36.7427 99.4628 38.7932 97.7854 42.059C103.277 44.7789 109.723 44.7789 115.215 42.059V42.0467C113.535 38.7845 110.169 36.7386 106.5 36.7498ZM106.5 31.8499C111.807 31.8568 116.7 34.7166 119.311 39.337L119.348 39.3052L119.382 39.2758L119.34 39.3125L119.316 39.3321C125.512 33.9792 127.727 25.3386 124.872 17.6647C122.016 9.99076 114.691 4.90075 106.502 4.90075C98.3144 4.90075 90.9892 9.99076 88.1334 17.6647C85.2776 25.3386 87.4931 33.9792 93.6891 39.3321C96.3014 34.714 101.194 31.8563 106.5 31.8499ZM106.5 29.3999C101.088 29.3999 96.7001 25.0123 96.7001 19.5999C96.7001 14.1876 101.088 9.79996 106.5 9.79996C111.912 9.79996 116.3 14.1876 116.3 19.5999C116.3 22.199 115.267 24.6917 113.43 26.5295C111.592 28.3674 109.099 29.3999 106.5 29.3999ZM106.5 14.6999C103.794 14.6999 101.6 16.8937 101.6 19.5999C101.6 22.3061 103.794 24.4999 106.5 24.4999C109.206 24.4999 111.4 22.3061 111.4 19.5999C111.4 16.8937 109.206 14.6999 106.5 14.6999Z" fill="#151217" style="--darkreader-inline-fill: #110e12;"/>
</svg>