<?xml version="1.0" encoding="utf-8"?>
<!-- Generator: Adobe Illustrator 25.4.1, SVG Export Plug-In . SVG Version: 6.00 Build 0)  -->
<svg version="1.1" id="Layer_1" xmlns="http://www.w3.org/2000/svg" xmlns:xlink="http://www.w3.org/1999/xlink" x="0px" y="0px"
	 viewBox="0 0 572.9 228" style="enable-background:new 0 0 572.9 228;" xml:space="preserve">
<style type="text/css">
	.st0{fill:#2630EA;}
</style>
<g>
	<g>
		<g>
			<path class="st0" d="M95,127c-1.7,3.8-2.7,5.8-3.5,7.9c-9.6,24.5-19.3,49-28.7,73.7c-2.8,7.3-7,10.6-14.6,10.9
				c-10.3,0.5-20.7,1.8-31,2.7c-8.6,0.8-9.5-0.3-6.3-8.5c11.9-30.7,24-61.3,35.9-92C56.4,97.4,66,73,75.2,48.6
				c2.7-7.3,6.9-10.8,14.5-11.3c10.3-0.6,20.8-1.7,31-3.2c7-1.1,10.2,1.6,12.3,7.8c7.7,22.9,15.7,45.7,23.7,68.5
				c0.8,2.2,1.8,4.4,3.3,8.3c4.5-11.4,8.9-22.9,13.4-34.3c6.4-16.5,12.9-33,19.1-49.6c2.3-6,5.9-8.9,12-9.4c11-1,22-2.3,33-3.4
				c8.4-0.8,9.3,0.4,6,8.9c-19.2,50.1-38.5,100.2-57.9,150.2c-2.5,6.5-5.1,12.9-7.5,19.3c-1.8,4.8-5,7.4-10,7.9
				c-12.4,1.1-24.8,2.2-37.2,3.5c-5.7,0.6-7.3-2.9-8.8-7.2c-7.8-22.9-15.6-45.7-23.5-68.5C97.9,133.4,96.7,131,95,127z"/>
			<path class="st0" d="M316,105.9c-1.9-0.2-3-0.4-4.1-0.4c-10.8,0.4-11,0.1-6.8-10.8c2.6-6.8,5.4-13.4,7.7-20.3
				c2.1-6.4,5.9-9.9,12.4-9.6c5.4,0.3,8.4-2.2,10.2-7.8c2.4-7.5,5.9-14.8,8.5-22.3c1.9-5.6,5.2-8.3,10.8-8.8
				c10.3-0.9,20.6-2.2,30.9-3.1c6.8-0.6,7.8,0.8,5.4,7.5c-3.5,9.7-7.2,19.3-10.9,28.9c7.8-0.8,14.3-1.5,20.8-2.1
				c3-0.3,6-0.6,8.9-0.9c4.2-0.4,5.3,1.9,4,5.6c-3.6,9.9-7.3,20.1-11.8,29.7c-1.3,2.7-5.7,5-8.9,5.6c-7.7,1.4-15.6,1.6-23.4,2.7
				c-2.2,0.3-5.6,1.7-6.3,3.4c-6.6,16.3-12.7,32.7-18.9,49.1c9.2-0.9,16.8-1.6,24.5-2.3c15.6-1.5,15.6-1.5,9.5,13.9
				c-2.5,6.3-5,12.6-7.2,18.9c-1.7,4.8-4.7,7.1-9.4,7.5c-15.1,1.4-30.2,2.9-45.4,4c-18.1,1.7-28.9-13.7-21.9-30.3
				c6-17,12.5-33.8,18.8-50.7C314.4,111.2,315.1,108.7,316,105.9z"/>
			<path class="st0" d="M453.9,154.1c-6.6,7.4-13.3,14.8-19.6,22.4c-4.6,5.7-9.8,8.6-16.9,8.9c-12.9,0.9-25.7,2.2-38.5,3.4
				c-2.4,0.2-9.7,0.8-9.7,0.8s5-5.6,6.6-7.3c19.3-18.9,38.4-38.1,58-56.6c5.8-5.5,7.4-9.9,4.6-17.2c-5.6-15.2-10.6-30.5-15.9-45.8
				c-2.1-5.7,0-7.8,5.4-8.3c14.4-1.4,28.9-2.8,43.3-4.4c4.6-0.5,7,1.4,8.4,5.8c12.2,37.7,24.4,75.4,36.8,113.1
				c1.7,5.1-0.3,7.2-5,7.7c-15.6,1.5-31.2,2.9-46.7,4.4c-4.4,0.4-6.7-1.6-7.4-6C456.5,168.8,455.4,162.7,453.9,154.1z"/>
			<path class="st0" d="M229,202.7c-5.5,0.5-11,0.9-16.5,1.5c-5.9,0.7-7.3-1.7-5.1-7.3c8-20.5,15.9-41.1,23.8-61.6
				c7.1-18.3,14.2-36.7,21.1-55.1c2.2-6,5.6-9,11.9-9.4c9.9-0.6,19.8-1.9,29.6-2.9c8.2-0.8,9.1,0.3,6,8.3
				c-12.6,33-25.3,65.9-38,98.9c-2.3,6-4.8,12-7,18.1c-1.9,5.2-5.2,7.7-10.5,8C239,201.6,234,202.2,229,202.7z"/>
			<path class="st0" d="M568.3,41.5c-2.4,2.9-3.9,4.9-5.5,6.6c-16.2,16.4-32.3,32.7-48.6,49c-5.7,5.7-7.5,5.4-10.1-1.7
				c-2.6-7.1-5.1-14.2-7.6-21.3c-0.5-1.5-1.2-3.4-1-4.7c1.7-8.4,13.3-21.7,21.9-23.8c13.3-3.2,31.2-3.2,46.8-4.7
				C565.1,40.7,565.9,41.1,568.3,41.5z"/>
			<path class="st0" d="M284.9,56.3c-5.5,0.6-11,1-16.5,1.7c-5,0.7-7-1.4-5.2-6.3c3.2-9,6.6-18.1,10.7-26.8c1.2-2.6,5.3-5.4,8.1-5.8
				c11.1-1.6,22.5-2.6,33.7-3.8c5.2-0.6,6.5,1.9,4.7,6.7c-3.2,8.7-6.4,17.8-10.5,26.2c-1.3,2.8-5.4,5.3-8.5,6.1
				C296,55.8,290.4,55.7,284.9,56.3z"/>
		</g>
	</g>
</g>
</svg>
